<svg width="22" height="22" viewBox="0 0 22 22" fill="none" xmlns="http://www.w3.org/2000/svg">
<path fill-rule="evenodd" clip-rule="evenodd" d="M10.9996 20.5556C16.277 20.5556 20.5552 16.2774 20.5552 11C20.5552 5.72263 16.277 1.44446 10.9996 1.44446C5.72223 1.44446 1.44406 5.72263 1.44406 11C1.44406 16.2774 5.72223 20.5556 10.9996 20.5556ZM10.1107 7.44446C10.1107 6.95354 10.5087 6.55557 10.9996 6.55557C11.4905 6.55557 11.8885 6.95354 11.8885 7.44446V10.1111H14.5552C15.0461 10.1111 15.4441 10.5091 15.4441 11C15.4441 11.4909 15.0461 11.8889 14.5552 11.8889H11.8885V14.5556C11.8885 15.0465 11.4905 15.4445 10.9996 15.4445C10.5087 15.4445 10.1107 15.0465 10.1107 14.5556V11.8889H7.44406C6.95314 11.8889 6.55517 11.4909 6.55517 11C6.55517 10.5091 6.95314 10.1111 7.44406 10.1111H10.1107V7.44446Z" fill="white"/>
</svg>
