<svg width="24" height="24" viewBox="0 0 24 24" fill="none" xmlns="http://www.w3.org/2000/svg">
<path d="M9.11599 4.27405C9.29399 4.29705 9.382 4.30904 9.451 4.36904C9.52 4.42904 9.563 4.54306 9.551 4.63406C9.539 4.72506 9.467 4.80704 9.322 4.97004L7.76101 6.72805C6.41301 8.24505 6.41301 10.608 7.76101 12.125C8.88701 13.392 10.76 13.7061 12.269 12.9081C12.541 12.7641 12.678 12.692 12.786 12.717C12.895 12.742 12.976 12.851 13.138 13.07L14.595 15.038C14.986 15.566 15.355 16.066 15.706 16.466C15.771 16.541 15.839 16.615 15.909 16.689C16.02 16.806 16.02 16.9911 15.905 17.1031C15.131 17.8511 14.502 18.459 13.938 18.889C13.349 19.337 12.588 19.66 11.895 19.743C11.199 19.793 10.568 19.6041 9.902 19.2771C9.262 18.9621 8.485 18.462 7.573 17.874C6.575 17.23 6.191 16.991 5.77 16.863C5.344 16.743 4.821 16.718 3.621 16.718H3.59399C3.32699 16.718 3.082 16.7181 2.878 16.7011C2.658 16.6821 2.417 16.639 2.18 16.514C1.871 16.35 1.618 16.0971 1.454 15.7871C1.329 15.5511 1.28599 15.31 1.26699 15.09C1.24999 14.885 1.25 14.641 1.25 14.374L1.25 8.95606C1.25 8.52306 1.24999 8.12705 1.29299 7.80405C1.34099 7.44805 1.45399 7.07304 1.76299 6.76304C2.07199 6.45404 2.447 6.34204 2.803 6.29404C3.126 6.25104 3.522 6.25105 3.955 6.25105L4.86499 6.25105C5.33299 6.25105 5.82499 6.02006 6.21799 5.53206C6.95499 4.61206 8.02799 4.13405 9.11599 4.27405Z" fill="url(#paint0_linear_797_4473)"/>
<path opacity="0.4" d="M17.1962 15.8541C17.4072 16.0511 17.6303 16.2181 17.8863 16.3531C18.6423 16.7521 19.4942 16.7511 20.6762 16.7501L21.2172 16.7371C22.0112 16.6381 22.6373 16.0111 22.7373 15.2171C22.7503 15.1071 22.7502 14.9871 22.7502 14.8721V9.18911C22.7502 8.75611 22.7502 8.36013 22.7072 8.03713C22.6592 7.68113 22.5463 7.30611 22.2373 6.99711C21.9283 6.68711 21.5532 6.57512 21.1972 6.52712C20.8742 6.48412 20.4782 6.48413 20.0452 6.48413L19.4833 6.48413C18.7363 6.48413 18.1713 6.10012 17.4333 5.35512C16.8163 4.73212 15.8872 4.34311 15.0272 4.29111C14.3472 4.24811 13.4302 4.19012 12.6232 4.40312L12.5853 4.41311C11.5733 4.69111 10.9122 5.43712 10.3922 6.02312L8.88225 7.72312C8.03925 8.67312 8.03925 10.1791 8.88225 11.1281C9.64225 11.9831 10.8782 12.1361 11.8022 11.4431C11.9302 11.3471 12.1072 11.1971 12.2222 11.1001C12.3212 11.0161 12.4132 10.9381 12.5072 10.8631C12.6762 10.7021 13.0973 10.4941 13.4333 10.9461L15.7712 14.1061C16.1862 14.6661 16.5243 15.1231 16.8343 15.4761C16.9533 15.6121 17.0722 15.7381 17.1962 15.8541Z" fill="url(#paint1_linear_797_4473)"/>
<defs>
<linearGradient id="paint0_linear_797_4473" x1="1.24977" y1="19.7509" x2="16.7313" y2="5.02763" gradientUnits="userSpaceOnUse">
<stop stop-color="white"/>
<stop offset="1" stop-color="#2E3238"/>
</linearGradient>
<linearGradient id="paint1_linear_797_4473" x1="8.24977" y1="16.7501" x2="20.6136" y2="2.40807" gradientUnits="userSpaceOnUse">
<stop stop-color="white"/>
<stop offset="1" stop-color="#2E3238"/>
</linearGradient>
</defs>
</svg>
