<svg width="56" height="57" viewBox="0 0 56 57" fill="none" xmlns="http://www.w3.org/2000/svg">
<path d="M33.25 47.979V49.146C33.25 51.4011 31.422 53.2288 29.167 53.229H24.5C22.2448 53.229 20.417 51.4012 20.417 49.146V47.979H33.25ZM38.5 3.06299C39.2323 3.06299 39.8875 3.5188 40.1416 4.20557L40.7432 5.83154C41.5878 8.11407 41.8572 8.73455 42.3008 9.17822C42.7444 9.62189 43.3649 9.8912 45.6475 10.7358L47.2744 11.3384C47.9608 11.5926 48.4169 12.247 48.417 12.979C48.417 13.7111 47.961 14.3664 47.2744 14.6206L45.6475 15.2222C43.365 16.0668 42.7445 16.3362 42.3008 16.7798C41.8571 17.2234 41.5878 17.844 40.7432 20.1265L40.1416 21.7534C39.8875 22.4402 39.2323 22.896 38.5 22.896C37.7677 22.896 37.1125 22.4402 36.8584 21.7534L36.2568 20.1265C35.4122 17.844 35.1429 17.2234 34.6992 16.7798C34.2555 16.3362 33.635 16.0668 31.3525 15.2222L29.7256 14.6206C29.039 14.3664 28.583 13.7111 28.583 12.979C28.5831 12.247 29.0392 11.5926 29.7256 11.3384L31.3525 10.7358C33.6351 9.8912 34.2555 9.62189 34.6992 9.17822C35.1428 8.73455 35.4122 8.11407 36.2568 5.83154L36.8584 4.20557C37.1125 3.5188 37.7677 3.06299 38.5 3.06299Z" fill="white"/>
<path opacity="0.4" d="M33.6988 4.34031C31.5678 3.51492 29.2538 3.0625 26.8333 3.0625C16.1756 3.0625 7.58333 11.8335 7.58333 22.5941C7.58333 29.7256 11.164 35.1303 16.6863 38.4369C16.9077 38.5695 17.0205 38.7528 17.0516 38.9084L17.626 41.78C18.0077 43.6886 19.6835 45.0625 21.63 45.0625H31.8042C33.7507 45.0625 35.4265 43.6886 35.8083 41.78L36.3826 38.9084C36.4139 38.7521 36.5265 38.5702 36.7451 38.4399C42.2566 35.1562 46.0833 29.7673 46.0833 22.5941C46.0833 21.136 45.9256 19.7145 45.6263 18.3463C45.034 18.5737 44.6189 18.7433 44.3698 18.8581C44.1971 19.2329 43.9093 19.9746 43.4785 21.1389L42.8766 22.7653C42.199 24.5967 40.4527 25.8125 38.5 25.8125C36.5473 25.8125 34.801 24.5967 34.1234 22.7653L33.5215 21.1389C33.0907 19.9746 32.7937 19.2055 32.6211 18.8307C32.2897 18.6781 31.6714 18.4496 30.7278 18.1009C30.6042 18.0552 30.475 18.0075 30.3402 17.9576L28.7138 17.3558C26.8825 16.6781 25.6667 14.9319 25.6667 12.9792C25.6667 11.0264 26.8825 9.28019 28.7138 8.60252L30.3402 8.00071C31.5046 7.56985 32.228 7.28201 32.6029 7.10938C32.7755 6.73456 33.0907 5.98377 33.5215 4.81939L33.6988 4.34031Z" fill="white"/>
</svg>
