<svg width="56" height="57" viewBox="0 0 56 57" fill="none" xmlns="http://www.w3.org/2000/svg">
<path opacity="0.4" d="M27.9803 11.1201C31.4454 11.1201 34.4818 11.12 36.6635 11.4134C38.9227 11.7171 40.8025 12.3639 42.2924 13.8538C43.7823 15.3437 44.4291 17.2235 44.7328 19.4826C45.0261 21.6644 45.0261 24.7007 45.0261 28.1659V28.166C45.0261 31.6311 45.0261 34.4092 44.7328 36.5909C44.4291 38.85 43.7823 40.7299 42.2924 42.2198C40.8025 43.7097 38.9227 44.3565 36.6635 44.6602C34.4818 44.9535 31.7037 44.9535 28.2386 44.9535H28.2385C24.7733 44.9535 21.737 44.9535 19.5552 44.6602C17.2961 44.3565 15.4163 43.7097 13.9264 42.2198C12.4365 40.7299 11.7897 38.85 11.486 36.5909C11.1926 34.4092 11.1927 31.6311 11.1927 28.166V28.1659C11.1927 24.7008 11.1926 21.6644 11.486 19.4826C11.7897 17.2235 12.4365 15.3437 13.9264 13.8538C15.4163 12.3639 17.2961 11.7171 19.5552 11.4134C21.7369 11.12 24.5151 11.1201 27.9802 11.1201H27.9803Z" fill="white"/>
<path d="M7.58332 6.56299C7.58332 4.62999 9.15033 3.06299 11.0833 3.06299C12.3788 3.06299 13.5099 3.76684 14.1151 4.81299L21.8399 4.81286C23.2151 4.81184 24.2788 4.81105 25.196 5.08929C27.2468 5.71138 28.8516 7.31622 29.4737 9.36699C29.6332 9.89269 29.701 10.4665 29.7296 11.1195C29.1614 11.118 28.5782 11.118 27.9825 11.118C27.3759 11.118 26.7904 11.118 26.2255 11.1196C26.2071 10.756 26.1761 10.5533 26.1244 10.383C25.8416 9.45082 25.1122 8.72135 24.18 8.43858C23.8286 8.33198 23.3388 8.31299 21.5833 8.31299L14.1151 8.31299C13.5099 9.35914 12.3788 10.063 11.0833 10.063C9.15033 10.063 7.58332 8.49599 7.58332 6.56299Z" fill="white"/>
<path d="M11.1965 26.4097C10.4498 26.4325 9.80547 26.4965 9.22066 26.6739C7.16989 27.296 5.56505 28.9008 4.94296 30.9516C4.66472 31.8688 4.66551 32.9324 4.66653 34.3077L4.66666 42.0325C3.6205 42.6377 2.91666 43.7688 2.91666 45.0643C2.91666 46.9972 4.48366 48.5643 6.41666 48.5643C8.34965 48.5643 9.91666 46.9972 9.91666 45.0643C9.91666 43.7688 9.21281 42.6377 8.16666 42.0325L8.16666 34.5642C8.16666 32.8088 8.18565 32.319 8.29225 31.9676C8.57502 31.0354 9.30449 30.3059 10.2367 30.0232C10.439 29.9618 10.6872 29.9295 11.1965 29.9131C11.195 29.3509 11.195 28.7683 11.195 28.1649C11.195 27.5663 11.195 26.9805 11.1965 26.4097Z" fill="white"/>
<path d="M26.2637 44.9488C26.2864 45.6957 26.3504 46.3403 26.5279 46.9252C27.15 48.976 28.7548 50.5809 30.8056 51.203C31.7228 51.4812 32.7864 51.4804 34.1617 51.4794L41.8865 51.4793C42.4916 52.5254 43.6227 53.2293 44.9182 53.2293C46.8512 53.2293 48.4182 51.6623 48.4182 49.7293C48.4182 47.7963 46.8512 46.2293 44.9182 46.2293C43.6227 46.2293 42.4916 46.9331 41.8865 47.9793H34.4182C32.6627 47.9793 32.173 47.9603 31.8216 47.8537C30.8894 47.5709 30.1599 46.8414 29.8771 45.9092C29.8158 45.707 29.7835 45.4589 29.7671 44.9499C29.2767 44.9509 28.771 44.9509 28.2498 44.9509H28.2422C27.5653 44.9509 26.9047 44.951 26.2637 44.9488Z" fill="white"/>
<path fill-rule="evenodd" clip-rule="evenodd" d="M24.1394 20.5627C22.7065 20.5627 21.3258 21.4401 20.8567 22.8922L17.4485 33.4414C17.1514 34.3611 17.656 35.3475 18.5757 35.6446C19.4954 35.9418 20.4819 35.4371 20.779 34.5174L21.5182 32.2294H26.7606L27.4998 34.5174C27.7969 35.4371 28.7833 35.9418 29.703 35.6446C30.6227 35.3475 31.1274 34.3611 30.8303 33.4414L27.4221 22.8922C26.953 21.4401 25.5722 20.5627 24.1394 20.5627ZM24.1402 24.1151L25.6306 28.7283H22.6497L24.1402 24.1151Z" fill="white"/>
<path d="M36.748 22.3127C36.748 21.3462 35.9645 20.5627 34.998 20.5627C34.0315 20.5627 33.248 21.3462 33.248 22.3127V33.9794C33.248 34.9459 34.0315 35.7294 34.998 35.7294C35.9645 35.7294 36.748 34.9459 36.748 33.9794V22.3127Z" fill="white"/>
<path d="M46.0826 11.2294C46.0826 9.29637 47.6496 7.72937 49.5826 7.72937C51.5156 7.72937 53.0826 9.29637 53.0826 11.2294C53.0826 12.5249 52.3788 13.656 51.3326 14.2611L51.3328 21.9859C51.3338 23.3612 51.3346 24.4248 51.0563 25.342C50.4342 27.3928 48.8294 28.9976 46.7786 29.6197C46.2529 29.7792 45.6792 29.847 45.0262 29.8757C45.0276 29.3246 45.0276 28.754 45.0276 28.1635C45.0276 27.5521 45.0276 26.9539 45.026 26.3715C45.3896 26.3532 45.5924 26.3221 45.7626 26.2704C46.6948 25.9877 47.4243 25.2582 47.707 24.326C47.8136 23.9746 47.8326 23.4848 47.8326 21.7294V14.2611C46.7865 13.656 46.0826 12.5249 46.0826 11.2294Z" fill="white"/>
</svg>
