<svg width="17" height="16" viewBox="0 0 17 16" fill="none" xmlns="http://www.w3.org/2000/svg">
<path d="M4.47439 3.99982C4.32198 4.16417 4.23745 4.38101 4.18427 4.56561C4.12754 4.76254 4.08886 4.9878 4.06177 5.21976C4.00749 5.68462 3.99392 6.22972 3.99833 6.73989C4.00276 7.25296 4.02556 7.74441 4.04712 8.10664C4.05792 8.28806 4.06846 8.4378 4.07633 8.54251C4.08026 8.59488 4.08353 8.63603 4.08583 8.6643L4.08852 8.69684L4.08926 8.70549L4.08955 8.70884C4.11351 8.98394 4.35596 9.18753 4.63106 9.16356C4.90614 9.1396 5.10969 8.8968 5.08575 8.62171L5.0856 8.62004L5.08498 8.61276L5.08253 8.58309C5.08038 8.55679 5.07728 8.51775 5.07352 8.46761C5.06598 8.36731 5.05581 8.22278 5.04536 8.04721C5.02441 7.69544 5.00253 7.22196 4.99829 6.73126C4.99403 6.23767 5.0078 5.74018 5.05502 5.33574C5.05767 5.31303 5.06041 5.29078 5.06324 5.269L12.1466 12.3524C12.3419 12.5476 12.6585 12.5476 12.8537 12.3524C13.049 12.1571 13.049 11.8405 12.8537 11.6453L5.7687 4.56025C5.77827 4.55907 5.78794 4.55791 5.7977 4.55677C6.19758 4.50991 6.69787 4.49591 7.19786 4.49975C7.69473 4.50357 8.17726 4.52483 8.53659 4.54525C8.71594 4.55545 8.86387 4.56539 8.96665 4.57276C9.01803 4.57645 9.05808 4.57948 9.08509 4.58159L9.11559 4.584L9.12525 4.58478C9.40043 4.60764 9.64205 4.4031 9.66492 4.12792C9.6878 3.85273 9.48293 3.61106 9.20773 3.58819L9.20467 3.58794L9.19587 3.58722L9.16263 3.5846C9.13375 3.58235 9.09169 3.57916 9.03818 3.57532C8.9312 3.56765 8.77829 3.55738 8.59334 3.54686C8.22406 3.52587 7.72413 3.50377 7.20555 3.49978C6.69009 3.49582 6.14195 3.50959 5.68131 3.56357C5.4518 3.59046 5.22881 3.62901 5.03607 3.68623C4.86043 3.73837 4.63484 3.82679 4.47439 3.99982Z" fill="#1E874C"/>
</svg>
