<svg width="17" height="12" viewBox="0 0 17 12" fill="none" xmlns="http://www.w3.org/2000/svg">
<path d="M0.556641 5.99966C0.556643 6.33172 0.703889 6.63977 0.843325 6.87109C0.993793 7.1207 1.19615 7.37841 1.41814 7.62968C1.86346 8.13375 2.44452 8.67506 3.00841 9.16472C3.5756 9.65726 4.14084 10.1108 4.56308 10.4404C4.77456 10.6054 4.95098 10.74 5.0749 10.8336C5.13687 10.8805 5.18576 10.9171 5.21938 10.9421L5.25811 10.9709L5.26838 10.9785L5.27195 10.9811C5.56839 11.1995 5.98611 11.1365 6.20448 10.84C6.42284 10.5436 6.35956 10.1263 6.06314 9.90793L6.05183 9.89956L6.01623 9.8731C5.98475 9.84963 5.93815 9.81475 5.8786 9.76976C5.75946 9.67976 5.58866 9.54945 5.38348 9.3893C4.9724 9.06843 4.42653 8.63031 3.88263 8.15799C3.33541 7.6828 2.80536 7.18607 2.41736 6.74689C2.39282 6.71911 2.36907 6.69181 2.34612 6.66501L15.4455 6.665C15.8137 6.665 16.1122 6.36653 16.1122 5.99834C16.1122 5.63015 15.8137 5.33167 15.4455 5.33167L2.34837 5.33167C2.37063 5.30571 2.39362 5.27929 2.41736 5.25242C2.80536 4.81325 3.33541 4.31651 3.88263 3.84132C4.42653 3.36901 4.97239 2.93088 5.38347 2.61002C5.58866 2.44986 5.75946 2.31955 5.87859 2.22955C5.93815 2.18456 5.98474 2.14968 6.01623 2.12621L6.05183 2.09975L6.06314 2.09138C6.35955 1.87301 6.42283 1.4557 6.20448 1.15926C5.98611 0.862818 5.56839 0.799805 5.27195 1.01817L5.26838 1.0208L5.25811 1.02841L5.21938 1.05719C5.18576 1.08225 5.13687 1.11885 5.0749 1.16567C4.95098 1.25928 4.77456 1.39389 4.56308 1.55895C4.14084 1.88853 3.5756 2.34205 3.0084 2.83459C2.44452 3.32425 1.86346 3.86557 1.41814 4.36963C1.19615 4.6209 0.993792 4.87861 0.843324 5.12823C0.704727 5.35815 0.558412 5.66391 0.556656 5.99368" fill="url(#paint0_linear_601_2573)"/>
<defs>
<linearGradient id="paint0_linear_601_2573" x1="0.556398" y1="11.1111" x2="9.9405" y2="-3.1679" gradientUnits="userSpaceOnUse">
<stop stop-color="#12120F"/>
<stop offset="1" stop-color="#2E3238"/>
</linearGradient>
</defs>
</svg>
