<svg width="56" height="57" viewBox="0 0 56 57" fill="none" xmlns="http://www.w3.org/2000/svg">
<path opacity="0.4" d="M24.7566 3.83254C25.83 3.36587 26.8333 3.0625 27.9766 3.0625C29.12 3.0625 30.1233 3.36587 31.1967 3.83254C32.2 4.27587 33.3667 4.9292 34.7667 5.72253L38.99 8.10244C40.4367 8.9191 41.65 9.5959 42.5833 10.2726C43.5633 10.9726 44.38 11.7192 44.9633 12.7225C45.5466 13.7259 45.8033 14.7991 45.92 16.0125C46.0367 17.1558 46.0366 18.5324 46.0366 20.2124V24.4358C46.0366 26.1158 46.0367 27.4925 45.92 28.6359C45.8033 29.8259 45.5466 30.8992 44.9633 31.9258C44.38 32.9292 43.5633 33.6758 42.5833 34.3758C41.65 35.0291 40.4367 35.7058 38.99 36.5458L34.7667 38.9258C33.3667 39.7192 32.2 40.3725 31.1967 40.8158C30.1233 41.2825 29.12 41.5859 27.9766 41.5859C26.8333 41.5859 25.83 41.2825 24.7566 40.8158C23.7533 40.3725 22.5866 39.7192 21.1866 38.9258L16.9633 36.5458C15.5166 35.7291 14.3033 35.0525 13.37 34.3758C12.39 33.6758 11.5733 32.9292 10.99 31.9258C10.4067 30.9225 10.15 29.8492 10.0333 28.6359C9.91664 27.4925 9.91667 26.1158 9.91667 24.4358V20.2124C9.91667 18.5324 9.91664 17.1558 10.0333 16.0125C10.15 14.8225 10.4067 13.7492 10.99 12.7225C11.5733 11.7192 12.39 10.9726 13.37 10.2726C14.3033 9.61923 15.5166 8.94244 16.9633 8.10244L21.1866 5.72253C22.5866 4.9292 23.7533 4.27587 24.7566 3.83254Z" fill="white"/>
<path d="M35.6766 19.8621C36.8899 19.4888 37.59 18.1821 37.1933 16.9454H37.2166C36.8433 15.7321 35.5366 15.032 34.3 15.4287C31.1966 16.4087 28.21 19.1621 26.2033 21.3088C25.5733 21.9854 25.0133 22.6154 24.5233 23.1988C24.1033 22.8021 23.6833 22.4987 23.2866 22.2654C22.75 21.9387 22.0033 21.542 21 21.542C19.7167 21.542 18.6667 22.592 18.6667 23.8754C18.6667 25.0654 19.5766 26.0687 20.7433 26.1853C21.0466 26.302 21.7467 26.8621 22.4467 28.1221C22.8433 28.8221 23.5667 29.2654 24.36 29.3121C25.1533 29.3587 25.9233 28.9854 26.39 28.3321C26.95 27.6088 28.63 25.4854 29.5866 24.4821C31.57 22.3587 33.8333 20.4454 35.6766 19.8621Z" fill="white"/>
<path fill-rule="evenodd" clip-rule="evenodd" d="M14.1374 34.8787L14.14 34.8659H14.1167C14.1235 34.8701 14.1304 34.8744 14.1374 34.8787ZM14.1374 34.8787L12.7166 41.7025C12.6586 41.9869 12.6013 42.2654 12.5452 42.5381C12.1502 44.4582 11.8155 46.0853 11.7133 47.3725C11.5733 48.7959 11.5967 50.5926 12.8334 51.9459C13.4867 52.6459 14.3033 53.0892 15.26 53.1825C16.1 53.2758 16.9167 53.0893 17.57 52.8559C18.7538 52.4462 20.2041 51.6587 21.7909 50.7972L21.91 50.7325L27.3933 47.7226C27.58 47.6059 28.07 47.4426 28.5834 47.7226L34.0666 50.7325L34.185 50.7968C35.7721 51.6585 37.2227 52.4461 38.4067 52.8559C39.06 53.0893 39.8533 53.2758 40.7166 53.1825C41.65 53.0892 42.49 52.6692 43.1433 51.9459C44.38 50.5926 44.4034 48.7959 44.2634 47.3725C44.1285 45.9561 43.7552 44.128 43.3107 41.951C43.2939 41.8687 43.277 41.7859 43.26 41.7025L41.8367 34.8659C41.0725 35.3603 40.1785 35.8548 39.1337 36.4327L39.0134 36.4992L37.5666 37.3159L38.6633 42.5191C38.6962 42.6774 38.7283 42.8323 38.7598 42.9838C39.2204 45.1997 39.5326 46.702 39.62 47.8159C39.62 47.9315 39.6271 48.04 39.6334 48.1375C39.6386 48.2172 39.6433 48.2896 39.6433 48.3525C38.8854 48.0539 37.8336 47.4842 36.1987 46.5986L36.12 46.5559L30.7533 43.6159C30.38 43.4059 29.9834 43.1959 29.61 43.0326C29.19 42.8459 28.63 42.6591 27.9767 42.6591C27.3233 42.6591 26.7633 42.8459 26.3433 43.0326C25.97 43.1959 25.5733 43.4059 25.2 43.6159L19.8334 46.5559L19.7547 46.5985C18.1197 47.4842 17.0679 48.0539 16.31 48.3525C16.31 48.2125 16.31 48.0259 16.3334 47.8159C16.45 46.6259 16.7767 44.9925 17.29 42.5191L18.3867 37.3159L16.94 36.4992C16.8523 36.4497 16.7653 36.4006 16.6792 36.3519C15.7205 35.8103 14.8615 35.3251 14.1374 34.8787Z" fill="white"/>
</svg>
