<svg width="18" height="19" viewBox="0 0 18 19" fill="none" xmlns="http://www.w3.org/2000/svg">
<path opacity="0.4" fill-rule="evenodd" clip-rule="evenodd" d="M2.61047 4.59336C1.86179 5.01002 1.5 5.55982 1.5 6.45695C1.5 6.70023 1.5 6.82186 1.52657 6.92186C1.66614 7.44723 2.1422 7.53015 2.60196 7.53015H3V13.9052H3.75C2.50736 13.9052 1.5 14.9125 1.5 16.1552C1.5 16.3623 1.66789 16.5302 1.875 16.5302H16.125C16.3321 16.5302 16.5 16.3623 16.5 16.1552C16.5 14.9125 15.4926 13.9052 14.25 13.9052H15V7.53015H15.398C15.8578 7.53015 16.3339 7.44724 16.4734 6.92186C16.5 6.82186 16.5 6.70023 16.5 6.45695C16.5 5.55982 16.1382 5.01002 15.3895 4.59336L12.3076 2.87823C10.6927 1.97951 9.88521 1.53015 9 1.53015C8.11479 1.53015 7.30733 1.97951 5.6924 2.87823L2.61047 4.59336ZM12 13.9052V7.53015H6V13.9052H12Z" fill="#F8F9F9"/>
<path d="M8.24702 5.28015C8.24702 4.86594 8.58281 4.53015 8.99702 4.53015H9.00376C9.41797 4.53015 9.75376 4.86594 9.75376 5.28015C9.75376 5.69437 9.41797 6.03015 9.00376 6.03015H8.99702C8.58281 6.03015 8.24702 5.69437 8.24702 5.28015Z" fill="#F8F9F9"/>
<path fill-rule="evenodd" clip-rule="evenodd" d="M7.39481 1.3517C7.95085 1.10882 8.45337 0.967651 9.00012 0.967651C9.54687 0.967651 10.0494 1.10882 10.6054 1.3517C11.1447 1.58724 11.77 1.93526 12.5566 2.37299L15.6632 4.10185C16.0955 4.34243 16.4573 4.64461 16.7058 5.05204C16.9556 5.46151 17.0626 5.93064 17.0626 6.45695L17.0627 6.50651C17.063 6.69811 17.0634 6.89244 17.0172 7.06629C16.901 7.50375 16.624 7.78572 16.2848 7.93683C16.0426 8.04478 15.7837 8.0795 15.5626 8.08926V13.667C16.4547 14.1386 17.0626 15.0759 17.0626 16.1552C17.0626 16.6729 16.6429 17.0927 16.1251 17.0927H1.87514C1.35737 17.0927 0.937637 16.6729 0.937637 16.1552C0.937637 15.0759 1.54555 14.1386 2.43764 13.667V8.08926C2.21658 8.07951 1.95769 8.04478 1.7154 7.93683C1.37621 7.78572 1.09926 7.50375 0.983043 7.06629C0.936859 6.89244 0.937212 6.69811 0.93756 6.50652L0.93762 6.45695C0.93762 5.93064 1.04461 5.46151 1.2944 5.05204C1.54295 4.64461 1.90475 4.34243 2.33706 4.10185L5.44367 2.37298C6.23021 1.93526 6.85556 1.58724 7.39481 1.3517ZM7.84512 2.38264C7.36123 2.594 6.78282 2.91521 5.96606 3.36975L2.88413 5.08488C2.56775 5.26095 2.37432 5.442 2.2548 5.63792C2.13652 5.8318 2.06262 6.08614 2.06262 6.45695C2.06262 6.58365 2.06275 6.66004 2.06536 6.71768C2.06725 6.75934 2.06996 6.77529 2.07052 6.77816C2.0853 6.8334 2.10302 6.85756 2.11228 6.86815C2.12221 6.8795 2.13895 6.89394 2.17323 6.90921C2.25554 6.94588 2.3915 6.96765 2.60208 6.96765H15.3982C15.6087 6.96765 15.7447 6.94588 15.827 6.90921C15.8613 6.89394 15.878 6.8795 15.888 6.86816C15.8972 6.85756 15.9149 6.8334 15.9297 6.77816C15.9303 6.77528 15.933 6.75933 15.9349 6.71768C15.9375 6.66004 15.9376 6.58365 15.9376 6.45695C15.9376 6.08614 15.8637 5.8318 15.7454 5.63792C15.6259 5.442 15.4325 5.26094 15.1161 5.08488L12.0342 3.36975C11.2174 2.91521 10.639 2.594 10.1551 2.38264C9.6824 2.17616 9.33859 2.09265 9.00012 2.09265C8.66165 2.09265 8.31784 2.17616 7.84512 2.38264ZM3.56264 13.3488C3.62461 13.3447 3.68713 13.3427 3.75014 13.3427H5.43764V8.09265H3.56264V13.3488ZM6.56264 13.3427H11.4376V8.09265H6.56264V13.3427ZM12.5626 13.3427H14.2501C14.3131 13.3427 14.3757 13.3447 14.4376 13.3488V8.09265H12.5626V13.3427ZM15.9273 15.9677H2.07294C2.16621 15.1239 2.88153 14.4677 3.75014 14.4677H14.2501C15.1187 14.4677 15.8341 15.1239 15.9273 15.9677Z" fill="#F8F9F9"/>
</svg>
