<svg width="24" height="24" viewBox="0 0 24 24" fill="none" xmlns="http://www.w3.org/2000/svg">
<path opacity="0.4" d="M14 8.25C13.3633 8.25 12.801 8.28223 12.3232 8.38719C11.837 8.49401 11.3917 8.68612 11.0389 9.03892C10.6861 9.39172 10.494 9.83699 10.3872 10.3232C10.2822 10.801 10.25 11.3633 10.25 12L10.25 20.75H14.9996V19C14.9996 18.4477 15.4473 18 15.9996 18C16.5518 18 16.9996 18.4477 16.9996 19V20.75L21.75 20.75L21.75 12C21.75 11.3633 21.7178 10.801 21.6128 10.3232C21.506 9.83699 21.3139 9.39172 20.9611 9.03892C20.6083 8.68612 20.163 8.49401 19.6768 8.38719C19.199 8.28223 18.6367 8.25 18 8.25H14Z" fill="url(#paint0_linear_797_2338)"/>
<path d="M1.25 21.75C1.25 21.1977 1.69772 20.75 2.25 20.75L2.25 14.75L4.99956 14.75C5.41377 14.75 5.74956 14.4142 5.74956 14C5.74956 13.5858 5.41377 13.25 4.99956 13.25L2.25 13.25L2.25 10.75L4.99956 10.75C5.41377 10.75 5.74956 10.4142 5.74956 10C5.74956 9.58579 5.41377 9.25 4.99956 9.25L2.25 9.25L2.25 6.75L4.99956 6.75C5.41377 6.75 5.74956 6.41421 5.74956 6C5.74956 5.58579 5.41377 5.25 4.99956 5.25L2.25 5.25V5C2.25 4.36327 2.28223 3.80098 2.38719 3.32323C2.49401 2.83699 2.68612 2.39172 3.03892 2.03892C3.39172 1.68612 3.83699 1.49401 4.32323 1.38719C4.80098 1.28223 5.36327 1.25 6 1.25L12 1.25C12.6367 1.25 13.199 1.28223 13.6768 1.38719C14.163 1.49401 14.6083 1.68612 14.9611 2.03892C15.3139 2.39172 15.506 2.83699 15.6128 3.32323C15.7178 3.80098 15.75 4.36327 15.75 5V6.15C15.75 6.43284 15.75 6.57426 15.6621 6.66213C15.5743 6.75 15.4328 6.75 15.15 6.75H14C13.3305 6.75 12.6393 6.78199 12.0014 6.92212C11.3384 7.06777 10.5972 7.35931 9.97826 7.97826C9.35931 8.59721 9.06777 9.33839 8.92212 10.0014C8.78199 10.6393 8.75 11.3305 8.75 12V20.75H15L15 19C15 18.4477 15.4477 18 16 18C16.5523 18 17 18.4477 17 19L17 20.75H21.75C22.3023 20.75 22.75 21.1977 22.75 21.75C22.75 22.3023 22.3023 22.75 21.75 22.75L2.25 22.75C1.69772 22.75 1.25 22.3023 1.25 21.75Z" fill="url(#paint1_linear_797_2338)"/>
<path d="M14.25 12C14.25 11.5858 14.5858 11.25 15 11.25H17C17.4142 11.25 17.75 11.5858 17.75 12C17.75 12.4142 17.4142 12.75 17 12.75H15C14.5858 12.75 14.25 12.4142 14.25 12Z" fill="url(#paint2_linear_797_2338)"/>
<path d="M14.25 15C14.25 14.5858 14.5858 14.25 15 14.25H17C17.4142 14.25 17.75 14.5858 17.75 15C17.75 15.4142 17.4142 15.75 17 15.75H15C14.5858 15.75 14.25 15.4142 14.25 15Z" fill="url(#paint3_linear_797_2338)"/>
<defs>
<linearGradient id="paint0_linear_797_2338" x1="10.2498" y1="20.7499" x2="22.7065" y2="9.28971" gradientUnits="userSpaceOnUse">
<stop stop-color="white"/>
<stop offset="1" stop-color="#2E3238"/>
</linearGradient>
<linearGradient id="paint1_linear_797_2338" x1="1.24967" y1="22.7499" x2="22.7497" y2="1.24974" gradientUnits="userSpaceOnUse">
<stop stop-color="white"/>
<stop offset="1" stop-color="#2E3238"/>
</linearGradient>
<linearGradient id="paint2_linear_797_2338" x1="1.24967" y1="22.7499" x2="22.7497" y2="1.24974" gradientUnits="userSpaceOnUse">
<stop stop-color="white"/>
<stop offset="1" stop-color="#2E3238"/>
</linearGradient>
<linearGradient id="paint3_linear_797_2338" x1="1.24967" y1="22.7499" x2="22.7497" y2="1.24974" gradientUnits="userSpaceOnUse">
<stop stop-color="white"/>
<stop offset="1" stop-color="#2E3238"/>
</linearGradient>
</defs>
</svg>
