<svg width="18" height="18" viewBox="0 0 18 18" fill="none" xmlns="http://www.w3.org/2000/svg">
<path opacity="0.4" d="M1.875 9.1925C1.875 5.92452 1.875 4.29053 2.81409 3.2753C3.75318 2.26007 5.26462 2.26007 8.2875 2.26007H9.7125C12.7354 2.26007 14.2468 2.26007 15.1859 3.2753C16.125 4.29053 16.125 5.92452 16.125 9.1925V9.57764C16.125 12.8456 16.125 14.4796 15.1859 15.4948C14.2468 16.5101 12.7354 16.5101 9.7125 16.5101H8.2875C5.26462 16.5101 3.75318 16.5101 2.81409 15.4948C1.875 14.4796 1.875 12.8456 1.875 9.57764V9.1925Z" fill="#F8F9F9"/>
<path d="M6.75 9.19757C6.43934 9.19757 6.1875 9.44941 6.1875 9.76007C6.1875 10.0707 6.43934 10.3226 6.75 10.3226H6.93749L6.9375 12.7601C6.9375 13.0707 7.18934 13.3226 7.5 13.3226C7.81066 13.3226 8.0625 13.0707 8.0625 12.7601L8.06249 10.0205C8.06249 9.63599 7.77374 9.19757 7.27094 9.19757H6.75Z" fill="#F8F9F9"/>
<path d="M9.75 9.19757C9.43934 9.19757 9.1875 9.44941 9.1875 9.76007C9.1875 10.0707 9.43934 10.3226 9.75 10.3226H10.5266L9.69487 12.5644C9.58681 12.8557 9.73532 13.1794 10.0266 13.2874C10.3178 13.3955 10.6416 13.247 10.7496 12.9557L11.7655 10.2176C11.9668 9.67513 11.525 9.19757 11.0405 9.19757H9.75Z" fill="#F8F9F9"/>
<path d="M4.5 5.44757C4.18934 5.44757 3.9375 5.69941 3.9375 6.01007C3.9375 6.32073 4.18934 6.57257 4.5 6.57257H13.5C13.8107 6.57257 14.0625 6.32073 14.0625 6.01007C14.0625 5.69941 13.8107 5.44757 13.5 5.44757H4.5Z" fill="#F8F9F9"/>
<path fill-rule="evenodd" clip-rule="evenodd" d="M5.0625 1.51007C5.0625 1.19941 4.81066 0.947571 4.5 0.947571C4.18934 0.947571 3.9375 1.19941 3.9375 1.51007V1.98616C3.33393 2.15723 2.82488 2.43527 2.40116 2.89334C1.81773 3.52408 1.55839 4.32101 1.43419 5.3197C1.31249 6.2983 1.31249 7.55242 1.3125 9.1526V9.61754C1.31249 11.2177 1.31249 12.4718 1.43419 13.4504C1.55839 14.4491 1.81773 15.2461 2.40116 15.8768C2.99036 16.5138 3.74457 16.8026 4.68846 16.9398C5.60199 17.0726 6.76916 17.0726 8.24193 17.0726H9.75807C11.2308 17.0726 12.398 17.0726 13.3115 16.9398C14.2554 16.8026 15.0096 16.5138 15.5988 15.8768C16.1823 15.2461 16.4416 14.4491 16.5658 13.4504C16.6875 12.4718 16.6875 11.2177 16.6875 9.61752V9.15262C16.6875 7.55243 16.6875 6.2983 16.5658 5.3197C16.4416 4.32101 16.1823 3.52408 15.5988 2.89334C15.1751 2.43527 14.6661 2.15723 14.0625 1.98616V1.51007C14.0625 1.19941 13.8107 0.947571 13.5 0.947571C13.1893 0.947571 12.9375 1.19941 12.9375 1.51007V1.78449C12.0855 1.69755 11.037 1.69756 9.75807 1.69757H8.24193C6.96302 1.69756 5.91455 1.69755 5.0625 1.78449V1.51007ZM3.22702 3.65726C3.42152 3.44699 3.65347 3.286 3.95895 3.16445C4.02605 3.40005 4.24288 3.57257 4.5 3.57257C4.81066 3.57257 5.0625 3.32073 5.0625 3.01007V2.91601C5.85825 2.82374 6.88678 2.82257 8.2875 2.82257H9.7125C11.1132 2.82257 12.1417 2.82374 12.9375 2.91601V3.01007C12.9375 3.32073 13.1893 3.57257 13.5 3.57257C13.7571 3.57257 13.974 3.40005 14.0411 3.16446C14.3465 3.28601 14.5785 3.44699 14.773 3.65726C15.1286 4.04176 15.3388 4.56943 15.4494 5.45854C15.5615 6.35962 15.5625 7.54378 15.5625 9.1925V9.57764C15.5625 11.2264 15.5615 12.4105 15.4494 13.3116C15.3388 14.2007 15.1286 14.7284 14.773 15.1129C14.4231 15.4911 13.952 15.7099 13.1497 15.8265C12.3264 15.9462 11.2411 15.9476 9.7125 15.9476H8.2875C6.75891 15.9476 5.67357 15.9462 4.85028 15.8265C4.04796 15.7099 3.57691 15.4911 3.22702 15.1129C2.87136 14.7284 2.66116 14.2007 2.55059 13.3116C2.43853 12.4105 2.4375 11.2264 2.4375 9.57764V9.1925C2.4375 7.54378 2.43853 6.35962 2.55059 5.45854C2.66116 4.56943 2.87136 4.04176 3.22702 3.65726Z" fill="#F8F9F9"/>
</svg>
