<svg width="18" height="19" viewBox="0 0 18 19" fill="none" xmlns="http://www.w3.org/2000/svg">
<g opacity="0.4">
<path d="M1.57188 6.17841C1.77889 7.20461 2.1222 8.21698 2.83321 9.4568L4.75048 7.25451C5.45052 6.45041 5.80055 6.04834 5.85202 5.55469C5.9035 5.06105 5.64397 4.59543 5.12489 3.66419L4.47 2.4893C4.17992 1.96889 3.61759 1.83229 3.12703 2.2321C1.96636 3.17811 1.26571 4.66069 1.57188 6.17841Z" fill="#F8F9F9"/>
<path d="M12.3216 16.9287C11.2954 16.7217 10.283 16.3783 9.04321 15.6673L11.2455 13.75C12.0496 13.05 12.4517 12.7 12.9453 12.6485C13.439 12.5971 13.9046 12.8566 14.8358 13.3756L16.0107 14.0305C16.5311 14.3206 16.6677 14.883 16.2679 15.3735C15.3219 16.5342 13.8393 17.2348 12.3216 16.9287Z" fill="#F8F9F9"/>
</g>
<path fill-rule="evenodd" clip-rule="evenodd" d="M3.98745 1.46493C4.41247 1.55277 4.75095 1.83832 4.96124 2.21559L5.63115 3.41742C5.8779 3.86008 6.08556 4.23259 6.22116 4.55643C6.36502 4.89993 6.45046 5.23868 6.4114 5.6132C6.37235 5.98772 6.21885 6.30155 6.00723 6.60799C5.80772 6.89688 5.52768 7.21853 5.19489 7.60075L3.52401 9.52002C4.84914 11.692 6.80584 13.6496 8.98008 14.976L10.8993 13.3052C11.2815 12.9724 11.6032 12.6924 11.8921 12.4929C12.1986 12.2812 12.5124 12.1277 12.8869 12.0887C13.2614 12.0496 13.6002 12.135 13.9437 12.2789C14.2675 12.4145 14.64 12.6222 15.0827 12.8689L16.2845 13.5388C16.6617 13.7491 16.9473 14.0876 17.0352 14.5126C17.1239 14.9421 16.993 15.3737 16.7038 15.7285C15.6546 17.0157 13.9737 17.8354 12.2103 17.4797C11.1264 17.261 10.0569 16.8967 8.76333 16.1549C6.16428 14.6643 3.83398 12.3327 2.34517 9.73677C1.60334 8.44325 1.23905 7.37375 1.02039 6.2898C0.664671 4.52639 1.4843 2.84543 2.77157 1.79625C3.12634 1.50709 3.558 1.37616 3.98745 1.46493ZM10.0279 15.5554C10.9027 15.9864 11.6636 16.2217 12.4327 16.3769C13.7048 16.6335 14.9889 16.0518 15.8318 15.0177C15.9425 14.882 15.9432 14.7872 15.9334 14.7403C15.9228 14.689 15.8799 14.6013 15.7368 14.5215L14.5619 13.8666C14.0851 13.6008 13.7678 13.4249 13.5091 13.3166C13.2636 13.2138 13.1227 13.1952 13.0035 13.2076C12.8844 13.22 12.7504 13.2673 12.5314 13.4185C12.3006 13.5779 12.0264 13.8156 11.6148 14.1739L10.0279 15.5554ZM2.94465 8.4722L4.32614 6.88532C4.68451 6.47367 4.92217 6.19944 5.08152 5.96869C5.23278 5.74967 5.28005 5.61564 5.29247 5.49651C5.3049 5.37739 5.2863 5.2365 5.18349 4.99098C5.07516 4.73232 4.8992 4.41495 4.63347 3.93822L3.97858 2.76333C3.8988 2.6202 3.81106 2.57724 3.75975 2.56664C3.71287 2.55695 3.61809 2.55763 3.48232 2.66829C2.44824 3.51111 1.86658 4.79531 2.12318 6.06735C2.27834 6.83653 2.51361 7.59739 2.94465 8.4722Z" fill="#F8F9F9"/>
</svg>
