<svg width="24" height="24" viewBox="0 0 24 24" fill="none" xmlns="http://www.w3.org/2000/svg">
<path opacity="0.4" d="M16.2718 1.44227C15.056 1.24996 13.5045 1.24998 11.5566 1.25H11.4256C9.47789 1.24998 7.92855 1.24996 6.71481 1.4423C5.45123 1.64255 4.44994 2.06508 3.67334 2.97873C2.91129 3.87526 2.57328 5.00361 2.41045 6.42849C2.24999 7.83262 2.24999 9.63538 2.25 11.9505V12.0495C2.24999 14.3646 2.24999 16.1674 2.41045 17.5715C2.57328 18.9964 2.91129 20.1247 3.67334 21.0213C4.45035 21.9354 5.45432 22.3576 6.71943 22.5577C7.93526 22.75 9.48668 22.75 11.4346 22.75H11.5656C11.9665 22.75 12.3506 22.75 12.7183 22.7483C12.4905 22.3763 12.3377 21.9576 12.2765 21.5191C12.1962 20.943 12.3216 20.4329 12.382 20.197C12.4498 19.9319 12.5496 19.6179 12.6469 19.3115L12.8402 18.7032C12.1562 17.7722 11.75 16.6204 11.75 15.375C11.75 12.2684 14.2684 9.75 17.375 9.75H17.625C18.7771 9.75 19.8483 10.0964 20.7401 10.6906C20.7355 8.96746 20.7109 7.56695 20.5808 6.42849C20.4179 5.00361 20.0799 3.87526 19.3179 2.97873C18.5409 2.0646 17.5369 1.64237 16.2718 1.44227Z" fill="url(#paint0_linear_797_2251)"/>
<path d="M8 7.25C7.58579 7.25 7.25 7.58579 7.25 8C7.25 8.41421 7.58579 8.75 8 8.75H15C15.4142 8.75 15.75 8.41421 15.75 8C15.75 7.58579 15.4142 7.25 15 7.25H8Z" fill="url(#paint1_linear_797_2251)"/>
<path d="M8 12.25C7.58579 12.25 7.25 12.5858 7.25 13C7.25 13.4142 7.58579 13.75 8 13.75H10.209C10.6232 13.75 10.959 13.4142 10.959 13C10.959 12.5858 10.6232 12.25 10.209 12.25H8Z" fill="url(#paint2_linear_797_2251)"/>
<path fill-rule="evenodd" clip-rule="evenodd" d="M13.25 15.375C13.25 13.0968 15.0968 11.25 17.375 11.25H17.625C19.9032 11.25 21.75 13.0968 21.75 15.375C21.75 16.5477 21.2601 17.606 20.4758 18.3563L20.9137 19.7349C21.019 20.0665 21.1078 20.346 21.1649 20.569C21.2192 20.7811 21.2749 21.0465 21.2379 21.3118C21.1269 22.1077 20.4647 22.7469 19.628 22.75C19.3492 22.751 19.0904 22.6473 18.8985 22.5611C18.694 22.4692 18.4412 22.3366 18.1449 22.1811C17.849 22.0258 17.7666 21.9861 17.7134 21.9701C17.5737 21.928 17.4263 21.928 17.2866 21.9701C17.2334 21.9861 17.1509 22.0258 16.855 22.1811C16.5588 22.3366 16.306 22.4692 16.1015 22.5611C15.9096 22.6473 15.6508 22.751 15.372 22.75C14.5353 22.7469 13.8731 22.1077 13.7621 21.3118C13.7251 21.0465 13.7808 20.7811 13.8351 20.569C13.8922 20.3459 13.981 20.0665 14.0863 19.7349L14.5242 18.3563C13.7399 17.606 13.25 16.5477 13.25 15.375ZM15.8301 19.2002L15.5231 20.167C15.4091 20.5259 15.3338 20.7641 15.2886 20.9406C15.2397 21.0813 15.2109 21.3285 15.4872 21.1924C15.6446 21.1216 15.9025 20.9867 16.2258 20.817C16.4495 20.6994 16.6454 20.5964 16.8538 20.5336C17.276 20.4062 17.7246 20.4062 18.1468 20.5336C18.3552 20.5964 18.5511 20.6994 18.7748 20.817C19.0981 20.9867 19.356 21.1216 19.5134 21.1924C19.6243 21.2603 19.8192 21.3051 19.712 20.9406C19.6668 20.7641 19.5915 20.5259 19.4775 20.167L19.1705 19.2002C18.6929 19.3932 18.1711 19.4996 17.6253 19.4996H17.3753C16.8295 19.4996 16.3077 19.3932 15.8301 19.2002Z" fill="url(#paint3_linear_797_2251)"/>
<defs>
<linearGradient id="paint0_linear_797_2251" x1="2.24971" y1="22.7499" x2="23.5076" y2="4.46794" gradientUnits="userSpaceOnUse">
<stop stop-color="white"/>
<stop offset="1" stop-color="#2E3238"/>
</linearGradient>
<linearGradient id="paint1_linear_797_2251" x1="7.24977" y1="22.7499" x2="22.7154" y2="8.282" gradientUnits="userSpaceOnUse">
<stop stop-color="white"/>
<stop offset="1" stop-color="#2E3238"/>
</linearGradient>
<linearGradient id="paint2_linear_797_2251" x1="7.24977" y1="22.7499" x2="22.7154" y2="8.282" gradientUnits="userSpaceOnUse">
<stop stop-color="white"/>
<stop offset="1" stop-color="#2E3238"/>
</linearGradient>
<linearGradient id="paint3_linear_797_2251" x1="7.24977" y1="22.7499" x2="22.7154" y2="8.282" gradientUnits="userSpaceOnUse">
<stop stop-color="white"/>
<stop offset="1" stop-color="#2E3238"/>
</linearGradient>
</defs>
</svg>
