<svg width="56" height="57" viewBox="0 0 56 57" fill="none" xmlns="http://www.w3.org/2000/svg">
<g opacity="0.4">
<path d="M14 19.9795C12.7113 19.9795 11.6667 21.0242 11.6667 22.3128C11.6667 23.6015 12.7113 24.6462 14 24.6462H14.0209C15.3096 24.6462 16.3543 23.6015 16.3543 22.3128C16.3543 21.0242 15.3096 19.9795 14.0209 19.9795H14Z" fill="white"/>
<path d="M14 26.9795C12.7113 26.9795 11.6667 28.0242 11.6667 29.3128C11.6667 30.6015 12.7113 31.6462 14 31.6462H14.0209C15.3096 31.6462 16.3543 30.6015 16.3543 29.3128C16.3543 28.0242 15.3096 26.9795 14.0209 26.9795H14Z" fill="white"/>
<path d="M14 33.9795C12.7113 33.9795 11.6667 35.0242 11.6667 36.3128C11.6667 37.6015 12.7113 38.6462 14 38.6462H14.0209C15.3096 38.6462 16.3543 37.6015 16.3543 36.3128C16.3543 35.0242 15.3096 33.9795 14.0209 33.9795H14Z" fill="white"/>
<path d="M14 40.9795C12.7113 40.9795 11.6667 42.0242 11.6667 43.3128C11.6667 44.6015 12.7113 45.6462 14 45.6462H14.0209C15.3096 45.6462 16.3543 44.6015 16.3543 43.3128C16.3543 42.0242 15.3096 40.9795 14.0209 40.9795H14Z" fill="white"/>
<path d="M42 33.9795C40.7113 33.9795 39.6667 35.0242 39.6667 36.3128C39.6667 37.6015 40.7113 38.6462 42 38.6462H42.0209C43.3096 38.6462 44.3543 37.6015 44.3543 36.3128C44.3543 35.0242 43.3096 33.9795 42.0209 33.9795H42Z" fill="white"/>
<path d="M42 40.9795C40.7113 40.9795 39.6667 42.0242 39.6667 43.3128C39.6667 44.6015 40.7113 45.6462 42 45.6462H42.0209C43.3096 45.6462 44.3543 44.6015 44.3543 43.3128C44.3543 42.0242 43.3096 40.9795 42.0209 40.9795H42Z" fill="white"/>
</g>
<path fill-rule="evenodd" clip-rule="evenodd" d="M14 3.646C10.134 3.646 7.00001 6.78 7.00001 10.646C7.00001 14.512 10.134 17.646 14 17.646C15.8913 17.646 17.6074 16.8959 18.8671 15.6771L35.0577 23.743C35.0196 24.0386 35 24.34 35 24.646C35 28.512 38.134 31.646 42 31.646C45.866 31.646 49 28.512 49 24.646C49 20.78 45.866 17.646 42 17.646C40.1264 17.646 38.4248 18.3821 37.1685 19.5808L20.9484 11.5003C20.9825 11.2203 21 10.9352 21 10.646C21 6.78 17.866 3.646 14 3.646ZM11.6667 10.646C11.6667 9.35733 12.7113 8.31266 14 8.31266C15.2887 8.31266 16.3333 9.35733 16.3333 10.646C16.3333 11.9347 15.2887 12.9793 14 12.9793C12.7113 12.9793 11.6667 11.9347 11.6667 10.646ZM39.6667 24.646C39.6667 23.3573 40.7113 22.3127 42 22.3127C43.2887 22.3127 44.3333 23.3573 44.3333 24.646C44.3333 25.9347 43.2887 26.9793 42 26.9793C40.7113 26.9793 39.6667 25.9347 39.6667 24.646Z" fill="white"/>
<path d="M4.66668 47.9793C3.37801 47.9793 2.33334 49.024 2.33334 50.3127C2.33334 51.6013 3.37801 52.646 4.66668 52.646H51.3333C52.622 52.646 53.6667 51.6013 53.6667 50.3127C53.6667 49.024 52.622 47.9793 51.3333 47.9793H4.66668Z" fill="white"/>
</svg>
