<svg width="56" height="57" viewBox="0 0 56 57" fill="none" xmlns="http://www.w3.org/2000/svg">
<path opacity="0.4" d="M41.4167 47.1625L41.4167 25.8125C41.4167 24.3268 41.3414 23.0148 41.0966 21.9C40.8473 20.7655 40.3991 19.7265 39.5759 18.9033C38.7526 18.0801 37.7137 17.6318 36.5791 17.3826C35.4644 17.1377 34.1524 17.0625 32.6667 17.0625H23.3333C21.8476 17.0625 20.5356 17.1377 19.4209 17.3826C18.2863 17.6318 17.2473 18.0801 16.4241 18.9033C15.6009 19.7265 15.1527 20.7655 14.9034 21.9C14.6585 23.0148 14.5833 24.3268 14.5833 25.8125L14.5833 47.1625L14.5833 50.3125L41.4167 50.3125V47.1625Z" fill="white"/>
<path d="M4.66666 48.5625C3.378 48.5625 2.33333 49.6072 2.33333 50.8958C2.33333 52.1845 3.378 53.2292 4.66666 53.2292L51.3333 53.2292C52.622 53.2292 53.6667 52.1845 53.6667 50.8958C53.6667 49.6072 52.622 48.5625 51.3333 48.5625H50.75L50.75 19.722C50.7501 18.3805 50.7501 17.2047 50.651 16.2257C50.544 15.1693 50.3075 14.1478 49.7159 13.1702C49.1225 12.1897 48.3273 11.5102 47.4398 10.9335C46.622 10.4021 45.5876 9.87404 44.4154 9.27562L34.1879 4.05357C33.4638 3.68386 32.7079 3.34839 31.9772 3.18125C31.2543 3.0159 30.1689 2.92903 29.1553 3.58501C28.1615 4.22812 27.787 5.23308 27.6247 5.92793C27.4572 6.64494 27.4167 7.45936 27.4167 8.26289L27.4167 17.0625H32.0833V8.26289L32.0834 8.21881L42.1963 13.3823C43.4944 14.0451 44.3081 14.4639 44.8972 14.8467C45.4391 15.1988 45.6199 15.4154 45.7235 15.5865C45.8288 15.7606 45.9408 16.0314 46.0081 16.6958C46.0806 17.4118 46.0833 18.3491 46.0833 19.829L46.0833 48.5625L9.91666 48.5625L9.91666 30.4792H14.5833L14.5833 25.8125H9.91666C9.38355 25.8125 8.79564 25.8372 8.23702 25.96C7.65198 26.0885 6.96073 26.3541 6.37616 26.9387C5.79159 27.5232 5.52598 28.2145 5.39745 28.7995C5.27474 29.3582 5.25 29.9461 5.25 30.4792L5.25 48.5625H4.66666Z" fill="white"/>
<path d="M25.6667 24.0625C24.7002 24.0625 23.9167 24.846 23.9167 25.8125C23.9167 26.779 24.7002 27.5625 25.6667 27.5625H30.3333C31.2998 27.5625 32.0833 26.779 32.0833 25.8125C32.0833 24.846 31.2998 24.0625 30.3333 24.0625H25.6667Z" fill="white"/>
<path d="M25.6667 31.0625C24.7002 31.0625 23.9167 31.846 23.9167 32.8125C23.9167 33.779 24.7002 34.5625 25.6667 34.5625H30.3333C31.2998 34.5625 32.0833 33.779 32.0833 32.8125C32.0833 31.846 31.2998 31.0625 30.3333 31.0625H25.6667Z" fill="white"/>
<path d="M25.6667 38.0625C24.7002 38.0625 23.9167 38.846 23.9167 39.8125C23.9167 40.779 24.7002 41.5625 25.6667 41.5625H30.3333C31.2998 41.5625 32.0833 40.779 32.0833 39.8125C32.0833 38.846 31.2998 38.0625 30.3333 38.0625H25.6667Z" fill="white"/>
</svg>
