<svg width="52" height="52" viewBox="0 0 52 52" fill="none" xmlns="http://www.w3.org/2000/svg">
<path opacity="0.4" d="M0.916656 25.9998C0.916656 12.1467 12.1468 0.916504 26 0.916504C39.8531 0.916504 51.0833 12.1467 51.0833 25.9998C51.0833 39.853 39.8531 51.0832 26 51.0832C12.1468 51.0832 0.916656 39.853 0.916656 25.9998Z" fill="white"/>
<path fill-rule="evenodd" clip-rule="evenodd" d="M26 14.3335C27.2887 14.3335 28.3333 15.3782 28.3333 16.6668V25.0337L32.3166 29.0169C33.2278 29.9281 33.2278 31.4055 32.3166 32.3167C31.4053 33.228 29.928 33.228 29.0167 32.3167L24.3501 27.6501C23.9125 27.2125 23.6667 26.619 23.6667 26.0002V16.6668C23.6667 15.3782 24.7113 14.3335 26 14.3335Z" fill="white"/>
</svg>
