<svg width="18" height="18" viewBox="0 0 18 18" fill="none" xmlns="http://www.w3.org/2000/svg">
<path opacity="0.4" d="M16.4979 6.27601C16.5234 6.03301 16.0216 5.163 15.7591 4.70775C15.4794 4.22175 15.3391 3.97873 15.1014 3.88198C14.8629 3.78523 14.5936 3.86173 14.0551 4.01473L13.1401 4.272C12.7959 4.3515 12.4351 4.3065 12.1209 4.14525L11.8681 3.99976C11.5989 3.82726 11.3919 3.57299 11.2771 3.27374L11.0266 2.52601C10.8616 2.03101 10.7799 1.78351 10.5834 1.64176C10.3876 1.50001 10.1274 1.5 9.60611 1.5C9.08486 1.5 7.98911 1.50001 7.79337 1.64176C7.59687 1.78351 7.51511 2.03101 7.35011 2.52601L7.09962 3.27374C6.98486 3.57299 6.77786 3.82726 6.50861 3.99976L6.25587 4.14525C5.94162 4.3065 5.58086 4.3515 5.23661 4.272L4.32161 4.01473C3.78311 3.86173 3.51387 3.78523 3.27537 3.88198C3.03762 3.97873 2.89736 4.22175 2.61761 4.70775C2.35511 5.163 1.85337 6.03301 1.87887 6.27601C1.90437 6.51826 2.07987 6.71327 2.43162 7.10402L3.20486 7.96875C3.39386 8.208 3.52812 8.625 3.52812 9C3.52812 9.375 3.39386 9.792 3.20486 10.0312L2.35286 10.983C2.18711 11.1675 2.10461 11.2605 2.14511 11.5972C2.18561 11.9347 2.32886 12.033 2.61611 12.2295L3.49286 12.8302L6.15986 10.083C6.15986 10.083 6.21761 9.79126 6.21836 9.48377C6.22212 8.07077 6.26936 7.12125 6.80486 6.58575C7.39136 5.99925 7.96661 5.99925 10.3884 6C10.6501 6 10.7814 6.31501 10.5969 6.49951L9.20411 7.89225C8.85086 8.2455 8.85011 8.8185 9.20336 9.17175C9.55661 9.525 10.1296 9.525 10.4836 9.17175L11.8756 7.77975C12.0609 7.59525 12.3766 7.72648 12.3759 7.98823C12.3766 10.4092 12.3766 10.9845 11.7901 11.571C11.2546 12.1065 10.3051 12.1538 8.89137 12.1575C8.58387 12.1575 8.29212 12.216 8.29212 12.216L5.92812 14.4998L7.35011 15.474C7.51511 15.9697 7.59687 16.2165 7.79337 16.3582C7.98911 16.5 9.08561 16.5 9.60611 16.5C10.1266 16.5 10.3876 16.5 10.5834 16.3582C10.7799 16.2165 11.1121 15.2213 11.2771 14.7263C11.3919 14.427 11.8516 14.0272 12.1209 13.8547C12.4351 13.6935 12.7959 13.6485 13.1401 13.7272L14.0551 13.9853C14.5936 14.1383 14.8629 14.2148 15.1014 14.118C15.3391 14.0213 15.8491 13.1362 16.1289 12.6502H16.1296C16.3921 12.1942 16.5234 11.967 16.4979 11.724C16.4724 11.4817 15.5236 10.422 15.1719 10.0312C14.9829 9.792 14.8486 9.375 14.8486 9C14.8486 8.625 14.9829 8.208 15.1719 7.96875L15.9451 7.10402C16.2969 6.71327 16.4724 6.51826 16.4979 6.27601Z" fill="#F8F9F9"/>
<path d="M8.77031 17.0625H9.60581C10.1863 17.0625 10.5696 17.0618 10.9123 16.8135C11.2547 16.5663 11.3748 16.206 11.5568 15.6601L11.5573 15.6585L11.8056 14.9168C11.8768 14.7368 11.9998 14.586 12.1611 14.4795L12.3876 14.349C12.5773 14.2545 12.7941 14.2275 13.0018 14.2718L13.9011 14.5252C14.5206 14.7015 14.8941 14.8072 15.3126 14.6377C15.7295 14.4683 15.935 14.1114 16.2454 13.5723L16.6168 12.9278C16.9086 12.4223 17.1006 12.0885 17.0563 11.664C17.0113 11.2406 16.7672 10.9691 16.3642 10.5212L16.3633 10.5203L15.6043 9.67126C15.5076 9.54001 15.4101 9.25952 15.4101 8.99927C15.4101 8.73902 15.5076 8.45848 15.6043 8.32723L16.3626 7.47975C16.7676 7.0305 17.0113 6.75825 17.0563 6.3345C17.1006 5.91 16.9086 5.57624 16.6161 5.06924L16.2456 4.4265C15.9351 3.8865 15.7296 3.53024 15.3118 3.35999C14.8944 3.19061 14.5204 3.29682 13.9032 3.47208L13.9018 3.47249L13.0011 3.72601C12.7948 3.77101 12.5773 3.74401 12.3876 3.64951L12.1611 3.51899C11.9998 3.41324 11.8768 3.26174 11.8056 3.08174L11.5573 2.34001L11.5568 2.3384C11.3748 1.79256 11.2547 1.43226 10.9131 1.18575C10.5696 0.936768 10.1863 0.936768 9.6059 0.936768H8.77031C8.18993 0.936768 7.80652 0.936768 7.46381 1.18499C7.12106 1.43174 7.00031 1.79326 6.81806 2.34001L6.56981 3.08174C6.49856 3.26174 6.37556 3.41249 6.21431 3.51899L5.98781 3.64951C5.79806 3.74401 5.58131 3.77101 5.37431 3.72601L4.47506 3.47325C3.85556 3.297 3.48206 3.19125 3.06356 3.36075C2.64664 3.53022 2.44115 3.88711 2.13075 4.42618L1.75931 5.07074C1.46756 5.57624 1.27556 5.91 1.31981 6.3345C1.36478 6.75795 1.60896 7.02936 2.01195 7.47729L2.01281 7.47825L2.77181 8.32723C2.86856 8.45848 2.96607 8.73902 2.96607 8.99927C2.96607 9.25952 2.86856 9.54001 2.77181 9.67126L2.01356 10.5188C1.60856 10.9688 1.36481 11.2403 1.31981 11.664C1.28681 11.973 1.51106 12.2497 1.82006 12.282C2.12906 12.3142 2.40581 12.0907 2.43806 11.7817C2.44402 11.7214 2.66622 11.4744 2.84711 11.2733L2.85056 11.2695L3.62381 10.4047L3.64556 10.3785C3.91556 10.0365 4.09031 9.495 4.09031 8.9985C4.09031 8.502 3.91556 7.96051 3.64556 7.61851L2.84906 6.72601L2.83751 6.71317C2.65887 6.51454 2.44318 6.27472 2.43731 6.21526C2.43131 6.15451 2.59781 5.86425 2.73356 5.6295L3.11176 4.9734C3.25758 4.72023 3.42022 4.43786 3.48581 4.40175C3.55698 4.38077 3.88036 4.4728 4.16738 4.55448L4.16831 4.55475L5.08331 4.81201L5.10881 4.81875C5.58131 4.92825 6.07931 4.86601 6.51131 4.64476L6.78806 4.48649L6.81057 4.47224C7.18407 4.23299 7.46456 3.88799 7.62356 3.47399L7.88531 2.6955C7.96406 2.45775 8.07282 2.13226 8.12232 2.09626C8.18231 2.06177 8.49426 2.06177 8.7695 2.06177H9.60506C9.88019 2.06177 10.1916 2.06177 10.2531 2.097C10.3008 2.13149 10.4052 2.44384 10.4841 2.67999L10.7428 3.4515L10.7511 3.47399C10.9101 3.88799 11.1913 4.23299 11.5641 4.47224L11.8393 4.63125L11.8633 4.64399C12.2953 4.86524 12.7933 4.92677 13.2658 4.81802L14.2078 4.55402C14.4936 4.47227 14.8176 4.38076 14.8881 4.40101C14.9548 4.43851 15.1228 4.72952 15.2706 4.98677L15.6426 5.63174C15.7768 5.86424 15.9441 6.15451 15.9373 6.21526C15.9313 6.27563 15.7091 6.52262 15.5283 6.72369L15.5248 6.72751L14.7516 7.59225L14.7298 7.61851C14.4598 7.96051 14.2851 8.502 14.2851 8.9985C14.2851 9.495 14.4598 10.0365 14.7298 10.3785L15.5263 11.271L15.5379 11.2838C15.7165 11.4825 15.9322 11.7223 15.9381 11.7817C15.9441 11.8425 15.7776 12.1327 15.6418 12.3675L15.2638 13.0233C15.1179 13.2766 14.9552 13.5591 14.8896 13.5953C14.8191 13.6155 14.4951 13.524 14.2078 13.4422L13.2928 13.1843L13.2658 13.1775C12.7926 13.0695 12.2953 13.1318 11.8641 13.353L11.5873 13.5112L11.5648 13.5255C11.1913 13.7647 10.9108 14.1097 10.7518 14.5237L10.4901 15.303C10.4113 15.5408 10.3026 15.867 10.2531 15.9022C10.1931 15.9367 9.88106 15.9368 9.60581 15.9368H8.77031C8.49506 15.9368 8.18382 15.9368 8.12232 15.9015C8.07475 15.8673 7.96755 15.5467 7.88825 15.3095L7.88606 15.303L7.88381 15.2955C7.78556 15.0007 7.46681 14.8418 7.17206 14.94C6.87731 15.0383 6.71831 15.357 6.81656 15.6517L6.81882 15.6593L6.81935 15.6609C7.0013 16.2067 7.1214 16.567 7.46306 16.8135C7.80654 17.0625 8.18986 17.0625 8.77031 17.0625Z" fill="#F8F9F9"/>
<path fill-rule="evenodd" clip-rule="evenodd" d="M3.16476 17.0594C3.21276 17.0632 3.26001 17.0646 3.30726 17.0646V17.0631C3.78426 17.0631 4.25677 16.8877 4.68052 16.5509L4.70602 16.5307L6.57352 14.6631C6.87352 14.3631 7.15777 14.0751 7.41502 13.8141L7.44957 13.7792C7.88767 13.3359 8.36967 12.8482 8.50851 12.7379C8.60816 12.7199 8.85825 12.7199 9.06213 12.7199C9.29538 12.7207 9.56076 12.7206 9.85026 12.7034C10.6873 12.6666 11.8303 12.6142 12.5315 11.5747C12.89 11.0834 12.938 10.3072 12.9358 9.53992V9.23541L12.9358 9.22911C12.935 8.85644 12.9343 8.50422 12.9403 8.2499L12.9403 8.24787C12.9493 7.88007 12.9548 7.65393 12.7078 7.40165C12.5675 7.24715 12.365 7.14964 12.1468 7.13314C11.9248 7.11664 11.7095 7.18414 11.5565 7.31914C11.4598 7.40314 11.141 7.71889 10.2943 8.56939L10.0805 8.78391C9.94627 8.91816 9.77302 8.89117 9.66577 8.82742C9.56227 8.76592 9.45502 8.6414 9.52777 8.3954L9.53001 8.38789C9.59803 8.2829 9.8592 8.02705 10.1145 7.77695L10.1255 7.76614C10.2575 7.63714 10.406 7.49165 10.5695 7.32815L10.5898 7.3064C10.6685 7.2194 10.7443 7.14666 10.8178 7.07616C11.0368 6.86616 11.4035 6.51441 11.198 6.00141C10.964 5.4179 10.496 5.42692 10.0003 5.43667C9.80001 5.44117 9.54952 5.44567 9.20527 5.43667H9.19177L9.09727 5.43891C7.725 5.46965 7.15396 5.48244 6.51351 6.08615C5.91726 6.6284 5.77176 7.35817 5.70801 8.00092C5.64619 8.63177 5.65538 9.07772 5.66212 9.40485L5.66254 9.42477C5.66625 9.60313 5.67074 9.81863 5.64951 9.86841C5.45526 10.0957 3.62677 11.9151 2.64427 12.8924C2.58613 12.9503 2.52948 13.0067 2.47461 13.0613C2.21586 13.3188 1.99636 13.5373 1.84476 13.6889L1.81027 13.7264C1.02877 14.6647 1.26202 15.8122 1.89577 16.4617C2.23777 16.8127 2.68851 17.0249 3.16476 17.0594ZM2.70052 15.6756C2.42227 15.3914 2.30451 14.9084 2.66001 14.4652C2.72413 14.4013 2.7993 14.3271 2.88358 14.2431C3.04081 14.0865 3.22975 13.8982 3.43776 13.6911C4.99251 12.1439 6.29676 10.8434 6.50376 10.6019C6.80601 10.2494 6.79777 9.8699 6.78727 9.38915C6.78052 9.0734 6.77227 8.68042 6.82777 8.11342C6.89002 7.48642 7.01451 7.15192 7.27326 6.91792L7.28226 6.90964C7.59201 6.61639 7.78102 6.59541 9.12277 6.56541L9.19027 6.56391C9.40402 6.56916 9.58627 6.56991 9.74077 6.56841C9.59377 6.71541 9.45952 6.84664 9.33877 6.96439C8.79802 7.49314 8.51752 7.76764 8.44177 8.10214C8.25052 8.78389 8.50326 9.44689 9.09051 9.79564C9.67926 10.1459 10.3963 10.0589 10.8755 9.58042L11.1124 9.34266C11.2758 9.17844 11.5604 8.89255 11.8093 8.64439C11.8093 8.82889 11.8093 9.03142 11.8108 9.23992V9.54365C11.8123 10.2832 11.7485 10.7444 11.621 10.9146L11.603 10.9402C11.2445 11.4779 10.655 11.5431 9.79627 11.5814H9.78802C9.52927 11.5964 9.28176 11.5964 9.06276 11.5964C8.56556 11.5964 8.201 11.5964 7.92951 11.7734C7.75251 11.8799 7.49226 12.1364 6.61401 13.0259C6.35826 13.2854 6.07552 13.5719 5.77777 13.8697L3.95752 15.6899C3.43327 16.0904 2.96602 15.9471 2.70052 15.6756Z" fill="#F8F9F9"/>
</svg>
