<svg width="18" height="19" viewBox="0 0 18 19" fill="none" xmlns="http://www.w3.org/2000/svg">
<path opacity="0.4" d="M15.75 10.4273L15.7499 6.8612C15.7495 6.00974 15.7493 5.58401 15.5423 5.22706C15.3352 4.87011 14.9658 4.66165 14.2269 4.24475L10.458 2.11823C9.74535 1.71613 9.38902 1.51508 9 1.51508C8.61098 1.51508 8.25465 1.71613 7.54199 2.11823L3.7731 4.24475C3.03421 4.66165 2.66477 4.87011 2.45775 5.22706C2.25072 5.58401 2.25051 6.00974 2.2501 6.8612L2.25 10.4273C2.25 13.2971 2.25 14.732 3.12868 15.6235C4.00736 16.5151 5.42157 16.5151 8.25 16.5151H9.75C12.5784 16.5151 13.9926 16.5151 14.8713 15.6235C15.75 14.732 15.75 13.2971 15.75 10.4273Z" fill="#6C737F"/>
<path d="M6 6.20258C5.68934 6.20258 5.4375 6.45442 5.4375 6.76508C5.4375 7.07574 5.68934 7.32758 6 7.32758H7.5C7.81066 7.32758 8.0625 7.07574 8.0625 6.76508C8.0625 6.45442 7.81066 6.20258 7.5 6.20258H6Z" fill="#6C737F"/>
<path d="M10.5 6.20258C10.1893 6.20258 9.9375 6.45442 9.9375 6.76508C9.9375 7.07574 10.1893 7.32758 10.5 7.32758H12C12.3107 7.32758 12.5625 7.07574 12.5625 6.76508C12.5625 6.45442 12.3107 6.20258 12 6.20258H10.5Z" fill="#6C737F"/>
<path d="M6 9.20258C5.68934 9.20258 5.4375 9.45442 5.4375 9.76508C5.4375 10.0757 5.68934 10.3276 6 10.3276H7.5C7.81066 10.3276 8.0625 10.0757 8.0625 9.76508C8.0625 9.45442 7.81066 9.20258 7.5 9.20258H6Z" fill="#6C737F"/>
<path d="M10.5 9.20258C10.1893 9.20258 9.9375 9.45442 9.9375 9.76508C9.9375 10.0757 10.1893 10.3276 10.5 10.3276H12C12.3107 10.3276 12.5625 10.0757 12.5625 9.76508C12.5625 9.45442 12.3107 9.20258 12 9.20258H10.5Z" fill="#6C737F"/>
<path d="M6 12.2026C5.68934 12.2026 5.4375 12.4544 5.4375 12.7651C5.4375 13.0757 5.68934 13.3276 6 13.3276H7.5C7.81066 13.3276 8.0625 13.0757 8.0625 12.7651C8.0625 12.4544 7.81066 12.2026 7.5 12.2026H6Z" fill="#6C737F"/>
<path d="M10.5 12.2026C10.1893 12.2026 9.9375 12.4544 9.9375 12.7651C9.9375 13.0757 10.1893 13.3276 10.5 13.3276H12C12.3107 13.3276 12.5625 13.0757 12.5625 12.7651C12.5625 12.4544 12.3107 12.2026 12 12.2026H10.5Z" fill="#6C737F"/>
<path fill-rule="evenodd" clip-rule="evenodd" d="M9 0.952576C8.69959 0.952576 8.43282 1.03265 8.16442 1.15162C7.91258 1.26325 7.62521 1.4254 7.28788 1.61575L3.47338 3.768C3.12379 3.96524 2.82548 4.13354 2.59132 4.29903C2.34089 4.47603 2.1288 4.67305 1.97116 4.94485C1.81405 5.21574 1.74758 5.49708 1.71679 5.80222C1.68795 6.08799 1.6878 6.43128 1.68761 6.83447L1.6875 10.4691C1.68749 11.8685 1.68748 12.9753 1.80221 13.8412C1.92011 14.7309 2.16824 15.4504 2.72805 16.0184C3.28899 16.5875 4.00134 16.8408 4.88216 16.961C5.73709 17.0776 6.82927 17.0776 8.20711 17.0776H9.79289C11.1707 17.0776 12.2629 17.0776 13.1178 16.961C13.9987 16.8408 14.711 16.5875 15.2719 16.0184C15.8318 15.4504 16.0799 14.7309 16.1978 13.8412C16.3125 12.9753 16.3125 11.8685 16.3125 10.4691L16.3124 6.83446C16.3122 6.43127 16.312 6.08798 16.2832 5.80222C16.2524 5.49708 16.1859 5.21574 16.0288 4.94485C15.8712 4.67305 15.6591 4.47603 15.4087 4.29903C15.1745 4.13354 14.8762 3.96524 14.5266 3.768L10.7122 1.61577C10.3748 1.42542 10.0874 1.26325 9.83558 1.15162C9.56718 1.03265 9.30041 0.952576 9 0.952576ZM7.81841 2.60813C8.18408 2.40181 8.42409 2.26708 8.6203 2.18011C8.80549 2.09803 8.91139 2.07758 9 2.07758C9.08861 2.07758 9.19451 2.09803 9.3797 2.18011C9.57591 2.26708 9.81592 2.40181 10.1816 2.60813L13.9505 4.73465C14.3297 4.94863 14.5775 5.08921 14.7594 5.21774C14.9301 5.33844 15.0063 5.42411 15.0557 5.50927C15.1056 5.59533 15.1427 5.70533 15.1639 5.91516C15.1864 6.13809 15.1872 6.42481 15.1874 6.86148L15.1875 10.4273C15.1875 11.8779 15.1863 12.91 15.0825 13.6934C14.9808 14.4614 14.7896 14.9052 14.4707 15.2287C14.1529 15.5511 13.7188 15.7436 12.9658 15.8463C12.1957 15.9513 11.1803 15.9526 9.75 15.9526H8.25C6.81966 15.9526 5.80431 15.9513 5.03421 15.8463C4.28115 15.7436 3.84705 15.5511 3.52931 15.2287C3.21044 14.9052 3.01923 14.4614 2.91746 13.6934C2.81366 12.91 2.8125 11.8779 2.8125 10.4273L2.8126 6.86122C2.81281 6.42455 2.81361 6.13809 2.8361 5.91516C2.85728 5.70533 2.89442 5.59533 2.94433 5.50927C2.99372 5.42411 3.06986 5.33844 3.24063 5.21774C3.42248 5.08921 3.67028 4.94863 4.04951 4.73465L7.81841 2.60813Z" fill="#6C737F"/>
</svg>
