<svg width="18" height="16" viewBox="0 0 18 16" fill="none" xmlns="http://www.w3.org/2000/svg">
<path d="M8.33295 0.893901C8.33295 0.525711 8.63143 0.227234 8.99962 0.227234C9.36781 0.227234 9.66629 0.525711 9.66629 0.893901V8.41561L9.67167 8.40926C9.85895 8.18825 10.0423 7.95468 10.2138 7.73626L10.2535 7.68563C10.4244 7.46809 10.6042 7.23954 10.7438 7.09591C11.0004 6.83189 11.4225 6.82589 11.6865 7.08251C11.9505 7.33914 11.9565 7.76121 11.6999 8.02523C11.6211 8.10635 11.4916 8.26796 11.3021 8.50922L11.2603 8.56248C11.0913 8.77771 10.8931 9.03024 10.6889 9.27123C10.4701 9.5295 10.2251 9.79776 9.98025 10.0063C9.85754 10.1108 9.71924 10.2139 9.57044 10.2935C9.42694 10.3703 9.22921 10.4495 8.99962 10.4495C8.77003 10.4495 8.5723 10.3703 8.4288 10.2935C8.28 10.2139 8.14169 10.1108 8.01899 10.0063C7.77412 9.79776 7.52917 9.5295 7.31032 9.27123C7.10613 9.03025 6.90795 8.77778 6.73901 8.56255L6.69714 8.50922C6.50763 8.26796 6.37819 8.10635 6.29934 8.02523C6.04272 7.76121 6.04872 7.33914 6.31274 7.08251C6.57676 6.82589 6.99883 6.83189 7.25545 7.09591C7.39506 7.23954 7.57482 7.46809 7.74569 7.68563L7.78545 7.73626C7.95692 7.95467 8.14031 8.18827 8.32757 8.40926L8.33295 8.41561V0.893901Z" fill="white"/>
<path d="M0.370995 10.0047C0.248455 9.65749 0.430577 9.27669 0.777778 9.15415C1.12498 9.03161 1.50578 9.21373 1.62832 9.56093L1.83618 10.1499C2.24573 11.3103 2.53542 12.1281 2.83284 12.7411C3.12287 13.3389 3.39257 13.6808 3.72907 13.9189C4.06558 14.157 4.47772 14.2975 5.13797 14.3721C5.81505 14.4485 6.68266 14.4495 7.91323 14.4495H10.0861C11.3166 14.4495 12.1843 14.4485 12.8613 14.3721C13.5216 14.2975 13.9337 14.157 14.2702 13.9189C14.6067 13.6808 14.8764 13.3389 15.1665 12.7411C15.4639 12.1281 15.7536 11.3103 16.1631 10.1499L16.371 9.56093C16.4935 9.21373 16.8743 9.03161 17.2215 9.15415C17.5687 9.27669 17.7509 9.65749 17.6283 10.0047L17.4072 10.6313C17.0139 11.7455 16.7001 12.6346 16.3661 13.3231C16.0208 14.0347 15.6268 14.5924 15.0403 15.0074C14.4539 15.4223 13.7968 15.6083 13.0109 15.697C12.2504 15.7828 11.3076 15.7828 10.126 15.7828H7.87331C6.69176 15.7828 5.74892 15.7828 4.9884 15.697C4.20249 15.6083 3.54544 15.4223 2.95898 15.0074C2.37251 14.5924 1.97847 14.0347 1.63324 13.3231C1.29916 12.6345 0.985367 11.7454 0.592126 10.6312L0.370995 10.0047Z" fill="white"/>
</svg>
