<svg width="22" height="22" viewBox="0 0 22 22" fill="none" xmlns="http://www.w3.org/2000/svg">
<path fill-rule="evenodd" clip-rule="evenodd" d="M13.8483 1.92841C14.9013 1.30218 16.1999 1.28255 17.2709 1.87711C17.7151 2.12374 18.1203 2.53795 18.7229 3.15398L18.8866 3.32115C19.4913 3.93851 19.896 4.3517 20.1363 4.80339C20.7129 5.88704 20.6941 7.19797 20.0864 8.2642C19.8332 8.70863 19.4166 9.10959 18.7945 9.70843L10.2445 17.9434C9.01713 19.126 8.2606 19.855 7.30332 20.2289C6.34467 20.6033 5.3023 20.5759 3.6159 20.5314L3.18305 20.5201C2.9359 20.5137 2.68605 20.5072 2.47976 20.4728C2.24285 20.4333 1.96145 20.3425 1.73884 20.0898C1.51821 19.8394 1.46159 19.5504 1.44834 19.3127C1.43663 19.1026 1.4563 18.8508 1.47608 18.5977L1.51245 18.1308C1.62736 16.653 1.69762 15.7495 2.05435 14.9285C2.41154 14.1063 3.02176 13.4454 4.01737 12.367L12.4338 3.24822C13.0185 2.61427 13.4115 2.18819 13.8483 1.92841ZM16.6237 3.04284C15.9679 2.67877 15.1753 2.69055 14.5299 3.07439C14.2824 3.22155 14.0287 3.48615 13.3335 4.23937L13.261 4.31792L17.7786 8.83558L17.7861 8.82843C18.5226 8.11904 18.7827 7.85902 18.928 7.604C19.3091 6.93527 19.3211 6.10989 18.9592 5.42964C18.8212 5.17018 18.5685 4.90231 17.8528 4.17117C17.1362 3.4391 16.875 3.1824 16.6237 3.04284ZM5.08077 13.1807L12.3559 5.29849L16.8181 9.7607L9.42725 16.8793C8.0561 18.2 7.49716 18.7217 6.81823 18.9869C6.14078 19.2515 5.38667 19.2439 3.50247 19.1947L3.2536 19.1882C3.11181 19.1844 2.9995 19.1815 2.90306 19.1764C2.85309 19.1738 2.81201 19.1708 2.77796 19.1676C2.77831 19.0607 2.78916 18.9095 2.80811 18.6663L2.83211 18.3583C2.95999 16.7169 3.02032 16.0511 3.27725 15.4598C3.53368 14.8695 3.97491 14.3789 5.08077 13.1807Z" fill="white"/>
<path d="M12.7782 19.2224C12.41 19.2224 12.1115 19.5208 12.1115 19.889C12.1115 20.2572 12.41 20.5557 12.7782 20.5557H19.8893C20.2575 20.5557 20.5559 20.2572 20.5559 19.889C20.5559 19.5208 20.2575 19.2224 19.8893 19.2224H12.7782Z" fill="white"/>
</svg>
