<svg width="56" height="56" viewBox="0 0 56 56" fill="none" xmlns="http://www.w3.org/2000/svg">
<path opacity="0.4" d="M12.8807 20.33C16.8605 17.223 22.002 14.583 28 14.583C33.998 14.583 39.1394 17.223 43.1193 20.33C47.1027 23.4398 50.1712 27.2856 51.8182 29.5951C52.4089 30.4166 53.0833 31.3545 53.0833 32.6663C53.0833 33.9782 52.4089 34.9161 51.8182 35.7376C50.1712 38.0471 47.1027 41.8929 43.1193 45.0027C39.1394 48.1097 33.998 50.7497 28 50.7497C22.002 50.7497 16.8605 48.1097 12.8807 45.0027C8.89728 41.8929 5.82875 38.0471 4.18176 35.7376C3.59106 34.9161 2.91664 33.9782 2.91664 32.6663C2.91664 31.3545 3.59106 30.4166 4.18176 29.5951C5.82875 27.2856 8.89728 23.4398 12.8807 20.33Z" fill="white"/>
<path d="M28 5.25C35.1224 5.25 41.4254 8.45765 45.8253 11.4968C48.0474 13.0317 49.8426 14.5642 51.0853 15.7153C51.6915 16.2769 52.6823 17.2939 53.0438 17.665L53.0716 17.6935C53.9312 18.6535 53.8499 20.1287 52.8898 20.9883C51.9304 21.8474 50.4567 21.7667 49.5968 20.8085C49.3109 20.515 48.4722 19.656 47.914 19.1388C46.7952 18.1025 45.1734 16.7183 43.173 15.3365C39.1278 12.5424 33.7642 9.91667 28 9.91667C22.2357 9.91667 16.8721 12.5424 12.8269 15.3365C10.8266 16.7183 9.20473 18.1025 8.08595 19.1388C7.5277 19.656 6.69091 20.513 6.40499 20.8065L6.40317 20.8085C5.54328 21.7667 4.06949 21.8474 3.11011 20.9883C2.15008 20.1287 2.0687 18.6535 2.92834 17.6935L2.95583 17.6653C3.3171 17.2944 4.30827 16.277 4.91463 15.7153C6.15731 14.5642 7.95255 13.0317 10.1747 11.4968C14.5745 8.45765 20.8776 5.25 28 5.25Z" fill="white"/>
<path fill-rule="evenodd" clip-rule="evenodd" d="M27.9999 41.9999C22.8453 41.9999 18.6666 37.8212 18.6666 32.6665C18.6666 27.5119 22.8453 23.3332 27.9999 23.3332C33.1546 23.3332 37.3333 27.5119 37.3333 32.6665C37.3333 37.8212 33.1546 41.9999 27.9999 41.9999ZM23.3333 32.6665C23.3333 35.2439 25.4226 37.3332 27.9999 37.3332C30.5773 37.3332 32.6666 35.2439 32.6666 32.6665C32.6666 30.0892 30.5773 27.9999 27.9999 27.9999C25.4226 27.9999 23.3333 30.0892 23.3333 32.6665Z" fill="white"/>
</svg>
