<svg width="18" height="20" viewBox="0 0 18 20" fill="none" xmlns="http://www.w3.org/2000/svg">
<path fill-rule="evenodd" clip-rule="evenodd" d="M15.8701 18.7283C16.2087 18.4901 16.51 18.2057 16.7678 17.883C17.6665 16.7532 17.6665 15.307 17.6665 12.4279V10.1657C17.6665 7.45013 17.6665 6.08744 17.2025 4.91766C16.4612 3.04655 14.9003 1.57366 12.9198 0.878548C11.6941 0.449219 10.2532 0.449219 7.38303 0.449219C5.71021 0.449219 4.87004 0.449219 4.12516 0.710547C2.91538 1.13544 1.96072 2.03677 1.5065 3.18255C1.22117 3.90165 1.22117 4.69898 1.22117 6.2865V10.8971C1.22117 11.2651 1.51984 11.5638 1.88784 11.5638C2.25584 11.5638 2.5545 11.2651 2.5545 10.8971V6.28656C2.5545 4.86801 2.5545 4.15587 2.74561 3.67322C3.05761 2.88655 3.72163 2.26433 4.56607 1.96744C5.09673 1.78077 5.86027 1.78077 7.38201 1.78077C7.61999 1.78077 7.84767 1.78077 8.06557 1.78101C8.08067 1.78203 8.09591 1.78255 8.11126 1.78255C9.37704 1.78255 10.4073 2.81277 10.4073 4.07855C10.4073 4.2207 10.4002 4.37386 10.3927 4.53582C10.3922 4.54603 10.3917 4.55627 10.3913 4.56655L10.391 4.57182C10.3688 5.05586 10.3437 5.60397 10.4801 6.11589C10.6784 6.85544 11.2606 7.43766 12.0002 7.63589C12.5118 7.7722 13.0587 7.74721 13.5434 7.72505L13.5495 7.72477C13.5593 7.72432 13.5691 7.72387 13.5789 7.72341C13.7414 7.71589 13.895 7.70878 14.0375 7.70878C15.2701 7.70878 16.2793 8.68569 16.3314 9.90572C16.3314 9.99054 16.3314 10.0768 16.3314 10.1646V12.427C16.3314 14.9968 16.3314 16.2866 15.7225 17.0519C15.5447 17.275 15.3358 17.4723 15.1003 17.6368C14.4204 18.1155 13.5714 18.2049 11.6972 18.221C11.3287 18.2241 11.0297 18.5224 11.0297 18.8908C11.0297 19.26 11.3292 19.5597 11.6983 19.5572C13.7733 19.5434 14.8543 19.444 15.8701 18.7283ZM16.2836 7.15607C15.6653 6.66744 14.8848 6.37545 14.0375 6.37545C13.8679 6.37545 13.6945 6.38314 13.5251 6.39066C13.5124 6.39122 13.4998 6.39178 13.4873 6.39233L13.4731 6.39298C13.0696 6.41146 12.6543 6.43047 12.345 6.347C12.065 6.27233 11.8437 6.051 11.769 5.771C11.6857 5.45797 11.7049 5.03791 11.7236 4.63171L11.7237 4.62878C11.7326 4.44744 11.7406 4.26077 11.7406 4.07855C11.7406 3.24054 11.455 2.46785 10.9759 1.85277C11.5831 1.90328 12.0601 1.98922 12.4772 2.13544C14.0923 2.70255 15.3625 3.89544 15.9616 5.40744C16.1444 5.86886 16.2369 6.41457 16.2836 7.15607Z" fill="white"/>
<path d="M6.34011 15.7826C6.34011 15.2916 5.94215 14.8937 5.45123 14.8937H5.44324C4.95232 14.8937 4.55435 15.2916 4.55435 15.7826C4.55435 16.2735 4.95232 16.6714 5.44324 16.6714H5.45123C5.94215 16.6714 6.34011 16.2735 6.34011 15.7826Z" fill="white"/>
<path fill-rule="evenodd" clip-rule="evenodd" d="M5.44428 12.0048C6.47736 12.0048 7.39531 12.3986 8.13887 12.8871C8.88325 13.376 9.48882 13.983 9.91167 14.4704L9.96426 14.5306C10.2362 14.8416 10.5554 15.2065 10.5554 15.7826C10.5554 16.3586 10.2362 16.7236 9.96426 17.0345L9.91167 17.0947C9.48882 17.5821 8.88325 18.1891 8.13887 18.678C7.39531 19.1665 6.47736 19.5603 5.44428 19.5603C4.41121 19.5603 3.49325 19.1665 2.74969 18.678C2.00532 18.1891 1.39975 17.5821 0.976896 17.0947L0.924303 17.0345C0.652361 16.7235 0.33317 16.3586 0.33317 15.7826C0.33317 15.2065 0.652364 14.8416 0.924304 14.5306L0.976896 14.4704C1.39975 13.983 2.00531 13.376 2.74969 12.8871C3.49325 12.3986 4.41121 12.0048 5.44428 12.0048ZM8.90455 15.3441C8.52905 14.9113 8.01409 14.4004 7.40684 14.0015C6.79877 13.6021 6.13398 13.3381 5.44428 13.3381C4.75458 13.3381 4.0898 13.6021 3.48172 14.0015C2.87447 14.4004 2.35951 14.9113 1.98401 15.3441C1.81004 15.5447 1.73443 15.6351 1.6905 15.7078C1.67411 15.7349 1.67042 15.747 1.66959 15.7498C1.66897 15.7519 1.6665 15.7603 1.6665 15.7826C1.6665 15.8048 1.66894 15.8131 1.66956 15.8152C1.67038 15.818 1.67411 15.8302 1.6905 15.8573C1.73443 15.93 1.81004 16.0205 1.98401 16.221C2.35951 16.6538 2.87447 17.1647 3.48172 17.5636C4.0898 17.9631 4.75458 18.227 5.44428 18.227C6.13398 18.227 6.79877 17.9631 7.40684 17.5636C8.01409 17.1647 8.52905 16.6538 8.90455 16.221C9.07852 16.0205 9.15413 15.93 9.19806 15.8573C9.21446 15.8302 9.21815 15.8181 9.21897 15.8153C9.21959 15.8132 9.22206 15.8048 9.22206 15.7826C9.22206 15.7603 9.21963 15.752 9.21901 15.7499C9.21818 15.7471 9.21446 15.7349 9.19806 15.7078C9.15413 15.6351 9.07852 15.5447 8.90455 15.3441Z" fill="white"/>
</svg>
