<svg width="18" height="18" viewBox="0 0 18 18" fill="none" xmlns="http://www.w3.org/2000/svg">
<path opacity="0.4" d="M9.9375 15.375H9C5.46447 15.375 3.6967 15.375 2.59835 14.2767C1.5 13.1783 1.5 11.4105 1.5 7.875V5.5832C1.5 4.22085 1.5 3.53967 1.78524 3.02855C1.98857 2.6642 2.2892 2.36357 2.65355 2.16024C3.16467 1.875 3.84585 1.875 5.2082 1.875C6.08102 1.875 6.51742 1.875 6.89944 2.01826C7.7309 2.33005 8.0966 3.06463 8.4699 3.81448C8.4882 3.85125 8.50653 3.88805 8.52492 3.92484L9 4.875H12.5625C14.1425 4.875 14.9325 4.875 15.5 5.25419C15.7457 5.41835 15.9566 5.62929 16.1208 5.87497C16.5 6.44247 16.5 7.23248 16.5 8.8125C16.5 11.4459 16.5 12.7626 15.868 13.7084C15.7819 13.8373 15.6881 13.9604 15.5871 14.0772C15.8469 13.6971 15.998 13.2418 15.998 12.7525C15.998 12.2578 15.8435 11.7978 15.5784 11.4152C15.1301 10.768 14.3657 10.3418 13.498 10.3418C12.6304 10.3418 11.866 10.768 11.4177 11.4152C11.1526 11.7978 10.998 12.2578 10.998 12.7525C10.998 13.2473 11.1526 13.7073 11.4178 14.09C11.8661 14.7371 12.6305 15.1632 13.498 15.1632C13.692 15.1632 13.8808 15.1419 14.0621 15.1016C13.1676 15.375 11.9291 15.375 9.9375 15.375Z" fill="#F8F9F9"/>
<path d="M5.2082 2.43762C6.12528 2.43762 6.43822 2.44617 6.70194 2.54506C7.32251 2.77777 7.59479 3.3224 8.01006 4.15303L8.08986 4.31262H5.25C4.93934 4.31262 4.6875 4.56446 4.6875 4.87512C4.6875 5.18578 4.93934 5.43762 5.25 5.43762H8.98869C8.99651 5.43779 9.00434 5.43779 9.01219 5.43762H12.5625C13.3642 5.43762 13.9232 5.4383 14.354 5.48213C14.7755 5.52501 15.0116 5.60447 15.1875 5.72202C15.3718 5.84513 15.53 6.00334 15.6531 6.1876C15.7558 6.34136 15.8296 6.54137 15.8751 6.8704C15.9218 7.20846 15.9341 7.64304 15.9367 8.25257C15.9381 8.56323 16.191 8.81397 16.5017 8.81262C16.8123 8.81126 17.0631 8.55832 17.0617 8.24767C17.0591 7.64349 17.0478 7.13844 16.9895 6.71635C16.9299 6.28522 16.817 5.90458 16.5885 5.56258C16.3833 5.25548 16.1196 4.99181 15.8125 4.78661C15.421 4.52497 14.9783 4.41483 14.4679 4.36291C13.9734 4.3126 13.3571 4.31261 12.5928 4.31262L9.34764 4.31262L9.02804 3.67341C9.00469 3.62672 8.98101 3.5788 8.95684 3.52989C8.60283 2.81353 8.14354 1.88416 7.09695 1.49169C6.6178 1.31201 6.08403 1.31225 5.31198 1.31259L5.18213 1.31262C4.52308 1.31261 3.99154 1.31261 3.56227 1.35045C3.11997 1.38944 2.73291 1.47191 2.37943 1.66917C1.924 1.92333 1.54821 2.29912 1.29405 2.75455C1.09679 3.10803 1.01432 3.49509 0.975328 3.93739C0.937489 4.36665 0.937494 4.8982 0.9375 5.55725V7.91815C0.937491 9.64944 0.937483 11.0062 1.07981 12.0648C1.22549 13.1484 1.5295 14.0034 2.2006 14.6745C2.79546 15.2694 3.53584 15.5766 4.45423 15.74C5.35641 15.9006 6.47883 15.9299 7.87253 15.9361L7.875 15.9361H8.25C8.56066 15.9361 8.8125 15.6842 8.8125 15.3736C8.8125 15.0629 8.56066 14.8111 8.25 14.8111H7.87617C6.47169 14.8049 5.44372 14.7734 4.6513 14.6324C3.87486 14.4943 3.37633 14.2593 2.9961 13.879C2.56886 13.4518 2.32369 12.8737 2.19478 11.9149C2.0637 10.94 2.0625 9.65879 2.0625 7.87512V5.58332C2.0625 4.89209 2.06301 4.41023 2.09598 4.03618C2.1283 3.66952 2.18845 3.46043 2.27643 3.30278C2.42892 3.02952 2.6544 2.80404 2.92766 2.65155C3.08531 2.56357 3.2944 2.50342 3.66106 2.4711C4.03511 2.43813 4.51697 2.43762 5.2082 2.43762Z" fill="#F8F9F9"/>
<path fill-rule="evenodd" clip-rule="evenodd" d="M14.0626 9.37506C14.0626 9.0644 13.8107 8.81256 13.5001 8.81256C13.1894 8.81256 12.9376 9.0644 12.9376 9.37506V9.82695C12.3066 9.94077 11.7416 10.2427 11.3089 10.6728L10.8043 10.3483C10.5429 10.1803 10.1949 10.256 10.0269 10.5173C9.85892 10.7786 9.93456 11.1266 10.1959 11.2946L10.6743 11.6022C10.522 11.9552 10.4376 12.3431 10.4376 12.7501C10.4376 13.1571 10.522 13.5451 10.6743 13.8981L10.1962 14.2055C9.93488 14.3735 9.85923 14.7215 10.0272 14.9828C10.1952 15.2441 10.5433 15.3198 10.8046 15.1518L11.309 14.8275C11.7417 15.2575 12.3067 15.5594 12.9376 15.6732V16.1251C12.9376 16.4357 13.1894 16.6876 13.5001 16.6876C13.8107 16.6876 14.0626 16.4357 14.0626 16.1251V15.6732C14.6935 15.5594 15.2584 15.2575 15.6911 14.8275L16.1956 15.1518C16.4569 15.3198 16.8049 15.2441 16.9729 14.9828C17.1409 14.7215 17.0653 14.3735 16.8039 14.2055L16.3258 13.8981C16.4781 13.5451 16.5626 13.1571 16.5626 12.7501C16.5626 12.3431 16.4781 11.9552 16.3259 11.6022L16.8043 11.2946C17.0656 11.1266 17.1412 10.7786 16.9732 10.5173C16.8052 10.256 16.4572 10.1803 16.1959 10.3483L15.6912 10.6728C15.2585 10.2427 14.6935 9.94077 14.0626 9.82695V9.37506ZM11.8821 11.733C12.2266 11.2357 12.8192 10.9018 13.5001 10.9018C14.181 10.9018 14.7735 11.2357 15.118 11.733C15.3208 12.0257 15.4376 12.3747 15.4376 12.7501C15.4376 13.1255 15.3208 13.4745 15.118 13.7672C14.7735 14.2644 14.1809 14.5983 13.5001 14.5983C12.8192 14.5983 12.2267 14.2644 11.8822 13.7672C11.6794 13.4745 11.5626 13.1255 11.5626 12.7501C11.5626 12.3747 11.6793 12.0257 11.8821 11.733Z" fill="#F8F9F9"/>
</svg>
