<svg width="18" height="18" viewBox="0 0 18 18" fill="none" xmlns="http://www.w3.org/2000/svg">
<path opacity="0.4" fill-rule="evenodd" clip-rule="evenodd" d="M7.125 3.005H7.26521C7.13854 3.55265 7.07557 3.82726 7.17147 4.03868C7.23383 4.17613 7.34008 4.29382 7.47676 4.37684C7.68779 4.505 8.00067 4.505 8.62642 4.505H9.37358C9.99933 4.505 10.3122 4.505 10.5232 4.37684C10.6599 4.29382 10.7662 4.17613 10.8285 4.03868C10.9244 3.82726 10.8615 3.55265 10.7348 3.005H10.875C12.8583 3.0124 13.9192 3.08175 14.6062 3.7325C15.375 4.46088 15.375 5.63319 15.375 7.97781V11.5304C15.375 13.8751 15.375 15.0474 14.6062 15.7757C13.8373 16.5041 12.5999 16.5041 10.125 16.5041H7.87498C5.40012 16.5041 4.16269 16.5041 3.39384 15.7757C2.625 15.0474 2.625 13.8751 2.625 11.5304V7.97781C2.625 5.63319 2.625 4.46088 3.39384 3.7325C4.08075 3.08175 5.1417 3.0124 7.125 3.005ZM8.99506 10.505C9.80162 10.505 10.4555 9.83343 10.4555 9.005C10.4555 8.17658 9.80162 7.505 8.99506 7.505C8.1885 7.505 7.53465 8.17658 7.53465 9.005C7.53465 9.83343 8.1885 10.505 8.99506 10.505Z" fill="#F8F9F9"/>
<path fill-rule="evenodd" clip-rule="evenodd" d="M6.97215 9.00494C6.97215 7.88013 7.86375 6.94244 8.99506 6.94244C10.1264 6.94244 11.018 7.88013 11.018 9.00494C11.018 10.1298 10.1264 11.0674 8.99506 11.0674C7.86375 11.0674 6.97215 10.1298 6.97215 9.00494ZM8.99506 8.06744C8.51325 8.06744 8.09715 8.4729 8.09715 9.00494C8.09715 9.53699 8.51325 9.94244 8.99506 9.94244C9.47688 9.94244 9.89297 9.53699 9.89297 9.00494C9.89297 8.4729 9.47688 8.06744 8.99506 8.06744Z" fill="#F8F9F9"/>
<path d="M11.2061 13.8803C10.0652 12.6071 7.93569 12.6504 6.78727 13.8876C6.57592 14.1153 6.22001 14.1286 5.99232 13.9172C5.76463 13.7059 5.75139 13.3499 5.96274 13.1223C7.53463 11.4289 10.4352 11.3342 12.0439 13.1296C12.2512 13.3609 12.2317 13.7166 12.0004 13.9239C11.769 14.1312 11.4134 14.1117 11.2061 13.8803Z" fill="#F8F9F9"/>
<path fill-rule="evenodd" clip-rule="evenodd" d="M9.00002 0.942468C9.29656 0.942273 9.59152 0.942091 9.80759 0.991821C10.305 1.1063 10.7434 1.4165 10.988 1.86621C11.0806 2.03655 11.1324 2.23081 11.1828 2.44565C12.0309 2.45243 12.7369 2.47722 13.319 2.57401C13.9835 2.68451 14.5403 2.89669 14.993 3.32556C15.5046 3.81022 15.73 4.42611 15.8358 5.17143C15.9375 5.88817 15.9375 6.80036 15.9375 7.93566V11.5754C15.9375 12.7107 15.9375 13.6229 15.8358 14.3396C15.73 15.0849 15.5046 15.7008 14.993 16.1855C14.4857 16.6661 13.8483 16.8742 13.0764 16.9725C12.326 17.068 11.3685 17.068 10.1649 17.068H7.83512C6.63154 17.068 5.67396 17.068 4.92359 16.9725C4.15174 16.8742 3.51428 16.6661 3.00699 16.1855C2.49541 15.7008 2.26996 15.0849 2.16419 14.3396C2.06247 13.6229 2.06248 12.7107 2.0625 11.5754V7.93564C2.06248 6.80035 2.06247 5.88817 2.16419 5.17143C2.26996 4.42611 2.49541 3.81022 3.00699 3.32556C3.45968 2.89669 4.0165 2.68451 4.68101 2.57401C5.26311 2.47722 5.96914 2.45243 6.81723 2.44565C6.86759 2.23081 6.91939 2.03655 7.01205 1.86621C7.25668 1.4165 7.69506 1.1063 8.19244 0.991821C8.40852 0.942091 8.70348 0.942273 9.00002 0.942468ZM6.57733 3.57332C5.85778 3.58311 5.3067 3.61042 4.86555 3.68378C4.33203 3.77249 4.01492 3.92037 3.7807 4.14225C3.52344 4.38597 3.36446 4.72042 3.27803 5.32951C3.18883 5.95803 3.1875 6.79014 3.1875 7.97921V11.5318C3.1875 12.7209 3.18883 13.553 3.27803 14.1816C3.36446 14.7906 3.52344 15.1251 3.7807 15.3688C4.04225 15.6166 4.40794 15.7727 5.06573 15.8565C5.73673 15.942 6.62248 15.943 7.875 15.943H10.125C11.3775 15.943 12.2633 15.942 12.9343 15.8565C13.5921 15.7727 13.9578 15.6166 14.2193 15.3688C14.4766 15.1251 14.6355 14.7906 14.722 14.1816C14.8112 13.553 14.8125 12.7209 14.8125 11.5318V7.97921C14.8125 6.79014 14.8112 5.95803 14.722 5.32951C14.6355 4.72042 14.4766 4.38597 14.2193 4.14225C13.9851 3.92037 13.668 3.77249 13.1345 3.68378C12.6933 3.61042 12.1422 3.58311 11.4227 3.57332C11.4229 3.5751 11.4232 3.57685 11.4234 3.57857C11.4486 3.78777 11.4504 4.02951 11.3408 4.27102C11.2288 4.51784 11.0426 4.71949 10.8153 4.85757C10.6014 4.98746 10.3696 5.03032 10.1531 5.0493C9.94545 5.06749 9.68987 5.06748 9.39707 5.06747H8.60297C8.31017 5.06748 8.05458 5.06749 7.84698 5.0493C7.63042 5.03032 7.39864 4.98746 7.18478 4.85757C6.95744 4.71949 6.7712 4.51784 6.65924 4.27102C6.54967 4.02951 6.5514 3.78777 6.57668 3.57857C6.57689 3.57685 6.5771 3.5751 6.57733 3.57332ZM9.00001 2.06742C8.61775 2.06742 8.51933 2.07095 8.44475 2.08811C8.23315 2.13681 8.07763 2.26157 8.00029 2.40374C7.97904 2.49559 7.94174 2.64901 7.90028 2.81954C7.81166 3.18401 7.70403 3.62666 7.69354 3.71347L7.69356 3.71444C7.69502 3.79337 7.69711 3.90681 7.94518 3.92855C8.09768 3.94191 8.30329 3.94242 8.62643 3.94242H9.37359C9.69672 3.94242 9.90233 3.94191 10.0548 3.92855C10.2923 3.91874 10.3215 3.78108 10.3065 3.71347C10.296 3.62666 10.1884 3.18405 10.0997 2.81958C10.0583 2.64905 10.021 2.49559 9.99972 2.40374C9.92238 2.26157 9.76686 2.13681 9.55526 2.08811C9.48069 2.07095 9.38227 2.06742 9.00001 2.06742Z" fill="#F8F9F9"/>
</svg>
