<svg width="24" height="24" viewBox="0 0 24 24" fill="none" xmlns="http://www.w3.org/2000/svg">
<g opacity="0.4">
<path d="M10.5303 14.4697C10.3897 14.329 10.1989 14.25 10 14.25L7.46166 14.25C6.79209 14.25 6.23335 14.25 5.78102 14.296C5.30755 14.3441 4.86818 14.4489 4.47218 14.7135C4.17191 14.9141 3.9141 15.1719 3.71346 15.4722C3.44886 15.8682 3.34415 16.3075 3.29599 16.781C3.24997 17.2334 3.24998 17.8688 3.25 18.5383C3.24998 19.2079 3.24997 19.7667 3.29599 20.219C3.34415 20.6925 3.44886 21.1318 3.71346 21.5278C3.9141 21.8281 4.17191 22.0859 4.47218 22.2865C4.86818 22.5511 5.30755 22.6559 5.78102 22.704C6.23335 22.75 6.79206 22.75 7.46163 22.75L16.5383 22.75C17.2079 22.75 17.7667 22.75 18.219 22.704C18.6925 22.6559 19.1318 22.5511 19.5278 22.2865C19.8281 22.0859 20.0859 21.8281 20.2865 21.5278C20.5511 21.1318 20.6559 20.6925 20.704 20.219C20.75 19.7666 20.75 19.2079 20.75 18.5383C20.75 17.8687 20.75 17.2334 20.704 16.781C20.6559 16.3075 20.5511 15.8682 20.2865 15.4722C20.0859 15.1719 19.8281 14.9141 19.5278 14.7135C19.1318 14.4489 18.6925 14.3441 18.219 14.296C17.7667 14.25 17.2079 14.25 16.5384 14.25H14C13.8011 14.25 13.6103 14.329 13.4697 14.4697L12 15.9393L10.5303 14.4697Z" fill="url(#paint0_linear_797_4485)"/>
<path d="M9.25 7C9.25 6.58579 8.91421 6.25 8.5 6.25C8.08579 6.25 7.75 6.58579 7.75 7L7.75 9C7.75 11.3472 9.65279 13.25 12 13.25C14.3472 13.25 16.25 11.3472 16.25 9V7C16.25 6.58579 15.9142 6.25 15.5 6.25C15.0858 6.25 14.75 6.58579 14.75 7V9C14.75 10.5188 13.5188 11.75 12 11.75C10.4812 11.75 9.25 10.5188 9.25 9V7Z" fill="url(#paint1_linear_797_4485)"/>
</g>
<path d="M6.25 14.2644C6.60373 14.25 7.00715 14.25 7.46163 14.25H7.75L7.75 22.75H7.46166C7.00722 22.75 6.60371 22.75 6.25 22.7356L6.25 14.2644Z" fill="url(#paint2_linear_797_4485)"/>
<path d="M16.25 22.75L16.25 14.25H16.5383C16.9928 14.25 17.3963 14.25 17.75 14.2644L17.75 22.7356C17.3963 22.75 16.9929 22.75 16.5385 22.75H16.25Z" fill="url(#paint3_linear_797_4485)"/>
<path d="M11.25 2.81597C9.34033 3.15598 7.872 4.7714 7.75723 6.75H7.5C7.08579 6.74999 6.75 7.08578 6.75 7.49999C6.75 7.91421 7.08578 8.25 7.5 8.25L16.5 8.25C16.9142 8.25 17.25 7.91421 17.25 7.5C17.25 7.08578 16.9142 6.75 16.5 6.75H16.2428C16.128 4.7714 14.6597 3.15598 12.75 2.81597V2C12.75 1.58579 12.4142 1.25 12 1.25C11.5858 1.25 11.25 1.58579 11.25 2V2.81597Z" fill="url(#paint4_linear_797_4485)"/>
<defs>
<linearGradient id="paint0_linear_797_4485" x1="3.24973" y1="22.7499" x2="19.7213" y2="5.28005" gradientUnits="userSpaceOnUse">
<stop stop-color="white"/>
<stop offset="1" stop-color="#2E3238"/>
</linearGradient>
<linearGradient id="paint1_linear_797_4485" x1="3.24973" y1="22.7499" x2="19.7213" y2="5.28005" gradientUnits="userSpaceOnUse">
<stop stop-color="white"/>
<stop offset="1" stop-color="#2E3238"/>
</linearGradient>
<linearGradient id="paint2_linear_797_4485" x1="6.24982" y1="22.7499" x2="24.1334" y2="13.1842" gradientUnits="userSpaceOnUse">
<stop stop-color="white"/>
<stop offset="1" stop-color="#2E3238"/>
</linearGradient>
<linearGradient id="paint3_linear_797_4485" x1="6.24982" y1="22.7499" x2="24.1334" y2="13.1842" gradientUnits="userSpaceOnUse">
<stop stop-color="white"/>
<stop offset="1" stop-color="#2E3238"/>
</linearGradient>
<linearGradient id="paint4_linear_797_4485" x1="6.24982" y1="22.7499" x2="24.1334" y2="13.1842" gradientUnits="userSpaceOnUse">
<stop stop-color="white"/>
<stop offset="1" stop-color="#2E3238"/>
</linearGradient>
</defs>
</svg>
