<svg width="18" height="19" viewBox="0 0 18 19" fill="none" xmlns="http://www.w3.org/2000/svg">
<path opacity="0.4" fill-rule="evenodd" clip-rule="evenodd" d="M9.00011 13.5302C9.35199 13.5302 9.69009 13.394 9.94305 13.1503C10.1197 12.9802 10.3008 12.8084 10.484 12.6346C12.7096 10.5237 15.2469 8.11717 13.8499 4.75795C13.0314 2.78965 11.0665 1.53015 9.00011 1.53015C6.93371 1.53015 4.96883 2.78964 4.15028 4.75795C2.75898 8.10353 5.26826 10.4922 7.48183 12.5994C7.67686 12.7851 7.8696 12.9686 8.05718 13.1503C8.31014 13.394 8.64824 13.5302 9.00011 13.5302ZM9 8.65515C10.0355 8.65515 10.875 7.81569 10.875 6.78015C10.875 5.74462 10.0355 4.90515 9 4.90515C7.96447 4.90515 7.125 5.74462 7.125 6.78015C7.125 7.81569 7.96447 8.65515 9 8.65515Z" fill="#F8F9F9"/>
<path fill-rule="evenodd" clip-rule="evenodd" d="M9 9.21765C7.656 9.21765 6.5625 8.12415 6.5625 6.78015C6.5625 5.43615 7.656 4.34265 9 4.34265C10.344 4.34265 11.4375 5.43615 11.4375 6.78015C11.4375 8.12415 10.344 9.21765 9 9.21765ZM9 5.46765C8.27625 5.46765 7.6875 6.0564 7.6875 6.78015C7.6875 7.5039 8.27625 8.09265 9 8.09265C9.72375 8.09265 10.3125 7.5039 10.3125 6.78015C10.3125 6.0564 9.72375 5.46765 9 5.46765Z" fill="#F8F9F9"/>
<path fill-rule="evenodd" clip-rule="evenodd" d="M7.66722 13.5564C8.02722 13.9022 8.50047 14.0927 8.99997 14.0927C9.49947 14.0927 9.97195 13.9022 10.332 13.5557C10.5075 13.3869 10.6875 13.2159 10.8697 13.0434C13.1175 10.9119 15.9149 8.25912 14.3692 4.54214C13.4805 2.40389 11.322 0.967651 8.99997 0.967651C6.67797 0.967651 4.52021 2.40389 3.63146 4.54214C2.09096 8.24489 4.86521 10.8857 7.09421 13.0074L7.11578 13.028C7.30192 13.2055 7.48597 13.3809 7.66722 13.5564ZM4.67022 4.97415C5.38647 3.25065 7.12647 2.09265 8.99997 2.09265V2.0919C10.8735 2.0919 12.6142 3.24989 13.3312 4.97339C14.5792 7.9749 12.3007 10.1364 10.0965 12.2267C9.91198 12.4014 9.73048 12.5739 9.55273 12.7449C9.40348 12.8889 9.20697 12.9677 8.99997 12.9677C8.79297 12.9677 8.59646 12.8882 8.44871 12.7464C8.25971 12.5634 8.06623 12.3789 7.86973 12.1921C5.68581 10.1132 3.42677 7.96278 4.67022 4.97415Z" fill="#F8F9F9"/>
<path d="M9 17.0926C6.5625 17.0926 2.4375 16.6194 2.4375 14.8456C2.4375 14.0109 3.34201 13.3831 5.12626 12.9811C5.42926 12.9129 5.72999 13.1034 5.79899 13.4064C5.86724 13.7094 5.67674 14.0102 5.37374 14.0792C4.08374 14.3702 3.64349 14.7204 3.56924 14.8464C3.74924 15.1832 5.53948 15.9676 9.00073 15.9676C12.462 15.9676 14.2515 15.1832 14.4323 14.8464C14.358 14.7204 13.9178 14.3694 12.6278 14.0792C12.3248 14.0109 12.1343 13.7102 12.2025 13.4064C12.2708 13.1034 12.5715 12.9129 12.8752 12.9811C14.6595 13.3831 15.564 14.0101 15.564 14.8456C15.564 15.5911 14.8343 16.1746 13.3965 16.5781C12.2153 16.9096 10.6545 17.0926 9.0015 17.0926H9Z" fill="#F8F9F9"/>
</svg>
