<svg width="94" height="48" viewBox="0 0 94 48" fill="none" xmlns="http://www.w3.org/2000/svg">
<path d="M14.4215 15.4952C14.4215 14.2859 14.0535 13.3216 13.3174 12.5855C12.5992 11.8495 11.617 11.4814 10.4077 11.4814H5.4118C4.14993 11.4814 3.13308 11.8673 2.34442 12.6381C1.4853 13.4625 1.04785 14.6361 1.04785 16.144V22.3313H3.46642V16.5289C3.46642 14.7581 4.14993 13.8642 5.51695 13.8642H6.63896C6.44653 14.3553 6.35819 14.8979 6.35819 15.4941C6.35819 16.7034 6.70836 17.6677 7.42762 18.387C8.14583 19.1052 9.11011 19.4732 10.3194 19.4732C11.5287 19.4732 12.5277 19.122 13.2816 18.4217C14.0356 17.7024 14.4215 16.7392 14.4215 15.4941V15.4952ZM10.4424 17.4931H10.2668C9.77574 17.4931 9.38982 17.2828 9.11011 16.8443C8.88192 16.4763 8.75889 16.0378 8.75889 15.4941C8.75889 14.9505 8.88192 14.4773 9.14481 14.1092C9.4424 13.6886 9.8462 13.4783 10.3888 13.4783C10.9314 13.4783 11.3184 13.6707 11.616 14.0745C11.8788 14.4247 12.0019 14.8811 12.0019 15.4237C12.0019 16.8086 11.4761 17.4921 10.4414 17.4921L10.4424 17.4931Z" fill="black"/>
<path d="M20.5745 19.4216H42.8359C43.5541 20.4206 44.6761 20.9285 46.1662 20.9285C48.6205 20.9285 50.1978 19.2807 50.1978 16.9326C50.1978 14.5845 48.6026 12.9714 46.0789 12.9714C43.5552 12.9714 42.1177 14.5666 42.1177 17.0735H22.1697C20.3642 17.0735 20.0666 16.4426 20.0666 15.2501V8.11639H17.6123V16.5299C17.6123 18.3354 18.6986 19.4216 20.5745 19.4216ZM46.0263 14.9336H46.2019C47.2356 14.9336 47.7624 15.635 47.7624 17.0199C47.7624 18.1598 47.1315 18.9306 46.1672 18.9306C45.1157 18.9306 44.5195 18.1062 44.5195 16.9147C44.5195 15.7233 45.1336 14.9336 46.0274 14.9336H46.0263Z" fill="black"/>
<path d="M55.4742 11.4803V18.0188C55.4742 19.5614 54.6677 20.3322 53.0557 20.3322V22.3134C54.7381 22.3134 55.9653 21.98 56.7193 21.2965C57.5426 20.5783 57.9464 19.4205 57.9464 17.8085V11.4803H55.4753H55.4742Z" fill="black"/>
<path d="M57.7693 8.13339H55.5957V10.1492H57.7693V8.13339Z" fill="black"/>
<path d="M3.81614 25.1935H1.64258V27.2093H3.81614V25.1935Z" fill="black"/>
<path d="M4.36021 28.5767C3.08047 28.5767 2.06362 28.9626 1.31071 29.7166C0.556744 30.4706 0.171875 31.5042 0.171875 32.784C0.171875 34.0637 0.557795 35.0974 1.32858 35.8514C2.11725 36.6053 3.15092 36.9912 4.44854 36.9912C5.74616 36.9912 6.76196 36.6053 7.5338 35.8345C8.30564 35.0627 8.69051 34.0469 8.69051 32.7672C8.69051 31.4874 8.28776 30.4359 7.4991 29.6998C6.71043 28.9458 5.65888 28.5778 4.36126 28.5778L4.36021 28.5767ZM5.86709 34.4496C5.51692 34.906 5.02584 35.1163 4.37704 35.1163C3.76398 35.1163 3.27291 34.906 2.93956 34.4496C2.6241 34.0469 2.46636 33.5032 2.46636 32.8544C2.46636 31.2424 3.0973 30.4359 4.37704 30.4359C5.65678 30.4359 6.34029 31.2424 6.34029 32.8544C6.34029 33.5032 6.18255 34.0458 5.86709 34.4496Z" fill="black"/>
<path d="M7.12961 25.1935H4.95605V27.2093H7.12961V25.1935Z" fill="black"/>
<path d="M45.8337 23.9847H43.6602V26.0006H45.8337V23.9847Z" fill="black"/>
<path d="M42.5202 23.9847H40.3467V26.0006H42.5202V23.9847Z" fill="black"/>
<path d="M51.0034 32.9236C51.0034 34.0635 50.5828 34.6418 49.7594 34.6418H47.4628C46.7089 34.6418 46.2357 34.5893 46.0253 34.502C46.7793 33.6429 47.1642 32.6786 47.1642 31.627C47.1642 31.1885 47.0937 30.7332 46.9539 30.2947C46.4102 28.5944 44.9559 27.5249 43.08 27.5249C41.204 27.5249 39.7665 28.5944 39.206 30.2947C39.0662 30.7332 38.9957 31.1885 38.9957 31.627C38.9957 32.6786 39.3816 33.6429 40.1346 34.502C39.9421 34.5893 39.4689 34.6418 38.6971 34.6418H18.2233V33.0466C18.2233 30.7153 16.5756 29.0329 14.3326 29.0329C12.0896 29.0329 10.3535 30.6281 10.3535 32.9941C10.3535 35.3601 12.036 36.991 14.3326 36.991C15.156 36.991 15.647 36.9563 15.8395 36.8859C15.647 37.5694 15.0855 37.9195 14.1391 37.9195H13.9288V39.8828H14.1917C16.5756 39.8828 17.9079 38.9185 18.1876 36.991H38.696C40.3964 36.991 41.8507 36.7807 43.0779 36.3422C44.305 36.7807 45.7593 36.991 47.4597 36.991H50.2642C51.2978 36.991 52.1044 36.6408 52.6827 35.9216C53.1906 35.3075 53.4535 34.5367 53.4535 33.6071V25.7015H50.9992V32.9236H51.0034ZM15.7711 34.6418H14.3515C13.4398 34.6418 12.8436 33.8879 12.8436 32.8889C12.8436 31.9604 13.3347 31.2411 14.2632 31.2411C15.1917 31.2411 15.7701 31.9068 15.7701 32.9415V34.6418H15.7711ZM43.9391 33.4673C43.6415 33.6776 43.3607 33.8532 43.08 33.993C42.7992 33.8532 42.5184 33.6776 42.2387 33.4673C41.5552 32.9762 41.2219 32.3105 41.2219 31.4514C41.2219 30.9078 41.3796 30.4346 41.6782 30.0497C42.0463 29.647 42.5016 29.4367 43.08 29.4367C44.2545 29.4367 44.9559 30.3484 44.9559 31.4525C44.9559 32.3116 44.6226 32.9772 43.9391 33.4683V33.4673Z" fill="black"/>
<path d="M57.7004 25.6851H55.2461V36.9914H57.7004V25.6851Z" fill="black"/>
<path d="M79.709 32.6794C81.1054 32.6794 82.5029 32.7099 83.8984 32.6679C84.6691 32.6447 85.2643 32.8834 85.8006 33.4324C86.3842 34.0296 87.033 34.5638 87.6545 35.1264C87.6124 35.2221 87.5693 35.3167 87.5273 35.4124C87.2002 35.4724 86.8743 35.5859 86.5472 35.5838C82.2159 35.5575 77.8845 35.5165 73.5532 35.4724C73.3471 35.4703 73.141 35.403 72.8013 35.343C73.0369 35.0307 73.1694 34.8088 73.345 34.629C73.9664 33.9928 74.5995 33.3682 75.2325 32.7436C78.0338 29.9822 80.8341 27.2208 83.6386 24.4637C85.4757 22.6571 87.3716 20.9052 89.1319 19.0261C89.8544 18.2553 90.4716 17.2784 90.8155 16.2836C91.6872 13.7609 90.4842 11.7704 88.6661 10.2204C86.1161 8.04576 83.4052 6.06043 80.7742 3.9794C80.3273 3.62503 79.9624 3.55983 79.4808 3.93734C76.9665 5.91216 74.4144 7.84176 71.9138 9.8334C70.8549 10.6778 69.899 11.6337 69.4332 12.9796C68.6698 15.1816 69.1714 17.0881 70.7182 18.7569C71.3523 19.4414 72.0253 20.0924 72.7025 20.7338C73.0968 21.1071 73.0958 21.3963 72.7056 21.7864C71.3228 23.1713 71.3228 23.1923 69.8959 21.8285C68.1566 20.167 66.8159 18.2879 66.5078 15.802C66.2302 13.5559 66.8306 11.5495 68.1755 9.8029C68.898 8.86492 69.8086 8.04681 70.7308 7.2939C73.6552 4.90687 76.629 2.57768 79.5765 0.217998C79.9298 -0.0648698 80.2379 -0.0753847 80.5923 0.202225C83.3537 2.36842 86.1371 4.50623 88.8733 6.70398C89.9742 7.58833 91.1036 8.49267 91.9953 9.57261C94.7062 12.8566 94.6673 17.0933 91.8807 20.3048C90.4579 21.9441 88.828 23.4026 87.278 24.9305C84.9352 27.2408 82.5818 29.5385 80.2347 31.8435C80.0192 32.0548 79.8173 32.2799 79.6091 32.4986C79.6417 32.5585 79.6753 32.6195 79.7079 32.6794H79.709Z" fill="black"/>
<path d="M80.5275 15.2903C79.6 15.2903 78.6736 15.2861 77.7461 15.2903C74.521 15.3061 75.5452 15.3913 73.2024 13.2061C73.0688 13.081 72.9942 12.8928 72.7723 12.5447H87.698C87.3815 12.917 87.2185 13.143 87.0219 13.3355C85.0365 15.2756 83.0459 17.2104 81.0575 19.1453C77.6799 22.4314 74.3075 25.7217 70.9236 29.0005C69.38 30.4968 68.749 32.2761 69.2327 34.3897C69.5987 35.988 70.6471 37.1468 71.8806 38.1237C74.3706 40.0954 76.9059 42.0092 79.4044 43.9714C79.8755 44.3416 80.2299 44.4299 80.7325 44.0177C81.9513 43.0177 83.2131 42.0702 84.455 41.0986C85.6959 40.1269 86.9178 39.1322 88.1744 38.1837C89.4142 37.2478 90.3374 36.0942 90.8338 34.6115C91.4626 32.7324 90.9074 31.0962 89.7317 29.6388C89.065 28.8112 88.2995 28.0583 87.535 27.3159C87.0692 26.8627 87.0839 26.5209 87.5603 26.1097C87.9304 25.7911 88.2312 25.3894 88.616 25.095C88.7696 24.9783 89.1597 24.9446 89.2869 25.054C91.3091 26.7964 93.1871 28.6545 93.7508 31.419C94.3649 34.4286 93.5478 37.0554 91.3564 39.1437C89.7696 40.6559 87.9904 41.9693 86.2763 43.3447C84.5265 44.7485 82.7473 46.1145 80.9902 47.5078C80.1794 48.1513 80.0995 48.1713 79.2898 47.5246C76.4948 45.2953 73.7302 43.025 70.8984 40.8441C69.5019 39.7694 68.2864 38.5749 67.4483 37.0228C66.2884 34.8765 66.0034 32.6104 66.953 30.3517C67.4409 29.1897 68.1517 28.0509 69.0077 27.1298C70.971 25.0151 73.0846 23.0392 75.1372 21.0087C76.826 19.3388 78.5169 17.67 80.2025 15.998C80.3529 15.8487 80.4781 15.6741 80.6148 15.5111C80.5853 15.4375 80.5569 15.3639 80.5275 15.2903Z" fill="black"/>
</svg>
