<svg width="19" height="19" viewBox="0 0 19 19" fill="none" xmlns="http://www.w3.org/2000/svg">
<path opacity="0.4" d="M7.32412 15.8476C8.77948 15.8841 10.2205 15.8841 11.6759 15.8476C14.0373 15.7883 15.2179 15.7586 16.0663 14.907C16.9146 14.0554 16.9391 12.9059 16.9882 10.6067V10.6067C17.0039 9.86745 17.0039 9.13256 16.9882 8.3933C16.9544 6.80946 16.9323 5.77115 16.6444 5L9.5 8.75L2.35558 5C2.06774 5.77115 2.0456 6.80945 2.01182 8.39328C1.99606 9.13255 1.99606 9.86745 2.01182 10.6067C2.06086 12.9059 2.08537 14.0554 2.93372 14.907C3.78206 15.7586 4.96275 15.7883 7.32412 15.8476Z" fill="#F8F9F9"/>
<path fill-rule="evenodd" clip-rule="evenodd" d="M11.69 2.5901C10.2252 2.5533 8.77477 2.5533 7.30999 2.5901L7.26637 2.59119C6.12275 2.61991 5.20251 2.64301 4.46502 2.77145C3.6929 2.90592 3.06536 3.16383 2.53521 3.69599C2.00729 4.22593 1.75073 4.84445 1.61882 5.60405C1.49322 6.32733 1.47409 7.2251 1.45039 8.33724L1.44945 8.38129C1.43352 9.12855 1.43352 9.87145 1.44945 10.6187L1.45039 10.6628C1.47409 11.7749 1.49322 12.6727 1.61882 13.3959C1.75073 14.1556 2.00729 14.7741 2.53522 15.304C3.06536 15.8362 3.6929 16.0941 4.46503 16.2285C5.20251 16.357 6.12273 16.3801 7.26633 16.4088L7.30999 16.4099C8.77477 16.4467 10.2252 16.4467 11.69 16.4099L11.7337 16.4088C12.8773 16.3801 13.7975 16.357 14.535 16.2285C15.3071 16.0941 15.9346 15.8362 16.4648 15.304C16.9927 14.7741 17.2493 14.1556 17.3812 13.3959C17.5068 12.6727 17.5259 11.7749 17.5496 10.6628L17.5506 10.6187C17.5665 9.87145 17.5665 9.12856 17.5506 8.3813L17.5496 8.33726C17.5259 7.22512 17.5068 6.32734 17.3812 5.60406C17.2493 4.84446 16.9927 4.22594 16.4648 3.69601C15.9346 3.16384 15.3071 2.90593 14.535 2.77146C13.7975 2.64302 12.8773 2.61992 11.7336 2.5912L11.69 2.5901ZM7.33824 3.71474C8.78419 3.67842 10.2158 3.67842 11.6618 3.71475C12.8593 3.74484 13.696 3.76729 14.342 3.87978C14.9626 3.98787 15.3496 4.17058 15.6678 4.48999C15.7982 4.62094 15.9054 4.76191 15.9937 4.92372L11.538 7.44833C10.5965 7.98178 10.0252 8.1875 9.50008 8.1875C8.97493 8.1875 8.40361 7.98178 7.46214 7.44833L3.00636 4.92365C3.09462 4.76187 3.20177 4.62092 3.33222 4.48998C3.65042 4.17057 4.03739 3.98786 4.65804 3.87977C5.30397 3.76728 6.14075 3.74483 7.33824 3.71474ZM2.69076 6.03787C2.61316 6.63173 2.59601 7.38235 2.5742 8.40528C2.5586 9.13655 2.5586 9.86345 2.5742 10.5947C2.59908 11.7614 2.61789 12.5738 2.72723 13.2035C2.83192 13.8063 3.0118 14.1884 3.33222 14.51C3.65042 14.8294 4.0374 15.0121 4.65804 15.1202C5.30397 15.2327 6.14075 15.2552 7.33825 15.2853C8.78419 15.3216 10.2158 15.3216 11.6618 15.2853C12.8593 15.2552 13.696 15.2327 14.342 15.1202C14.9626 15.0121 15.3496 14.8294 15.6678 14.51C15.9882 14.1884 16.1681 13.8063 16.2728 13.2035C16.3821 12.5738 16.4009 11.7614 16.4258 10.5947C16.4414 9.86346 16.4414 9.13656 16.4258 8.40529C16.404 7.3824 16.3868 6.6318 16.3092 6.03795L12.0926 8.42713C11.1226 8.97672 10.3344 9.3125 9.50008 9.3125C8.66571 9.3125 7.87751 8.97672 6.90755 8.42713L2.69076 6.03787Z" fill="#F8F9F9"/>
</svg>
