<svg width="24" height="24" viewBox="0 0 24 24" fill="none" xmlns="http://www.w3.org/2000/svg">
<g opacity="0.4">
<path d="M8 12.2495L7.948 12.2495C7.04954 12.2495 6.3003 12.2495 5.70552 12.3294C5.07773 12.4138 4.51093 12.5995 4.05546 13.055C3.59999 13.5104 3.41432 14.0772 3.32992 14.705C3.24995 15.2998 3.24997 16.049 3.25 16.9475L3.25 18.75C3.25 20.6356 3.25 21.5784 3.83579 22.1642C4.42158 22.75 5.36439 22.75 7.25 22.75L16.75 22.75C18.6356 22.75 19.5784 22.75 20.1642 22.1642C20.75 21.5784 20.75 20.6356 20.75 18.75V16.9475C20.75 16.049 20.7501 15.2998 20.6701 14.705C20.5857 14.0772 20.4 13.5104 19.9445 13.055C19.4891 12.5995 18.9223 12.4138 18.2945 12.3294C17.6997 12.2495 16.9505 12.2495 16.052 12.2495L16 12.2495C15.7036 12.2495 15.435 12.4241 15.3146 12.6949L12 20.1529L8.68536 12.6949C8.56499 12.4241 8.2964 12.2495 8 12.2495Z" fill="url(#paint0_linear_797_2326)"/>
<path d="M12 1.24951C9.65279 1.24951 7.75 3.1523 7.75 5.49951V6.49951C7.75 8.84672 9.65279 10.7495 12 10.7495C14.3472 10.7495 16.25 8.84672 16.25 6.49951V5.49951C16.25 3.1523 14.3472 1.24951 12 1.24951Z" fill="url(#paint1_linear_797_2326)"/>
</g>
<path d="M10.9071 17.6963L12 20.1553L13.0929 17.6963L12.7724 15.1323L13.6708 13.3354C13.7871 13.1029 13.7746 12.8268 13.638 12.6057C13.5013 12.3846 13.2599 12.25 13 12.25H11C10.7401 12.25 10.4987 12.3846 10.362 12.6057C10.2254 12.8268 10.2129 13.1029 10.3292 13.3354L11.2276 15.1323L10.9071 17.6963Z" fill="url(#paint2_linear_797_2326)"/>
<defs>
<linearGradient id="paint0_linear_797_2326" x1="3.24973" y1="22.7499" x2="24.3026" y2="5.61418" gradientUnits="userSpaceOnUse">
<stop stop-color="white"/>
<stop offset="1" stop-color="#2E3238"/>
</linearGradient>
<linearGradient id="paint1_linear_797_2326" x1="3.24973" y1="22.7499" x2="24.3026" y2="5.61418" gradientUnits="userSpaceOnUse">
<stop stop-color="white"/>
<stop offset="1" stop-color="#2E3238"/>
</linearGradient>
<linearGradient id="paint2_linear_797_2326" x1="10.2499" y1="20.1552" x2="16.1027" y2="17.564" gradientUnits="userSpaceOnUse">
<stop stop-color="white"/>
<stop offset="1" stop-color="#2E3238"/>
</linearGradient>
</defs>
</svg>
