<svg width="56" height="57" viewBox="0 0 56 57" fill="none" xmlns="http://www.w3.org/2000/svg">
<g opacity="0.4">
<path d="M28 3.0625C21.2345 3.0625 15.75 8.54701 15.75 15.3125C15.75 22.078 21.2345 27.5625 28 27.5625C34.7655 27.5625 40.25 22.078 40.25 15.3125C40.25 8.54701 34.7655 3.0625 28 3.0625Z" fill="white"/>
<path d="M2.91666 45.6458C2.91666 41.4577 6.31183 38.0625 10.5 38.0625C14.6881 38.0625 18.0833 41.4577 18.0833 45.6458C18.0833 49.834 14.6881 53.2292 10.5 53.2292C6.31183 53.2292 2.91666 49.834 2.91666 45.6458Z" fill="white"/>
<path d="M37.9167 45.6458C37.9167 41.4577 41.3118 38.0625 45.5 38.0625C49.6881 38.0625 53.0833 41.4577 53.0833 45.6458C53.0833 49.834 49.6881 53.2292 45.5 53.2292C41.3118 53.2292 37.9167 49.834 37.9167 45.6458Z" fill="white"/>
</g>
<path d="M32.275 13.1074C32.9899 12.0351 32.7001 10.5864 31.6279 9.87162C30.5557 9.1568 29.107 9.44654 28.3921 10.5188L26.0588 14.0188C25.344 15.091 25.6337 16.5397 26.706 17.2545C27.7782 17.9693 29.2269 17.6796 29.9417 16.6074L32.275 13.1074Z" fill="white"/>
<path d="M11.5469 32.2377C13.7337 30.7489 16.8319 30.4795 20.4703 30.4795H35.5298C39.1683 30.4795 42.2664 30.7489 44.4532 32.2377C46.5517 33.6664 47.3815 35.8648 47.7059 38.3887C47.0079 38.1768 46.2672 38.0628 45.5 38.0628C44.6252 38.0628 43.785 38.211 43.0031 38.4835C42.7428 36.9703 42.2946 36.4136 41.827 36.0952C40.9746 35.5149 39.2834 35.1462 35.5298 35.1462H20.4703C16.7167 35.1462 15.0256 35.5149 14.1732 36.0952C13.7056 36.4136 13.2573 36.9703 12.9971 38.4836C12.2151 38.211 11.3749 38.0628 10.5 38.0628C9.73281 38.0628 8.99225 38.1767 8.29428 38.3886C8.61864 35.8647 9.44843 33.6664 11.5469 32.2377Z" fill="white"/>
</svg>
