<svg width="24" height="24" viewBox="0 0 24 24" fill="none" xmlns="http://www.w3.org/2000/svg">
<path opacity="0.4" d="M5.5 6.12463C5.5 6.1232 5.5 6.12679 5.49999 6.12564C5.49861 5.94599 5.32893 5.8029 5.15162 5.83187C5.15049 5.83205 5.16316 5.82988 5.15809 5.83075C4.14915 6.00358 3.31717 6.33406 2.64547 6.99519C1.89501 7.73383 1.56146 8.67167 1.40335 9.82913C1.24997 10.952 1.24998 12.386 1.25 14.1935V14.3077C1.24998 16.1152 1.24997 17.5492 1.40335 18.6721C1.56146 19.8295 1.89501 20.7674 2.64547 21.506C3.39427 22.243 4.34225 22.5691 5.51253 22.724C6.65096 22.8747 8.10592 22.8746 9.94433 22.8746H14.0557C15.8941 22.8746 17.349 22.8747 18.4875 22.724C19.6578 22.5691 20.6057 22.243 21.3545 21.506C22.105 20.7674 22.4385 19.8295 22.5967 18.6721C22.75 17.5492 22.75 16.1152 22.75 14.3078V14.1934C22.75 12.386 22.75 10.952 22.5967 9.82913C22.4385 8.67167 22.105 7.73383 21.3545 6.99519C20.6828 6.33406 19.8508 6.00358 18.8419 5.83075C18.8368 5.82988 18.8495 5.83205 18.8484 5.83187C18.6711 5.8029 18.5014 5.94599 18.5 6.12564C18.5 6.12679 18.5 6.1232 18.5 6.12463C18.5 7.50535 17.3807 8.62463 16 8.62463C15.4692 8.62463 14.977 8.45921 14.5723 8.17711C14.2536 7.95501 14.0942 7.84396 14 7.84396C13.9058 7.84396 13.7464 7.95501 13.4277 8.17711C13.023 8.45921 12.5308 8.62463 12 8.62463C11.4692 8.62463 10.977 8.45921 10.5723 8.17711C10.2536 7.95501 10.0942 7.84396 10 7.84396C9.90578 7.84396 9.74643 7.95501 9.42774 8.17711C9.02296 8.45921 8.5308 8.62463 8 8.62463C6.61929 8.62463 5.5 7.50535 5.5 6.12463Z" fill="url(#paint0_linear_846_7349)"/>
<path d="M12.9999 2.125C12.9999 1.57272 12.5522 1.125 11.9999 1.125C11.4477 1.125 10.9999 1.57272 10.9999 2.125V6.125C10.9999 6.67728 11.4477 7.125 11.9999 7.125C12.5522 7.125 12.9999 6.67728 12.9999 6.125V2.125Z" fill="url(#paint1_linear_846_7349)"/>
<path d="M8.99995 4.125C8.99995 3.57272 8.55223 3.125 7.99995 3.125C7.44766 3.125 6.99995 3.57272 6.99995 4.125L6.99995 6.125C6.99995 6.67728 7.44766 7.125 7.99995 7.125C8.55223 7.125 8.99995 6.67728 8.99995 6.125V4.125Z" fill="url(#paint2_linear_846_7349)"/>
<path d="M16.9999 4.125C16.9999 3.57272 16.5522 3.125 15.9999 3.125C15.4477 3.125 14.9999 3.57272 14.9999 4.125V6.125C14.9999 6.67728 15.4477 7.125 15.9999 7.125C16.5522 7.125 16.9999 6.67728 16.9999 6.125V4.125Z" fill="url(#paint3_linear_846_7349)"/>
<path d="M18.4999 13.25C19.0522 13.25 19.4999 13.6977 19.4999 14.25C19.4999 14.8023 19.0522 15.25 18.4999 15.25H18.491C17.9387 15.25 17.491 14.8023 17.491 14.25C17.491 13.6977 17.9387 13.25 18.491 13.25H18.4999Z" fill="url(#paint4_linear_846_7349)"/>
<path d="M6.50971 14.25C6.50971 13.6977 6.062 13.25 5.50971 13.25H5.50073C4.94845 13.25 4.50073 13.6977 4.50073 14.25C4.50073 14.8023 4.94845 15.25 5.50073 15.25H5.50971C6.062 15.25 6.50971 14.8023 6.50971 14.25Z" fill="url(#paint5_linear_846_7349)"/>
<path d="M11.9999 11C10.205 11 8.74995 12.4551 8.74995 14.25C8.74995 16.0449 10.205 17.5 11.9999 17.5C13.7949 17.5 15.2499 16.0449 15.2499 14.25C15.2499 12.4551 13.7949 11 11.9999 11Z" fill="url(#paint6_linear_846_7349)"/>
<defs>
<linearGradient id="paint0_linear_846_7349" x1="1.24967" y1="22.8745" x2="17.8471" y2="1.94083" gradientUnits="userSpaceOnUse">
<stop stop-color="white"/>
<stop offset="1" stop-color="#2E3238"/>
</linearGradient>
<linearGradient id="paint1_linear_846_7349" x1="4.5005" y1="17.4999" x2="20.8127" y2="2.55816" gradientUnits="userSpaceOnUse">
<stop stop-color="white"/>
<stop offset="1" stop-color="#2E3238"/>
</linearGradient>
<linearGradient id="paint2_linear_846_7349" x1="4.5005" y1="17.4999" x2="20.8127" y2="2.55816" gradientUnits="userSpaceOnUse">
<stop stop-color="white"/>
<stop offset="1" stop-color="#2E3238"/>
</linearGradient>
<linearGradient id="paint3_linear_846_7349" x1="4.5005" y1="17.4999" x2="20.8127" y2="2.55816" gradientUnits="userSpaceOnUse">
<stop stop-color="white"/>
<stop offset="1" stop-color="#2E3238"/>
</linearGradient>
<linearGradient id="paint4_linear_846_7349" x1="4.5005" y1="17.4999" x2="20.8127" y2="2.55816" gradientUnits="userSpaceOnUse">
<stop stop-color="white"/>
<stop offset="1" stop-color="#2E3238"/>
</linearGradient>
<linearGradient id="paint5_linear_846_7349" x1="4.5005" y1="17.4999" x2="20.8127" y2="2.55816" gradientUnits="userSpaceOnUse">
<stop stop-color="white"/>
<stop offset="1" stop-color="#2E3238"/>
</linearGradient>
<linearGradient id="paint6_linear_846_7349" x1="4.5005" y1="17.4999" x2="20.8127" y2="2.55816" gradientUnits="userSpaceOnUse">
<stop stop-color="white"/>
<stop offset="1" stop-color="#2E3238"/>
</linearGradient>
</defs>
</svg>
