<svg width="24" height="24" viewBox="0 0 24 24" fill="none" xmlns="http://www.w3.org/2000/svg">
<path opacity="0.4" d="M13.5476 2.25H13.5475H10.4525H10.4524C8.61344 2.24999 7.16917 2.24998 6.03058 2.3786C4.86842 2.50988 3.926 2.78362 3.14263 3.40229C2.90811 3.58749 2.69068 3.79205 2.49298 4.0138C1.82681 4.76101 1.52932 5.66669 1.38763 6.77785C1.24998 7.85727 1.24999 9.22325 1.25 10.9472V10.9473V11.0528V11.0528C1.24999 12.7768 1.24998 14.1427 1.38763 15.2222C1.52932 16.3333 1.82681 17.239 2.49298 17.9862C2.69068 18.2079 2.90811 18.4125 3.14263 18.5977C3.926 19.2164 4.86842 19.4901 6.03058 19.6214C7.16917 19.75 8.61345 19.75 10.4525 19.75L13.0402 19.7501C13.3673 19.7501 13.5308 19.7501 13.5566 19.689C13.5824 19.6279 13.4577 19.4998 13.2083 19.2436C12.77 18.7932 12.5 18.1781 12.5 17.5C12.5 16.1193 13.6193 15 15 15H15.6C15.7886 15 15.8828 15 15.9414 14.9414C16 14.8828 16 14.7886 16 14.6V14C16 12.6193 17.1193 11.5 18.5 11.5C19.8807 11.5 21 12.6193 21 14V14.6C21 14.7886 21 14.8828 21.0586 14.9414C21.1172 15 21.2114 15 21.4 15H22C22.0591 15 22.1177 15.002 22.1757 15.0061C22.4085 15.0222 22.5249 15.0303 22.5872 14.9766C22.6496 14.9229 22.6575 14.8225 22.6733 14.6218C22.75 13.6481 22.75 12.4717 22.75 11.0528V10.9473C22.75 9.22325 22.75 7.85727 22.6124 6.77785C22.4707 5.66669 22.1732 4.76101 21.507 4.0138C21.3093 3.79205 21.0919 3.58749 20.8574 3.40229C20.074 2.78362 19.1316 2.50988 17.9694 2.3786C16.8308 2.24998 15.3866 2.24999 13.5476 2.25Z" fill="url(#paint0_linear_846_7272)"/>
<path d="M8.99922 11C8.99922 9.34315 10.3424 8 11.9992 8C13.6561 8 14.9992 9.34315 14.9992 11C14.9992 12.6569 13.6561 14 11.9992 14C10.3424 14 8.99922 12.6569 8.99922 11Z" fill="url(#paint1_linear_846_7272)"/>
<path d="M6.49922 11C6.49922 10.4477 6.0515 10 5.49922 10H5.49023C4.93795 10 4.49023 10.4477 4.49023 11C4.49023 11.5523 4.93795 12 5.49023 12H5.49922C6.0515 12 6.49922 11.5523 6.49922 11Z" fill="url(#paint2_linear_846_7272)"/>
<path d="M19.5 14C19.5 13.4477 19.0523 13 18.5 13C17.9477 13 17.5 13.4477 17.5 14V16.5H15C14.4477 16.5 14 16.9477 14 17.5C14 18.0523 14.4477 18.5 15 18.5H17.5V21C17.5 21.5523 17.9477 22 18.5 22C19.0523 22 19.5 21.5523 19.5 21V18.5H22C22.5523 18.5 23 18.0523 23 17.5C23 16.9477 22.5523 16.5 22 16.5H19.5V14Z" fill="url(#paint3_linear_846_7272)"/>
<defs>
<linearGradient id="paint0_linear_846_7272" x1="1.24967" y1="19.75" x2="18.3855" y2="-1.30251" gradientUnits="userSpaceOnUse">
<stop stop-color="white"/>
<stop offset="1" stop-color="#2E3238"/>
</linearGradient>
<linearGradient id="paint1_linear_846_7272" x1="4.48995" y1="21.9999" x2="17.9613" y2="4.18898" gradientUnits="userSpaceOnUse">
<stop stop-color="white"/>
<stop offset="1" stop-color="#2E3238"/>
</linearGradient>
<linearGradient id="paint2_linear_846_7272" x1="4.48995" y1="21.9999" x2="17.9613" y2="4.18898" gradientUnits="userSpaceOnUse">
<stop stop-color="white"/>
<stop offset="1" stop-color="#2E3238"/>
</linearGradient>
<linearGradient id="paint3_linear_846_7272" x1="4.48995" y1="21.9999" x2="17.9613" y2="4.18898" gradientUnits="userSpaceOnUse">
<stop stop-color="white"/>
<stop offset="1" stop-color="#2E3238"/>
</linearGradient>
</defs>
</svg>
