<svg width="19" height="19" viewBox="0 0 19 19" fill="none" xmlns="http://www.w3.org/2000/svg">
<g opacity="0.4">
<path d="M6.50146 4.9961C6.53866 3.37186 7.83682 2 9.50068 2C11.1645 2 12.4627 3.37186 12.4999 4.9961L6.50146 4.9961Z" fill="#F8F9F9"/>
<path d="M9.56772 12.498C9.54523 12.4989 9.52265 12.4992 9.5 12.4992C9.47735 12.4992 9.45477 12.4989 9.43228 12.498C9.31543 12.4935 9.25693 12.4911 8.6285 11.8378C8.30795 11.5047 8.1509 11.2461 8.07395 10.9756L8 10.9992C5.56756 11.694 4.35087 12.0416 3.60956 12.9372C3.53772 13.0239 3.46984 13.1139 3.40611 13.2068C2.83741 14.0356 2.76042 15.0933 2.75 16.9992L16.25 16.9992C16.2396 15.0933 16.1626 14.0356 15.5939 13.2068C15.5302 13.1139 15.4623 13.0239 15.3904 12.9372C14.6491 12.0416 13.4328 11.6942 11.0004 10.9994L10.927 10.9722C10.8505 11.244 10.6934 11.5032 10.3715 11.8378C9.74307 12.4911 9.68457 12.4935 9.56772 12.498Z" fill="#F8F9F9"/>
</g>
<path fill-rule="evenodd" clip-rule="evenodd" d="M5.93783 5.01955C5.93445 5.27104 5.95675 5.52718 6.00703 5.78489L6.32241 7.40141C6.47226 8.16948 6.87729 8.83422 7.43896 9.30721V10.2779C7.43896 10.3763 7.44411 10.474 7.45426 10.5709C6.43363 10.8633 5.61246 11.1061 4.9582 11.3727C4.21014 11.6776 3.62798 12.0334 3.17626 12.5791C3.09365 12.6789 3.01558 12.7824 2.94228 12.8892C2.25906 13.885 2.19773 15.1282 2.18751 16.9969C2.18581 17.3075 2.43627 17.5608 2.74692 17.5625C3.05758 17.5642 3.31079 17.3137 3.31249 17.003C3.32312 15.0597 3.41576 14.1876 3.86993 13.5257C3.9241 13.4468 3.98181 13.3703 4.04287 13.2965C4.33249 12.9466 4.7292 12.6809 5.38283 12.4145C5.98146 12.1705 6.75119 11.9426 7.79308 11.6442C7.91722 11.8676 8.07228 12.0749 8.25551 12.2594L8.9375 12.9464V15.5C8.9375 15.8107 9.18934 16.0625 9.5 16.0625C9.81066 16.0625 10.0625 15.8107 10.0625 15.5V12.9516L10.7505 12.2603C10.9338 12.0761 11.0891 11.8691 11.2135 11.646C12.252 11.9436 13.0198 12.171 13.6172 12.4145C14.2708 12.6809 14.6675 12.9466 14.9571 13.2965C15.0182 13.3703 15.0759 13.4467 15.1301 13.5257C15.5842 14.1876 15.6769 15.0597 15.6875 17.003C15.6892 17.3137 15.9424 17.5642 16.2531 17.5625C16.5637 17.5608 16.8142 17.3075 16.8125 16.9969C16.8023 15.1282 16.7409 13.885 16.0577 12.8892C15.9844 12.7824 15.9064 12.6789 15.8237 12.5791C15.372 12.0334 14.7899 11.6776 14.0418 11.3727C13.3893 11.1068 12.5707 10.8646 11.5539 10.5733C11.5643 10.4751 11.5696 10.3759 11.5696 10.2763V9.29976C12.1267 8.82725 12.5282 8.16545 12.6773 7.40141L12.9927 5.78489C13.0426 5.52903 13.0649 5.27473 13.062 5.02498C13.0623 5.0167 13.0625 5.00837 13.0625 5C13.0625 4.98307 13.0618 4.96631 13.0603 4.94976C12.9988 3.05236 11.4778 1.4375 9.49986 1.4375C7.52008 1.4375 5.99803 3.05542 5.93926 4.95515C5.93809 4.96994 5.9375 4.9849 5.9375 5C5.9375 5.00654 5.93761 5.01306 5.93783 5.01955ZM7.10986 5.5625C7.1103 5.56482 7.11075 5.56714 7.11121 5.56946L7.42659 7.18598C7.62719 8.21413 8.50224 8.9375 9.49986 8.9375C10.4975 8.9375 11.3725 8.21413 11.5731 7.18598L11.8885 5.56946C11.889 5.56714 11.8894 5.56482 11.8899 5.5625L7.10986 5.5625ZM7.14082 4.4375H11.8589C11.5872 3.37025 10.6414 2.5625 9.49986 2.5625C8.35828 2.5625 7.41253 3.37025 7.14082 4.4375ZM9.49986 10.0625C9.82755 10.0625 10.1449 10.0126 10.4446 9.91944V10.2763C10.4446 10.7224 10.2679 11.1505 9.95313 11.4667L9.50286 11.9191L9.05389 11.4668C8.74007 11.1507 8.56396 10.7234 8.56396 10.2779V9.92217C8.86103 10.0136 9.17539 10.0625 9.49986 10.0625Z" fill="#F8F9F9"/>
</svg>
