<svg width="24" height="24" viewBox="0 0 24 24" fill="none" xmlns="http://www.w3.org/2000/svg">
<g opacity="0.4">
<path d="M11.4381 1.36606C10.5745 1.24994 9.48324 1.24997 8.15991 1.25H8.02194C6.69862 1.24997 5.60735 1.24994 4.74369 1.36606C3.83695 1.48797 3.03615 1.75375 2.39495 2.39495C1.75375 3.03615 1.48797 3.83695 1.36606 4.74369C1.24994 5.60735 1.24997 6.69858 1.25 8.0219L1.25 11.0227C1.25 11.5625 1.68754 12 2.22728 12C2.76701 12 3.20455 11.5625 3.20455 11.0227V8.09091C3.20455 6.68121 3.20662 5.72225 3.30317 5.00413C3.39594 4.31412 3.55951 3.99453 3.77702 3.77702C3.99453 3.55951 4.31412 3.39594 5.00413 3.30317C5.72225 3.20662 6.68121 3.20455 8.09091 3.20455C9.50061 3.20455 10.4596 3.20662 11.1777 3.30317C11.8677 3.39594 12.1873 3.55951 12.4048 3.77702C12.6223 3.99453 12.7859 4.31412 12.8786 5.00413C12.9752 5.72225 12.9773 6.68121 12.9773 8.09091V21.7727C12.9773 22.3125 13.4148 22.75 13.9545 22.75L17.9279 22.75C18.7943 22.75 19.5408 22.7501 20.1385 22.6697C20.7791 22.5836 21.3932 22.3894 21.8913 21.8913C22.3894 21.3932 22.5836 20.7791 22.6697 20.1385C22.7501 19.5408 22.75 18.7943 22.75 17.928V11.9357C22.75 11.0694 22.7501 10.3229 22.6697 9.72511C22.5836 9.0845 22.3894 8.47043 21.8913 7.97235C21.3932 7.47427 20.7791 7.28004 20.1385 7.19391C19.5408 7.11354 18.7943 7.11359 17.928 7.11363L14.9303 7.11364C14.9252 6.19045 14.9042 5.40114 14.8158 4.74369C14.6939 3.83695 14.4281 3.03615 13.7869 2.39495C13.1457 1.75375 12.3449 1.48797 11.4381 1.36606Z" fill="url(#paint0_linear_797_4771)"/>
<path d="M5.5 5C4.94772 5 4.5 5.44772 4.5 6C4.5 6.55229 4.94772 7 5.5 7H6.5C7.05229 7 7.5 6.55229 7.5 6C7.5 5.44772 7.05229 5 6.5 5H5.5Z" fill="url(#paint1_linear_797_4771)"/>
<path d="M9.5 5C8.94772 5 8.5 5.44772 8.5 6C8.5 6.55229 8.94772 7 9.5 7H10.5C11.0523 7 11.5 6.55229 11.5 6C11.5 5.44772 11.0523 5 10.5 5H9.5Z" fill="url(#paint2_linear_797_4771)"/>
<path d="M5.5 8C4.94772 8 4.5 8.44772 4.5 9C4.5 9.55229 4.94772 10 5.5 10H6.5C7.05229 10 7.5 9.55229 7.5 9C7.5 8.44772 7.05229 8 6.5 8H5.5Z" fill="url(#paint3_linear_797_4771)"/>
<path d="M9.5 8C8.94772 8 8.5 8.44772 8.5 9C8.5 9.55229 8.94772 10 9.5 10H10.5C11.0523 10 11.5 9.55229 11.5 9C11.5 8.44772 11.0523 8 10.5 8H9.5Z" fill="url(#paint4_linear_797_4771)"/>
</g>
<path d="M17.5 10.25C17.0858 10.25 16.75 10.5858 16.75 11C16.75 11.4142 17.0858 11.75 17.5 11.75H18.5C18.9142 11.75 19.25 11.4142 19.25 11C19.25 10.5858 18.9142 10.25 18.5 10.25H17.5Z" fill="url(#paint5_linear_797_4771)"/>
<path d="M17.5 14.25C17.0858 14.25 16.75 14.5858 16.75 15C16.75 15.4142 17.0858 15.75 17.5 15.75H18.5C18.9142 15.75 19.25 15.4142 19.25 15C19.25 14.5858 18.9142 14.25 18.5 14.25H17.5Z" fill="url(#paint6_linear_797_4771)"/>
<path d="M6.0001 11.25C4.48132 11.25 3.2501 12.4812 3.2501 14C3.2501 15.5188 4.48132 16.75 6.0001 16.75C7.51888 16.75 8.7501 15.5188 8.7501 14C8.7501 12.4812 7.51888 11.25 6.0001 11.25Z" fill="url(#paint7_linear_797_4771)"/>
<path d="M10.2143 19.1697C9.84353 18.7614 9.13753 18.3137 8.82747 18.1177C7.10042 16.9608 4.89978 16.9608 3.17273 18.1177C2.86266 18.3137 2.15667 18.7614 1.78592 19.1697C1.55059 19.4288 1.30253 19.7967 1.25726 20.2626C1.20867 20.7627 1.40665 21.2221 1.76846 21.6099C2.31558 22.1963 3.04719 22.75 4.04048 22.75H7.95971C8.95301 22.75 9.68462 22.1963 10.2317 21.6099C10.5935 21.2221 10.7915 20.7627 10.7429 20.2626C10.6977 19.7967 10.4496 19.4288 10.2143 19.1697Z" fill="url(#paint8_linear_797_4771)"/>
<defs>
<linearGradient id="paint0_linear_797_4771" x1="1.24967" y1="22.7499" x2="22.7497" y2="1.24974" gradientUnits="userSpaceOnUse">
<stop stop-color="white"/>
<stop offset="1" stop-color="#2E3238"/>
</linearGradient>
<linearGradient id="paint1_linear_797_4771" x1="1.24967" y1="22.7499" x2="22.7497" y2="1.24974" gradientUnits="userSpaceOnUse">
<stop stop-color="white"/>
<stop offset="1" stop-color="#2E3238"/>
</linearGradient>
<linearGradient id="paint2_linear_797_4771" x1="1.24967" y1="22.7499" x2="22.7497" y2="1.24974" gradientUnits="userSpaceOnUse">
<stop stop-color="white"/>
<stop offset="1" stop-color="#2E3238"/>
</linearGradient>
<linearGradient id="paint3_linear_797_4771" x1="1.24967" y1="22.7499" x2="22.7497" y2="1.24974" gradientUnits="userSpaceOnUse">
<stop stop-color="white"/>
<stop offset="1" stop-color="#2E3238"/>
</linearGradient>
<linearGradient id="paint4_linear_797_4771" x1="1.24967" y1="22.7499" x2="22.7497" y2="1.24974" gradientUnits="userSpaceOnUse">
<stop stop-color="white"/>
<stop offset="1" stop-color="#2E3238"/>
</linearGradient>
<linearGradient id="paint5_linear_797_4771" x1="1.24972" y1="22.7499" x2="12.9624" y2="5.88362" gradientUnits="userSpaceOnUse">
<stop stop-color="white"/>
<stop offset="1" stop-color="#2E3238"/>
</linearGradient>
<linearGradient id="paint6_linear_797_4771" x1="1.24972" y1="22.7499" x2="12.9624" y2="5.88362" gradientUnits="userSpaceOnUse">
<stop stop-color="white"/>
<stop offset="1" stop-color="#2E3238"/>
</linearGradient>
<linearGradient id="paint7_linear_797_4771" x1="1.24972" y1="22.7499" x2="12.9624" y2="5.88362" gradientUnits="userSpaceOnUse">
<stop stop-color="white"/>
<stop offset="1" stop-color="#2E3238"/>
</linearGradient>
<linearGradient id="paint8_linear_797_4771" x1="1.24972" y1="22.7499" x2="12.9624" y2="5.88362" gradientUnits="userSpaceOnUse">
<stop stop-color="white"/>
<stop offset="1" stop-color="#2E3238"/>
</linearGradient>
</defs>
</svg>
