<svg width="18" height="18" viewBox="0 0 18 18" fill="none" xmlns="http://www.w3.org/2000/svg">
<path opacity="0.4" d="M4.57918 4.42075L7.57918 2.86377C8.55212 2.35882 9.0386 2.10634 9.3943 2.33453C9.75 2.56271 9.75 3.12727 9.75 4.25637L9.75 15.7499L3.75 15.7499L3.75 5.81335C3.75 5.34516 3.75 5.11107 3.86201 4.92294C3.97402 4.73482 4.17574 4.63013 4.57918 4.42075Z" fill="#F8F9F9"/>
<path d="M6.375 6.18744C6.06434 6.18744 5.8125 6.43928 5.8125 6.74994C5.8125 7.0606 6.06434 7.31244 6.375 7.31244H7.125C7.43566 7.31244 7.6875 7.0606 7.6875 6.74994C7.6875 6.43928 7.43566 6.18744 7.125 6.18744H6.375Z" fill="#F8F9F9"/>
<path d="M6.375 9.18744C6.06434 9.18744 5.8125 9.43928 5.8125 9.74994C5.8125 10.0606 6.06434 10.3124 6.375 10.3124H7.125C7.43566 10.3124 7.6875 10.0606 7.6875 9.74994C7.6875 9.43928 7.43566 9.18744 7.125 9.18744H6.375Z" fill="#F8F9F9"/>
<path d="M6.375 12.1874C6.06434 12.1874 5.8125 12.4393 5.8125 12.7499C5.8125 13.0606 6.06434 13.3124 6.375 13.3124H7.125C7.43566 13.3124 7.6875 13.0606 7.6875 12.7499C7.6875 12.4393 7.43566 12.1874 7.125 12.1874H6.375Z" fill="#F8F9F9"/>
<path fill-rule="evenodd" clip-rule="evenodd" d="M10.3125 5.65227L13.6934 7.34271C13.8771 7.43453 14.0511 7.52149 14.1908 7.61039C14.3468 7.70966 14.5003 7.83526 14.6166 8.02347C14.7329 8.21168 14.7766 8.40514 14.7956 8.58908C14.8127 8.75379 14.8126 8.94822 14.8126 9.15356L14.8126 15.1874H15.75C16.0607 15.1874 16.3125 15.4393 16.3125 15.7499C16.3125 16.0606 16.0607 16.3124 15.75 16.3124H14.2561L14.2501 16.3125L14.2441 16.3124L2.25 16.3124C1.93934 16.3124 1.6875 16.0606 1.6875 15.7499C1.6875 15.4393 1.93934 15.1874 2.25 15.1874H3.1875L3.1875 5.7903C3.18748 5.57604 3.18746 5.37616 3.20427 5.20736C3.22289 5.02051 3.26538 4.82547 3.3787 4.63516C3.49276 4.4436 3.64443 4.31405 3.80132 4.21044C3.94124 4.11802 4.11546 4.02763 4.29911 3.93235L7.35908 2.34424C7.81201 2.10913 8.20874 1.90319 8.53731 1.79159C8.88422 1.67377 9.30436 1.60853 9.69803 1.86107C10.0846 2.10903 10.2103 2.51371 10.2624 2.87794C10.3126 3.22883 10.3125 3.6858 10.3125 4.21441L10.3125 5.65227ZM9.1875 4.25636C9.1875 3.67366 9.18611 3.29871 9.14871 3.03726C9.13084 2.91233 9.10885 2.8486 9.09427 2.81868L9.09109 2.81246C9.06463 2.81297 9.00644 2.82037 8.89911 2.85683C8.6617 2.93746 8.34202 3.10159 7.8383 3.36302L4.8383 4.92C4.62619 5.03008 4.5058 5.09338 4.42131 5.14918C4.38345 5.17418 4.3645 5.19033 4.35524 5.19927C4.34789 5.20636 4.34611 5.20939 4.34541 5.21057C4.34465 5.21185 4.34206 5.21618 4.33854 5.22861C4.33434 5.24348 4.32854 5.27061 4.32373 5.31887C4.31315 5.42515 4.3125 5.56812 4.3125 5.81334L4.3125 15.1874L9.1875 15.1874L9.1875 4.25636ZM13.6876 9.17702L13.6876 15.1874L10.3125 15.1874L10.3125 6.91005L13.1694 8.3385C13.3814 8.44452 13.5021 8.50565 13.5868 8.55954C13.6249 8.58374 13.6436 8.59922 13.6525 8.60743L13.6566 8.61147L13.659 8.61404L13.6596 8.61492L13.6601 8.6159C13.6604 8.61662 13.6615 8.61924 13.6631 8.62465C13.6665 8.63623 13.672 8.65995 13.6766 8.70478C13.6869 8.80464 13.6876 8.93995 13.6876 9.17702Z" fill="#F8F9F9"/>
</svg>
