<svg width="56" height="57" viewBox="0 0 56 57" fill="none" xmlns="http://www.w3.org/2000/svg">
<g opacity="0.4">
<path d="M4.66669 7.14632C4.66669 5.85766 5.71136 4.81299 7.00002 4.81299L49 4.81299C50.2887 4.81299 51.3334 5.85766 51.3334 7.14632C51.3334 8.43499 50.2887 9.47965 49 9.47965L38.5 9.47965V14.4066C37.7496 14.2363 36.9686 14.1464 36.1667 14.1464C35.3647 14.1464 34.5838 14.2363 33.8334 14.4066V9.47965L14 9.47965L14 32.2479C11.1861 34.1315 9.33335 37.3393 9.33335 40.9798L9.33335 9.47965H7.00002C5.71136 9.47965 4.66669 8.43499 4.66669 7.14632Z" fill="white"/>
<path d="M46.6667 24.6464C46.6667 28.2869 44.814 31.4947 42 33.3783V37.8379C42.7911 37.5496 43.5993 37.4798 44.3333 37.4798C45.0928 37.4798 45.8941 37.5603 46.6667 37.843V24.6464Z" fill="white"/>
<path d="M30.3334 33.3783V40.9798C30.3334 37.3393 28.4807 34.1315 25.6667 32.2479L25.6667 24.6464C25.6667 28.2869 27.5194 31.4947 30.3334 33.3783Z" fill="white"/>
</g>
<path d="M44.3333 37.4797C43.322 37.4797 42.1698 37.6122 41.1156 38.2662C40.0317 38.9387 39.3862 39.9502 38.9476 41.0187C38.4943 42.1232 37.9586 43.5708 37.6357 44.9606C37.4745 45.654 37.3483 46.4076 37.3346 47.1395C37.3217 47.8308 37.4018 48.7576 37.8847 49.6068C38.5604 50.7954 39.6693 51.2088 40.5339 51.3587C41.2368 51.4807 42.0927 51.4802 42.8675 51.4797H45.7992C46.574 51.4802 47.43 51.4807 48.1329 51.3587C48.9975 51.2088 50.1063 50.7954 50.7821 49.6068C51.2649 48.7576 51.3451 47.8308 51.3321 47.1395C51.3184 46.4076 51.1922 45.654 51.0311 44.9606C50.7081 43.5709 50.1725 42.1233 49.7191 41.0187C49.303 40.0049 48.6852 39.0017 47.622 38.3164C46.5762 37.6424 45.4125 37.4796 44.3333 37.4797Z" fill="white"/>
<path d="M7.00002 4.81299C5.71136 4.81299 4.66669 5.85766 4.66669 7.14632C4.66669 8.43499 5.71136 9.47966 7.00002 9.47966L49 9.47966C50.2887 9.47966 51.3334 8.43499 51.3334 7.14632C51.3334 5.85766 50.2887 4.81299 49 4.81299L7.00002 4.81299Z" fill="white"/>
<path d="M25.6667 24.6463C25.6667 18.8473 30.3677 14.1463 36.1667 14.1463C41.9657 14.1463 46.6667 18.8473 46.6667 24.6463C46.6667 30.4453 41.9657 35.1463 36.1667 35.1463C30.3677 35.1463 25.6667 30.4453 25.6667 24.6463Z" fill="white"/>
<path d="M19.8334 30.4797C14.0344 30.4797 9.33335 35.1807 9.33335 40.9797C9.33335 46.7786 14.0344 51.4797 19.8334 51.4797C25.6323 51.4797 30.3334 46.7786 30.3334 40.9797C30.3334 35.1807 25.6323 30.4797 19.8334 30.4797Z" fill="white"/>
</svg>
