<svg width="24" height="24" viewBox="0 0 24 24" fill="none" xmlns="http://www.w3.org/2000/svg">
<g opacity="0.4">
<path d="M4.6647 3.37279L6.03619 2.552C6.7928 2.09914 7.42861 1.7186 7.95311 1.49622C8.49043 1.26841 9.10351 1.12062 9.70863 1.41134C10.3427 1.71596 10.5701 2.30627 10.663 2.87061C10.7501 3.39958 10.7501 4.09696 10.75 4.90254L10.75 22.0002C10.75 22.4145 10.4142 22.7502 10 22.7502L3 22.7502C2.58579 22.7502 2.25 22.4145 2.25 22.0002L2.25 7.44921C2.24998 6.9311 2.24996 6.48635 2.28853 6.11507C2.32994 5.71642 2.41986 5.34736 2.63189 4.9917C2.84153 4.64006 3.12523 4.37775 3.45797 4.13572C3.77419 3.9057 4.18007 3.66281 4.6647 3.37279Z" fill="url(#paint0_linear_797_4434)"/>
<path d="M19.3353 3.37279L17.9638 2.552C17.2072 2.09915 16.5714 1.7186 16.0469 1.49622C15.5096 1.26841 14.8965 1.12062 14.2914 1.41134C13.6573 1.71596 13.4299 2.30627 13.337 2.87061C13.2499 3.39958 13.25 4.09696 13.25 4.90254L13.25 22.0002C13.25 22.4145 13.5858 22.7502 14 22.7502H21C21.4142 22.7502 21.75 22.4145 21.75 22.0002L21.75 7.44921C21.75 6.9311 21.7501 6.48635 21.7115 6.11507C21.6701 5.71642 21.5802 5.34736 21.3681 4.9917C21.1585 4.64006 20.8748 4.37775 20.542 4.13572C20.2258 3.9057 19.82 3.66281 19.3353 3.37279Z" fill="url(#paint1_linear_797_4434)"/>
</g>
<path d="M2 20.75C1.44772 20.75 1 21.1977 1 21.75C1 22.3023 1.44772 22.75 2 22.75L22 22.75C22.5523 22.75 23 22.3023 23 21.75C23 21.1977 22.5523 20.75 22 20.75L2 20.75Z" fill="url(#paint2_linear_797_4434)"/>
<path d="M13.25 8L10.75 8L10.75 10L13.25 10L13.25 8Z" fill="url(#paint3_linear_797_4434)"/>
<path d="M13.25 14H10.75V16L13.25 16L13.25 14Z" fill="url(#paint4_linear_797_4434)"/>
<path d="M16.5 8C16.5 7.44771 16.9457 7 17.4955 7H17.5045C18.0543 7 18.5 7.44772 18.5 8C18.5 8.55229 18.0543 9 17.5045 9H17.4955C16.9457 9 16.5 8.55228 16.5 8Z" fill="url(#paint5_linear_797_4434)"/>
<path d="M16.5 12C16.5 11.4477 16.9457 11 17.4955 11H17.5045C18.0543 11 18.5 11.4477 18.5 12C18.5 12.5523 18.0543 13 17.5045 13H17.4955C16.9457 13 16.5 12.5523 16.5 12Z" fill="url(#paint6_linear_797_4434)"/>
<path d="M16.5 16C16.5 15.4477 16.9457 15 17.4955 15H17.5045C18.0543 15 18.5 15.4477 18.5 16C18.5 16.5523 18.0543 17 17.5045 17H17.4955C16.9457 17 16.5 16.5523 16.5 16Z" fill="url(#paint7_linear_797_4434)"/>
<path d="M6.50447 7C7.05429 7 7.5 7.44771 7.5 8C7.5 8.55228 7.05429 9 6.50447 9H6.49553C5.94571 9 5.5 8.55229 5.5 8C5.5 7.44772 5.94571 7 6.49553 7H6.50447Z" fill="url(#paint8_linear_797_4434)"/>
<path d="M6.50447 11C7.05429 11 7.5 11.4477 7.5 12C7.5 12.5523 7.05429 13 6.50447 13H6.49553C5.94571 13 5.5 12.5523 5.5 12C5.5 11.4477 5.94571 11 6.49553 11H6.50447Z" fill="url(#paint9_linear_797_4434)"/>
<path d="M6.50447 15C7.05429 15 7.5 15.4477 7.5 16C7.5 16.5523 7.05429 17 6.50447 17H6.49553C5.94571 17 5.5 16.5523 5.5 16C5.5 15.4477 5.94571 15 6.49553 15H6.50447Z" fill="url(#paint10_linear_797_4434)"/>
<defs>
<linearGradient id="paint0_linear_797_4434" x1="2.2497" y1="22.7501" x2="23.6479" y2="3.34258" gradientUnits="userSpaceOnUse">
<stop stop-color="white"/>
<stop offset="1" stop-color="#2E3238"/>
</linearGradient>
<linearGradient id="paint1_linear_797_4434" x1="2.2497" y1="22.7501" x2="23.6479" y2="3.34258" gradientUnits="userSpaceOnUse">
<stop stop-color="white"/>
<stop offset="1" stop-color="#2E3238"/>
</linearGradient>
<linearGradient id="paint2_linear_797_4434" x1="0.999657" y1="22.7499" x2="15.9093" y2="1.9237" gradientUnits="userSpaceOnUse">
<stop stop-color="white"/>
<stop offset="1" stop-color="#2E3238"/>
</linearGradient>
<linearGradient id="paint3_linear_797_4434" x1="0.999657" y1="22.7499" x2="15.9093" y2="1.9237" gradientUnits="userSpaceOnUse">
<stop stop-color="white"/>
<stop offset="1" stop-color="#2E3238"/>
</linearGradient>
<linearGradient id="paint4_linear_797_4434" x1="0.999657" y1="22.7499" x2="15.9093" y2="1.9237" gradientUnits="userSpaceOnUse">
<stop stop-color="white"/>
<stop offset="1" stop-color="#2E3238"/>
</linearGradient>
<linearGradient id="paint5_linear_797_4434" x1="0.999657" y1="22.7499" x2="15.9093" y2="1.9237" gradientUnits="userSpaceOnUse">
<stop stop-color="white"/>
<stop offset="1" stop-color="#2E3238"/>
</linearGradient>
<linearGradient id="paint6_linear_797_4434" x1="0.999657" y1="22.7499" x2="15.9093" y2="1.9237" gradientUnits="userSpaceOnUse">
<stop stop-color="white"/>
<stop offset="1" stop-color="#2E3238"/>
</linearGradient>
<linearGradient id="paint7_linear_797_4434" x1="0.999657" y1="22.7499" x2="15.9093" y2="1.9237" gradientUnits="userSpaceOnUse">
<stop stop-color="white"/>
<stop offset="1" stop-color="#2E3238"/>
</linearGradient>
<linearGradient id="paint8_linear_797_4434" x1="0.999657" y1="22.7499" x2="15.9093" y2="1.9237" gradientUnits="userSpaceOnUse">
<stop stop-color="white"/>
<stop offset="1" stop-color="#2E3238"/>
</linearGradient>
<linearGradient id="paint9_linear_797_4434" x1="0.999657" y1="22.7499" x2="15.9093" y2="1.9237" gradientUnits="userSpaceOnUse">
<stop stop-color="white"/>
<stop offset="1" stop-color="#2E3238"/>
</linearGradient>
<linearGradient id="paint10_linear_797_4434" x1="0.999657" y1="22.7499" x2="15.9093" y2="1.9237" gradientUnits="userSpaceOnUse">
<stop stop-color="white"/>
<stop offset="1" stop-color="#2E3238"/>
</linearGradient>
</defs>
</svg>
