<svg width="16" height="16" viewBox="0 0 16 16" fill="none" xmlns="http://www.w3.org/2000/svg">
<path fill-rule="evenodd" clip-rule="evenodd" d="M6.00065 0.833344C3.14718 0.833344 0.833984 3.14654 0.833984 6.00001C0.833984 8.85348 3.14718 11.1667 6.00065 11.1667C7.24732 11.1667 8.39085 10.7251 9.28342 9.98992L10.31 11.0165C10.0487 11.5681 10.1463 12.2474 10.6026 12.7037L12.6303 14.7314C13.2107 15.3118 14.1517 15.3118 14.732 14.7314C15.3124 14.151 15.3124 13.21 14.732 12.6297L12.7043 10.602C12.248 10.1456 11.5687 10.0481 11.0171 10.3094L9.99053 9.28282C10.7258 8.39025 11.1673 7.24669 11.1673 6.00001C11.1673 3.14654 8.85412 0.833344 6.00065 0.833344ZM1.83398 6.00001C1.83398 3.69882 3.69946 1.83334 6.00065 1.83334C8.30184 1.83334 10.1673 3.69882 10.1673 6.00001C10.1673 8.3012 8.30184 10.1667 6.00065 10.1667C3.69946 10.1667 1.83398 8.3012 1.83398 6.00001ZM11.9972 11.3091C11.8074 11.1192 11.4996 11.1192 11.3097 11.3091C11.1199 11.4989 11.1199 11.8067 11.3097 11.9966L13.3374 14.0243C13.5273 14.2141 13.8351 14.2141 14.0249 14.0243C14.2148 13.8344 14.2148 13.5266 14.0249 13.3368L11.9972 11.3091Z" fill="#9DA4AE"/>
</svg>
