<svg width="19" height="19" viewBox="0 0 19 19" fill="none" xmlns="http://www.w3.org/2000/svg">
<g opacity="0.4">
<path d="M6.87451 6.875C6.87451 6.875 7.74951 6.5 9.49951 6.5C11.2495 6.5 12.1245 6.875 12.1245 6.875V5.375L14.7495 4.25L9.49951 2L4.24951 4.25L6.87451 5.375V6.875Z" fill="#F8F9F9"/>
<path d="M6.05521 13.1966C6.15903 13.1352 6.25435 13.0789 6.33643 13.0278C8.2717 11.8241 10.7273 11.8241 12.6626 13.0278C12.7447 13.0789 12.84 13.1352 12.9438 13.1966C13.8839 13.7523 15.5206 14.7198 14.3338 15.901C13.69 16.5418 12.973 17 12.0715 17H6.92752C6.02605 17 5.30903 16.5418 4.66523 15.901C3.47839 14.7198 5.11517 13.7523 6.05521 13.1966Z" fill="#F8F9F9"/>
</g>
<path fill-rule="evenodd" clip-rule="evenodd" d="M14.187 7.24759C14.187 7.55809 14.439 7.81009 14.7495 7.81009V7.81159C15.06 7.81159 15.312 7.55959 15.312 7.24909V4.24535C15.3113 4.10585 15.2595 3.97835 15.1748 3.8801C15.1508 3.8516 15.1237 3.82609 15.0945 3.80359C15.0532 3.77209 15.0082 3.74582 14.9595 3.72632L9.72151 1.4816C9.57976 1.42085 9.42 1.42085 9.27825 1.4816L4.02825 3.7316C3.82125 3.8201 3.68701 4.02332 3.68701 4.24832C3.68701 4.47332 3.82125 4.67658 4.02825 4.76508L6.31201 5.74385V6.87259C6.31201 6.87622 6.31205 6.87985 6.31212 6.88347V7.625C6.31212 9.38541 7.73921 10.8125 9.49962 10.8125C11.26 10.8125 12.6871 9.38541 12.6871 7.625V6.875C12.6871 6.87129 12.6871 6.86759 12.687 6.8639V5.74308L14.187 5.10035V7.24759ZM11.5621 7.28485C11.1839 7.18818 10.4931 7.05936 9.49951 7.05936C8.50693 7.05936 7.81652 7.18793 7.43712 7.28494V7.625C7.43712 8.76409 8.36053 9.6875 9.49962 9.6875C10.6387 9.6875 11.5621 8.76409 11.5621 7.625V7.28485ZM11.562 6.13083C11.0865 6.03108 10.3973 5.93509 9.49951 5.93509H9.50098C8.60323 5.93509 7.91398 6.03033 7.43848 6.13083V5.37259C7.43848 5.14759 7.30424 4.94433 7.09724 4.85583L5.67825 4.24759L9.50024 2.6096L13.3222 4.24759L11.9032 4.85583C11.6962 4.94433 11.562 5.14759 11.562 5.37259V6.13083Z" fill="#F8F9F9"/>
<path fill-rule="evenodd" clip-rule="evenodd" d="M12.9598 12.5495C10.8426 11.2325 8.15662 11.2325 6.03944 12.5495C5.97538 12.5893 5.8948 12.6368 5.80256 12.6911C5.38818 12.9351 4.73853 13.3176 4.29508 13.771C4.01648 14.0559 3.74445 14.4387 3.69496 14.9117C3.64222 15.4157 3.85393 15.8864 4.26854 16.299C4.96034 16.9875 5.81239 17.5618 6.92763 17.5618H12.0716C13.1868 17.5618 14.0389 16.9875 14.7307 16.299C15.1453 15.8864 15.357 15.4157 15.3043 14.9117C15.2548 14.4387 14.9828 14.0559 14.7042 13.771C14.2607 13.3176 13.6113 12.9352 13.1969 12.6912C13.1046 12.6369 13.0239 12.5894 12.9598 12.5495ZM6.30543 13.7024C6.42016 13.6343 6.53092 13.5686 6.63364 13.5047C8.38701 12.4141 10.6122 12.4141 12.3656 13.5047C12.4682 13.5686 12.5788 13.6342 12.6934 13.7021C13.1075 13.9477 13.5737 14.2242 13.8999 14.5576C14.1006 14.7629 14.174 14.9202 14.1854 15.0287C14.1935 15.1062 14.1815 15.2584 13.9371 15.5016C13.3413 16.0946 12.7593 16.4368 12.0716 16.4368H6.92763C6.23992 16.4368 5.65793 16.0946 5.06214 15.5016C4.81778 15.2584 4.80575 15.1062 4.81385 15.0287C4.82521 14.9202 4.89861 14.7629 5.09939 14.5576C5.42552 14.2242 5.89134 13.9479 6.30543 13.7024Z" fill="#F8F9F9"/>
</svg>
