<svg width="24" height="24" viewBox="0 0 24 24" fill="none" xmlns="http://www.w3.org/2000/svg">
<path d="M12.6621 2.74944C13.076 2.38379 13.1151 1.75183 12.7494 1.33793C12.3838 0.924031 11.7518 0.884922 11.3379 1.25058C11.0342 1.51888 10.6532 2.00512 10.5355 2.64379C10.4019 3.36866 10.6389 4.13189 11.3379 4.74944C11.7518 5.1151 12.3838 5.07599 12.7494 4.66209C13.1151 4.24819 13.076 3.61624 12.6621 3.25058C12.5407 3.14335 12.5116 3.07421 12.5054 3.05691C12.4998 3.04145 12.4981 3.02921 12.5024 3.00623C12.5079 2.9763 12.5243 2.92971 12.56 2.87298C12.5961 2.81566 12.637 2.77158 12.6621 2.74944Z" fill="white"/>
<path d="M6.00082 4.56178C6.03493 4.01055 5.61572 3.53603 5.06449 3.50192C4.51326 3.46781 4.03875 3.88701 4.00463 4.43824C3.97869 4.85746 4.05613 5.4926 4.43666 6.04505C4.86691 6.66968 5.5954 7.05519 6.56178 6.99539C7.11301 6.96128 7.53222 6.48676 7.4981 5.93553C7.46399 5.3843 6.98948 4.9651 6.43824 4.99921C6.25889 5.01031 6.17525 4.9792 6.14735 4.96611C6.12121 4.95386 6.10307 4.93859 6.08374 4.91054C6.06041 4.87666 6.03529 4.82221 6.01824 4.74736C6.00103 4.67182 5.99829 4.60253 6.00082 4.56178Z" fill="white"/>
<path d="M19.5618 3.50463C19.1428 3.47871 18.5081 3.55609 17.956 3.9364C17.3317 4.36643 16.9464 5.09452 17.0062 6.06025C17.0403 6.61148 17.5148 7.03069 18.066 6.99657C18.6172 6.96246 19.0365 6.48795 19.0023 5.93672C18.9913 5.75768 19.0223 5.67431 19.0353 5.64661C19.0475 5.62068 19.0626 5.60269 19.0905 5.58348C19.1242 5.56026 19.1785 5.53521 19.2531 5.5182C19.3285 5.50102 19.3976 5.4983 19.4382 5.50081C19.9895 5.53493 20.464 5.11572 20.4981 4.56449C20.5322 4.01326 20.113 3.53874 19.5618 3.50463Z" fill="white"/>
<path d="M22.7494 11.3379C22.4811 11.0342 21.9949 10.6532 21.3562 10.5355C20.6314 10.4019 19.8681 10.6389 19.2506 11.3379C18.8849 11.7518 18.924 12.3838 19.3379 12.7494C19.7518 13.1151 20.3838 13.076 20.7494 12.6621C20.8567 12.5407 20.9258 12.5116 20.9431 12.5054C20.9586 12.4998 20.9708 12.4981 20.9938 12.5024C21.0237 12.5079 21.0703 12.5243 21.127 12.56C21.1844 12.5961 21.2284 12.637 21.2506 12.6621C21.6162 13.076 22.2482 13.1151 22.6621 12.7494C23.076 12.3838 23.1151 11.7518 22.7494 11.3379Z" fill="white"/>
<path d="M2.74944 10.8379C2.38379 10.424 1.75183 10.3849 1.33793 10.7506C0.924031 11.1162 0.884922 11.7482 1.25058 12.1621C1.86813 12.8611 2.63137 13.0981 3.35623 12.9645C3.9949 12.8468 4.48115 12.4658 4.74944 12.1621C5.1151 11.7482 5.07599 11.1162 4.66209 10.7506C4.24819 10.3849 3.61624 10.424 3.25058 10.8379C3.22844 10.863 3.18437 10.904 3.12704 10.94C3.07032 10.9757 3.02372 10.9921 2.99379 10.9976C2.97081 11.0019 2.95857 11.0003 2.94311 10.9947C2.92582 10.9884 2.85667 10.9593 2.74944 10.8379Z" fill="white"/>
<path d="M6.49386 17.4382C6.45975 16.887 5.98524 16.4678 5.43401 16.5019C4.88278 16.536 4.46357 17.0105 4.49768 17.5618C4.5002 17.6024 4.49747 17.6715 4.4803 17.7469C4.46329 17.8216 4.43824 17.8758 4.41502 17.9095C4.3958 17.9374 4.37781 17.9526 4.35188 17.9647C4.32419 17.9777 4.24081 18.0088 4.06178 17.9977C3.51055 17.9636 3.03603 18.3828 3.00192 18.934C2.96781 19.4852 3.38701 19.9598 3.93824 19.9939C4.90398 20.0536 5.63207 19.6684 6.0621 19.0441C6.44241 18.4919 6.51979 17.8572 6.49386 17.4382Z" fill="white"/>
<path d="M18.0584 18.5009C18.1042 18.4982 18.1784 18.5012 18.2584 18.5184C18.3384 18.5356 18.3961 18.561 18.4311 18.5837C18.4604 18.6028 18.4688 18.6161 18.4742 18.627C18.4797 18.638 18.5079 18.6989 18.4979 18.8515C18.4618 19.4026 18.8794 19.8786 19.4305 19.9147C19.9816 19.9507 20.4576 19.5332 20.4936 18.9821C20.5563 18.0241 20.1475 17.3148 19.5225 16.9078C18.9745 16.5509 18.3498 16.4804 17.9416 16.5043C17.3903 16.5365 16.9695 17.0096 17.0017 17.561C17.034 18.1123 17.5071 18.5331 18.0584 18.5009Z" fill="white"/>
<path d="M12.6621 19.2506C12.2482 18.8849 11.6162 18.924 11.2506 19.3379C10.8849 19.7518 10.924 20.3838 11.3379 20.7494C11.363 20.7716 11.404 20.8157 11.44 20.873C11.4757 20.9297 11.4921 20.9763 11.4976 21.0062C11.5019 21.0292 11.5003 21.0415 11.4947 21.0569C11.4884 21.0742 11.4593 21.1434 11.3379 21.2506C10.924 21.6162 10.8849 22.2482 11.2506 22.6621C11.6162 23.076 12.2482 23.1151 12.6621 22.7494C13.3611 22.1319 13.5981 21.3687 13.4645 20.6438C13.3468 20.0051 12.9658 19.5189 12.6621 19.2506Z" fill="white"/>
<path d="M12 17.5C15.0376 17.5 17.5 15.0376 17.5 12C17.5 8.96243 15.0376 6.5 12 6.5C8.96243 6.5 6.5 8.96243 6.5 12C6.5 15.0376 8.96243 17.5 12 17.5Z" fill="white"/>
</svg>
