<svg width="56" height="56" viewBox="0 0 56 56" fill="none" xmlns="http://www.w3.org/2000/svg">
<path opacity="0.4" fill-rule="evenodd" clip-rule="evenodd" d="M28 6.99967C16.402 6.99967 7.00001 16.4017 7.00001 27.9997C7.00001 39.5977 16.402 48.9997 28 48.9997C39.598 48.9997 49 39.5977 49 27.9997C49 26.5583 48.8551 25.1531 48.5799 23.7972C48.3235 22.5343 49.1395 21.3027 50.4024 21.0463C51.6653 20.79 52.8969 21.6059 53.1533 22.8688C53.4902 24.5286 53.6667 26.2447 53.6667 27.9997C53.6667 42.175 42.1753 53.6663 28 53.6663C13.8247 53.6663 2.33334 42.175 2.33334 27.9997C2.33334 13.8244 13.8247 2.33301 28 2.33301C29.755 2.33301 31.4711 2.50948 33.1309 2.8464C34.3938 3.10275 35.2097 4.33436 34.9534 5.59727C34.697 6.86018 33.4654 7.67615 32.2025 7.41979C30.8466 7.14455 29.4414 6.99967 28 6.99967Z" fill="white"/>
<path fill-rule="evenodd" clip-rule="evenodd" d="M44.2693 2.37745C45.4913 2.57267 46.6305 3.43809 46.9983 4.84772L47.8579 8.14211L51.1522 9.00166C52.5619 9.36946 53.4273 10.5086 53.6225 11.7307C53.8106 12.9084 53.3925 14.1018 52.5398 14.9545L49.8579 17.6364C46.8959 20.5983 43.2459 20.8463 39.4452 19.8546L29.6499 29.6499C28.7387 30.5611 27.2613 30.5611 26.3501 29.6499C25.4389 28.7387 25.4389 27.2613 26.3501 26.35L36.1454 16.5548C35.1537 12.7541 35.4017 9.10403 38.3636 6.14208L41.0455 3.46019C41.8982 2.6075 43.0915 2.18932 44.2693 2.37745ZM18.6667 27.9997C18.6667 22.845 22.8453 18.6663 28 18.6663C29.2887 18.6663 30.3333 17.6217 30.3333 16.333C30.3333 15.0443 29.2887 13.9997 28 13.9997C20.268 13.9997 14 20.2677 14 27.9997C14 35.7317 20.268 41.9997 28 41.9997C35.732 41.9997 42 35.7317 42 27.9997C42 26.711 40.9553 25.6663 39.6667 25.6663C38.378 25.6663 37.3333 26.711 37.3333 27.9997C37.3333 33.1543 33.1547 37.333 28 37.333C22.8453 37.333 18.6667 33.1543 18.6667 27.9997Z" fill="white"/>
</svg>
