<svg width="56" height="57" viewBox="0 0 56 57" fill="none" xmlns="http://www.w3.org/2000/svg">
<path opacity="0.4" fill-rule="evenodd" clip-rule="evenodd" d="M30.163 12.3959C31.7357 10.9515 33.7635 10.4032 35.7001 10.7439C36.9601 10.9679 37.8234 12.1789 37.59 13.4459C37.3567 14.7152 36.1668 15.5646 34.8835 15.3406C34.3701 15.2496 33.8101 15.3756 33.3201 15.833C31.2107 17.7696 29.2789 19.6782 27.4706 21.5845C26.5839 22.5202 25.1068 22.5598 24.1711 21.6731C23.2354 20.7865 23.1981 19.3096 24.0847 18.3739C25.9654 16.3882 27.9743 14.4049 30.163 12.3959ZM10.6681 27.8774C9.76273 27.3711 8.50523 27.5719 7.7539 28.8272C7.0469 30.0102 7.1704 31.6015 7.99407 32.6118L11.5292 36.9542C12.8918 38.6272 13.7738 39.7029 14.4971 40.3865C14.8401 40.7132 15.0641 40.8648 15.1971 40.9348C15.2414 40.9604 15.2717 40.9723 15.2857 40.9769C15.2974 40.9723 15.3115 40.9676 15.3302 40.9582C15.4258 40.9139 15.6031 40.8088 15.8855 40.5731C16.8725 39.7448 18.3448 39.8733 19.1731 40.8603C20.0014 41.8473 19.8732 43.3196 18.8862 44.1479C17.9366 44.9459 16.744 45.6599 15.2484 45.6459C13.5707 45.6295 12.2968 44.729 11.2888 43.7746C10.3181 42.8576 9.24486 41.5415 8.0082 40.0201L4.37512 35.5588C2.28679 32.9944 2.05353 29.2636 3.74986 26.431C5.74253 23.099 9.75112 22.0139 12.9501 23.8082C14.0748 24.4382 14.4738 25.8616 13.8438 26.9863C13.2138 28.1086 11.7904 28.5098 10.6681 27.8774Z" fill="white"/>
<path d="M42.8162 12.8159C45.7329 10.2072 49.9795 10.9494 52.1028 14.0644C54.0862 16.9297 53.7363 20.9895 51.1463 23.3672C49.6063 24.7788 48.1596 26.0855 46.7596 27.3338C42.303 31.3402 38.4762 34.7702 34.5329 39.3505L34.4629 39.4394C33.0396 41.0727 31.8821 42.4189 30.8624 43.3452C29.8288 44.2809 28.6342 45.0789 27.1455 45.0649C25.6849 45.0509 24.5345 44.2881 23.5405 43.3664C22.5791 42.4751 21.5059 41.1845 20.2225 39.6422L16.5311 35.2088C14.5571 32.8358 14.3309 29.3546 15.9432 26.7179C18.3092 22.8469 23.5335 22.4106 26.4175 25.948L28.3006 28.2556C32.5472 22.9729 37.0529 17.9889 42.8162 12.8159Z" fill="white"/>
</svg>
