<svg width="17" height="16" viewBox="0 0 17 16" fill="none" xmlns="http://www.w3.org/2000/svg">
<path d="M9.1252 9.66659C9.1252 10.0118 8.84538 10.2916 8.5002 10.2916C8.15503 10.2916 7.8752 10.0118 7.8752 9.66659V2.61498L7.87015 2.62093C7.69458 2.82813 7.52267 3.04711 7.36191 3.25188L7.32465 3.29934C7.16446 3.50328 6.99593 3.71754 6.86505 3.8522C6.62446 4.09972 6.22877 4.10535 5.98125 3.86476C5.73373 3.62418 5.72811 3.22849 5.96869 2.98097C6.04261 2.90492 6.16397 2.75341 6.34163 2.52722L6.38082 2.4773C6.53921 2.27551 6.72504 2.03877 6.91648 1.81284C7.12165 1.57071 7.3513 1.31922 7.58086 1.1237C7.6959 1.02572 7.82556 0.929078 7.96506 0.85443C8.09959 0.782435 8.28497 0.708252 8.5002 0.708252C8.71544 0.708252 8.90082 0.782435 9.03535 0.85443C9.17484 0.929078 9.30451 1.02572 9.41955 1.1237C9.64911 1.31922 9.87875 1.57071 10.0839 1.81284C10.2754 2.03876 10.4611 2.27545 10.6195 2.47722L10.6588 2.52722C10.8364 2.75341 10.9578 2.90492 11.0317 2.98097C11.2723 3.22849 11.2667 3.62418 11.0192 3.86476C10.7716 4.10535 10.3759 4.09972 10.1354 3.8522C10.0045 3.71754 9.83595 3.50328 9.67576 3.29934L9.63849 3.25187C9.47773 3.0471 9.30582 2.82813 9.13025 2.62093L9.1252 2.61498V9.66659Z" fill="white"/>
<path d="M16.5895 9.87459C16.7044 9.54909 16.5337 9.19209 16.2082 9.07721C15.8827 8.96233 15.5257 9.13307 15.4108 9.45857L15.2159 10.0107C14.832 11.0986 14.5604 11.8653 14.2816 12.44C14.0097 13.0005 13.7568 13.321 13.4413 13.5442C13.1259 13.7674 12.7395 13.8991 12.1205 13.969C11.4857 14.0407 10.6723 14.0416 9.5187 14.0416H7.48164C6.32799 14.0416 5.5146 14.0407 4.87984 13.969C4.26086 13.8991 3.87447 13.7674 3.559 13.5442C3.24353 13.321 2.99069 13.0005 2.71879 12.44C2.43995 11.8653 2.16837 11.0986 1.78441 10.0107L1.58954 9.45857C1.47466 9.13307 1.11766 8.96233 0.792158 9.07721C0.466658 9.19209 0.295919 9.54909 0.410801 9.87459L0.618125 10.462C0.986782 11.5066 1.28096 12.3401 1.59416 12.9856C1.91781 13.6528 2.28722 14.1756 2.83704 14.5646C3.38685 14.9536 4.00283 15.1279 4.73962 15.2111C5.45261 15.2916 6.33652 15.2916 7.44422 15.2916H9.55612C10.6638 15.2916 11.5477 15.2916 12.2607 15.2111C12.9975 15.1279 13.6135 14.9536 14.1633 14.5646C14.7131 14.1756 15.0825 13.6528 15.4062 12.9856C15.7194 12.3401 16.0136 11.5066 16.3822 10.462L16.5895 9.87459Z" fill="white"/>
</svg>
