<svg width="18" height="18" viewBox="0 0 18 18" fill="none" xmlns="http://www.w3.org/2000/svg">
<path opacity="0.4" fill-rule="evenodd" clip-rule="evenodd" d="M9 16.5C13.1421 16.5 16.5 13.1421 16.5 9C16.5 4.85786 13.1421 1.5 9 1.5C4.85786 1.5 1.5 4.85786 1.5 9C1.5 13.1421 4.85786 16.5 9 16.5ZM8.99399 9C9.91578 9 10.663 8.24448 10.663 7.3125C10.663 6.38052 9.91578 5.625 8.99399 5.625C8.07221 5.625 7.32495 6.38052 7.32495 7.3125C7.32495 8.24448 8.07221 9 8.99399 9Z" fill="#F8F9F9"/>
<path d="M8.43726 1.5C8.43726 1.18934 8.6891 0.9375 8.99976 0.9375C13.4532 0.9375 17.0623 4.54773 17.0623 9C17.0623 13.4523 13.4532 17.0625 8.99976 17.0625C8.6891 17.0625 8.43726 16.8107 8.43726 16.5C8.43726 16.1893 8.6891 15.9375 8.99976 15.9375C12.8318 15.9375 15.9373 12.8311 15.9373 9C15.9373 5.16894 12.8318 2.0625 8.99976 2.0625C8.6891 2.0625 8.43726 1.81066 8.43726 1.5Z" fill="#F8F9F9"/>
<path d="M7.28232 1.69381C7.38248 1.98788 7.22528 2.30746 6.9312 2.40762C6.09693 2.69176 5.31515 3.10953 4.63661 3.63521C4.39103 3.82547 4.03771 3.78062 3.84745 3.53503C3.65719 3.28945 3.70204 2.93613 3.94763 2.74587C4.72754 2.14166 5.62024 1.66565 6.56851 1.34269C6.86258 1.24253 7.18217 1.39973 7.28232 1.69381Z" fill="#F8F9F9"/>
<path d="M2.76918 4.72807C3.03299 4.89212 3.11387 5.23897 2.94982 5.50278C2.50797 6.21333 2.20148 6.99113 2.05281 7.78792C1.99583 8.09331 1.70207 8.29468 1.39668 8.2377C1.09129 8.18072 0.889918 7.88696 0.9469 7.58157C1.12233 6.64137 1.48202 5.73277 1.99447 4.9087C2.15852 4.64489 2.50537 4.56401 2.76918 4.72807Z" fill="#F8F9F9"/>
<path d="M1.39668 9.76261C1.70207 9.70563 1.99583 9.907 2.05281 10.2124C2.20148 11.0092 2.50797 11.787 2.94982 12.4975C3.11387 12.7613 3.03299 13.1082 2.76918 13.2722C2.50537 13.4363 2.15852 13.3554 1.99447 13.0916C1.48202 12.2675 1.12233 11.3589 0.9469 10.4187C0.889918 10.1134 1.09129 9.81959 1.39668 9.76261Z" fill="#F8F9F9"/>
<path d="M3.84994 14.4621C4.04196 14.2179 4.39559 14.1756 4.6398 14.3676C5.31432 14.8979 6.09406 15.3076 6.9312 15.5927C7.22528 15.6928 7.38248 16.0124 7.28232 16.3065C7.18217 16.6006 6.86258 16.7578 6.56851 16.6576C5.6231 16.3356 4.72837 15.8683 3.94444 15.252C3.70023 15.0599 3.65792 14.7063 3.84994 14.4621Z" fill="#F8F9F9"/>
<path fill-rule="evenodd" clip-rule="evenodd" d="M8.99411 5.0625C7.75585 5.0625 6.76257 6.07571 6.76257 7.3125C6.76257 8.54929 7.75585 9.5625 8.99411 9.5625C10.2324 9.5625 11.2257 8.54929 11.2257 7.3125C11.2257 6.07571 10.2324 5.0625 8.99411 5.0625ZM7.88757 7.3125C7.88757 6.68533 8.3888 6.1875 8.99411 6.1875C9.59942 6.1875 10.1007 6.68533 10.1007 7.3125C10.1007 7.93967 9.59942 8.4375 8.99411 8.4375C8.3888 8.4375 7.88757 7.93967 7.88757 7.3125Z" fill="#F8F9F9"/>
<path d="M6.409 12.7609C7.75214 11.3365 10.246 11.284 11.5838 12.7536C11.7929 12.9834 12.1487 13.0001 12.3784 12.791C12.6081 12.5819 12.6249 12.2261 12.4157 11.9964C10.6111 10.0138 7.35631 10.1165 5.59051 11.9891C5.37738 12.2151 5.38783 12.5711 5.61385 12.7842C5.83987 12.9974 6.19587 12.9869 6.409 12.7609Z" fill="#F8F9F9"/>
</svg>
