<svg width="24" height="24" viewBox="0 0 24 24" fill="none" xmlns="http://www.w3.org/2000/svg">
<path d="M8.79051 2.5C5.98406 2.5 3.70898 4.68412 3.70898 7.37838C3.70898 10.0726 5.98406 12.2568 8.79051 12.2568C11.597 12.2568 13.872 10.0726 13.872 7.37838C13.872 4.68412 11.597 2.5 8.79051 2.5Z" fill="url(#paint0_linear_797_2314)"/>
<path d="M14.0402 15.2193C13.9088 15.1507 13.7937 15.0907 13.7025 15.0404C10.6946 13.3824 6.88769 13.3824 3.87983 15.0404C3.78851 15.0907 3.67361 15.1507 3.54205 15.2193C2.95118 15.5276 2.02438 16.0112 1.39032 16.5857C0.995532 16.9434 0.587143 17.4428 0.512166 18.0777C0.431036 18.7648 0.760633 19.3852 1.35274 19.9074C2.34661 20.784 3.55506 21.4996 5.12247 21.4996H12.4598C14.0272 21.4996 15.2357 20.784 16.2295 19.9074C16.8217 19.3852 17.1512 18.7648 17.0701 18.0777C16.9951 17.4428 16.5868 16.9434 16.192 16.5857C15.5579 16.0112 14.6311 15.5276 14.0402 15.2193Z" fill="url(#paint1_linear_797_2314)"/>
<g opacity="0.4">
<path d="M14.262 10.9829C14.9914 9.95459 15.4179 8.71221 15.4179 7.37431C15.4179 6.68416 15.3044 6.01945 15.0944 5.39643C14.9882 5.08112 14.9349 4.92301 15.0101 4.80292C15.0852 4.68278 15.2275 4.65845 15.5121 4.60979C15.742 4.57049 15.9786 4.54999 16.2202 4.54999C18.4358 4.54999 20.232 6.2743 20.232 8.40134C20.232 10.5284 18.4358 12.2527 16.2202 12.2527C15.5779 12.2527 14.9708 12.1078 14.4325 11.8501C14.1738 11.7263 14.0445 11.6644 14.0077 11.5289C13.9709 11.3934 14.068 11.2565 14.262 10.9829Z" fill="url(#paint2_linear_797_2314)"/>
<path d="M22.5986 19.1355C21.6632 19.8759 20.5382 20.469 19.0918 20.469C18.5824 20.469 18.3277 20.469 18.2313 20.3488C18.2252 20.341 18.2218 20.3365 18.2163 20.3283C18.1304 20.2011 18.2296 19.9324 18.428 19.3954L18.4284 19.3944C18.5952 18.9429 18.6694 18.4432 18.6053 17.9007C18.4671 16.7302 17.7341 15.9149 17.2341 15.4619C17.012 15.2606 16.7589 15.0673 16.4973 14.8868C15.8085 14.4117 15.4641 14.1741 15.5525 13.9523C15.6409 13.7306 16.0277 13.7707 16.8012 13.8511C18.0007 13.9756 19.1749 14.3019 20.2422 14.8299C20.3254 14.8711 20.4307 14.9204 20.5517 14.977L20.5529 14.9776C21.1007 15.234 21.9691 15.6406 22.5646 16.1248C22.9283 16.4205 23.3498 16.8662 23.4285 17.4649C23.5163 18.1316 23.153 18.6967 22.5986 19.1355Z" fill="url(#paint3_linear_797_2314)"/>
</g>
<defs>
<linearGradient id="paint0_linear_797_2314" x1="0.499742" y1="21.4995" x2="19.3248" y2="5.06943" gradientUnits="userSpaceOnUse">
<stop stop-color="white"/>
<stop offset="1" stop-color="#2E3238"/>
</linearGradient>
<linearGradient id="paint1_linear_797_2314" x1="0.499742" y1="21.4995" x2="19.3248" y2="5.06943" gradientUnits="userSpaceOnUse">
<stop stop-color="white"/>
<stop offset="1" stop-color="#2E3238"/>
</linearGradient>
<linearGradient id="paint2_linear_797_2314" x1="13.9999" y1="20.4689" x2="27.9691" y2="12.1838" gradientUnits="userSpaceOnUse">
<stop stop-color="white"/>
<stop offset="1" stop-color="#2E3238"/>
</linearGradient>
<linearGradient id="paint3_linear_797_2314" x1="13.9999" y1="20.4689" x2="27.9691" y2="12.1838" gradientUnits="userSpaceOnUse">
<stop stop-color="white"/>
<stop offset="1" stop-color="#2E3238"/>
</linearGradient>
</defs>
</svg>
