<svg width="24" height="24" viewBox="0 0 24 24" fill="none" xmlns="http://www.w3.org/2000/svg">
<path d="M14.001 2C13.6544 2 13.3326 2.17945 13.1503 2.47427C12.9681 2.76909 12.9516 3.13723 13.1066 3.44721L13.9637 5.1615C14.1608 5.55572 14.5832 5.76285 14.9968 5.7049C15.2097 5.67508 15.3829 5.53122 15.5349 5.37922L16.3373 4.57679C17.9226 5.41457 19.001 7.0795 19.001 9C19.001 9.55229 19.4487 10 20.001 10C20.5533 10 21.001 9.55229 21.001 9C21.001 5.13057 17.8704 2 14.001 2Z" fill="url(#paint0_linear_797_2302)"/>
<path d="M5.00098 15C5.00098 14.4477 4.55326 14 4.00098 14C3.4487 14 3.00098 14.4477 3.00098 15C3.00098 18.8694 6.13155 22 10.001 22C10.3476 22 10.6694 21.8205 10.8517 21.5257C11.0339 21.2309 11.0504 20.8628 10.8954 20.5528L10.0383 18.8385C9.84116 18.4443 9.4188 18.2372 9.00517 18.2951C8.79229 18.3249 8.61913 18.4688 8.46713 18.6208L7.6647 19.4232C6.07941 18.5854 5.00098 16.9205 5.00098 15Z" fill="url(#paint1_linear_797_2302)"/>
<path opacity="0.4" fill-rule="evenodd" clip-rule="evenodd" d="M6.5 1.25C4.83606 1.25 3.5 2.60022 3.5 4.25C3.5 5.89978 4.83606 7.25 6.5 7.25C8.16395 7.25 9.5 5.89978 9.5 4.25C9.5 2.60022 8.16395 1.25 6.5 1.25ZM9.56853 8.4936C7.68698 7.50213 5.3136 7.50213 3.43204 8.4936C3.38492 8.51843 3.32269 8.54939 3.24941 8.58585C2.89914 8.7601 2.29648 9.05991 1.88539 9.416C1.63346 9.63423 1.31873 9.98195 1.25976 10.4594C1.19372 10.994 1.47037 11.4406 1.86561 11.7738C2.49204 12.302 3.27504 12.75 4.29572 12.75H8.70485C9.72554 12.75 10.5086 12.302 11.135 11.7738C11.5302 11.4406 11.8069 10.994 11.7408 10.4594C11.6819 9.98195 11.3671 9.63423 11.1152 9.416C10.7041 9.05991 10.1015 8.7601 9.75117 8.58585C9.67789 8.54939 9.61565 8.51843 9.56853 8.4936ZM17.501 11.25C15.8371 11.25 14.501 12.6002 14.501 14.25C14.501 15.8998 15.8371 17.25 17.501 17.25C19.1649 17.25 20.501 15.8998 20.501 14.25C20.501 12.6002 19.1649 11.25 17.501 11.25ZM20.5695 18.4936C18.688 17.5021 16.3146 17.5021 14.433 18.4936C14.3859 18.5184 14.3237 18.5494 14.2504 18.5858C13.9001 18.76 13.2975 19.0599 12.8864 19.416C12.6345 19.6342 12.3197 19.982 12.2608 20.4594C12.1947 20.994 12.4714 21.4406 12.8666 21.7738C13.493 22.302 14.276 22.75 15.2967 22.75H19.7059C20.7265 22.75 21.5095 22.302 22.136 21.7738C22.5312 21.4406 22.8079 20.994 22.7418 20.4594C22.6828 19.982 22.3681 19.6342 22.1162 19.416C21.7051 19.0599 21.1024 18.7601 20.7522 18.5858C20.6789 18.5494 20.6167 18.5184 20.5695 18.4936Z" fill="url(#paint2_linear_797_2302)"/>
<defs>
<linearGradient id="paint0_linear_797_2302" x1="3.0007" y1="21.9999" x2="22.8903" y2="4.0992" gradientUnits="userSpaceOnUse">
<stop stop-color="white"/>
<stop offset="1" stop-color="#2E3238"/>
</linearGradient>
<linearGradient id="paint1_linear_797_2302" x1="3.0007" y1="21.9999" x2="22.8903" y2="4.0992" gradientUnits="userSpaceOnUse">
<stop stop-color="white"/>
<stop offset="1" stop-color="#2E3238"/>
</linearGradient>
<linearGradient id="paint2_linear_797_2302" x1="1.24967" y1="22.7499" x2="22.7497" y2="1.24819" gradientUnits="userSpaceOnUse">
<stop stop-color="white"/>
<stop offset="1" stop-color="#2E3238"/>
</linearGradient>
</defs>
</svg>
