<svg width="18" height="18" viewBox="0 0 18 18" fill="none" xmlns="http://www.w3.org/2000/svg">
<path opacity="0.4" d="M4.93318 11.6162C3.8721 12.248 1.09002 13.5381 2.7845 15.1524C3.61223 15.941 4.53412 16.505 5.69315 16.505H12.3068C13.4659 16.505 14.3878 15.941 15.2155 15.1524C16.91 13.5381 14.1279 12.248 13.0668 11.6162C10.5786 10.1346 7.42139 10.1346 4.93318 11.6162Z" fill="#F8F9F9"/>
<path fill-rule="evenodd" clip-rule="evenodd" d="M9 0.942505C6.82538 0.942505 5.0625 2.70538 5.0625 4.88C5.0625 7.05463 6.82538 8.8175 9 8.8175C11.1746 8.8175 12.9375 7.05463 12.9375 4.88C12.9375 2.70538 11.1746 0.942505 9 0.942505ZM6.1875 4.88C6.1875 3.3267 7.4467 2.0675 9 2.0675C10.5533 2.0675 11.8125 3.3267 11.8125 4.88C11.8125 6.43331 10.5533 7.6925 9 7.6925C7.4467 7.6925 6.1875 6.43331 6.1875 4.88Z" fill="#F8F9F9"/>
<path fill-rule="evenodd" clip-rule="evenodd" d="M13.6716 11.3144C13.5497 11.2456 13.4419 11.1848 13.3547 11.1329C10.6892 9.54571 7.31107 9.54571 4.64553 11.1329C4.5583 11.1848 4.45054 11.2456 4.32854 11.3144C3.79393 11.6161 2.9858 12.072 2.43217 12.6139C2.08592 12.9528 1.75693 13.3994 1.69712 13.9466C1.63352 14.5285 1.88736 15.0745 2.39663 15.5597C3.27521 16.3967 4.32955 17.0675 5.69328 17.0675H12.307C13.6707 17.0675 14.725 16.3967 15.6036 15.5597C16.1129 15.0745 16.3667 14.5285 16.3031 13.9466C16.2433 13.3994 15.9143 12.9528 15.5681 12.6139C15.0145 12.072 14.2062 11.616 13.6716 11.3144ZM5.2211 12.0995C7.53198 10.7235 10.4683 10.7235 12.7792 12.0995C12.9051 12.1745 13.0431 12.2528 13.1876 12.3347C13.722 12.638 14.3461 12.992 14.7812 13.4178C15.0513 13.6822 15.1664 13.9003 15.1848 14.0688C15.1994 14.2026 15.1656 14.4232 14.8276 14.7452C14.0507 15.4853 13.2613 15.9425 12.307 15.9425H5.69328C4.73895 15.9425 3.94952 15.4853 3.17263 14.7452C2.83466 14.4232 2.80084 14.2026 2.81546 14.0688C2.83388 13.9003 2.94901 13.6822 3.21911 13.4178C3.65418 12.992 4.27819 12.638 4.81265 12.3348C4.95715 12.2528 5.0952 12.1745 5.2211 12.0995Z" fill="#F8F9F9"/>
</svg>
