<svg width="18" height="18" viewBox="0 0 18 18" fill="none" xmlns="http://www.w3.org/2000/svg">
<path opacity="0.4" d="M3.81052 11.4723C2.89681 12.0251 0.501131 13.154 1.96026 14.5665C2.67303 15.2565 3.46688 15.75 4.46494 15.75H10.1601C11.1581 15.75 11.952 15.2565 12.6647 14.5665C14.1239 13.154 11.7282 12.0251 10.8145 11.4723C8.67186 10.1759 5.95314 10.1759 3.81052 11.4723Z" fill="#F8F9F9"/>
<path fill-rule="evenodd" clip-rule="evenodd" d="M3.56226 5.25C3.56226 3.28249 5.15724 1.6875 7.12476 1.6875C9.09227 1.6875 10.6873 3.28249 10.6873 5.25C10.6873 7.21751 9.09227 8.8125 7.12476 8.8125C5.15724 8.8125 3.56226 7.21751 3.56226 5.25ZM7.12476 2.8125C5.77856 2.8125 4.68726 3.90381 4.68726 5.25C4.68726 6.59619 5.77856 7.6875 7.12476 7.6875C8.47095 7.6875 9.56226 6.59619 9.56226 5.25C9.56226 3.90381 8.47095 2.8125 7.12476 2.8125Z" fill="#F8F9F9"/>
<path fill-rule="evenodd" clip-rule="evenodd" d="M3.51921 10.991C5.84085 9.58633 8.78391 9.58633 11.1055 10.991C11.1783 11.035 11.2691 11.0871 11.3725 11.1463C11.832 11.4096 12.541 11.8159 13.026 12.2982C13.3298 12.6003 13.6251 13.0049 13.6788 13.5047C13.7362 14.0379 13.5062 14.5347 13.0559 14.9706C12.2932 15.7089 11.366 16.3125 10.1599 16.3125H4.46481C3.25877 16.3125 2.33151 15.7089 1.5689 14.9706C1.11859 14.5347 0.888554 14.0379 0.945908 13.5047C0.999675 13.0049 1.29498 12.6003 1.59878 12.2982C2.08372 11.8159 2.79273 11.4096 3.25222 11.1463C3.35554 11.0871 3.44653 11.035 3.51921 10.991ZM10.5232 11.9536C8.55957 10.7655 6.06519 10.7655 4.10158 11.9536C3.99015 12.021 3.86915 12.0908 3.74322 12.1634C3.28394 12.4282 2.75892 12.731 2.39212 13.0958C2.16518 13.3215 2.07805 13.4986 2.06445 13.625C2.05445 13.7181 2.07212 13.892 2.35138 14.1623C3.01431 14.8041 3.67474 15.1875 4.46481 15.1875H10.1599C10.95 15.1875 11.6104 14.8041 12.2734 14.1623C12.5526 13.892 12.5703 13.7181 12.5603 13.625C12.5467 13.4986 12.4596 13.3215 12.2326 13.0958C11.8658 12.731 11.3408 12.4282 10.8815 12.1634C10.7557 12.0908 10.6345 12.0209 10.5232 11.9536Z" fill="#F8F9F9"/>
<path d="M12.7498 3.1875C12.4391 3.1875 12.1873 3.43934 12.1873 3.75C12.1873 4.06066 12.4391 4.3125 12.7498 4.3125L16.4998 4.3125C16.8104 4.3125 17.0623 4.06066 17.0623 3.75C17.0623 3.43934 16.8104 3.1875 16.4998 3.1875L12.7498 3.1875Z" fill="#F8F9F9"/>
<path d="M12.1873 6C12.1873 5.68934 12.4391 5.4375 12.7498 5.4375L16.4998 5.4375C16.8104 5.4375 17.0623 5.68934 17.0623 6C17.0623 6.31066 16.8104 6.5625 16.4998 6.5625L12.7498 6.5625C12.4391 6.5625 12.1873 6.31066 12.1873 6Z" fill="#F8F9F9"/>
<path d="M14.9998 7.6875C14.6891 7.6875 14.4373 7.93934 14.4373 8.25C14.4373 8.56066 14.6891 8.8125 14.9998 8.8125H16.4998C16.8104 8.8125 17.0623 8.56066 17.0623 8.25C17.0623 7.93934 16.8104 7.6875 16.4998 7.6875H14.9998Z" fill="#F8F9F9"/>
</svg>
