<svg width="22" height="22" viewBox="0 0 22 22" fill="none" xmlns="http://www.w3.org/2000/svg">
<path fill-rule="evenodd" clip-rule="evenodd" d="M16.312 0.930594C14.9686 0.749976 13.2479 0.749987 11.0572 0.75H10.9428C8.75212 0.749987 7.03144 0.749976 5.68802 0.930594C4.31137 1.11568 3.21911 1.50272 2.36091 2.36091C1.50272 3.21911 1.11568 4.31137 0.930594 5.68802C0.749976 7.03144 0.749987 8.75212 0.75 10.9428V11.0572C0.749987 13.2479 0.749976 14.9686 0.930594 16.312C1.11568 17.6886 1.50272 18.7809 2.36091 19.6391C3.21911 20.4973 4.31137 20.8843 5.68802 21.0694C7.03144 21.25 8.7521 21.25 10.9428 21.25H11.0572C13.2479 21.25 14.9686 21.25 16.312 21.0694C17.6886 20.8843 18.7809 20.4973 19.6391 19.6391C20.4973 18.7809 20.8843 17.6886 21.0694 16.312C21.25 14.9686 21.25 13.2479 21.25 11.0572V10.9428C21.25 8.75214 21.25 7.03144 21.0694 5.68802C20.8843 4.31137 20.4973 3.21911 19.6391 2.36091C18.7809 1.50272 17.6886 1.11568 16.312 0.930594ZM6 5.25C5.71836 5.25 5.46045 5.40779 5.33223 5.65856C5.20401 5.90933 5.22709 6.21079 5.39199 6.43912L9.21157 11.7278L5.46967 15.4697C5.17678 15.7626 5.17678 16.2374 5.46967 16.5303C5.76257 16.8232 6.23744 16.8232 6.53033 16.5303L10.1012 12.9595L12.6142 16.4391C12.7552 16.6344 12.9814 16.75 13.2222 16.75H16C16.2816 16.75 16.5396 16.5922 16.6678 16.3414C16.796 16.0907 16.7729 15.7892 16.608 15.5609L12.7884 10.2722L16.5303 6.53033C16.8232 6.23744 16.8232 5.76256 16.5303 5.46967C16.2374 5.17678 15.7626 5.17678 15.4697 5.46967L11.8988 9.0405L9.38579 5.56088C9.24479 5.36565 9.01861 5.25 8.77778 5.25H6Z" fill="#696C68"/>
</svg>
