<svg width="56" height="57" viewBox="0 0 56 57" fill="none" xmlns="http://www.w3.org/2000/svg">
<path d="M21.2707 10.1186C21.686 10.1723 21.8913 10.2003 22.0523 10.3403C22.2133 10.4803 22.3137 10.7463 22.2857 10.9586C22.2577 11.171 22.0897 11.3623 21.7513 11.7426L18.109 15.8446C14.9637 19.3843 14.9637 24.8979 18.109 28.4376C20.7364 31.3939 25.1067 32.1266 28.6277 30.2646C29.2623 29.9286 29.582 29.7606 29.834 29.8189C30.0884 29.8773 30.2773 30.1316 30.6553 30.6426L34.055 35.2346C34.9673 36.4666 35.8284 37.6333 36.6474 38.5666C36.799 38.7416 36.9577 38.9143 37.121 39.0869C37.38 39.3599 37.38 39.7916 37.1117 40.053C35.3057 41.7983 33.838 43.2169 32.522 44.2203C31.1476 45.2656 29.372 46.0193 27.755 46.2129C26.131 46.3296 24.6587 45.8886 23.1047 45.1256C21.6113 44.3906 19.7983 43.2239 17.6703 41.8519C15.3417 40.3493 14.4457 39.7916 13.4633 39.4929C12.4693 39.2129 11.249 39.1546 8.449 39.1546H8.38599C7.76299 39.1546 7.19135 39.1546 6.71535 39.115C6.20201 39.0706 5.63968 38.9703 5.08668 38.6786C4.36568 38.2959 3.77535 37.7056 3.39268 36.9823C3.10101 36.4316 3.00065 35.8693 2.95632 35.3559C2.91665 34.8776 2.91667 34.3083 2.91667 33.6853L2.91667 21.0433C2.91667 20.033 2.91666 19.109 3.01699 18.3553C3.12899 17.5246 3.39264 16.6496 4.11364 15.9263C4.83464 15.2053 5.70968 14.9439 6.54034 14.8319C7.29401 14.7316 8.21802 14.7316 9.22835 14.7316H11.3516C12.4436 14.7316 13.5917 14.1926 14.5087 13.054C16.2283 10.9073 18.732 9.79195 21.2707 10.1186Z" fill="white"/>
<path opacity="0.4" d="M40.1246 37.1388C40.6169 37.5985 41.1373 37.9881 41.7346 38.3031C43.4986 39.2341 45.4866 39.2318 48.2446 39.2294L49.5069 39.1991C51.3595 38.9681 52.8203 37.5051 53.0536 35.6524C53.0839 35.3958 53.0839 35.1158 53.0839 34.8474L53.0839 21.5871C53.0839 20.5767 53.0839 19.6528 52.9836 18.8991C52.8716 18.0685 52.6079 17.1934 51.8869 16.4724C51.1659 15.7491 50.2909 15.4878 49.4602 15.3758C48.7066 15.2754 47.7826 15.2755 46.7722 15.2755H45.4609C43.7179 15.2755 42.3996 14.3795 40.6776 12.6411C39.2379 11.1875 37.0702 10.2798 35.0636 10.1584C33.4769 10.0581 31.3372 9.92278 29.4542 10.4198L29.3656 10.4431C27.0043 11.0917 25.4619 12.8324 24.2485 14.1998L20.7253 18.1664C18.7582 20.3831 18.7582 23.8971 20.7253 26.1115C22.4986 28.1064 25.3826 28.4634 27.5386 26.8464C27.8372 26.6224 28.2502 26.2724 28.5186 26.0461C28.7496 25.8501 28.9643 25.6681 29.1836 25.4931C29.5779 25.1174 30.5603 24.6321 31.3443 25.6868L36.7996 33.0601C37.7679 34.3668 38.5566 35.4331 39.2799 36.2568C39.5576 36.5741 39.8352 36.8681 40.1246 37.1388Z" fill="white"/>
</svg>
