<svg width="18" height="18" viewBox="0 0 18 18" fill="none" xmlns="http://www.w3.org/2000/svg">
<path opacity="0.4" d="M2.25 8.25C2.25 5.4377 2.25 4.03155 2.96619 3.04581C3.19748 2.72745 3.47745 2.44748 3.79581 2.21619C4.78155 1.5 6.1877 1.5 9 1.5C11.8123 1.5 13.2184 1.5 14.2042 2.21619C14.5225 2.44748 14.8025 2.72745 15.0338 3.04581C15.75 4.03155 15.75 5.4377 15.75 8.25V9.75C15.75 12.5623 15.75 13.9684 15.0338 14.9542C14.8025 15.2725 14.5225 15.5525 14.2042 15.7838C13.2184 16.5 11.8123 16.5 9 16.5C6.1877 16.5 4.78155 16.5 3.79581 15.7838C3.47745 15.5525 3.19748 15.2725 2.96619 14.9542C2.25 13.9684 2.25 12.5623 2.25 9.75V8.25Z" fill="#F8F9F9"/>
<path d="M6 8.4375C5.68934 8.4375 5.4375 8.68934 5.4375 9C5.4375 9.31066 5.68934 9.5625 6 9.5625H12C12.3107 9.5625 12.5625 9.31066 12.5625 9C12.5625 8.68934 12.3107 8.4375 12 8.4375H6Z" fill="#F8F9F9"/>
<path d="M7.875 12.1875C7.56434 12.1875 7.3125 12.4393 7.3125 12.75C7.3125 13.0607 7.56434 13.3125 7.875 13.3125H10.125C10.4357 13.3125 10.6875 13.0607 10.6875 12.75C10.6875 12.4393 10.4357 12.1875 10.125 12.1875H7.875Z" fill="#F8F9F9"/>
<path fill-rule="evenodd" clip-rule="evenodd" d="M9.03394 0.9375H8.96606C7.58866 0.937494 6.50896 0.937489 5.65236 1.0303C4.7782 1.125 4.06992 1.32174 3.46518 1.76111C3.09907 2.02711 2.77711 2.34907 2.51111 2.71518C2.07174 3.31992 1.875 4.0282 1.7803 4.90236C1.68749 5.75896 1.68749 6.83866 1.6875 8.21606V9.78394C1.68749 11.1613 1.68749 12.241 1.7803 13.0976C1.875 13.9718 2.07174 14.6801 2.51111 15.2848C2.77711 15.6509 3.09907 15.9729 3.46518 16.2389C4.06992 16.6783 4.7782 16.875 5.65236 16.9697C6.50894 17.0625 7.58862 17.0625 8.96599 17.0625H9.03395C10.4113 17.0625 11.4911 17.0625 12.3476 16.9697C13.2218 16.875 13.9301 16.6783 14.5348 16.2389C14.9009 15.9729 15.2229 15.6509 15.4889 15.2848C15.9283 14.6801 16.125 13.9718 16.2197 13.0976C16.3125 12.2411 16.3125 11.1614 16.3125 9.78401V8.21605C16.3125 6.83868 16.3125 5.75894 16.2197 4.90236C16.125 4.0282 15.9283 3.31992 15.4889 2.71518C15.2229 2.34907 14.9009 2.02711 14.5348 1.76111C13.9301 1.32174 13.2218 1.125 12.3476 1.0303C11.491 0.937489 10.4113 0.937494 9.03394 0.9375ZM4.12643 2.67126C4.50744 2.39444 4.9951 2.23309 5.77353 2.14875C6.56249 2.06327 7.58132 2.0625 9 2.0625C10.4187 2.0625 11.4375 2.06327 12.2265 2.14875C13.0049 2.23309 13.4926 2.39444 13.8736 2.67126C14.1442 2.86786 14.3821 3.10583 14.5787 3.37643C14.8556 3.75744 15.0169 4.2451 15.1012 5.02353C15.1867 5.8125 15.1875 6.83132 15.1875 8.25V9.75C15.1875 11.1687 15.1867 12.1875 15.1012 12.9765C15.0169 13.7549 14.8556 14.2426 14.5787 14.6236C14.3821 14.8942 14.1442 15.1321 13.8736 15.3287C13.4926 15.6056 13.0049 15.7669 12.2265 15.8512C11.4375 15.9367 10.4187 15.9375 9 15.9375C7.58132 15.9375 6.56249 15.9367 5.77353 15.8512C4.9951 15.7669 4.50744 15.6056 4.12643 15.3287C3.85583 15.1321 3.61786 14.8942 3.42126 14.6236C3.14444 14.2426 2.98309 13.7549 2.89875 12.9765C2.81327 12.1875 2.8125 11.1687 2.8125 9.75V8.25C2.8125 6.83132 2.81327 5.8125 2.89875 5.02353C2.98309 4.2451 3.14444 3.75744 3.42126 3.37643C3.61786 3.10583 3.85583 2.86786 4.12643 2.67126Z" fill="#F8F9F9"/>
</svg>
