<svg width="16" height="12" viewBox="0 0 16 12" fill="none" xmlns="http://www.w3.org/2000/svg">
<path d="M15.7764 6.00034C15.7764 5.66828 15.6291 5.36023 15.4897 5.12891C15.3392 4.8793 15.1369 4.62159 14.9149 4.37032C14.4695 3.86625 13.8885 3.32494 13.3246 2.83528C12.7574 2.34274 12.1922 1.88922 11.7699 1.55964C11.5584 1.39458 11.382 1.25997 11.2581 1.16636C11.1961 1.11954 11.1472 1.08294 11.1136 1.05788L11.0749 1.02909L11.0646 1.02149L11.0611 1.01886C10.7646 0.800493 10.3469 0.863507 10.1285 1.15995C9.91017 1.45639 9.97345 1.8737 10.2699 2.09207L10.2812 2.10044L10.3168 2.1269C10.3483 2.15037 10.3949 2.18525 10.4544 2.23024C10.5736 2.32024 10.7443 2.45055 10.9495 2.6107C11.3606 2.93157 11.9065 3.36969 12.4504 3.84201C12.9976 4.3172 13.5276 4.81393 13.9156 5.25311C13.9402 5.28089 13.9639 5.30819 13.9869 5.33499L0.887463 5.335C0.519273 5.335 0.220796 5.63347 0.220796 6.00166C0.220796 6.36985 0.519273 6.66833 0.887463 6.66833L13.9846 6.66833C13.9624 6.69429 13.9394 6.72071 13.9156 6.74758C13.5276 7.18675 12.9976 7.68349 12.4504 8.15868C11.9065 8.63099 11.3606 9.06912 10.9495 9.38998C10.7443 9.55014 10.5736 9.68045 10.4544 9.77045C10.3949 9.81544 10.3483 9.85032 10.3168 9.87379L10.2812 9.90025L10.2699 9.90862C9.97345 10.127 9.91017 10.5443 10.1285 10.8407C10.3469 11.1372 10.7646 11.2002 11.0611 10.9818L11.0646 10.9792L11.0749 10.9716L11.1136 10.9428C11.1472 10.9177 11.1961 10.8811 11.2581 10.8343C11.382 10.7407 11.5585 10.6061 11.7699 10.441C12.1922 10.1115 12.7574 9.65795 13.3246 9.16541C13.8885 8.67575 14.4695 8.13443 14.9149 7.63037C15.1369 7.3791 15.3392 7.12139 15.4897 6.87177C15.6283 6.64185 15.7746 6.33609 15.7764 6.00632" fill="url(#paint0_linear_601_2451)"/>
<defs>
<linearGradient id="paint0_linear_601_2451" x1="15.7766" y1="0.888874" x2="6.39251" y2="15.1679" gradientUnits="userSpaceOnUse">
<stop stop-color="#12120F"/>
<stop offset="1" stop-color="#2E3238"/>
</linearGradient>
</defs>
</svg>
