<svg width="16" height="12" viewBox="0 0 16 12" fill="none" xmlns="http://www.w3.org/2000/svg">
<path d="M15.7771 6.00028C15.7771 5.66822 15.6299 5.36017 15.4904 5.12885C15.3399 4.87924 15.1376 4.62152 14.9156 4.37025C14.4703 3.86619 13.8892 3.32487 13.3253 2.83521C12.7581 2.34268 12.1929 1.88916 11.7707 1.55958C11.5592 1.39452 11.3828 1.25991 11.2588 1.1663C11.1969 1.11948 11.148 1.08288 11.1144 1.05782L11.0756 1.02903L11.0654 1.02143L11.0618 1.0188C10.7653 0.800432 10.3476 0.863446 10.1293 1.15989C9.9109 1.45632 9.97418 1.87364 10.2706 2.09201L10.2819 2.10038L10.3175 2.12684C10.349 2.15031 10.3956 2.18519 10.4551 2.23018C10.5743 2.32018 10.7451 2.45049 10.9503 2.61064C11.3613 2.93151 11.9072 3.36963 12.4511 3.84195C12.9983 4.31714 13.5284 4.81387 13.9164 5.25305C13.9409 5.28083 13.9647 5.30812 13.9876 5.33493L0.888195 5.33493C0.520006 5.33493 0.221529 5.63341 0.221529 6.0016C0.221529 6.36979 0.520006 6.66827 0.888195 6.66827L13.9854 6.66826C13.9631 6.69423 13.9401 6.72065 13.9164 6.74752C13.5284 7.18669 12.9983 7.68343 12.4511 8.15862C11.9072 8.63093 11.3613 9.06906 10.9503 9.38992C10.7451 9.55008 10.5743 9.68039 10.4551 9.77039C10.3956 9.81538 10.349 9.85026 10.3175 9.87372L10.2819 9.90019L10.2706 9.90855C9.97419 10.1269 9.91091 10.5442 10.1293 10.8407C10.3476 11.1371 10.7653 11.2001 11.0618 10.9818L11.0654 10.9791L11.0756 10.9715L11.1144 10.9427C11.148 10.9177 11.1969 10.8811 11.2588 10.8343C11.3828 10.7407 11.5592 10.6061 11.7707 10.441C12.1929 10.1114 12.7581 9.65789 13.3253 9.16535C13.8892 8.67569 14.4703 8.13437 14.9156 7.63031C15.1376 7.37904 15.3399 7.12133 15.4904 6.87171C15.629 6.64179 15.7753 6.33603 15.7771 6.00626" fill="white"/>
</svg>
