<svg width="17" height="16" viewBox="0 0 17 16" fill="none" xmlns="http://www.w3.org/2000/svg">
<path d="M4.47618 11.9978C4.32377 11.8334 4.23924 11.6166 4.18606 11.432C4.12933 11.2351 4.09065 11.0098 4.06356 10.7778C4.00928 10.313 3.99571 9.76788 4.00012 9.2577C4.00455 8.74464 4.02735 8.25318 4.04891 7.89095C4.05971 7.70953 4.07025 7.5598 4.07812 7.45508C4.08205 7.40271 4.08532 7.36156 4.08762 7.33329L4.09031 7.30075L4.09105 7.2921L4.09134 7.28875C4.1153 7.01365 4.35775 6.81006 4.63285 6.83403C4.90793 6.85799 5.11148 7.1008 5.08754 7.37588L5.08739 7.37756L5.08677 7.38483L5.08432 7.4145C5.08218 7.4408 5.07907 7.47984 5.07531 7.52998C5.06777 7.63028 5.0576 7.77481 5.04715 7.95038C5.0262 8.30215 5.00432 8.77564 5.00008 9.26634C4.99582 9.75992 5.00959 10.2574 5.05681 10.6618C5.05947 10.6846 5.0622 10.7068 5.06503 10.7286L12.1484 3.64523C12.3437 3.44996 12.6602 3.44996 12.8555 3.64523C13.0508 3.84049 13.0508 4.15707 12.8555 4.35233L5.77049 11.4373C5.78006 11.4385 5.78973 11.4397 5.79949 11.4408C6.19937 11.4877 6.69966 11.5017 7.19965 11.4978C7.69652 11.494 8.17905 11.4728 8.53838 11.4523C8.71773 11.4421 8.86566 11.4322 8.96844 11.4248C9.01982 11.4211 9.05987 11.4181 9.08688 11.416L9.11738 11.4136L9.12704 11.4128C9.40222 11.39 9.64384 11.5945 9.66671 11.8697C9.68959 12.1449 9.48472 12.3865 9.20952 12.4094L9.20646 12.4097L9.19766 12.4104L9.16442 12.413C9.13554 12.4152 9.09348 12.4184 9.03997 12.4223C8.93299 12.4299 8.78008 12.4402 8.59513 12.4507C8.22585 12.4717 7.72592 12.4938 7.20734 12.4978C6.69188 12.5018 6.14374 12.488 5.6831 12.434C5.45359 12.4071 5.2306 12.3686 5.03786 12.3114C4.86222 12.2592 4.63663 12.1708 4.47618 11.9978Z" fill="#F53D6B"/>
</svg>
