<svg width="12" height="8" viewBox="0 0 12 8" fill="none" xmlns="http://www.w3.org/2000/svg">
<path d="M0.166992 3.99979C0.166994 4.24883 0.277428 4.47988 0.382005 4.65336C0.494856 4.84057 0.646621 5.03386 0.813114 5.22231C1.14711 5.60036 1.5829 6.00634 2.00582 6.37359C2.43121 6.74299 2.85514 7.08313 3.17182 7.33032C3.33043 7.45411 3.46275 7.55507 3.55569 7.62528C3.60217 7.66039 3.63883 7.68784 3.66405 7.70664L3.69309 7.72823L3.7008 7.73393L3.70347 7.7359C3.92581 7.89968 4.2391 7.85242 4.40287 7.63008C4.56664 7.40776 4.51918 7.09477 4.29687 6.93099L4.28838 6.92472L4.26168 6.90487C4.23807 6.88727 4.20312 6.86111 4.15846 6.82737C4.0691 6.75986 3.94101 6.66213 3.78712 6.54202C3.47881 6.30137 3.06941 5.97277 2.66148 5.61854C2.25107 5.26215 1.85353 4.88959 1.56253 4.56021C1.54413 4.53938 1.52632 4.51891 1.5091 4.4988L11.3337 4.4988C11.6098 4.4988 11.8337 4.27494 11.8337 3.9988C11.8337 3.72266 11.6098 3.4988 11.3337 3.4988L1.51079 3.4988C1.52748 3.47933 1.54473 3.45951 1.56253 3.43936C1.85353 3.10998 2.25107 2.73743 2.66148 2.38104C3.06941 2.0268 3.47881 1.6982 3.78712 1.45756C3.94101 1.33744 4.0691 1.23971 4.15846 1.17221C4.20312 1.13847 4.23807 1.11231 4.26168 1.09471L4.28838 1.07486L4.29687 1.06858C4.51918 0.904804 4.56664 0.591818 4.40287 0.369494C4.2391 0.14716 3.92581 0.0998992 3.70347 0.263674L3.7008 0.265647L3.69309 0.27135L3.66405 0.29294C3.63883 0.311736 3.60216 0.339184 3.55568 0.374297C3.46275 0.444504 3.33043 0.545462 3.17182 0.669259C2.85514 0.916442 2.43121 1.25658 2.00581 1.62599C1.5829 1.99323 1.14711 2.39922 0.813114 2.77727C0.646621 2.96572 0.494856 3.159 0.382005 3.34622C0.278057 3.51866 0.16832 3.74798 0.167004 3.99531" fill="white"/>
</svg>
