<svg width="18" height="21" viewBox="0 0 18 21" fill="none" xmlns="http://www.w3.org/2000/svg">
<path opacity="0.4" fill-rule="evenodd" clip-rule="evenodd" d="M7.125 6.005H7.26521C7.13854 6.55265 7.07557 6.82726 7.17147 7.03868C7.23383 7.17613 7.34008 7.29382 7.47676 7.37684C7.68779 7.505 8.00067 7.505 8.62642 7.505H9.37358C9.99933 7.505 10.3122 7.505 10.5232 7.37684C10.6599 7.29382 10.7662 7.17613 10.8285 7.03868C10.9244 6.82726 10.8615 6.55265 10.7348 6.005H10.875C12.8583 6.0124 13.9192 6.08175 14.6062 6.7325C15.375 7.46088 15.375 8.63319 15.375 10.9778V14.5304C15.375 16.8751 15.375 18.0474 14.6062 18.7757C13.8373 19.5041 12.5999 19.5041 10.125 19.5041H7.87498C5.40012 19.5041 4.16269 19.5041 3.39384 18.7757C2.625 18.0474 2.625 16.8751 2.625 14.5304V10.9778C2.625 8.63319 2.625 7.46088 3.39384 6.7325C4.08075 6.08175 5.1417 6.0124 7.125 6.005ZM8.99506 13.505C9.80162 13.505 10.4555 12.8334 10.4555 12.005C10.4555 11.1766 9.80162 10.505 8.99506 10.505C8.1885 10.505 7.53465 11.1766 7.53465 12.005C7.53465 12.8334 8.1885 13.505 8.99506 13.505Z" fill="#6C737F"/>
<path fill-rule="evenodd" clip-rule="evenodd" d="M6.97215 12.0049C6.97215 10.8801 7.86375 9.94244 8.99506 9.94244C10.1264 9.94244 11.018 10.8801 11.018 12.0049C11.018 13.1298 10.1264 14.0674 8.99506 14.0674C7.86375 14.0674 6.97215 13.1298 6.97215 12.0049ZM8.99506 11.0674C8.51325 11.0674 8.09715 11.4729 8.09715 12.0049C8.09715 12.537 8.51325 12.9424 8.99506 12.9424C9.47688 12.9424 9.89297 12.537 9.89297 12.0049C9.89297 11.4729 9.47688 11.0674 8.99506 11.0674Z" fill="#6C737F"/>
<path d="M11.2061 16.8803C10.0652 15.6071 7.93569 15.6504 6.78727 16.8876C6.57592 17.1153 6.22001 17.1286 5.99232 16.9172C5.76463 16.7059 5.75139 16.3499 5.96274 16.1223C7.53463 14.4289 10.4352 14.3342 12.0439 16.1296C12.2512 16.3609 12.2317 16.7166 12.0004 16.9239C11.769 17.1312 11.4134 17.1117 11.2061 16.8803Z" fill="#6C737F"/>
<path fill-rule="evenodd" clip-rule="evenodd" d="M9.00002 3.94247C9.29656 3.94227 9.59152 3.94209 9.80759 3.99182C10.305 4.1063 10.7434 4.4165 10.988 4.86621C11.0806 5.03655 11.1324 5.23081 11.1828 5.44565C12.0309 5.45243 12.7369 5.47722 13.319 5.57401C13.9835 5.68451 14.5403 5.89669 14.993 6.32556C15.5046 6.81022 15.73 7.42611 15.8358 8.17143C15.9375 8.88817 15.9375 9.80036 15.9375 10.9357V14.5754C15.9375 15.7107 15.9375 16.6229 15.8358 17.3396C15.73 18.0849 15.5046 18.7008 14.993 19.1855C14.4857 19.6661 13.8483 19.8742 13.0764 19.9725C12.326 20.068 11.3685 20.068 10.1649 20.068H7.83512C6.63154 20.068 5.67396 20.068 4.92359 19.9725C4.15174 19.8742 3.51428 19.6661 3.00699 19.1855C2.49541 18.7008 2.26996 18.0849 2.16419 17.3396C2.06247 16.6229 2.06248 15.7107 2.0625 14.5754V10.9356C2.06248 9.80035 2.06247 8.88817 2.16419 8.17143C2.26996 7.42611 2.49541 6.81022 3.00699 6.32556C3.45968 5.89669 4.0165 5.68451 4.68101 5.57401C5.26311 5.47722 5.96914 5.45243 6.81723 5.44565C6.86759 5.23081 6.91939 5.03655 7.01205 4.86621C7.25668 4.4165 7.69506 4.1063 8.19244 3.99182C8.40852 3.94209 8.70348 3.94227 9.00002 3.94247ZM6.57733 6.57332C5.85778 6.58311 5.3067 6.61042 4.86555 6.68378C4.33203 6.77249 4.01492 6.92037 3.7807 7.14225C3.52344 7.38597 3.36446 7.72042 3.27803 8.32951C3.18883 8.95803 3.1875 9.79014 3.1875 10.9792V14.5318C3.1875 15.7209 3.18883 16.553 3.27803 17.1816C3.36446 17.7906 3.52344 18.1251 3.7807 18.3688C4.04225 18.6166 4.40794 18.7727 5.06573 18.8565C5.73673 18.942 6.62248 18.943 7.875 18.943H10.125C11.3775 18.943 12.2633 18.942 12.9343 18.8565C13.5921 18.7727 13.9578 18.6166 14.2193 18.3688C14.4766 18.1251 14.6355 17.7906 14.722 17.1816C14.8112 16.553 14.8125 15.7209 14.8125 14.5318V10.9792C14.8125 9.79014 14.8112 8.95803 14.722 8.32951C14.6355 7.72042 14.4766 7.38597 14.2193 7.14225C13.9851 6.92037 13.668 6.77249 13.1345 6.68378C12.6933 6.61042 12.1422 6.58311 11.4227 6.57332C11.4229 6.5751 11.4232 6.57685 11.4234 6.57857C11.4486 6.78777 11.4504 7.02951 11.3408 7.27102C11.2288 7.51784 11.0426 7.71949 10.8153 7.85757C10.6014 7.98746 10.3696 8.03032 10.1531 8.0493C9.94545 8.06749 9.68987 8.06748 9.39707 8.06747H8.60297C8.31017 8.06748 8.05458 8.06749 7.84698 8.0493C7.63042 8.03032 7.39864 7.98746 7.18478 7.85757C6.95744 7.71949 6.7712 7.51784 6.65924 7.27102C6.54967 7.02951 6.5514 6.78777 6.57668 6.57857C6.57689 6.57685 6.5771 6.5751 6.57733 6.57332ZM9.00001 5.06742C8.61775 5.06742 8.51933 5.07095 8.44475 5.08811C8.23315 5.13681 8.07763 5.26157 8.00029 5.40374C7.97904 5.49559 7.94174 5.64901 7.90028 5.81954C7.81166 6.18401 7.70403 6.62666 7.69354 6.71347L7.69356 6.71444C7.69502 6.79337 7.69711 6.90681 7.94518 6.92855C8.09768 6.94191 8.30329 6.94242 8.62643 6.94242H9.37359C9.69672 6.94242 9.90233 6.94191 10.0548 6.92855C10.2923 6.91874 10.3215 6.78108 10.3065 6.71347C10.296 6.62666 10.1884 6.18405 10.0997 5.81958C10.0583 5.64905 10.021 5.49559 9.99972 5.40374C9.92238 5.26157 9.76686 5.13681 9.55526 5.08811C9.48069 5.07095 9.38227 5.06742 9.00001 5.06742Z" fill="#6C737F"/>
</svg>
