<svg width="18" height="18" viewBox="0 0 18 18" fill="none" xmlns="http://www.w3.org/2000/svg">
<path opacity="0.4" d="M1.10794 11.308C0.930731 12.4697 1.72301 13.276 2.69305 13.6779C6.41201 15.2185 11.5873 15.2185 15.3063 13.6779C16.2763 13.276 17.0686 12.4697 16.8914 11.308C16.7825 10.5941 16.244 9.99959 15.845 9.41908C15.3224 8.64938 15.2705 7.80985 15.2704 6.91666C15.2704 3.46488 12.4629 0.666656 8.99967 0.666656C5.53645 0.666656 2.72895 3.46488 2.72895 6.91666C2.72887 7.80985 2.67694 8.64938 2.15435 9.41908C1.75537 9.99959 1.21685 10.5941 1.10794 11.308Z" fill="url(#paint0_linear_601_2317)"/>
<path fill-rule="evenodd" clip-rule="evenodd" d="M9.00063 0.0416565C5.1942 0.0416565 2.10493 3.11772 2.1049 6.9166C2.10482 7.80022 2.04555 8.46715 1.6392 9.06656C1.5827 9.1487 1.50773 9.25159 1.42581 9.364C1.28354 9.55925 1.1203 9.78326 0.996479 9.97727C0.777947 10.3197 0.564444 10.7326 0.491047 11.2138C0.251586 12.7835 1.35546 13.7999 2.45481 14.2553C3.27324 14.5943 4.15757 14.8617 5.07996 15.0574C5.55835 16.7411 7.14134 17.9583 8.99983 17.9583C10.8582 17.9583 12.4411 16.7413 12.9196 15.0578C13.8426 14.862 14.7275 14.5945 15.5465 14.2553C16.6458 13.7999 17.7497 12.7835 17.5102 11.2138C17.4368 10.7326 17.2233 10.3197 17.0048 9.97727C16.881 9.78327 16.7177 9.55926 16.5755 9.36401C16.4936 9.25163 16.4186 9.14875 16.3621 9.06663C15.9557 8.46719 15.8964 7.80034 15.8964 6.91666C15.8964 3.11775 12.8071 0.0416565 9.00063 0.0416565ZM3.3549 6.91666C3.3549 3.812 5.88063 1.29166 9.00063 1.29166C12.1206 1.29166 14.6464 3.81206 14.6464 6.91671C14.6464 7.81874 14.6909 8.83055 15.3289 9.77016L15.3309 9.77309C15.4358 9.92569 15.5278 10.0508 15.6146 10.1687C15.7302 10.3258 15.8365 10.4701 15.9511 10.6498C16.1288 10.9282 16.239 11.1695 16.2745 11.4023C16.3895 12.1559 15.9088 12.7522 15.0681 13.1004C11.5022 14.5776 6.49901 14.5776 2.93321 13.1004C2.09247 12.7522 1.61179 12.1559 1.72675 11.4023C1.76226 11.1695 1.87248 10.9282 2.05018 10.6498C2.1648 10.4701 2.27102 10.3258 2.38662 10.1687C2.47328 10.051 2.56568 9.92545 2.67039 9.77309L2.67238 9.77016C3.31034 8.83055 3.35483 7.81868 3.3549 6.91666ZM11.4697 15.3028C9.84595 15.5102 8.15353 15.5102 6.5298 15.3026C7.00605 16.1349 7.92775 16.7083 8.99983 16.7083C10.0718 16.7083 10.9934 16.135 11.4697 15.3028Z" fill="url(#paint1_linear_601_2317)"/>
<defs>
<linearGradient id="paint0_linear_601_2317" x1="1.08276" y1="14.8332" x2="15.1623" y2="-0.902751" gradientUnits="userSpaceOnUse">
<stop stop-color="#12120F"/>
<stop offset="1" stop-color="#2E3238"/>
</linearGradient>
<linearGradient id="paint1_linear_601_2317" x1="0.457742" y1="17.9582" x2="18.3542" y2="0.89208" gradientUnits="userSpaceOnUse">
<stop stop-color="#12120F"/>
<stop offset="1" stop-color="#2E3238"/>
</linearGradient>
</defs>
</svg>
