<svg width="56" height="56" viewBox="0 0 56 56" fill="none" xmlns="http://www.w3.org/2000/svg">
<path opacity="0.4" d="M6.41211 28.9937C8.30403 31.786 11.1558 33.8238 14.4839 34.6295C16.0344 35.0049 17.7943 35.0045 20.4736 35.0039H35.5185C38.1978 35.0045 39.9577 35.0049 41.5082 34.6295C44.8356 33.8239 47.6869 31.7869 49.5788 28.9954V35.1814C49.5788 38.6241 49.5789 41.4134 49.235 43.6097C48.8735 45.9183 48.0999 47.8115 46.387 49.2822C44.7126 50.7199 42.6228 51.3382 40.0721 51.6326C37.5713 51.9213 34.3719 51.9213 30.3136 51.9212H25.6772C21.6189 51.9213 18.4196 51.9213 15.9188 51.6326C13.3681 51.3382 11.2783 50.7199 9.60392 49.2822C7.89101 47.8115 7.11741 45.9183 6.75591 43.6097C6.41199 41.4134 6.41205 38.6241 6.41211 35.1814V28.9937Z" fill="white"/>
<path d="M23.6082 3.6489C24.7271 3.49975 26.0768 3.49987 27.5813 3.50001H28.4005C29.905 3.49987 31.2547 3.49975 32.3735 3.6489C33.6109 3.81385 34.7926 4.1843 35.8512 5.07517C36.8791 5.94024 37.4927 7.04684 37.9695 8.24355C38.3442 9.18417 38.6909 10.3341 39.0742 11.6659H34.2129C34.0059 10.9855 33.8229 10.4353 33.6383 9.97203C33.2969 9.1151 33.0435 8.80951 32.8503 8.6469C32.6877 8.51008 32.4478 8.36668 31.7579 8.27472C30.9833 8.17146 29.948 8.16668 28.2636 8.16668H27.7182C26.0338 8.16668 24.9985 8.17146 24.2239 8.27472C23.534 8.36668 23.2941 8.51008 23.1315 8.6469C22.9383 8.80951 22.6849 9.1151 22.3435 9.97203C22.1589 10.4353 21.9759 10.9855 21.7688 11.6659H16.9076C17.2909 10.3341 17.6375 9.18417 18.0123 8.24355C18.4891 7.04684 19.1027 5.94024 20.1306 5.07517C21.1891 4.1843 22.3708 3.81386 23.6082 3.6489Z" fill="white"/>
<path fill-rule="evenodd" clip-rule="evenodd" d="M10.4414 11.6693C10.3387 11.6692 10.2356 11.6686 10.1322 11.668C9.30671 11.6633 8.4653 11.6585 7.66843 11.8861C5.45601 12.5181 3.86793 14.4154 3.54741 16.6647C3.43524 17.4519 3.54294 18.3287 3.65498 19.2409C3.70318 19.6373 3.74719 20.0369 3.79137 20.438C3.99258 22.2651 4.19719 24.123 4.81674 25.8467C6.39203 30.2292 10.0079 33.5442 14.4861 34.6283C16.0367 35.0037 17.7966 35.0033 20.4759 35.0027H35.5208C38.2001 35.0033 39.96 35.0037 41.5105 34.6283C45.9887 33.5442 49.6046 30.2292 51.1799 25.8467C51.7999 24.1218 52.001 22.293 52.2007 20.477C52.2461 20.0638 52.2915 19.6513 52.3417 19.2409C52.4537 18.3287 52.5614 17.4519 52.4492 16.6647C52.1287 14.4154 50.5406 12.5181 48.3282 11.8861C47.5313 11.6585 46.6899 11.6633 45.8644 11.668C45.761 11.6686 45.6579 11.6692 45.5552 11.6693H10.4414ZM25.6667 25.6667C25.6667 24.378 26.7067 23.3333 27.9896 23.3333H28.0104C29.2933 23.3333 30.3333 24.378 30.3333 25.6667C30.3333 26.9553 29.2933 28 28.0104 28H27.9896C26.7067 28 25.6667 26.9553 25.6667 25.6667Z" fill="white"/>
</svg>
