<svg width="18" height="19" viewBox="0 0 18 19" fill="none" xmlns="http://www.w3.org/2000/svg">
<path opacity="0.4" d="M1.875 9.20251C1.875 5.93453 1.875 4.30054 2.81409 3.28531C3.75318 2.27008 5.26462 2.27008 8.2875 2.27008H9.7125C12.7354 2.27008 14.2468 2.27008 15.1859 3.28531C16.125 4.30054 16.125 5.93453 16.125 9.20251V9.58765C16.125 12.8556 16.125 14.4896 15.1859 15.5048C14.2468 16.5201 12.7354 16.5201 9.7125 16.5201H8.2875C5.26462 16.5201 3.75318 16.5201 2.81409 15.5048C1.875 14.4896 1.875 12.8556 1.875 9.58765V9.20251Z" fill="#6C737F"/>
<path d="M6.75 9.20758C6.43934 9.20758 6.1875 9.45942 6.1875 9.77008C6.1875 10.0807 6.43934 10.3326 6.75 10.3326H6.93749L6.9375 12.7701C6.9375 13.0807 7.18934 13.3326 7.5 13.3326C7.81066 13.3326 8.0625 13.0807 8.0625 12.7701L8.06249 10.0305C8.06249 9.646 7.77374 9.20758 7.27094 9.20758H6.75Z" fill="#6C737F"/>
<path d="M9.75 9.20758C9.43934 9.20758 9.1875 9.45942 9.1875 9.77008C9.1875 10.0807 9.43934 10.3326 9.75 10.3326H10.5266L9.69487 12.5744C9.58681 12.8657 9.73532 13.1894 10.0266 13.2975C10.3178 13.4055 10.6416 13.257 10.7496 12.9657L11.7655 10.2276C11.9668 9.68514 11.525 9.20758 11.0405 9.20758H9.75Z" fill="#6C737F"/>
<path d="M4.5 5.45758C4.18934 5.45758 3.9375 5.70942 3.9375 6.02008C3.9375 6.33074 4.18934 6.58258 4.5 6.58258H13.5C13.8107 6.58258 14.0625 6.33074 14.0625 6.02008C14.0625 5.70942 13.8107 5.45758 13.5 5.45758H4.5Z" fill="#6C737F"/>
<path fill-rule="evenodd" clip-rule="evenodd" d="M5.0625 1.52008C5.0625 1.20942 4.81066 0.957581 4.5 0.957581C4.18934 0.957581 3.9375 1.20942 3.9375 1.52008V1.99617C3.33393 2.16724 2.82488 2.44528 2.40116 2.90335C1.81773 3.53409 1.55839 4.33102 1.43419 5.32971C1.31249 6.30831 1.31249 7.56243 1.3125 9.16261V9.62755C1.31249 11.2277 1.31249 12.4819 1.43419 13.4604C1.55839 14.4591 1.81773 15.2561 2.40116 15.8868C2.99036 16.5238 3.74457 16.8126 4.68846 16.9498C5.60199 17.0826 6.76916 17.0826 8.24193 17.0826H9.75807C11.2308 17.0826 12.398 17.0826 13.3115 16.9498C14.2554 16.8126 15.0096 16.5238 15.5988 15.8868C16.1823 15.2561 16.4416 14.4591 16.5658 13.4604C16.6875 12.4818 16.6875 11.2277 16.6875 9.62753V9.16263C16.6875 7.56244 16.6875 6.30831 16.5658 5.32971C16.4416 4.33102 16.1823 3.53409 15.5988 2.90335C15.1751 2.44528 14.6661 2.16724 14.0625 1.99617V1.52008C14.0625 1.20942 13.8107 0.957581 13.5 0.957581C13.1893 0.957581 12.9375 1.20942 12.9375 1.52008V1.7945C12.0855 1.70756 11.037 1.70757 9.75807 1.70758H8.24193C6.96302 1.70757 5.91455 1.70756 5.0625 1.7945V1.52008ZM3.22702 3.66727C3.42152 3.457 3.65347 3.29601 3.95895 3.17446C4.02605 3.41006 4.24288 3.58258 4.5 3.58258C4.81066 3.58258 5.0625 3.33074 5.0625 3.02008V2.92602C5.85825 2.83375 6.88678 2.83258 8.2875 2.83258H9.7125C11.1132 2.83258 12.1417 2.83375 12.9375 2.92602V3.02008C12.9375 3.33074 13.1893 3.58258 13.5 3.58258C13.7571 3.58258 13.974 3.41006 14.0411 3.17447C14.3465 3.29602 14.5785 3.457 14.773 3.66727C15.1286 4.05177 15.3388 4.57944 15.4494 5.46855C15.5615 6.36963 15.5625 7.55379 15.5625 9.20251V9.58765C15.5625 11.2364 15.5615 12.4205 15.4494 13.3216C15.3388 14.2107 15.1286 14.7384 14.773 15.1229C14.4231 15.5011 13.952 15.7199 13.1497 15.8365C12.3264 15.9562 11.2411 15.9576 9.7125 15.9576H8.2875C6.75891 15.9576 5.67357 15.9562 4.85028 15.8365C4.04796 15.7199 3.57691 15.5011 3.22702 15.1229C2.87136 14.7384 2.66116 14.2107 2.55059 13.3216C2.43853 12.4205 2.4375 11.2364 2.4375 9.58765V9.20251C2.4375 7.55379 2.43853 6.36963 2.55059 5.46855C2.66116 4.57944 2.87136 4.05177 3.22702 3.66727Z" fill="#6C737F"/>
</svg>
