<svg width="18" height="19" viewBox="0 0 18 19" fill="none" xmlns="http://www.w3.org/2000/svg">
<path opacity="0.4" d="M16.125 10.0676V9.68243C16.125 8.38538 16.125 7.34573 16.0663 6.5H1.93371C1.875 7.34573 1.875 8.38538 1.875 9.68243V10.0676C1.875 13.3355 1.875 14.9695 2.81409 15.9848C3.75318 17 5.26462 17 8.2875 17H9.7125C12.7354 17 14.2468 17 15.1859 15.9848C16.125 14.9695 16.125 13.3355 16.125 10.0676Z" fill="#F8F9F9"/>
<path d="M8.25 9.6875C7.93934 9.6875 7.6875 9.93934 7.6875 10.25C7.6875 10.5607 7.93934 10.8125 8.25 10.8125H12C12.3107 10.8125 12.5625 10.5607 12.5625 10.25C12.5625 9.93934 12.3107 9.6875 12 9.6875H8.25Z" fill="#F8F9F9"/>
<path d="M6 9.6875C5.68934 9.6875 5.4375 9.93934 5.4375 10.25C5.4375 10.5607 5.68934 10.8125 6 10.8125H6.00674C6.3174 10.8125 6.56924 10.5607 6.56924 10.25C6.56924 9.93934 6.3174 9.6875 6.00674 9.6875H6Z" fill="#F8F9F9"/>
<path d="M6 12.6875C5.68934 12.6875 5.4375 12.9393 5.4375 13.25C5.4375 13.5607 5.68934 13.8125 6 13.8125H9.75C10.0607 13.8125 10.3125 13.5607 10.3125 13.25C10.3125 12.9393 10.0607 12.6875 9.75 12.6875H6Z" fill="#F8F9F9"/>
<path d="M11.9933 12.6875C11.6826 12.6875 11.4308 12.9393 11.4308 13.25C11.4308 13.5607 11.6826 13.8125 11.9933 13.8125H12C12.3107 13.8125 12.5625 13.5607 12.5625 13.25C12.5625 12.9393 12.3107 12.6875 12 12.6875H11.9933Z" fill="#F8F9F9"/>
<path fill-rule="evenodd" clip-rule="evenodd" d="M5.0625 2C5.0625 1.68934 4.81066 1.4375 4.5 1.4375C4.18934 1.4375 3.9375 1.68934 3.9375 2V2.47609C3.33393 2.64716 2.82488 2.9252 2.40116 3.38327C1.81773 4.01401 1.55839 4.81094 1.43419 5.80963C1.31249 6.78823 1.31249 8.04235 1.3125 9.64253V10.1075C1.31249 11.7077 1.31249 12.9618 1.43419 13.9404C1.55839 14.9391 1.81773 15.736 2.40116 16.3667C2.99036 17.0037 3.74457 17.2926 4.68846 17.4297C5.60199 17.5625 6.76916 17.5625 8.24193 17.5625H9.75807C11.2308 17.5625 12.398 17.5625 13.3115 17.4297C14.2554 17.2926 15.0096 17.0037 15.5988 16.3667C16.1823 15.736 16.4416 14.9391 16.5658 13.9404C16.6875 12.9618 16.6875 11.7076 16.6875 10.1074V9.64255C16.6875 8.04236 16.6875 6.78823 16.5658 5.80963C16.4416 4.81094 16.1823 4.01401 15.5988 3.38327C15.1751 2.9252 14.6661 2.64716 14.0625 2.47609V2C14.0625 1.68934 13.8107 1.4375 13.5 1.4375C13.1893 1.4375 12.9375 1.68934 12.9375 2V2.27442C12.0855 2.18748 11.037 2.18749 9.75807 2.1875H8.24193C6.96302 2.18749 5.91455 2.18748 5.0625 2.27442V2ZM3.22702 4.14719C3.42152 3.93692 3.65347 3.77593 3.95895 3.65438C4.02605 3.88998 4.24288 4.0625 4.5 4.0625C4.81066 4.0625 5.0625 3.81066 5.0625 3.5V3.40594C5.85825 3.31367 6.88678 3.3125 8.2875 3.3125H9.7125C11.1132 3.3125 12.1417 3.31367 12.9375 3.40594V3.5C12.9375 3.81066 13.1893 4.0625 13.5 4.0625C13.7571 4.0625 13.974 3.88998 14.0411 3.65439C14.3465 3.77593 14.5785 3.93692 14.773 4.14719C15.1272 4.5301 15.3371 5.05502 15.448 5.9375H2.55196C2.66289 5.05502 2.87283 4.5301 3.22702 4.14719ZM2.46669 7.0625C2.43791 7.78017 2.4375 8.6381 2.4375 9.68243V10.0676C2.4375 11.7163 2.43853 12.9004 2.55059 13.8015C2.66116 14.6906 2.87136 15.2183 3.22702 15.6028C3.57691 15.9811 4.04796 16.1998 4.85028 16.3164C5.67357 16.4361 6.75891 16.4375 8.2875 16.4375H9.7125C11.2411 16.4375 12.3264 16.4361 13.1497 16.3164C13.952 16.1998 14.4231 15.9811 14.773 15.6028C15.1286 15.2183 15.3388 14.6906 15.4494 13.8015C15.5615 12.9004 15.5625 11.7163 15.5625 10.0676V9.68243C15.5625 8.6381 15.5621 7.78017 15.5333 7.0625H2.46669Z" fill="#F8F9F9"/>
</svg>
