<svg width="14" height="14" viewBox="0 0 14 14" fill="none" xmlns="http://www.w3.org/2000/svg">
<path fill-rule="evenodd" clip-rule="evenodd" d="M13.6932 0.306285C13.4329 0.0459356 13.0108 0.0459356 12.7504 0.306285L6.9996 6.0571L1.24878 0.306285C0.988433 0.0459356 0.566322 0.0459356 0.305973 0.306285C0.0456237 0.566635 0.0456237 0.988745 0.305973 1.24909L6.05679 6.99991L0.305973 12.7507C0.0456237 13.0111 0.0456237 13.4332 0.305973 13.6935C0.566322 13.9539 0.988433 13.9539 1.24878 13.6935L6.9996 7.94272L12.7504 13.6935C13.0108 13.9539 13.4329 13.9539 13.6932 13.6935C13.9536 13.4332 13.9536 13.0111 13.6932 12.7507L7.94241 6.99991L13.6932 1.24909C13.9536 0.988745 13.9536 0.566635 13.6932 0.306285Z" fill="white"/>
</svg>
