<svg width="24" height="24" viewBox="0 0 24 24" fill="none" xmlns="http://www.w3.org/2000/svg">
<path opacity="0.4" d="M17.75 20.15L17.75 11C17.75 10.3633 17.7178 9.80098 17.6128 9.32323C17.506 8.83699 17.3139 8.39172 16.9611 8.03892C16.6083 7.68612 16.163 7.49401 15.6768 7.38719C15.199 7.28223 14.6367 7.25 14 7.25L10 7.25C9.36327 7.25 8.80098 7.28223 8.32323 7.38719C7.83699 7.49401 7.39172 7.68612 7.03892 8.03892C6.68612 8.39172 6.49401 8.83699 6.38719 9.32323C6.28223 9.80099 6.25 10.3633 6.25 11L6.25 20.15V21.5L17.75 21.5V20.15Z" fill="url(#paint0_linear_797_2275)"/>
<path d="M2 20.75C1.44772 20.75 1 21.1977 1 21.75C1 22.3023 1.44772 22.75 2 22.75L22 22.75C22.5523 22.75 23 22.3023 23 21.75C23 21.1977 22.5523 20.75 22 20.75H21.75L21.75 8.38974C21.75 7.81483 21.7501 7.31091 21.7076 6.89136C21.6617 6.43859 21.5604 6.00082 21.3068 5.58187C21.0525 5.16165 20.7117 4.8704 20.3314 4.62327C19.9809 4.39552 19.5375 4.16921 19.0352 3.91274L14.652 1.67472C14.3416 1.51627 14.0177 1.3725 13.7045 1.30087C13.3947 1.23 12.9295 1.19277 12.4951 1.47391C12.0692 1.74952 11.9087 2.18022 11.8391 2.47802C11.7674 2.78531 11.75 3.13434 11.75 3.47871L11.75 7.24998L13.75 7.24998L13.75 3.47871L13.75 3.45982L18.0841 5.67276C18.6404 5.95682 18.9892 6.1363 19.2417 6.30034C19.4739 6.45124 19.5514 6.54409 19.5958 6.61741C19.6409 6.692 19.6889 6.80807 19.7178 7.09283C19.7488 7.39967 19.75 7.80136 19.75 8.43562L19.75 20.75L4.25 20.75L4.25 13L6.25 13V11L4.25 11C4.02152 11 3.76956 11.0106 3.53015 11.0632C3.27942 11.1183 2.98317 11.2321 2.73264 11.4826C2.48211 11.7332 2.36828 12.0294 2.3132 12.2801C2.2606 12.5195 2.25 12.7715 2.25 13L2.25 20.75H2Z" fill="url(#paint1_linear_797_2275)"/>
<path d="M11 10.25C10.5858 10.25 10.25 10.5858 10.25 11C10.25 11.4142 10.5858 11.75 11 11.75L13 11.75C13.4142 11.75 13.75 11.4142 13.75 11C13.75 10.5858 13.4142 10.25 13 10.25L11 10.25Z" fill="url(#paint2_linear_797_2275)"/>
<path d="M11 13.25C10.5858 13.25 10.25 13.5858 10.25 14C10.25 14.4142 10.5858 14.75 11 14.75L13 14.75C13.4142 14.75 13.75 14.4142 13.75 14C13.75 13.5858 13.4142 13.25 13 13.25L11 13.25Z" fill="url(#paint3_linear_797_2275)"/>
<path d="M11 16.25C10.5858 16.25 10.25 16.5858 10.25 17C10.25 17.4142 10.5858 17.75 11 17.75H13C13.4142 17.75 13.75 17.4142 13.75 17C13.75 16.5858 13.4142 16.25 13 16.25L11 16.25Z" fill="url(#paint4_linear_797_2275)"/>
<defs>
<linearGradient id="paint0_linear_797_2275" x1="6.24982" y1="21.4999" x2="20.1785" y2="10.2592" gradientUnits="userSpaceOnUse">
<stop stop-color="white"/>
<stop offset="1" stop-color="#2E3238"/>
</linearGradient>
<linearGradient id="paint1_linear_797_2275" x1="0.999657" y1="22.7498" x2="22.4938" y2="0.755533" gradientUnits="userSpaceOnUse">
<stop stop-color="white"/>
<stop offset="1" stop-color="#2E3238"/>
</linearGradient>
<linearGradient id="paint2_linear_797_2275" x1="0.999657" y1="22.7498" x2="22.4938" y2="0.755533" gradientUnits="userSpaceOnUse">
<stop stop-color="white"/>
<stop offset="1" stop-color="#2E3238"/>
</linearGradient>
<linearGradient id="paint3_linear_797_2275" x1="0.999657" y1="22.7498" x2="22.4938" y2="0.755533" gradientUnits="userSpaceOnUse">
<stop stop-color="white"/>
<stop offset="1" stop-color="#2E3238"/>
</linearGradient>
<linearGradient id="paint4_linear_797_2275" x1="0.999657" y1="22.7498" x2="22.4938" y2="0.755533" gradientUnits="userSpaceOnUse">
<stop stop-color="white"/>
<stop offset="1" stop-color="#2E3238"/>
</linearGradient>
</defs>
</svg>
