<svg width="18" height="18" viewBox="0 0 18 18" fill="none" xmlns="http://www.w3.org/2000/svg">
<g opacity="0.4">
<path d="M11.25 3.75C11.25 4.99264 10.2426 6 9 6C7.75736 6 6.75 4.99264 6.75 3.75C6.75 2.50736 7.75736 1.5 9 1.5C10.2426 1.5 11.25 2.50736 11.25 3.75Z" fill="#F8F9F9"/>
<path d="M16.5 15C16.5 15.8284 15.8284 16.5 15 16.5C14.1716 16.5 13.5 15.8284 13.5 15C13.5 14.1716 14.1716 13.5 15 13.5C15.8284 13.5 16.5 14.1716 16.5 15Z" fill="#F8F9F9"/>
<path d="M3 16.5C3.82843 16.5 4.5 15.8284 4.5 15C4.5 14.1716 3.82843 13.5 3 13.5C2.17157 13.5 1.5 14.1716 1.5 15C1.5 15.8284 2.17157 16.5 3 16.5Z" fill="#F8F9F9"/>
</g>
<path fill-rule="evenodd" clip-rule="evenodd" d="M9 0.9375C7.4467 0.9375 6.1875 2.1967 6.1875 3.75C6.1875 5.3033 7.4467 6.5625 9 6.5625C10.5533 6.5625 11.8125 5.3033 11.8125 3.75C11.8125 2.1967 10.5533 0.9375 9 0.9375ZM7.3125 3.75C7.3125 2.81802 8.06802 2.0625 9 2.0625C9.93198 2.0625 10.6875 2.81802 10.6875 3.75C10.6875 4.68198 9.93198 5.4375 9 5.4375C8.06802 5.4375 7.3125 4.68198 7.3125 3.75Z" fill="#F8F9F9"/>
<path fill-rule="evenodd" clip-rule="evenodd" d="M9 12.9375C7.86091 12.9375 6.9375 13.8609 6.9375 15C6.9375 16.1391 7.86091 17.0625 9 17.0625C10.1391 17.0625 11.0625 16.1391 11.0625 15C11.0625 13.8609 10.1391 12.9375 9 12.9375ZM8.0625 15C8.0625 14.4822 8.48223 14.0625 9 14.0625C9.51777 14.0625 9.9375 14.4822 9.9375 15C9.9375 15.5178 9.51777 15.9375 9 15.9375C8.48223 15.9375 8.0625 15.5178 8.0625 15Z" fill="#F8F9F9"/>
<path fill-rule="evenodd" clip-rule="evenodd" d="M12.9375 15C12.9375 13.8609 13.8609 12.9375 15 12.9375C16.1391 12.9375 17.0625 13.8609 17.0625 15C17.0625 16.1391 16.1391 17.0625 15 17.0625C13.8609 17.0625 12.9375 16.1391 12.9375 15ZM15 14.0625C14.4822 14.0625 14.0625 14.4822 14.0625 15C14.0625 15.5178 14.4822 15.9375 15 15.9375C15.5178 15.9375 15.9375 15.5178 15.9375 15C15.9375 14.4822 15.5178 14.0625 15 14.0625Z" fill="#F8F9F9"/>
<path fill-rule="evenodd" clip-rule="evenodd" d="M3 12.9375C1.86091 12.9375 0.9375 13.8609 0.9375 15C0.9375 16.1391 1.86091 17.0625 3 17.0625C4.13909 17.0625 5.0625 16.1391 5.0625 15C5.0625 13.8609 4.13909 12.9375 3 12.9375ZM2.0625 15C2.0625 14.4822 2.48223 14.0625 3 14.0625C3.51777 14.0625 3.9375 14.4822 3.9375 15C3.9375 15.5178 3.51777 15.9375 3 15.9375C2.48223 15.9375 2.0625 15.5178 2.0625 15Z" fill="#F8F9F9"/>
<path d="M2.4375 11.25C2.4375 10.0003 3.65242 9.1875 4.875 9.1875H8.4375V8.25C8.4375 7.93934 8.68934 7.6875 9 7.6875C9.31066 7.6875 9.5625 7.93934 9.5625 8.25V9.1875H13.125C14.3476 9.1875 15.5625 10.0003 15.5625 11.25C15.5625 11.5607 15.3107 11.8125 15 11.8125C14.6893 11.8125 14.4375 11.5607 14.4375 11.25C14.4375 10.8429 13.9735 10.3125 13.125 10.3125H9.5625V11.25C9.5625 11.5607 9.31066 11.8125 9 11.8125C8.68934 11.8125 8.4375 11.5607 8.4375 11.25V10.3125H4.875C4.02651 10.3125 3.5625 10.8429 3.5625 11.25C3.5625 11.5607 3.31066 11.8125 3 11.8125C2.68934 11.8125 2.4375 11.5607 2.4375 11.25Z" fill="#F8F9F9"/>
</svg>
