<svg width="18" height="19" viewBox="0 0 18 19" fill="none" xmlns="http://www.w3.org/2000/svg">
<path opacity="0.4" fill-rule="evenodd" clip-rule="evenodd" d="M1.875 9.5C1.875 6.14124 1.875 4.46186 2.91843 3.41843C3.96186 2.375 5.64124 2.375 9 2.375C12.3588 2.375 14.0381 2.375 15.0816 3.41843C16.125 4.46186 16.125 6.14124 16.125 9.49999C16.125 12.8587 16.125 14.5381 15.0816 15.5816C14.0381 16.625 12.3588 16.625 9.00001 16.625C5.64126 16.625 3.96186 16.625 2.91843 15.5816C1.875 14.5381 1.875 12.8588 1.875 9.5ZM7.125 5.75C7.125 6.26777 6.70527 6.6875 6.1875 6.6875C5.66973 6.6875 5.25 6.26777 5.25 5.75C5.25 5.23223 5.66973 4.8125 6.1875 4.8125C6.70527 4.8125 7.125 5.23223 7.125 5.75ZM6.1875 14.1875C6.70527 14.1875 7.125 13.7678 7.125 13.25C7.125 12.7322 6.70527 12.3125 6.1875 12.3125C5.66973 12.3125 5.25 12.7322 5.25 13.25C5.25 13.7678 5.66973 14.1875 6.1875 14.1875Z" fill="#F8F9F9"/>
<path d="M9.1875 5.75C9.1875 5.43934 9.43934 5.1875 9.75 5.1875L12.75 5.1875C13.0607 5.1875 13.3125 5.43934 13.3125 5.75C13.3125 6.06066 13.0607 6.3125 12.75 6.3125L9.75 6.3125C9.43934 6.3125 9.1875 6.06066 9.1875 5.75Z" fill="#F8F9F9"/>
<path fill-rule="evenodd" clip-rule="evenodd" d="M6.1875 4.25C5.35907 4.25 4.6875 4.92157 4.6875 5.75C4.6875 6.57843 5.35907 7.25 6.1875 7.25C7.01593 7.25 7.6875 6.57843 7.6875 5.75C7.6875 4.92157 7.01593 4.25 6.1875 4.25ZM5.8125 5.75C5.8125 5.54289 5.98039 5.375 6.1875 5.375C6.39461 5.375 6.5625 5.54289 6.5625 5.75C6.5625 5.95711 6.39461 6.125 6.1875 6.125C5.98039 6.125 5.8125 5.95711 5.8125 5.75Z" fill="#F8F9F9"/>
<path fill-rule="evenodd" clip-rule="evenodd" d="M4.6875 13.25C4.6875 12.4216 5.35907 11.75 6.1875 11.75C7.01593 11.75 7.6875 12.4216 7.6875 13.25C7.6875 14.0784 7.01593 14.75 6.1875 14.75C5.35907 14.75 4.6875 14.0784 4.6875 13.25ZM6.1875 12.875C5.98039 12.875 5.8125 13.0429 5.8125 13.25C5.8125 13.4571 5.98039 13.625 6.1875 13.625C6.39461 13.625 6.5625 13.4571 6.5625 13.25C6.5625 13.0429 6.39461 12.875 6.1875 12.875Z" fill="#F8F9F9"/>
<path d="M9.75 12.6875C9.43934 12.6875 9.1875 12.9393 9.1875 13.25C9.1875 13.5607 9.43934 13.8125 9.75 13.8125H12.75C13.0607 13.8125 13.3125 13.5607 13.3125 13.25C13.3125 12.9393 13.0607 12.6875 12.75 12.6875H9.75Z" fill="#F8F9F9"/>
<path fill-rule="evenodd" clip-rule="evenodd" d="M9.04288 1.8125H8.95712C7.31409 1.81249 6.02358 1.81248 5.01602 1.94795C3.98353 2.08676 3.16433 2.37704 2.52069 3.02069C1.87704 3.66433 1.58676 4.48353 1.44795 5.51602C1.31248 6.52358 1.31249 7.81409 1.3125 9.45712V9.54288C1.31249 11.1859 1.31248 12.4764 1.44795 13.484C1.58676 14.5165 1.87704 15.3357 2.52069 15.9793C3.16433 16.623 3.98353 16.9132 5.01602 17.0521C6.02358 17.1875 7.31408 17.1875 8.9571 17.1875H9.04288C10.6859 17.1875 11.9764 17.1875 12.984 17.0521C14.0165 16.9132 14.8357 16.623 15.4793 15.9793C16.123 15.3357 16.4132 14.5165 16.5521 13.484C16.6875 12.4764 16.6875 11.1859 16.6875 9.5429V9.45713C16.6875 7.81411 16.6875 6.52358 16.5521 5.51602C16.4132 4.48353 16.123 3.66433 15.4793 3.02069C14.8357 2.37704 14.0165 2.08676 12.984 1.94795C11.9764 1.81248 10.6859 1.81249 9.04288 1.8125ZM15.5623 8.9375C15.5606 7.53093 15.5471 6.48429 15.4371 5.66592C15.315 4.75818 15.0836 4.21596 14.6838 3.81618C14.284 3.4164 13.7418 3.18496 12.8341 3.06291C11.9102 2.9387 10.6953 2.9375 9 2.9375C7.30472 2.9375 6.08985 2.9387 5.16592 3.06291C4.25818 3.18496 3.71596 3.4164 3.31618 3.81618C2.9164 4.21596 2.68496 4.75818 2.56291 5.66592C2.45289 6.48429 2.43938 7.53093 2.43773 8.9375H15.5623ZM15.5623 10.0625C15.5606 11.4691 15.5471 12.5157 15.4371 13.3341C15.315 14.2418 15.0836 14.784 14.6838 15.1838C14.284 15.5836 13.7418 15.815 12.8341 15.9371C11.9102 16.0613 10.6953 16.0625 9 16.0625C7.30472 16.0625 6.08985 16.0613 5.16592 15.9371C4.25818 15.815 3.71596 15.5836 3.31618 15.1838C2.9164 14.784 2.68496 14.2418 2.56291 13.3341C2.45289 12.5157 2.43938 11.4691 2.43773 10.0625H15.5623Z" fill="#F8F9F9"/>
</svg>
