<svg width="22" height="22" viewBox="0 0 22 22" fill="none" xmlns="http://www.w3.org/2000/svg">
<path d="M13.6665 10.1026C14.0347 10.1026 14.3332 10.4011 14.3332 10.7693C14.3332 11.1375 14.0347 11.4359 13.6665 11.4359H8.33317C7.96498 11.4359 7.6665 11.1375 7.6665 10.7693C7.6665 10.4011 7.96498 10.1026 8.33317 10.1026H13.6665Z" fill="white"/>
<path d="M12.3332 13.5866C12.7014 13.5866 12.9998 13.885 12.9998 14.2532C12.9998 14.6214 12.7014 14.9199 12.3332 14.9199H9.6665C9.29831 14.9199 8.99984 14.6214 8.99984 14.2532C8.99984 13.885 9.29831 13.5866 9.6665 13.5866H12.3332Z" fill="white"/>
<path fill-rule="evenodd" clip-rule="evenodd" d="M10.9411 1.4494H10.9981C11.4472 1.44939 11.8282 1.44938 12.1444 1.47816C12.4799 1.50871 12.7924 1.57486 13.0946 1.73555C13.2139 1.79897 13.3277 1.87216 13.4349 1.95439C13.7064 2.16272 13.8962 2.41965 14.0632 2.71227C14.2205 2.98803 14.3785 3.3347 14.5648 3.74339L14.9373 4.56051H18.9998C19.368 4.56051 19.6665 4.85899 19.6665 5.22718C19.6665 5.59537 19.368 5.89385 18.9998 5.89385H18.2941L17.7925 14.2041C17.7254 15.3149 17.6722 16.1964 17.5615 16.9005C17.448 17.6226 17.2654 18.224 16.8993 18.7501C16.5644 19.2314 16.1329 19.6376 15.6323 19.9429C15.0851 20.2767 14.4738 20.4227 13.7462 20.4925C13.0367 20.5605 12.1537 20.5605 11.0409 20.5605H10.9718C9.86052 20.5605 8.97855 20.5605 8.26991 20.4926C7.54315 20.4229 6.93252 20.2772 6.3857 19.9441C5.88542 19.6393 5.45404 19.2338 5.11898 18.7533C4.75275 18.228 4.56966 17.6276 4.45528 16.9065C4.34374 16.2034 4.28933 15.3231 4.22077 14.2139L3.70644 5.89385H2.99984C2.63165 5.89385 2.33317 5.59537 2.33317 5.22718C2.33317 4.85899 2.63165 4.56051 2.99984 4.56051H6.97722L7.41412 3.65925C7.60518 3.26508 7.76739 2.93043 7.92707 2.66441C8.09658 2.382 8.28715 2.13451 8.55546 1.93439C8.6615 1.8553 8.77377 1.78496 8.89119 1.72404C9.18832 1.56989 9.49415 1.50636 9.82221 1.47702C10.1312 1.44938 10.5031 1.44939 10.9411 1.4494ZM8.45896 4.56051H13.472L13.3635 4.32259C13.1621 3.88072 13.0288 3.58983 12.9051 3.37302C12.7877 3.16721 12.7034 3.07375 12.6233 3.01227C12.5746 2.9749 12.5228 2.94163 12.4686 2.9128C12.3795 2.86539 12.2595 2.82749 12.0235 2.806C11.7749 2.78337 11.4549 2.78274 10.9693 2.78274C10.4955 2.78274 10.1836 2.78335 9.94099 2.80505C9.71077 2.82564 9.59308 2.86199 9.50522 2.90757C9.45185 2.93526 9.40081 2.96724 9.35261 3.00319C9.27327 3.06236 9.18923 3.15241 9.07028 3.35059C8.94491 3.55946 8.8083 3.83986 8.60163 4.26619L8.45896 4.56051ZM16.4636 14.0894L16.9584 5.89385H5.04232L5.54944 14.0972C5.62061 15.2486 5.67179 16.065 5.77214 16.6976C5.8708 17.3195 6.00823 17.6974 6.21268 17.9906C6.44193 18.3194 6.73709 18.5969 7.07939 18.8054C7.38465 18.9914 7.77034 19.1052 8.39716 19.1653C9.03476 19.2265 9.85277 19.2272 11.0063 19.2272C12.1613 19.2272 12.9804 19.2265 13.6188 19.1652C14.2465 19.105 14.6325 18.9909 14.938 18.8046C15.2805 18.5957 15.5757 18.3178 15.8049 17.9885C16.0093 17.6948 16.1464 17.3163 16.2443 16.6934C16.3439 16.0599 16.394 15.2423 16.4636 14.0894Z" fill="white"/>
</svg>
