<svg width="18" height="18" viewBox="0 0 18 18" fill="none" xmlns="http://www.w3.org/2000/svg">
<path opacity="0.4" d="M15.75 10.4223L15.7499 6.8562C15.7495 6.00474 15.7493 5.57901 15.5423 5.22205C15.3352 4.8651 14.9658 4.65665 14.2269 4.23975L10.458 2.11323C9.74535 1.71112 9.38902 1.51007 9 1.51007C8.61098 1.51007 8.25465 1.71112 7.54199 2.11323L3.7731 4.23975C3.03421 4.65665 2.66477 4.8651 2.45775 5.22205C2.25072 5.57901 2.25051 6.00474 2.2501 6.8562L2.25 10.4223C2.25 13.2921 2.25 14.727 3.12868 15.6185C4.00736 16.5101 5.42157 16.5101 8.25 16.5101H9.75C12.5784 16.5101 13.9926 16.5101 14.8713 15.6185C15.75 14.727 15.75 13.2921 15.75 10.4223Z" fill="#F8F9F9"/>
<path d="M6 6.19757C5.68934 6.19757 5.4375 6.44941 5.4375 6.76007C5.4375 7.07073 5.68934 7.32257 6 7.32257H7.5C7.81066 7.32257 8.0625 7.07073 8.0625 6.76007C8.0625 6.44941 7.81066 6.19757 7.5 6.19757H6Z" fill="#F8F9F9"/>
<path d="M10.5 6.19757C10.1893 6.19757 9.9375 6.44941 9.9375 6.76007C9.9375 7.07073 10.1893 7.32257 10.5 7.32257H12C12.3107 7.32257 12.5625 7.07073 12.5625 6.76007C12.5625 6.44941 12.3107 6.19757 12 6.19757H10.5Z" fill="#F8F9F9"/>
<path d="M6 9.19757C5.68934 9.19757 5.4375 9.44941 5.4375 9.76007C5.4375 10.0707 5.68934 10.3226 6 10.3226H7.5C7.81066 10.3226 8.0625 10.0707 8.0625 9.76007C8.0625 9.44941 7.81066 9.19757 7.5 9.19757H6Z" fill="#F8F9F9"/>
<path d="M10.5 9.19757C10.1893 9.19757 9.9375 9.44941 9.9375 9.76007C9.9375 10.0707 10.1893 10.3226 10.5 10.3226H12C12.3107 10.3226 12.5625 10.0707 12.5625 9.76007C12.5625 9.44941 12.3107 9.19757 12 9.19757H10.5Z" fill="#F8F9F9"/>
<path d="M6 12.1976C5.68934 12.1976 5.4375 12.4494 5.4375 12.7601C5.4375 13.0707 5.68934 13.3226 6 13.3226H7.5C7.81066 13.3226 8.0625 13.0707 8.0625 12.7601C8.0625 12.4494 7.81066 12.1976 7.5 12.1976H6Z" fill="#F8F9F9"/>
<path d="M10.5 12.1976C10.1893 12.1976 9.9375 12.4494 9.9375 12.7601C9.9375 13.0707 10.1893 13.3226 10.5 13.3226H12C12.3107 13.3226 12.5625 13.0707 12.5625 12.7601C12.5625 12.4494 12.3107 12.1976 12 12.1976H10.5Z" fill="#F8F9F9"/>
<path fill-rule="evenodd" clip-rule="evenodd" d="M9 0.947571C8.69959 0.947571 8.43282 1.02765 8.16442 1.14661C7.91258 1.25824 7.62521 1.4204 7.28788 1.61074L3.47338 3.763C3.12379 3.96023 2.82548 4.12853 2.59132 4.29403C2.34089 4.47102 2.1288 4.66805 1.97116 4.93985C1.81405 5.21074 1.74758 5.49207 1.71679 5.79721C1.68795 6.08298 1.6878 6.42628 1.68761 6.82947L1.6875 10.4641C1.68749 11.8635 1.68748 12.9703 1.80221 13.8361C1.92011 14.7259 2.16824 15.4454 2.72805 16.0134C3.28899 16.5825 4.00134 16.8358 4.88216 16.956C5.73709 17.0726 6.82927 17.0726 8.20711 17.0726H9.79289C11.1707 17.0726 12.2629 17.0726 13.1178 16.956C13.9987 16.8358 14.711 16.5825 15.2719 16.0134C15.8318 15.4454 16.0799 14.7259 16.1978 13.8361C16.3125 12.9703 16.3125 11.8635 16.3125 10.4641L16.3124 6.82945C16.3122 6.42627 16.312 6.08298 16.2832 5.79721C16.2524 5.49207 16.1859 5.21074 16.0288 4.93985C15.8712 4.66805 15.6591 4.47102 15.4087 4.29403C15.1745 4.12853 14.8762 3.96023 14.5266 3.763L10.7122 1.61076C10.3748 1.42041 10.0874 1.25824 9.83558 1.14661C9.56718 1.02764 9.30041 0.947571 9 0.947571ZM7.81841 2.60312C8.18408 2.3968 8.42409 2.26208 8.6203 2.17511C8.80549 2.09302 8.91139 2.07257 9 2.07257C9.08861 2.07257 9.19451 2.09302 9.3797 2.17511C9.57591 2.26208 9.81592 2.3968 10.1816 2.60312L13.9505 4.72965C14.3297 4.94362 14.5775 5.08421 14.7594 5.21273C14.9301 5.33343 15.0063 5.41911 15.0557 5.50426C15.1056 5.59032 15.1427 5.70033 15.1639 5.91016C15.1864 6.13309 15.1872 6.41981 15.1874 6.85647L15.1875 10.4223C15.1875 11.8729 15.1863 12.905 15.0825 13.6884C14.9808 14.4564 14.7896 14.9002 14.4707 15.2237C14.1529 15.5461 13.7188 15.7386 12.9658 15.8413C12.1957 15.9463 11.1803 15.9476 9.75 15.9476H8.25C6.81966 15.9476 5.80431 15.9463 5.03421 15.8413C4.28115 15.7386 3.84705 15.5461 3.52931 15.2237C3.21044 14.9002 3.01923 14.4564 2.91746 13.6884C2.81366 12.905 2.8125 11.8728 2.8125 10.4223L2.8126 6.85621C2.81281 6.41955 2.81361 6.13309 2.8361 5.91016C2.85728 5.70033 2.89442 5.59032 2.94433 5.50426C2.99372 5.41911 3.06986 5.33343 3.24063 5.21273C3.42248 5.08421 3.67028 4.94362 4.04951 4.72965L7.81841 2.60312Z" fill="#F8F9F9"/>
</svg>
