<svg width="16" height="16" viewBox="0 0 16 16" fill="none" xmlns="http://www.w3.org/2000/svg">
<path d="M10.1347 1.19619C10.9244 0.726513 11.8984 0.711794 12.7016 1.15771C13.0347 1.34269 13.3386 1.65334 13.7906 2.11536L13.9134 2.24075C14.3669 2.70377 14.6704 3.01365 14.8507 3.35242C15.2831 4.16516 15.269 5.14835 14.8132 5.94802C14.6749 6.19079 14.4716 6.41627 14.191 6.69439C14.0603 6.82399 13.9949 6.88879 13.9124 6.88861C13.8298 6.88843 13.7638 6.82251 13.632 6.69067L9.37115 2.42982C9.24204 2.30071 9.17749 2.23615 9.17629 2.15505C9.17509 2.07394 9.23706 2.00819 9.361 1.87669C9.65244 1.56748 9.88393 1.3453 10.1347 1.19619Z" fill="#161616"/>
<path d="M9.1652 13.8333C8.79701 13.8333 8.49854 14.1318 8.49854 14.5C8.49854 14.8682 8.79701 15.1666 9.1652 15.1666H14.4985C14.8667 15.1666 15.1652 14.8682 15.1652 14.5C15.1652 14.1318 14.8667 13.8333 14.4985 13.8333H9.1652Z" fill="#161616"/>
<path opacity="0.4" d="M12.6558 8.17533C12.7939 8.04226 12.863 7.97572 12.8638 7.89178C12.8646 7.80784 12.7968 7.74002 12.6611 7.60439L8.48908 3.43233C8.35078 3.29404 8.28163 3.22489 8.19645 3.22659C8.11127 3.2283 8.04495 3.30016 7.9123 3.44388L2.76168 9.02433C2.01497 9.83311 1.55731 10.3288 1.28941 10.9454C1.02202 11.5609 0.969369 12.238 0.883273 13.3452L0.883124 13.3471C0.882969 13.3491 0.826131 14.0762 0.834905 14.2336C0.844841 14.4119 0.887303 14.6287 1.05278 14.8164C1.21974 15.0059 1.43079 15.0741 1.60847 15.1037C1.76303 15.1295 2.45915 15.1476 2.46056 15.1477C3.72532 15.181 4.50716 15.2016 5.22614 14.9207C5.9441 14.6403 6.51148 14.0936 7.43205 13.2066L12.6558 8.17533Z" fill="#161616"/>
</svg>
