<svg width="22" height="20" viewBox="0 0 22 20" fill="none" xmlns="http://www.w3.org/2000/svg">
<path fill-rule="evenodd" clip-rule="evenodd" d="M5.69686 1.27174C7.35585 0.933561 9.1415 0.75 11.0001 0.75C12.8587 0.75 14.6444 0.933561 16.3034 1.27174L16.4306 1.29766C18.3253 1.68329 19.5877 1.94024 20.6755 3.33892C21.7517 4.72258 21.7511 6.3272 21.7502 8.81239V11.1876C21.7511 13.6728 21.7517 15.2774 20.6755 16.6611C19.5877 18.0598 18.3253 18.3167 16.4306 18.7023L16.3034 18.7283C14.6444 19.0664 12.8587 19.25 11.0001 19.25C9.1415 19.25 7.35585 19.0664 5.69686 18.7283L5.56958 18.7023C3.67495 18.3167 2.41255 18.0598 1.3247 16.6611C0.24852 15.2774 0.249122 13.6728 0.250054 11.1876L0.250054 8.8124C0.249122 6.3272 0.24852 4.72258 1.3247 3.33892C2.41255 1.94024 3.67495 1.68329 5.56958 1.29766L5.69686 1.27174ZM10.2946 6.25224C10.8132 6.46986 11.443 6.82163 12.2132 7.25173C12.3145 7.30834 12.4164 7.36458 12.5184 7.42088C13.0218 7.69878 13.5281 7.9783 13.995 8.31403C14.4146 8.61575 14.8127 8.98964 14.9445 9.53491C15.0185 9.84101 15.0185 10.159 14.9445 10.4651C14.8127 11.0104 14.4146 11.3843 13.995 11.686C13.5281 12.0217 13.0217 12.3013 12.5183 12.5792C12.4163 12.6355 12.3145 12.6917 12.2132 12.7483C11.443 13.1784 10.8132 13.5301 10.2946 13.7478C9.45165 14.1015 8.55771 14.1302 7.82301 13.5282C7.36316 13.1514 7.20061 12.6119 7.12929 12.0683C6.95694 10.7544 6.95687 9.24618 7.12929 7.93172C7.20061 7.38806 7.36316 6.84858 7.82301 6.47181C8.55771 5.86983 9.45165 5.89845 10.2946 6.25224Z" fill="#696C68"/>
</svg>
