<svg width="22" height="22" viewBox="0 0 22 22" fill="none" xmlns="http://www.w3.org/2000/svg">
<path d="M14.9217 5.75158C14.0461 5.7515 13.2675 5.75144 12.6389 5.83598C11.9557 5.92787 11.2658 6.13975 10.7019 6.70378C10.138 7.26782 9.92623 7.95794 9.83437 8.64139C9.74986 9.27019 9.74992 10.0491 9.75 10.9249L9.75 11.7535H9C8.30964 11.7535 7.75 12.3133 7.75 13.0039C7.75 13.6944 8.30964 14.2543 9 14.2543H9.75L9.75 20.2517C9.75 20.726 9.75 20.9631 9.60131 21.11C9.45261 21.2569 9.21731 21.2539 8.7467 21.2479C7.55726 21.2329 6.54575 21.1912 5.68802 21.0758C4.31137 20.8907 3.21911 20.5035 2.36091 19.645C1.50272 18.7866 1.11568 17.694 0.930595 16.3169C0.749978 14.973 0.749988 13.2518 0.75 11.0604L0.75 10.946C0.749988 8.75465 0.749978 7.03341 0.930595 5.68958C1.11568 4.31249 1.50272 3.21989 2.36091 2.36142C3.21911 1.50295 4.31137 1.1158 5.68802 0.930651C7.03143 0.749977 8.75214 0.749987 10.9428 0.75L11.0572 0.75C13.2479 0.749987 14.9686 0.749977 16.312 0.930651C17.6886 1.1158 18.7809 1.50295 19.6391 2.36142C20.4973 3.21989 20.8843 4.31249 21.0694 5.68958C21.25 7.03341 21.25 8.75466 21.25 10.946V11.0604C21.25 13.2518 21.25 14.973 21.0694 16.3169C20.8843 17.694 20.4973 18.7866 19.6391 19.645C18.7809 20.5035 17.6886 20.8907 16.312 21.0758C15.4543 21.1912 14.4427 21.2329 13.2533 21.2479C12.7827 21.2539 12.5474 21.2569 12.3987 21.11C12.25 20.9631 12.25 20.726 12.25 20.2517L12.25 14.2543H14C14.6904 14.2543 15.25 13.6944 15.25 13.0039C15.25 12.3133 14.6904 11.7535 14 11.7535H12.25L12.25 11.0032C12.25 10.0248 12.2527 9.41673 12.3121 8.97461C12.3657 8.57558 12.4449 8.49675 12.4685 8.47331L12.4697 8.47211L12.4709 8.4709C12.4943 8.44734 12.5731 8.36811 12.972 8.31447C13.414 8.25502 14.0219 8.25237 15 8.25237H16C16.6904 8.25237 17.25 7.69255 17.25 7.00198C17.25 6.3114 16.6904 5.75158 16 5.75158L14.9217 5.75158Z" fill="#696C68"/>
</svg>
