<svg width="18" height="18" viewBox="0 0 18 18" fill="none" xmlns="http://www.w3.org/2000/svg">
<path opacity="0.4" d="M2.67293 8.24221C2.92822 7.61517 4.10436 6.37344 6.79541 6.37344C7.02147 6.37344 7.61447 6.14601 7.58377 4.91376C7.57126 3.8 7.97721 1.59665 9.68025 1.50162C10.0177 1.5 10.3846 1.5 10.7855 1.5C12.1348 1.5 12.8095 1.5 13.3483 1.68915C14.2145 1.99324 14.8978 2.63632 15.2209 3.45161C15.4219 3.95874 15.4219 4.59371 15.4219 5.86364V12.75C15.4219 13.447 15.4219 13.7955 15.3642 14.0853C15.1275 15.2753 14.1972 16.2056 13.0071 16.4424C12.7173 16.5 12.3689 16.5 11.6719 16.5H8.46733C6.02143 16.5 4.79847 16.5 3.94918 15.9016C3.70584 15.7302 3.48981 15.5269 3.30765 15.2978C2.67188 14.4985 2.67188 13.3475 2.67188 11.0455V9.13636C2.67188 8.81612 2.67188 8.51896 2.67293 8.24221Z" fill="#F8F9F9"/>
<path d="M12 10.3125C12.3107 10.3125 12.5625 10.0607 12.5625 9.75C12.5625 9.43934 12.3107 9.1875 12 9.1875H9.75C9.43934 9.1875 9.1875 9.43934 9.1875 9.75C9.1875 10.0607 9.43934 10.3125 9.75 10.3125H12Z" fill="#F8F9F9"/>
<path d="M12 13.3125C12.3107 13.3125 12.5625 13.0607 12.5625 12.75C12.5625 12.4393 12.3107 12.1875 12 12.1875L6.75 12.1875C6.43934 12.1875 6.1875 12.4393 6.1875 12.75C6.1875 13.0607 6.43934 13.3125 6.75 13.3125H12Z" fill="#F8F9F9"/>
<path fill-rule="evenodd" clip-rule="evenodd" d="M9.04029 17.0625H8.38794C7.19254 17.0625 6.25116 17.0625 5.50434 16.9847C4.74179 16.9052 4.11474 16.7394 3.57832 16.3615C3.29198 16.1597 3.03661 15.9197 2.82055 15.648C2.41188 15.1342 2.23162 14.53 2.14583 13.8009C2.06248 13.0926 2.06249 12.202 2.0625 11.0816V9.11592C2.0625 8.02213 2.0625 7.17329 2.10768 6.48827C2.15348 5.79391 2.24741 5.22884 2.45377 4.70811C3.08235 3.12194 4.40598 1.88355 6.06746 1.3003C7.10161 0.937271 8.37056 0.937364 10.5946 0.937528L10.8666 0.937517C12.093 0.937262 12.8572 0.937104 13.4877 1.15844C14.4995 1.51362 15.3107 2.2697 15.697 3.24441C15.828 3.57496 15.8842 3.92589 15.9112 4.33459C15.9375 4.73401 15.9375 5.22565 15.9375 5.8439V10.5447C15.9375 11.921 15.9375 13.0147 15.8151 13.8714C15.6886 14.7572 15.4215 15.4714 14.8269 16.031C14.2372 16.586 13.4926 16.8313 12.5682 16.9482C11.6649 17.0626 10.5087 17.0625 9.04029 17.0625ZM12.4269 15.8321C13.2385 15.7295 13.712 15.5354 14.0559 15.2117C14.3949 14.8927 14.5946 14.4604 14.7015 13.7123C14.8112 12.9444 14.8125 11.9311 14.8125 10.5V5.86367C14.8125 5.22129 14.8122 4.7667 14.7886 4.40863C14.7653 4.05558 14.7211 3.83545 14.6511 3.65887C14.3912 3.00301 13.8358 2.47292 13.1151 2.21993C12.6896 2.07056 12.1355 2.06253 10.7386 2.06253C10.4982 2.06253 10.2713 2.06261 10.0566 2.06305C9.01852 2.09935 8.18808 2.95237 8.18808 3.99934C8.18808 4.10969 8.19294 4.22833 8.19912 4.36152L8.20143 4.41089C8.20689 4.52706 8.21283 4.65353 8.21545 4.77962C8.22137 5.06469 8.21236 5.39734 8.12632 5.71845C7.95873 6.34393 7.47017 6.83249 6.84469 7.00008C6.52358 7.08613 6.19093 7.09513 5.90586 7.08921C5.77977 7.08659 5.65335 7.08065 5.53718 7.07519L5.48776 7.07288C5.35457 7.0667 5.23593 7.06184 5.12558 7.06184C4.05553 7.06184 3.18808 7.92929 3.18808 8.99934C3.18808 9.00798 3.18789 9.01657 3.1875 9.02511C3.1875 9.06186 3.1875 9.09896 3.1875 9.1364V11.0455C3.1875 12.2101 3.18841 13.0345 3.26312 13.6695C3.33627 14.2912 3.47389 14.6622 3.70101 14.9477C3.84926 15.1341 4.02595 15.3007 4.22628 15.4418C4.53916 15.6623 4.94824 15.7957 5.62096 15.8658C6.30266 15.9368 7.18541 15.9375 8.42045 15.9375H9C10.5176 15.9375 11.6025 15.9365 12.4269 15.8321ZM3.22811 6.59533C3.74983 6.18298 4.40896 5.93684 5.12558 5.93684C5.2649 5.93684 5.40711 5.94293 5.5399 5.94909L5.5908 5.95146C5.70831 5.95697 5.81893 5.96216 5.92921 5.96445C6.1847 5.96976 6.38914 5.95746 6.55352 5.91342C6.79077 5.84985 6.97609 5.66453 7.03966 5.42728C7.0837 5.2629 7.096 5.05846 7.09069 4.80298C7.0884 4.6927 7.08322 4.5821 7.07771 4.46461L7.07533 4.41366C7.06917 4.28087 7.06308 4.13867 7.06308 3.99934C7.06308 3.29241 7.30261 2.64142 7.70494 2.12311C7.18505 2.16574 6.79186 2.23831 6.44008 2.3618C5.06973 2.84285 4.00187 3.85526 3.49964 5.12258C3.3543 5.48934 3.27237 5.9236 3.23024 6.56231C3.22952 6.57327 3.22881 6.58427 3.22811 6.59533Z" fill="#F8F9F9"/>
</svg>
