<svg width="24" height="24" viewBox="0 0 24 24" fill="none" xmlns="http://www.w3.org/2000/svg">
<path fill-rule="evenodd" clip-rule="evenodd" d="M7.43654 22.6471C8.41879 22.7499 9.65159 22.7499 11.1927 22.7498H12.068C13.961 22.7499 15.4749 22.7499 16.6629 22.599C17.8874 22.4435 18.9128 22.1128 19.7316 21.3393C20.5588 20.5579 20.9202 19.566 21.0887 18.3819C21.2501 17.2483 21.25 15.8085 21.25 14.0297V7.87991C21.25 7.08076 21.25 6.4332 21.2153 5.90462C21.1795 5.35999 21.1039 4.87432 20.9206 4.41016C20.3918 3.07085 19.2834 2.03658 17.9068 1.55157C17.048 1.24899 15.5759 1.24938 14.0209 1.24992C11.1813 1.24956 9.49465 1.24935 8.11221 1.73643C5.89221 2.5186 4.11848 4.18135 3.27509 6.31741C2.99398 7.02937 2.86944 7.79408 2.80919 8.71092C2.75 9.61164 2.75 10.7243 2.75 12.1426V14.726C2.74998 16.1741 2.74996 17.3468 2.85985 18.2841C2.97396 19.2575 3.21721 20.0954 3.78704 20.8145C4.08222 21.187 4.43077 21.5157 4.82114 21.7918C5.5659 22.3184 6.42712 22.5415 7.43654 22.6471ZM18.3969 19.916C18.0037 20.2874 17.4477 20.5292 16.4184 20.6599C15.3669 20.7934 13.9767 20.7953 12 20.7953H11.2476C9.63898 20.7953 8.50785 20.794 7.6384 20.7031C6.78448 20.6137 6.30055 20.447 5.94272 20.1939C5.70127 20.0232 5.48889 19.8221 5.3111 19.5978C5.05553 19.2753 4.88609 18.8425 4.79386 18.0557C4.69893 17.2459 4.69735 16.1886 4.69735 14.6651L4.69727 11.765C4.69725 11.4979 4.69743 10.8594 4.97804 10.3872C5.15098 10.0962 5.37239 9.85312 5.59984 9.7293C5.96635 9.52978 6.38654 9.41642 6.83321 9.41642L7.87358 9.4529C8.25367 9.4608 8.69721 9.44879 9.12536 9.33407C9.95933 9.11061 10.6107 8.4592 10.8342 7.62523C10.9489 7.19708 10.9609 6.75354 10.953 6.37345L10.9165 5.33308C10.9165 4.86539 11.0409 4.45826 11.2583 4.07985C11.385 3.85926 11.6057 3.65737 11.9105 3.48006C12.3726 3.21115 12.926 3.20866 13.2642 3.20713C13.6023 3.20561 13.9591 3.20444 14.2572 3.20444C16.0913 3.20444 16.7584 3.21839 17.2618 3.39574C18.1344 3.7032 18.8001 4.34484 19.1102 5.13021C19.1878 5.32685 19.2427 5.58527 19.2721 6.03322C19.3021 6.48989 19.3026 7.07284 19.3026 7.9131V13.9544C19.3026 15.8265 19.3003 17.1261 19.1609 18.1055C19.0264 19.0504 18.7818 19.5524 18.3969 19.916Z" fill="url(#paint0_linear_274_15412)"/>
<g opacity="0.4">
<path d="M16 13.9999C16.5523 13.9999 17 13.5522 17 12.9999C17 12.4476 16.5523 11.9999 16 11.9999H13C12.4477 11.9999 12 12.4476 12 12.9999C12 13.5522 12.4477 13.9999 13 13.9999L16 13.9999Z" fill="url(#paint1_linear_274_15412)"/>
<path d="M16 17.9999C16.5523 17.9999 17 17.5522 17 16.9999C17 16.4476 16.5523 15.9999 16 15.9999L9 15.9999C8.44772 15.9999 8 16.4476 8 16.9999C8 17.5522 8.44772 17.9999 9 17.9999L16 17.9999Z" fill="url(#paint2_linear_274_15412)"/>
</g>
<defs>
<linearGradient id="paint0_linear_274_15412" x1="2.74971" y1="22.7497" x2="24.0092" y2="4.45656" gradientUnits="userSpaceOnUse">
<stop stop-color="#101828"/>
<stop offset="1" stop-color="#475467"/>
</linearGradient>
<linearGradient id="paint1_linear_274_15412" x1="7.99986" y1="17.9998" x2="13.5383" y2="9.69211" gradientUnits="userSpaceOnUse">
<stop stop-color="#101828"/>
<stop offset="1" stop-color="#475467"/>
</linearGradient>
<linearGradient id="paint2_linear_274_15412" x1="7.99986" y1="17.9998" x2="13.5383" y2="9.69211" gradientUnits="userSpaceOnUse">
<stop stop-color="#101828"/>
<stop offset="1" stop-color="#475467"/>
</linearGradient>
</defs>
</svg>
