<svg width="56" height="57" viewBox="0 0 56 57" fill="none" xmlns="http://www.w3.org/2000/svg">
<path d="M29.4401 4.72774C31.7345 3.06302 35.5241 2.09047 39.669 4.54687C42.6298 6.30158 44.1959 9.89365 43.6427 13.8786C43.0845 17.8997 40.4071 22.3405 34.9158 26.2674C33.1157 27.557 31.4794 28.7292 29.1703 28.7292C26.8612 28.7292 25.2249 27.557 23.4248 26.2674C17.9335 22.3405 15.256 17.8997 14.6979 13.8786C14.1447 9.89365 15.7108 6.30158 18.6716 4.54687C22.8165 2.09047 26.6061 3.06302 28.9005 4.72774L29.1703 4.92314L29.4401 4.72774Z" fill="white"/>
<path opacity="0.4" d="M13.8956 31.0625C12.8857 31.0624 11.9597 31.0623 11.2065 31.1635C10.3771 31.2751 9.50036 31.5374 8.77931 32.2585C8.05826 32.9796 7.79588 33.8562 7.68436 34.6857C7.58309 35.4389 7.5832 36.3649 7.58332 37.3748L7.58332 43.4607C7.58323 44.2264 7.58314 44.9439 7.65302 45.5434C7.73079 46.2107 7.91087 46.9122 8.39429 47.5599C8.87771 48.2076 9.49904 48.5798 10.1166 48.8442C10.6715 49.0818 11.3593 49.2858 12.0934 49.5035L23.7575 52.9646C25.4479 53.4662 27.2597 53.248 28.788 52.3662L46.3243 42.248C48.5017 40.9917 49.0622 38.0948 47.612 36.0867C45.9952 33.8479 43.1706 32.8612 40.5328 33.6814L40.5292 33.6825L35.5699 35.2063C34.9896 35.3845 34.6995 35.4737 34.6086 35.641C34.5176 35.8083 34.6261 36.1897 34.8431 36.9526C35.0085 37.5341 35.0281 38.092 34.9999 38.4062C34.9999 40.6959 33.4389 42.5448 31.4223 43.1023L25.4935 44.7415C23.3429 45.3361 21.0393 45.1316 19.0257 44.1573L15.245 42.3281C14.52 41.9773 14.2167 41.1052 14.5674 40.3802C14.9182 39.6552 15.7903 39.3518 16.5154 39.7026L20.296 41.5319C21.6695 42.1964 23.2451 42.3371 24.7163 41.9303L30.6451 40.2911C31.462 40.0653 32.0832 39.3189 32.0832 38.4062C32.0832 35.1091 29.3377 34.2714 26.0729 34.2714L23.6402 34.2711C23.216 34.2711 22.7999 34.1755 22.4252 33.9942L17.6606 31.6889C16.8075 31.2761 15.8698 31.0625 14.9212 31.0625L13.8956 31.0625Z" fill="white"/>
</svg>
