<svg width="22" height="22" viewBox="0 0 22 22" fill="none" xmlns="http://www.w3.org/2000/svg">
<path fill-rule="evenodd" clip-rule="evenodd" d="M11.0572 0.75C13.2479 0.749987 14.9686 0.749977 16.312 0.930594C17.6886 1.11568 18.7809 1.50271 19.6391 2.36091C20.4973 3.21911 20.8843 4.31137 21.0694 5.68802C21.25 7.03144 21.25 8.7521 21.25 10.9428V11.0572C21.25 13.2479 21.25 14.9686 21.0694 16.312C20.8843 17.6886 20.4973 18.7809 19.6391 19.6391C18.7809 20.4973 17.6886 20.8843 16.312 21.0694C14.9686 21.25 13.2479 21.25 11.0572 21.25H10.9428C8.75214 21.25 7.03144 21.25 5.68802 21.0694C4.31137 20.8843 3.21911 20.4973 2.36091 19.6391C1.50272 18.7809 1.11568 17.6886 0.930594 16.312C0.749976 14.9686 0.749987 13.2479 0.75 11.0572L0.75 10.9428C0.749987 8.75212 0.749976 7.03144 0.930594 5.68802C1.11568 4.31137 1.50272 3.21911 2.36091 2.36091C3.21911 1.50271 4.31137 1.11568 5.68802 0.930594C7.03143 0.749977 8.7521 0.749987 10.9428 0.75L11.0572 0.75ZM15.5 11C15.5 13.4853 13.4853 15.5 11 15.5C8.51472 15.5 6.5 13.4853 6.5 11C6.5 8.51472 8.51472 6.5 11 6.5C13.4853 6.5 15.5 8.51472 15.5 11ZM16.5123 6.5C17.0621 6.5 17.5078 6.05229 17.5078 5.5C17.5078 4.94772 17.0621 4.5 16.5123 4.5H16.5033C15.9535 4.5 15.5078 4.94772 15.5078 5.5C15.5078 6.05228 15.9535 6.5 16.5033 6.5H16.5123Z" fill="#696C68"/>
</svg>
