<svg width="22" height="22" viewBox="0 0 22 22" fill="none" xmlns="http://www.w3.org/2000/svg">
<path d="M7.30035 0.335111C7.9364 0.425745 8.50638 0.625673 8.95973 1.10615C9.40726 1.58048 9.58801 2.1664 9.67082 2.81915C9.75004 3.44372 9.75002 4.23274 9.75 5.18938L9.75001 7.54675C9.75007 7.94071 9.75014 8.31238 9.7098 8.60156C9.6691 8.89334 9.55678 9.35257 9.10596 9.60828C8.63692 9.87433 8.18013 9.71027 7.91251 9.57632C7.65662 9.44822 7.35988 9.23846 7.05394 9.02218C6.51583 8.64197 6.22655 8.44738 6.07819 8.39977C5.93214 8.3529 5.76931 8.34468 5.12223 8.34468H4.0816C3.58857 8.34469 3.17451 8.3447 2.835 8.31745C2.47977 8.28894 2.14356 8.22714 1.82247 8.06845C1.23202 7.77664 0.767598 7.27902 0.500892 6.67284C0.357887 6.3478 0.301594 6.00727 0.275331 5.6397C0.249987 5.28499 0.249993 4.85059 0.25 4.32436V4.27033C0.249993 3.74411 0.249987 3.3097 0.275331 2.95499C0.301594 2.58742 0.357887 2.24688 0.500892 1.92185C0.767598 1.31566 1.23202 0.818049 1.82247 0.526238C2.14356 0.367545 2.47977 0.305744 2.835 0.277233C3.17452 0.249984 3.58856 0.249993 4.0816 0.250004L5.05449 0.250001C5.95079 0.249968 6.70264 0.24994 7.30035 0.335111Z" fill="white"/>
<path fill-rule="evenodd" clip-rule="evenodd" d="M11.0133 2.225C11.0133 1.68652 11.4509 1.25 11.9906 1.25C16.2472 1.25 19.8659 3.96452 21.207 7.75008C21.51 8.60539 21.6967 9.51494 21.7485 10.4592C21.778 10.9969 21.3651 11.4566 20.8261 11.486C20.2872 11.5155 19.8264 11.1035 19.7969 10.5658C19.7683 10.0448 19.6886 9.53801 19.5627 9.04999H15.8297C15.864 9.52088 15.8861 10.0035 15.8951 10.4947C15.9049 11.0331 15.4754 11.4775 14.9358 11.4873C14.3962 11.4972 13.9507 11.0687 13.9409 10.5303C13.9316 10.0214 13.9073 9.52675 13.8696 9.04999H11.9906C11.4509 9.04999 11.0133 8.61347 11.0133 8.075C11.0133 7.53652 11.4509 7.1 11.9906 7.1H13.6264C13.4843 6.28872 13.3006 5.56594 13.0872 4.9593C12.8445 4.26934 12.5817 3.78272 12.3398 3.48768C12.2212 3.34313 12.126 3.26716 12.0638 3.23035C12.0341 3.21278 12.0144 3.20556 12.0044 3.20265C11.9959 3.20013 11.992 3.2 11.9908 3.2C11.4511 3.2 11.0133 2.76348 11.0133 2.225ZM14.6828 3.67479C14.7713 3.88001 14.8541 4.09358 14.9314 4.31354C15.2145 5.11817 15.4435 6.06175 15.6076 7.1H18.7631C17.853 5.53039 16.4106 4.30702 14.6828 3.67479Z" fill="white"/>
<path fill-rule="evenodd" clip-rule="evenodd" d="M1.22727 10.025C1.767 10.025 2.20454 10.4615 2.20454 11C2.20454 11.6743 2.29008 12.3275 2.45061 12.95H6.1836C6.16111 12.6416 6.14391 12.3283 6.13219 12.0109C6.11231 11.4728 6.53344 11.0205 7.07281 11.0007C7.61217 10.9808 8.06553 11.401 8.0854 11.9391C8.09814 12.2839 8.11776 12.6213 8.14373 12.95H10.0227C10.5624 12.95 11 13.3865 11 13.925C11 14.4635 10.5624 14.9 10.0227 14.9H8.38696C8.54045 15.7765 8.74238 16.5487 8.9772 17.1821C9.21556 17.8251 9.4687 18.2727 9.69791 18.5415C9.80992 18.6728 9.8987 18.7407 9.95571 18.7732C9.98297 18.7888 10.001 18.7951 10.0099 18.7977C10.0183 18.8 10.0219 18.8 10.0227 18.8C10.5624 18.8 11 19.2365 11 19.775C11 20.3135 10.5624 20.75 10.0227 20.75C5.76609 20.75 2.14746 18.0355 0.806339 14.2499C0.445766 13.2321 0.25 12.1378 0.25 11C0.25 10.4615 0.68754 10.025 1.22727 10.025ZM7.33053 18.3252C7.26522 18.1737 7.20309 18.0178 7.14403 17.8585C6.8318 17.0163 6.58143 16.0117 6.4057 14.9H3.25018C4.16028 16.4696 5.60271 17.693 7.33053 18.3252Z" fill="white"/>
<path d="M19.165 12.2772C18.8255 12.25 18.4115 12.25 17.9184 12.25L16.9455 12.25C16.0492 12.25 15.2974 12.2499 14.6997 12.3351C14.0636 12.4257 13.4936 12.6257 13.0403 13.1062C12.5928 13.5805 12.412 14.1664 12.3292 14.8191C12.25 15.4437 12.25 16.2328 12.25 17.1894L12.25 19.5468C12.2499 19.9407 12.2499 20.3124 12.2902 20.6016C12.3309 20.8933 12.4432 21.3526 12.894 21.6083C13.3631 21.8743 13.8199 21.7103 14.0875 21.5763C14.3434 21.4482 14.7858 21.1355 15.0918 20.9192C15.6299 20.539 15.7735 20.4474 15.9218 20.3998C16.0679 20.3529 16.2307 20.3447 16.8778 20.3447H17.9184C18.4114 20.3447 18.8255 20.3447 19.165 20.3175C19.5202 20.2889 19.8564 20.2271 20.1775 20.0685C20.768 19.7766 21.2324 19.279 21.4991 18.6728C21.6421 18.3478 21.6984 18.0073 21.7247 17.6397C21.75 17.285 21.75 16.8506 21.75 16.3244C21.75 15.7982 21.75 15.3097 21.7247 14.955C21.6984 14.5874 21.6421 14.2469 21.4991 13.9219C21.2324 13.3157 20.768 12.818 20.1775 12.5262C19.8564 12.3675 19.5202 12.3057 19.165 12.2772Z" fill="white"/>
</svg>
