<svg width="24" height="24" viewBox="0 0 24 24" fill="none" xmlns="http://www.w3.org/2000/svg">
<path d="M8.30035 1.33511C8.9364 1.42574 9.50638 1.62567 9.95973 2.10615C10.4073 2.58048 10.588 3.1664 10.6708 3.81915C10.75 4.44372 10.75 5.23274 10.75 6.18938L10.75 8.54675C10.7501 8.94071 10.7501 9.31238 10.7098 9.60156C10.6691 9.89334 10.5568 10.3526 10.106 10.6083C9.63692 10.8743 9.18013 10.7103 8.91251 10.5763C8.65662 10.4482 8.35988 10.2385 8.05394 10.0222C7.51583 9.64197 7.22655 9.44738 7.07819 9.39977C6.93214 9.3529 6.76931 9.34468 6.12223 9.34468H5.0816C4.58857 9.34469 4.17451 9.3447 3.835 9.31745C3.47977 9.28894 3.14356 9.22714 2.82247 9.06845C2.23202 8.77664 1.7676 8.27902 1.50089 7.67284C1.35789 7.3478 1.30159 7.00727 1.27533 6.6397C1.24999 6.28499 1.24999 5.85059 1.25 5.32436V5.27033C1.24999 4.74411 1.24999 4.3097 1.27533 3.95499C1.30159 3.58742 1.35789 3.24688 1.50089 2.92185C1.7676 2.31566 2.23202 1.81805 2.82247 1.52624C3.14356 1.36754 3.47977 1.30574 3.835 1.27723C4.17452 1.24998 4.58856 1.24999 5.0816 1.25L6.05449 1.25C6.95079 1.24997 7.70264 1.24994 8.30035 1.33511Z" fill="white"/>
<path fill-rule="evenodd" clip-rule="evenodd" d="M12.0133 3.225C12.0133 2.68652 12.4509 2.25 12.9906 2.25C17.2472 2.25 20.8659 4.96452 22.207 8.75008C22.51 9.60539 22.6967 10.5149 22.7485 11.4592C22.778 11.9969 22.3651 12.4566 21.8261 12.486C21.2872 12.5155 20.8264 12.1035 20.7969 11.5658C20.7683 11.0448 20.6886 10.538 20.5627 10.05H16.8297C16.864 10.5209 16.8861 11.0035 16.8951 11.4947C16.9049 12.0331 16.4754 12.4775 15.9358 12.4873C15.3962 12.4972 14.9507 12.0687 14.9409 11.5303C14.9316 11.0214 14.9073 10.5268 14.8696 10.05H12.9906C12.4509 10.05 12.0133 9.61347 12.0133 9.075C12.0133 8.53652 12.4509 8.1 12.9906 8.1H14.6264C14.4843 7.28872 14.3006 6.56594 14.0872 5.9593C13.8445 5.26934 13.5817 4.78272 13.3398 4.48768C13.2212 4.34313 13.126 4.26716 13.0638 4.23035C13.0341 4.21278 13.0144 4.20556 13.0044 4.20265C12.9959 4.20013 12.992 4.2 12.9908 4.2C12.4511 4.2 12.0133 3.76348 12.0133 3.225ZM15.6828 4.67479C15.7713 4.88001 15.8541 5.09358 15.9314 5.31354C16.2145 6.11817 16.4435 7.06175 16.6076 8.1H19.7631C18.853 6.53039 17.4106 5.30702 15.6828 4.67479Z" fill="white"/>
<path fill-rule="evenodd" clip-rule="evenodd" d="M2.22727 11.025C2.767 11.025 3.20454 11.4615 3.20454 12C3.20454 12.6743 3.29008 13.3275 3.45061 13.95H7.1836C7.16111 13.6416 7.14391 13.3283 7.13219 13.0109C7.11231 12.4728 7.53344 12.0205 8.07281 12.0007C8.61217 11.9808 9.06553 12.401 9.0854 12.9391C9.09814 13.2839 9.11776 13.6213 9.14373 13.95H11.0227C11.5624 13.95 12 14.3865 12 14.925C12 15.4635 11.5624 15.9 11.0227 15.9H9.38696C9.54045 16.7765 9.74238 17.5487 9.9772 18.1821C10.2156 18.8251 10.4687 19.2727 10.6979 19.5415C10.8099 19.6728 10.8987 19.7407 10.9557 19.7732C10.983 19.7888 11.001 19.7951 11.0099 19.7977C11.0183 19.8 11.0219 19.8 11.0227 19.8C11.5624 19.8 12 20.2365 12 20.775C12 21.3135 11.5624 21.75 11.0227 21.75C6.76609 21.75 3.14746 19.0355 1.80634 15.2499C1.44577 14.2321 1.25 13.1378 1.25 12C1.25 11.4615 1.68754 11.025 2.22727 11.025ZM8.33053 19.3252C8.26522 19.1737 8.20309 19.0178 8.14403 18.8585C7.8318 18.0163 7.58143 17.0117 7.4057 15.9H4.25018C5.16028 17.4696 6.60271 18.693 8.33053 19.3252Z" fill="white"/>
<path d="M20.165 13.2772C19.8255 13.25 19.4115 13.25 18.9184 13.25L17.9455 13.25C17.0492 13.25 16.2974 13.2499 15.6997 13.3351C15.0636 13.4257 14.4936 13.6257 14.0403 14.1062C13.5928 14.5805 13.412 15.1664 13.3292 15.8191C13.25 16.4437 13.25 17.2328 13.25 18.1894L13.25 20.5468C13.2499 20.9407 13.2499 21.3124 13.2902 21.6016C13.3309 21.8933 13.4432 22.3526 13.894 22.6083C14.3631 22.8743 14.8199 22.7103 15.0875 22.5763C15.3434 22.4482 15.7858 22.1355 16.0918 21.9192C16.6299 21.539 16.7735 21.4474 16.9218 21.3998C17.0679 21.3529 17.2307 21.3447 17.8778 21.3447H18.9184C19.4114 21.3447 19.8255 21.3447 20.165 21.3175C20.5202 21.2889 20.8564 21.2271 21.1775 21.0685C21.768 20.7766 22.2324 20.279 22.4991 19.6728C22.6421 19.3478 22.6984 19.0073 22.7247 18.6397C22.75 18.285 22.75 17.8506 22.75 17.3244C22.75 16.7982 22.75 16.3097 22.7247 15.955C22.6984 15.5874 22.6421 15.2469 22.4991 14.9219C22.2324 14.3157 21.768 13.818 21.1775 13.5262C20.8564 13.3675 20.5202 13.3057 20.165 13.2772Z" fill="white"/>
</svg>
