<svg width="56" height="57" viewBox="0 0 56 57" fill="none" xmlns="http://www.w3.org/2000/svg">
<path fill-rule="evenodd" clip-rule="evenodd" d="M41.8787 3.0625H42.1214H42.1215H42.1216C44.2179 3.06244 45.9661 3.06239 47.3538 3.24897C48.8187 3.44592 50.1412 3.87915 51.204 4.94191C52.2667 6.00468 52.7 7.32721 52.8969 8.79206C53.0835 10.1799 53.0834 11.9281 53.0834 14.0245V18.934C53.0834 21.0304 53.0835 22.7785 52.8969 24.1663C52.7 25.6311 52.2667 26.9537 51.204 28.0164C50.1412 29.0792 48.8187 29.5124 47.3538 29.7094C45.966 29.896 44.2178 29.8959 42.1214 29.8958H41.8786C39.7822 29.8959 38.0341 29.896 36.6462 29.7094C35.1814 29.5124 33.8589 29.0792 32.7961 28.0164C31.7333 26.9537 31.3001 25.6311 31.1032 24.1663C30.9166 22.7785 30.9166 21.0303 30.9167 18.934V18.9339V18.9338V14.0244V14.0243V14.0242C30.9166 11.9279 30.9166 10.1798 31.1032 8.79206C31.3001 7.32721 31.7333 6.00468 32.7961 4.94191C33.8589 3.87915 35.1814 3.44592 36.6462 3.24897C38.034 3.06239 39.7822 3.06244 41.8786 3.0625H41.8786H41.8787ZM39.6667 21.1458C39.6667 19.8572 40.7067 18.8125 41.9896 18.8125H42.0105C43.2934 18.8125 44.3334 19.8572 44.3334 21.1458C44.3334 22.4345 43.2934 23.4792 42.0105 23.4792H41.9896C40.7067 23.4792 39.6667 22.4345 39.6667 21.1458Z" fill="white"/>
<path opacity="0.4" d="M19.0964 5.396C17.028 5.39589 15.2457 5.39579 13.8185 5.58767C12.289 5.79331 10.8228 6.25705 9.63362 7.44626C8.44441 8.63547 7.98067 10.1016 7.77503 11.6312C7.58314 13.0584 7.58324 14.8406 7.58336 16.9091L7.58336 34.5627L7.58314 34.659C7.58013 34.7787 7.56584 34.8377 7.5138 34.9456L7.49038 34.9916L6.61318 36.6983C4.92385 39.8158 3.78626 42.2984 3.26013 44.3595C2.71871 46.4805 2.78253 48.3281 3.70244 49.999C4.73084 51.8669 6.56828 52.5952 8.62928 52.9177C10.6211 53.2295 13.2773 53.2294 16.5358 53.2293H39.4637C42.7222 53.2294 45.3784 53.2295 47.3703 52.9177C49.4313 52.5952 51.2687 51.8669 52.2971 49.999C53.217 48.3281 53.2808 46.4804 52.7393 44.3595C52.2121 42.2946 51.0713 39.8068 49.3769 36.6813L48.5444 35.1457C48.5057 35.0742 48.4861 35.0382 48.4736 35.0091C48.4367 34.9232 48.428 34.889 48.4196 34.796C48.4167 34.7644 48.4167 34.6971 48.4167 34.5627C48.4167 34.1265 48.4167 33.9084 48.3229 33.746C48.2615 33.6396 48.1731 33.5512 48.0667 33.4898C47.9042 33.396 47.6862 33.396 47.25 33.396H13.65C12.9901 33.396 12.6601 33.396 12.4551 33.191C12.25 32.9859 12.25 32.656 12.25 31.996V17.0627C12.25 14.7968 12.255 13.3322 12.4001 12.253C12.5361 11.2409 12.7558 10.9237 12.9334 10.7461C13.1111 10.5685 13.4283 10.3488 14.4403 10.2127C15.5195 10.0676 16.9842 10.0627 19.25 10.0627H25.6667C26.9554 10.0627 28 9.018 28 7.72934C28 6.44068 26.9554 5.39601 25.6667 5.39601L19.0964 5.396Z" fill="white"/>
</svg>
