<svg width="18" height="18" viewBox="0 0 18 18" fill="none" xmlns="http://www.w3.org/2000/svg">
<g opacity="0.4">
<path d="M10.2489 4.74891C8.85539 3.35691 6.9984 1.96417 6.9984 1.96417L4.21289 4.74891C4.21289 4.74891 5.60565 6.60586 6.9984 7.99786C8.39115 9.39061 10.2489 10.7826 10.2489 10.7826L13.0344 7.99786C13.0344 7.99786 11.6416 6.14166 10.2489 4.74891Z" fill="#F8F9F9"/>
<path d="M9.08203 16.4946L9.58927 15.5827C9.86361 15.0892 10.0007 14.8426 10.2078 14.6631C10.3781 14.5169 10.5805 14.4036 10.8033 14.3324C11.0739 14.2454 11.3819 14.2454 11.9975 14.2454H12.0001C12.6157 14.2454 12.9237 14.2454 13.1943 14.3324C13.417 14.4036 13.6195 14.5169 13.7898 14.6631C13.9975 14.8431 14.1356 15.0906 14.4108 15.5871L14.9156 16.4946H9.08203Z" fill="#F8F9F9"/>
</g>
<path fill-rule="evenodd" clip-rule="evenodd" d="M9.38754 11.6439C9.49704 11.7542 9.64106 11.8089 9.78506 11.8089L9.7858 11.8082C9.9298 11.8082 10.0738 11.7527 10.1833 11.6432L10.6341 11.1932L10.6483 11.1789L13.4338 8.39416L13.4413 8.38669L13.8981 7.93068C14.1178 7.71093 14.1178 7.35466 13.8981 7.1349C13.6783 6.91515 13.3221 6.91515 13.1023 7.1349L13.0903 7.14692C12.5721 6.48917 11.6173 5.31916 10.6483 4.35016C9.67855 3.38191 8.50854 2.42718 7.85004 1.90893L7.86205 1.89692C8.0818 1.67717 8.0818 1.32096 7.86205 1.10121C7.6423 0.881464 7.28606 0.881464 7.06631 1.10121L3.81656 4.35016C3.81506 4.35241 3.81205 4.35544 3.81205 4.35544L3.35231 4.81445C3.13256 5.0342 3.13256 5.3904 3.35231 5.61015C3.57206 5.8299 3.9283 5.8299 4.14805 5.61015L4.16006 5.59821C4.49794 6.02704 5.02134 6.6736 5.61327 7.34023L1.59599 10.762C1.19924 11.0995 0.960006 11.5908 0.939006 12.1113C0.918006 12.6318 1.11751 13.1417 1.48576 13.51C1.83676 13.861 2.31602 14.0583 2.81027 14.0583C2.83396 14.0583 2.8584 14.0575 2.88209 14.0568L2.88527 14.0567C3.40577 14.0365 3.89777 13.7972 4.23527 13.4005L7.65735 9.38431C8.32376 9.9757 8.97043 10.4985 9.39955 10.8362L9.38754 10.8482C9.16779 11.068 9.16779 11.4242 9.38754 11.6439ZM6.83047 8.6198C6.75333 8.54507 6.67707 8.47006 6.60203 8.39496C6.52715 8.32009 6.45236 8.24401 6.37785 8.16706L2.32574 11.6185C2.16524 11.755 2.07226 11.9462 2.06401 12.1562C2.05576 12.367 2.133 12.565 2.2815 12.7143C2.43075 12.8635 2.62951 12.9415 2.84026 12.9325C3.05101 12.9243 3.24224 12.8313 3.37874 12.6708L6.83047 8.6198ZM7.39781 7.59919C6.42581 6.62719 5.44031 5.40693 4.96181 4.79643H4.96104L7.04756 2.71071C7.65881 3.18921 8.87981 4.17394 9.85256 5.14594C10.8253 6.11794 11.8101 7.33745 12.2886 7.9487L10.202 10.0344C9.59078 9.55592 8.36981 8.57119 7.39781 7.59919Z" fill="#F8F9F9"/>
<path d="M16.4996 12.5583C16.4089 12.5583 16.3166 12.5365 16.2311 12.4893L14.7311 11.6717C14.4581 11.5232 14.3576 11.1812 14.5061 10.909C14.6546 10.636 14.9966 10.5355 15.2688 10.684L16.7688 11.5015C17.0418 11.65 17.1423 11.992 16.9938 12.2643C16.8918 12.4518 16.6984 12.5583 16.4996 12.5583Z" fill="#F8F9F9"/>
<path d="M15.0003 9.28674C14.8376 9.28674 14.6756 9.21624 14.5646 9.08049C14.3681 8.83974 14.4033 8.48576 14.6441 8.28926L16.1441 7.06223C16.3848 6.86573 16.7388 6.90102 16.9353 7.14177C17.1318 7.38252 17.0966 7.73651 16.8559 7.93301L15.3559 9.15996C15.2516 9.24546 15.1256 9.28674 15.0003 9.28674Z" fill="#F8F9F9"/>
<path fill-rule="evenodd" clip-rule="evenodd" d="M15.75 17.0619C16.0605 17.0619 16.3125 16.8099 16.3125 16.4994C16.3125 16.1889 16.0605 15.9369 15.75 15.9369H15.204C15.1822 15.8889 15.1597 15.8395 15.1365 15.7892C14.7742 14.9905 14.2267 13.7845 12.6989 13.7012C12.243 13.6757 11.7809 13.6765 11.3257 13.7012C9.79959 13.7844 9.25259 14.9883 8.89033 15.7855L8.8897 15.7869C8.88081 15.8064 8.87204 15.8258 8.86334 15.845C8.84927 15.8761 8.83537 15.9068 8.82147 15.9369H8.25146C7.94097 15.9369 7.68896 16.1889 7.68896 16.4994C7.68896 16.8099 7.94097 17.0619 8.25146 17.0619H15.75ZM13.9635 15.9369L10.0612 15.9369C10.3822 15.2814 10.704 14.8622 11.3872 14.8247C11.802 14.8022 12.222 14.8022 12.6375 14.8247C13.3207 14.8614 13.6425 15.2814 13.9635 15.9369Z" fill="#F8F9F9"/>
</svg>
