<svg width="22" height="22" viewBox="0 0 22 22" fill="none" xmlns="http://www.w3.org/2000/svg">
<path fill-rule="evenodd" clip-rule="evenodd" d="M10.9428 0.75L11.0572 0.75C13.2479 0.749987 14.9686 0.749977 16.312 0.930594C17.6886 1.11568 18.7809 1.50271 19.6391 2.36091C20.4973 3.21911 20.8843 4.31137 21.0694 5.68802C21.25 7.03144 21.25 8.75214 21.25 10.9428V11.0572C21.25 13.2479 21.25 14.9686 21.0694 16.312C20.8843 17.6886 20.4973 18.7809 19.6391 19.6391C18.7809 20.4973 17.6886 20.8843 16.312 21.0694C14.9686 21.25 13.2479 21.25 11.0572 21.25H10.9428C8.7521 21.25 7.03144 21.25 5.68802 21.0694C4.31137 20.8843 3.21911 20.4973 2.36091 19.6391C1.50272 18.7809 1.11568 17.6886 0.930594 16.312C0.749977 14.9686 0.749987 13.2479 0.75 11.0572L0.75 10.9428C0.749987 8.75213 0.749977 7.03144 0.930594 5.68802C1.11568 4.31137 1.50272 3.21911 2.36091 2.36091C3.21911 1.50271 4.31137 1.11568 5.68802 0.930594C7.03143 0.749977 8.75214 0.749987 10.9428 0.75ZM7.00195 9.5C7.00195 8.94771 6.55424 8.5 6.00195 8.5C5.44967 8.5 5.00195 8.94771 5.00195 9.5L5.00195 16C5.00195 16.5523 5.44967 17 6.00195 17C6.55424 17 7.00195 16.5523 7.00195 16L7.00195 9.5ZM10.002 8C10.4073 8 10.7564 8.2412 10.9134 8.58791C11.5213 8.215 12.2365 8 13.002 8C15.2111 8 17.002 9.79086 17.002 12V16C17.002 16.5523 16.5542 17 16.002 17C15.4497 17 15.002 16.5523 15.002 16V12C15.002 10.8954 14.1065 10 13.002 10C11.8974 10 11.002 10.8954 11.002 12V16C11.002 16.5523 10.5542 17 10.002 17C9.44967 17 9.00195 16.5523 9.00195 16L9.00195 9C9.00195 8.44771 9.44967 8 10.002 8ZM7.25977 6C7.25977 6.69036 6.70012 7.25 6.00977 7.25H6.00078C5.31043 7.25 4.75078 6.69036 4.75078 6C4.75078 5.30964 5.31043 4.75 6.00078 4.75H6.00977C6.70012 4.75 7.25977 5.30964 7.25977 6Z" fill="#696C68"/>
</svg>
