<svg width="19" height="19" viewBox="0 0 19 19" fill="none" xmlns="http://www.w3.org/2000/svg">
<path opacity="0.4" fill-rule="evenodd" clip-rule="evenodd" d="M9.50011 14C9.85199 14 10.1901 13.8638 10.4431 13.6202C10.6197 13.45 10.8008 13.2783 10.984 13.1045C13.2096 10.9936 15.7469 8.58702 14.3499 5.2278C13.5314 3.25949 11.5665 2 9.50011 2C7.43371 2 5.46883 3.25949 4.65028 5.2278C3.25898 8.57338 5.76826 10.9621 7.98183 13.0693C8.17686 13.2549 8.3696 13.4384 8.55718 13.6202C8.81014 13.8638 9.14824 14 9.50011 14ZM9.5 9.125C10.5355 9.125 11.375 8.28553 11.375 7.25C11.375 6.21447 10.5355 5.375 9.5 5.375C8.46447 5.375 7.625 6.21447 7.625 7.25C7.625 8.28553 8.46447 9.125 9.5 9.125Z" fill="#F8F9F9"/>
<path fill-rule="evenodd" clip-rule="evenodd" d="M9.5 9.6875C8.156 9.6875 7.0625 8.594 7.0625 7.25C7.0625 5.906 8.156 4.8125 9.5 4.8125C10.844 4.8125 11.9375 5.906 11.9375 7.25C11.9375 8.594 10.844 9.6875 9.5 9.6875ZM9.5 5.9375C8.77625 5.9375 8.1875 6.52625 8.1875 7.25C8.1875 7.97375 8.77625 8.5625 9.5 8.5625C10.2238 8.5625 10.8125 7.97375 10.8125 7.25C10.8125 6.52625 10.2238 5.9375 9.5 5.9375Z" fill="#F8F9F9"/>
<path fill-rule="evenodd" clip-rule="evenodd" d="M8.16722 14.0263C8.52722 14.372 9.00047 14.5625 9.49997 14.5625C9.99947 14.5625 10.472 14.372 10.832 14.0255C11.0075 13.8568 11.1875 13.6858 11.3697 13.5133C13.6175 11.3818 16.4149 8.72896 14.8692 5.01199C13.9805 2.87374 11.822 1.4375 9.49997 1.4375C7.17797 1.4375 5.02021 2.87374 4.13146 5.01199C2.59096 8.71474 5.36521 11.3555 7.59421 13.4773L7.61578 13.4978C7.80192 13.6753 7.98597 13.8508 8.16722 14.0263ZM5.17022 5.44399C5.88647 3.72049 7.62647 2.5625 9.49997 2.5625V2.56175C11.3735 2.56175 13.1142 3.71974 13.8312 5.44324C15.0792 8.44474 12.8007 10.6063 10.5965 12.6965C10.412 12.8713 10.2305 13.0438 10.0527 13.2148C9.90348 13.3588 9.70697 13.4375 9.49997 13.4375C9.29297 13.4375 9.09646 13.358 8.94871 13.2163C8.75971 13.0333 8.56623 12.8487 8.36973 12.662C6.18581 10.5831 3.92677 8.43263 5.17022 5.44399Z" fill="#F8F9F9"/>
<path d="M9.5 17.5625C7.0625 17.5625 2.9375 17.0892 2.9375 15.3155C2.9375 14.4807 3.84201 13.853 5.62626 13.451C5.92926 13.3827 6.22999 13.5733 6.29899 13.8763C6.36724 14.1793 6.17674 14.48 5.87374 14.549C4.58374 14.84 4.14349 15.1903 4.06924 15.3162C4.24924 15.653 6.03948 16.4375 9.50073 16.4375C12.962 16.4375 14.7515 15.653 14.9323 15.3162C14.858 15.1903 14.4178 14.8393 13.1278 14.549C12.8248 14.4808 12.6343 14.18 12.7025 13.8763C12.7708 13.5733 13.0715 13.3827 13.3752 13.451C15.1595 13.853 16.064 14.48 16.064 15.3155C16.064 16.061 15.3343 16.6445 13.8965 17.048C12.7153 17.3795 11.1545 17.5625 9.5015 17.5625H9.5Z" fill="#F8F9F9"/>
</svg>
