<svg width="18" height="18" viewBox="0 0 18 18" fill="none" xmlns="http://www.w3.org/2000/svg">
<path opacity="0.4" d="M6.82412 15.3577C8.27948 15.3942 9.72052 15.3942 11.1759 15.3577C13.5373 15.2983 14.7179 15.2687 15.5663 14.4171C16.4146 13.5655 16.4391 12.4159 16.4882 10.1168V10.1168C16.5039 9.37753 16.5039 8.64263 16.4882 7.90337C16.4544 6.31953 16.4323 5.28122 16.1444 4.51007L9 8.26007L1.85558 4.51007C1.56774 5.28122 1.5456 6.31952 1.51182 7.90335C1.49606 8.64262 1.49606 9.37752 1.51182 10.1168C1.56086 12.4159 1.58537 13.5655 2.43372 14.4171C3.28206 15.2687 4.46275 15.2983 6.82412 15.3577Z" fill="#6C737F"/>
<path fill-rule="evenodd" clip-rule="evenodd" d="M11.19 2.10017C9.72523 2.06337 8.27477 2.06337 6.80999 2.10017L6.76637 2.10127C5.62275 2.12998 4.70251 2.15309 3.96502 2.28152C3.1929 2.41599 2.56536 2.6739 2.03521 3.20606C1.50729 3.736 1.25073 4.35452 1.11882 5.11412C0.993217 5.8374 0.974087 6.73517 0.95039 7.84731L0.949451 7.89136C0.933516 8.63862 0.933516 9.38152 0.949452 10.1288L0.950391 10.1728C0.974089 11.285 0.99322 12.1827 1.11882 12.906C1.25073 13.6656 1.50729 14.2841 2.03522 14.8141C2.56536 15.3462 3.1929 15.6042 3.96503 15.7386C4.70251 15.8671 5.62273 15.8902 6.76633 15.9189L6.80999 15.92C8.27477 15.9568 9.72523 15.9568 11.19 15.92L11.2337 15.9189C12.3773 15.8902 13.2975 15.8671 14.035 15.7386C14.8071 15.6042 15.4346 15.3462 15.9648 14.8141C16.4927 14.2841 16.7493 13.6656 16.8812 12.906C17.0068 12.1827 17.0259 11.285 17.0496 10.1728L17.0506 10.1288C17.0665 9.38152 17.0665 8.63863 17.0506 7.89137L17.0496 7.84733C17.0259 6.73519 17.0068 5.83742 16.8812 5.11413C16.7493 4.35453 16.4927 3.73601 15.9648 3.20608C15.4346 2.67391 14.8071 2.416 14.035 2.28153C13.2975 2.15309 12.3773 2.12999 11.2336 2.10127L11.19 2.10017ZM6.83824 3.22482C8.28419 3.18849 9.71581 3.18849 11.1618 3.22482C12.3593 3.25491 13.196 3.27736 13.842 3.38985C14.4626 3.49794 14.8496 3.68065 15.1678 4.00006C15.2982 4.13101 15.4054 4.27198 15.4937 4.43379L11.038 6.9584C10.0965 7.49185 9.52523 7.69758 9.00008 7.69758C8.47493 7.69758 7.90361 7.49185 6.96214 6.9584L2.50636 4.43372C2.59462 4.27194 2.70177 4.13099 2.83222 4.00005C3.15042 3.68064 3.53739 3.49793 4.15804 3.38984C4.80397 3.27735 5.64075 3.2549 6.83824 3.22482ZM2.19076 5.54794C2.11316 6.1418 2.09601 6.89242 2.0742 7.91535C2.0586 8.64662 2.0586 9.37352 2.0742 10.1048C2.09908 11.2714 2.11789 12.0839 2.22723 12.7135C2.33192 13.3164 2.5118 13.6985 2.83222 14.0201C3.15042 14.3395 3.5374 14.5222 4.15804 14.6303C4.80397 14.7428 5.64075 14.7652 6.83825 14.7953C8.28419 14.8317 9.71581 14.8317 11.1618 14.7953C12.3593 14.7652 13.196 14.7428 13.842 14.6303C14.4626 14.5222 14.8496 14.3395 15.1678 14.0201C15.4882 13.6985 15.6681 13.3164 15.7728 12.7135C15.8821 12.0839 15.9009 11.2714 15.9258 10.1048C15.9414 9.37353 15.9414 8.64663 15.9258 7.91536C15.904 6.89247 15.8868 6.14187 15.8092 5.54802L11.5926 7.9372C10.6226 8.48679 9.83444 8.82258 9.00008 8.82258C8.16571 8.82258 7.37751 8.48679 6.40755 7.9372L2.19076 5.54794Z" fill="#6C737F"/>
</svg>
