<svg width="18" height="18" viewBox="0 0 18 18" fill="none" xmlns="http://www.w3.org/2000/svg">
<g opacity="0.4">
<path d="M15 16.5004V12.7504C15 11.3362 15 10.629 14.5607 10.1897C14.1213 9.75037 13.4142 9.75037 12 9.75037L9 16.5004L15 16.5004Z" fill="#F8F9F9"/>
<path d="M3 16.5004H9L6 9.75037C4.58579 9.75037 3.87868 9.75037 3.43934 10.1897C3 10.629 3 11.3362 3 12.7504L3 16.5004Z" fill="#F8F9F9"/>
<path d="M11.625 4.12537V4.87537C11.625 6.32511 10.4497 7.50037 9 7.50037C7.55025 7.50037 6.375 6.32511 6.375 4.87537L6.375 4.12537C6.375 2.67562 7.55025 1.50037 9 1.50037C10.4497 1.50037 11.625 2.67562 11.625 4.12537Z" fill="#F8F9F9"/>
</g>
<path d="M5.961 9.18787L6 9.18787C6.2223 9.18787 6.42374 9.31878 6.51402 9.52192L8.18049 13.2715L8.42072 11.3496L7.74689 10.0019C7.6597 9.82755 7.66902 9.62048 7.77151 9.45464C7.874 9.28881 8.05505 9.18787 8.25 9.18787H9.75C9.94495 9.18787 10.126 9.28881 10.2285 9.45464C10.331 9.62048 10.3403 9.82755 10.2531 10.0019L9.57928 11.3496L9.81952 13.2715L11.486 9.52192C11.5763 9.31878 11.7777 9.18787 12 9.18787L12.039 9.18787C12.7129 9.18785 13.2748 9.18783 13.7209 9.2478C14.1917 9.3111 14.6168 9.45036 14.9584 9.79196C15.3 10.1336 15.4393 10.5587 15.5026 11.0295C15.5625 11.4756 15.5625 12.0375 15.5625 12.7114V16.5004C15.5625 16.811 15.3107 17.0629 15 17.0629C14.6893 17.0629 14.4375 16.811 14.4375 16.5004V12.7504C14.4375 12.0274 14.4363 11.5417 14.3876 11.1794C14.3411 10.8333 14.2607 10.6852 14.1629 10.5875C14.0652 10.4897 13.9171 10.4093 13.571 10.3628C13.2734 10.3228 12.8926 10.3148 12.3654 10.3132L9.51402 16.7288C9.42374 16.932 9.2223 17.0629 9 17.0629C8.77771 17.0629 8.57627 16.932 8.48598 16.7288L5.63462 10.3132C5.10742 10.3148 4.72661 10.3228 4.42905 10.3628C4.08295 10.4093 3.93483 10.4897 3.83709 10.5875C3.73935 10.6852 3.65894 10.8333 3.6124 11.1794C3.5637 11.5417 3.5625 12.0274 3.5625 12.7504L3.5625 16.5004C3.5625 16.811 3.31066 17.0629 3 17.0629C2.68934 17.0629 2.4375 16.811 2.4375 16.5004L2.4375 12.7114C2.43748 12.0375 2.43746 11.4756 2.49744 11.0295C2.56074 10.5587 2.69999 10.1336 3.04159 9.79196C3.3832 9.45036 3.8083 9.3111 4.27914 9.2478C4.72523 9.18783 5.28714 9.18785 5.961 9.18787Z" fill="#F8F9F9"/>
<path fill-rule="evenodd" clip-rule="evenodd" d="M9 0.937866C7.23959 0.937866 5.8125 2.36496 5.8125 4.12537V4.87537C5.8125 6.63577 7.23959 8.06287 9 8.06287C10.7604 8.06287 12.1875 6.63577 12.1875 4.87537L12.1875 4.12537C12.1875 2.36496 10.7604 0.937866 9 0.937866ZM6.9375 4.12537C6.9375 2.98628 7.86091 2.06287 9 2.06287C10.1391 2.06287 11.0625 2.98628 11.0625 4.12537L11.0625 4.87537C11.0625 6.01445 10.1391 6.93787 9 6.93787C7.86091 6.93787 6.9375 6.01445 6.9375 4.87537V4.12537Z" fill="#F8F9F9"/>
</svg>
