<svg width="38" height="40" viewBox="0 0 38 40" fill="none" xmlns="http://www.w3.org/2000/svg">
<path d="M37.8644 30.5459C38.564 29.0427 39.0264 27.4106 39.2035 25.6995L27.6713 28.0769V23.5067L37.864 21.4071C38.5636 19.9039 39.026 18.2718 39.2032 16.5607L27.671 18.9361V2.50008C25.9039 3.46179 24.3346 4.74194 23.0589 6.25194V19.8866L18.4467 20.8368V0.264648C16.6797 1.22602 15.1103 2.5065 13.8346 4.01651V21.7867L3.51498 23.9123C2.8154 25.4155 2.35262 27.0476 2.17511 28.7587L13.8346 26.357V32.1124L1.33917 34.6862C0.639594 36.1894 0.177161 37.8215 0 39.5326L13.0792 36.8385C14.144 36.6238 15.0591 36.0136 15.654 35.174L18.0527 31.727V31.7263C18.3017 31.3697 18.4467 30.9397 18.4467 30.4766V25.4068L23.0589 24.4565V33.597L37.864 30.5452L37.8644 30.5459Z" fill="white"/>
</svg>
