<svg width="18" height="18" viewBox="0 0 18 18" fill="none" xmlns="http://www.w3.org/2000/svg">
<path opacity="0.4" d="M12.0581 2.57182C11.6006 2.42932 11.1206 2.33935 10.6256 2.30185C9.55311 2.23435 8.43558 2.23435 7.37058 2.30185C4.23558 2.51185 1.73063 5.04685 1.52813 8.22685C1.49062 8.84935 1.49062 9.49436 1.52813 10.1169C1.60313 11.2794 2.11308 12.3518 2.72058 13.2518C3.07308 13.8893 2.8406 14.6843 2.4731 15.3743C2.2106 15.8693 2.07557 16.1169 2.18057 16.3044C2.29307 16.4844 2.5256 16.4843 2.9981 16.4993C3.9281 16.5218 4.5581 16.2593 5.0606 15.8843C5.3456 15.6818 5.4881 15.5768 5.5856 15.5618C5.6831 15.5468 5.87063 15.6293 6.25313 15.7868C6.59813 15.9293 7.00308 16.0194 7.37058 16.0419C8.43558 16.1169 9.55311 16.1169 10.6256 16.0419C13.7606 15.8319 16.2656 13.2969 16.4681 10.1169C16.5056 9.49436 16.5056 8.84935 16.4681 8.22685C16.4606 8.09185 16.4456 7.95682 16.4306 7.82182C16.3931 7.88932 16.3331 7.9643 16.2581 8.0318C15.8906 8.3768 15.4856 8.62433 14.9681 8.62433H12.0281C11.5106 8.62433 11.1056 8.3768 10.7381 8.0318C10.0556 7.3943 10.9931 6.87685 11.5331 6.57685C11.5856 6.54685 11.6456 6.50933 11.6906 6.48683C12.7931 5.83433 14.2031 5.83433 15.3056 6.48683C15.3506 6.50933 15.4106 6.54685 15.4631 6.57685C15.7331 6.72685 16.0931 6.9293 16.3106 7.1693C16.0256 5.9618 15.4106 4.88935 14.5556 4.06435C14.2856 4.33435 13.9106 4.49933 13.4981 4.49933C12.6731 4.49933 11.9981 3.82433 11.9981 2.99933C11.9981 2.84933 12.0206 2.70682 12.0581 2.57182Z" fill="#F8F9F9"/>
<path fill-rule="evenodd" clip-rule="evenodd" d="M13.4979 5.0625C12.3609 5.0625 11.4354 4.137 11.4354 3C11.4354 1.863 12.3609 0.9375 13.4979 0.9375C14.6349 0.9375 15.5604 1.863 15.5604 3C15.5604 4.137 14.6349 5.0625 13.4979 5.0625ZM13.4979 2.0625C12.9811 2.0625 12.5604 2.48325 12.5604 3C12.5604 3.51675 12.9811 3.9375 13.4979 3.9375C14.0146 3.9375 14.4354 3.51675 14.4354 3C14.4354 2.48325 14.0146 2.0625 13.4979 2.0625Z" fill="#F8F9F9"/>
<path d="M2.98526 17.0625C3.02801 17.064 3.07075 17.064 3.1135 17.064C4.00825 17.064 4.73721 16.8323 5.39946 16.3403L5.48419 16.2798C5.54986 16.233 5.61473 16.1868 5.66577 16.1528C5.74002 16.1813 5.84129 16.2218 5.94029 16.2623L6.05352 16.308C6.45327 16.473 6.91454 16.578 7.34653 16.6042C8.43629 16.6807 9.59123 16.6807 10.6862 16.6042C13.9682 16.3837 16.6473 13.8465 17.0568 10.5705C17.0958 10.2623 16.8768 9.98102 16.5685 9.94277C16.2595 9.90227 15.979 10.1228 15.9408 10.431C15.598 13.1738 13.3563 15.2977 10.6098 15.4822C9.56427 15.5557 8.46325 15.5557 7.42 15.4822C7.1035 15.4635 6.77049 15.387 6.47949 15.267L6.36399 15.2205C5.95449 15.054 5.74823 14.9707 5.50823 15.0075C5.28548 15.042 5.12125 15.1582 4.795 15.3907L4.74321 15.4275C4.73946 15.4298 4.73649 15.432 4.73274 15.435C4.24374 15.7995 3.7135 15.954 3.01675 15.9382L2.96196 15.9368L2.81878 15.9322C2.86603 15.837 2.92224 15.7305 2.97024 15.6405C3.52824 14.5928 3.61001 13.698 3.21326 12.981C3.20576 12.9675 3.19824 12.954 3.18924 12.9412C2.51799 11.934 2.14828 10.9717 2.09053 10.0845C2.05453 9.48825 2.05453 8.85751 2.09053 8.26501C2.28178 5.37601 4.57447 3.05478 7.42747 2.86428C7.78747 2.83803 8.18575 2.82148 8.64475 2.81323H9.38948C9.69998 2.81323 9.95198 2.56123 9.95198 2.25073C9.95198 1.94023 9.69998 1.68823 9.38948 1.68823H8.62974C8.14749 1.69648 7.72821 1.71373 7.34946 1.74148C5.68971 1.85173 4.12898 2.56726 2.95523 3.75601C1.78448 4.94176 1.07873 6.51675 0.967727 8.19375C0.928727 8.84325 0.928727 9.50172 0.967727 10.1542C1.03823 11.2365 1.46574 12.3765 2.23899 13.542C2.47299 13.9935 2.22697 14.643 1.97722 15.1118C1.66597 15.6983 1.44174 16.122 1.69824 16.5803L1.70279 16.5885C1.96079 17.031 2.40849 17.0453 2.92674 17.061L2.98526 17.0625Z" fill="#F8F9F9"/>
<path fill-rule="evenodd" clip-rule="evenodd" d="M12.0279 9.18747H14.9679C15.7584 9.18747 16.3022 8.7622 16.6412 8.4442C17.0357 8.07745 17.0829 7.70621 17.0529 7.45946C16.9697 6.77305 16.2329 6.3622 15.7447 6.08994L15.7434 6.08925L15.7373 6.08587C15.6827 6.0557 15.6331 6.02829 15.5919 6.0037C14.3199 5.25145 12.6766 5.25145 11.4046 6.0037C11.3729 6.02196 11.3374 6.04178 11.2991 6.06313L11.2511 6.08994C10.7629 6.3622 10.026 6.77305 9.94286 7.45946C9.91361 7.70621 9.96017 8.07674 10.3532 8.44274C10.6937 8.76224 11.2374 9.18747 12.0279 9.18747ZM11.1211 7.62074C11.1016 7.60199 11.0874 7.58623 11.0769 7.57423H11.0777C11.1918 7.41169 11.6401 7.16167 11.7986 7.07327L11.8068 7.0687C11.8692 7.03387 11.9266 7.00185 11.9761 6.97196H11.9777C12.9017 6.42521 14.0956 6.4252 15.0211 6.9727C15.0705 7.00173 15.1276 7.03359 15.1896 7.06825L15.1959 7.07172C15.3526 7.15872 15.8049 7.41073 15.9196 7.57423C15.9091 7.58698 15.8941 7.60271 15.8731 7.62221C15.5446 7.93046 15.2739 8.06247 14.9679 8.06247H12.0279C11.7219 8.06247 11.4519 7.93049 11.1211 7.62074Z" fill="#F8F9F9"/>
<path d="M6.37286 11.8125H11.6229C11.9334 11.8125 12.1854 11.5605 12.1854 11.25C12.1854 10.9395 11.9334 10.6875 11.6229 10.6875H6.37286C6.06236 10.6875 5.81036 10.9395 5.81036 11.25C5.81036 11.5605 6.06236 11.8125 6.37286 11.8125Z" fill="#F8F9F9"/>
<path d="M6.37286 8.0625H7.87286C8.18336 8.0625 8.43536 7.8105 8.43536 7.5C8.43536 7.1895 8.18336 6.9375 7.87286 6.9375H6.37286C6.06236 6.9375 5.81036 7.1895 5.81036 7.5C5.81036 7.8105 6.06236 8.0625 6.37286 8.0625Z" fill="#F8F9F9"/>
</svg>
