<svg width="18" height="18" viewBox="0 0 18 18" fill="none" xmlns="http://www.w3.org/2000/svg">
<path opacity="0.4" d="M16.9163 10.732C15.9166 11.2658 14.7748 11.5684 13.5623 11.5684C9.62394 11.5684 6.43127 8.37574 6.43127 4.43739C6.43127 3.22489 6.73389 2.08308 7.2677 1.08334C3.72272 1.91416 1.08301 5.09595 1.08301 8.89428C1.08301 13.3249 4.67476 16.9167 9.10541 16.9167C12.9037 16.9167 16.0855 14.277 16.9163 10.732Z" fill="url(#paint0_linear_601_2549)"/>
<path fill-rule="evenodd" clip-rule="evenodd" d="M7.76325 0.702475C7.91282 0.89708 7.93464 1.16121 7.81903 1.37772C7.3324 2.28909 7.05627 3.33006 7.05627 4.43738C7.05627 8.03056 9.96912 10.9434 13.5623 10.9434C14.6696 10.9434 15.7106 10.6673 16.622 10.1807C16.8385 10.065 17.1026 10.0869 17.2972 10.2364C17.4918 10.386 17.5809 10.6356 17.5249 10.8746C16.6293 14.6958 13.2005 17.5417 9.10541 17.5417C4.32958 17.5417 0.458008 13.6701 0.458008 8.89427C0.458008 4.79922 3.30389 1.37038 7.12509 0.474827C7.36406 0.418821 7.61368 0.507869 7.76325 0.702475ZM6.16333 2.10485C3.54155 3.24251 1.70801 5.85484 1.70801 8.89427C1.70801 12.9797 5.01994 16.2917 9.10541 16.2917C12.1448 16.2917 14.7572 14.4581 15.8948 11.8364C15.1582 12.0684 14.3745 12.1934 13.5623 12.1934C9.27876 12.1934 5.80627 8.72092 5.80627 4.43738C5.80627 3.62516 5.93132 2.84144 6.16333 2.10485Z" fill="url(#paint1_linear_601_2549)"/>
<defs>
<linearGradient id="paint0_linear_601_2549" x1="1.08276" y1="16.9166" x2="16.9161" y2="1.08315" gradientUnits="userSpaceOnUse">
<stop stop-color="#12120F"/>
<stop offset="1" stop-color="#2E3238"/>
</linearGradient>
<linearGradient id="paint1_linear_601_2549" x1="0.457742" y1="17.5416" x2="17.5412" y2="0.458105" gradientUnits="userSpaceOnUse">
<stop stop-color="#12120F"/>
<stop offset="1" stop-color="#2E3238"/>
</linearGradient>
</defs>
</svg>
