<svg width="18" height="19" viewBox="0 0 18 19" fill="none" xmlns="http://www.w3.org/2000/svg">
<g opacity="0.4">
<path d="M9.00146 10.25C7.58111 10.25 1.50146 7.50633 1.50146 6.5C1.50146 5.49366 7.58111 2.75 9.00146 2.75C10.4218 2.75 16.5015 5.49366 16.5015 6.5C16.5015 7.50633 10.4218 10.25 9.00146 10.25Z" fill="#F8F9F9"/>
<path d="M15.0444 13.5548C15.1783 13.3039 15.2981 13.0792 15.3765 12.8809C15.4548 13.0792 15.5747 13.3039 15.7086 13.5548C15.9697 14.0443 16.2842 14.6336 16.4479 15.323C16.6264 16.0746 16.3613 16.2505 15.613 16.2505H15.1399C14.3916 16.2505 14.1265 16.0746 14.305 15.323C14.4688 14.6336 14.7832 14.0442 15.0444 13.5548Z" fill="#F8F9F9"/>
</g>
<path fill-rule="evenodd" clip-rule="evenodd" d="M8.12146 2.32482C8.43489 2.24485 8.74006 2.1875 8.98956 2.1875C9.23907 2.1875 9.54424 2.24485 9.85767 2.32482C10.1811 2.40733 10.5518 2.52421 10.9464 2.66435C11.7362 2.94479 12.6464 3.32712 13.5092 3.74029C14.3695 4.15226 15.1998 4.60302 15.8228 5.02313C16.1323 5.2318 16.4097 5.44557 16.6162 5.65519C16.7195 5.76007 16.8183 5.87711 16.8941 6.00459C16.9677 6.12844 17.0416 6.29896 17.0416 6.5C17.0416 6.70104 16.9677 6.87156 16.8941 6.99541C16.8183 7.12289 16.7195 7.23993 16.6162 7.34481C16.431 7.5328 16.1888 7.72413 15.9175 7.91213V12.7363C16.4701 13.7908 16.7803 14.4349 17.0225 15.3571C17.0265 15.3724 17.0299 15.3878 17.0326 15.4033C17.0679 15.6058 17.0863 15.8417 17.0089 16.0756C16.9244 16.3308 16.7555 16.4995 16.5822 16.619C16.3582 16.7734 16.1114 16.8125 15.9195 16.8125H14.7791C14.5996 16.8125 14.3657 16.7787 14.1485 16.6377C13.9592 16.5147 13.7827 16.34 13.6978 16.0758C13.6218 15.8391 13.6439 15.6009 13.677 15.4059C13.6803 15.3868 13.6845 15.3679 13.6897 15.3492C13.9611 14.3736 14.2337 13.7604 14.7925 12.7316V8.60058C14.5554 8.73203 14.307 8.8632 14.0525 8.99217L13.8779 12.9969C13.8733 13.1024 13.861 13.2401 13.8169 13.3857C13.7139 13.7256 13.5135 14.0697 13.1774 14.3105C12.675 14.6705 12.0083 14.9167 11.3 15.0748C10.5843 15.2345 9.7887 15.3125 9.00001 15.3125C8.21132 15.3125 7.41576 15.2345 6.70006 15.0748C5.99168 14.9167 5.32501 14.6705 4.82266 14.3105C4.48654 14.0697 4.28607 13.7256 4.18312 13.3857C4.13903 13.2401 4.12673 13.1024 4.12213 12.9969L3.948 9.00298C3.27907 8.66486 2.65208 8.31116 2.15631 7.97686C1.84685 7.7682 1.56941 7.55442 1.36292 7.34481C1.2596 7.23993 1.16082 7.12289 1.08503 6.99541C1.0114 6.87156 0.9375 6.70104 0.9375 6.5C0.9375 6.29896 1.0114 6.12844 1.08503 6.00459C1.16082 5.87711 1.2596 5.76007 1.36292 5.65519C1.56941 5.44557 1.84685 5.2318 2.15631 5.02313C2.77935 4.60302 3.60963 4.15226 4.46995 3.74029C5.33277 3.32712 6.24297 2.94479 7.03271 2.66435C7.42737 2.52421 7.79803 2.40733 8.12146 2.32482ZM10.9464 10.3356C11.5527 10.1203 12.2301 9.84497 12.9025 9.54169L12.754 12.9479C12.7512 13.0116 12.7452 13.0431 12.7402 13.0596C12.6915 13.2204 12.6124 13.3313 12.5221 13.3961C12.1902 13.6339 11.6859 13.836 11.0549 13.9768C10.4313 14.116 9.71906 14.1875 9.00001 14.1875C8.28096 14.1875 7.56877 14.116 6.9451 13.9768C6.31412 13.836 5.80982 13.6339 5.47796 13.3961C5.3876 13.3313 5.30853 13.2204 5.25982 13.0596C5.25483 13.0431 5.24884 13.0116 5.24606 12.9479L5.09798 9.5513C5.76335 9.85078 6.43279 10.1226 7.03271 10.3356C7.42737 10.4758 7.79803 10.5927 8.12146 10.6752C8.43489 10.7551 8.74006 10.8125 8.98956 10.8125C9.23907 10.8125 9.54424 10.7551 9.85767 10.6752C10.1811 10.5927 10.5518 10.4758 10.9464 10.3356ZM2.11272 6.5C2.12711 6.4836 2.1442 6.46516 2.16436 6.44469C2.29543 6.31164 2.50338 6.14596 2.78526 5.95589C3.34489 5.57854 4.12106 5.15469 4.95583 4.75496C5.7881 4.35642 6.66165 3.98994 7.40917 3.72449C7.78315 3.59169 8.1195 3.48636 8.39958 3.4149C8.68965 3.34089 8.88448 3.3125 8.98956 3.3125C9.09465 3.3125 9.28948 3.34089 9.57955 3.4149C9.85963 3.48636 10.196 3.59169 10.57 3.72449C11.3175 3.98994 12.191 4.35642 13.0233 4.75496C13.8581 5.15469 14.6342 5.57854 15.1939 5.95589C15.4757 6.14596 15.6837 6.31164 15.8148 6.44469C15.8349 6.46516 15.852 6.4836 15.8664 6.5C15.852 6.5164 15.8349 6.53484 15.8148 6.55531C15.6837 6.68836 15.4757 6.85404 15.1939 7.04411C14.6342 7.42146 13.8581 7.84531 13.0233 8.24504C12.191 8.64358 11.3175 9.01006 10.57 9.27551C10.196 9.40831 9.85963 9.51365 9.57955 9.5851C9.28948 9.65911 9.09465 9.6875 8.98956 9.6875C8.88448 9.6875 8.68965 9.65911 8.39958 9.5851C8.1195 9.51365 7.78315 9.40831 7.40917 9.27551C6.66165 9.01006 5.7881 8.64358 4.95583 8.24504C4.12106 7.84531 3.34489 7.42146 2.78526 7.04411C2.50338 6.85404 2.29543 6.68836 2.16436 6.55531C2.1442 6.53484 2.12711 6.5164 2.11272 6.5ZM14.7818 15.621C14.9428 15.0469 15.1015 14.6183 15.3501 14.1013C15.6175 14.6531 15.7851 15.0806 15.928 15.6185C15.9324 15.6467 15.9351 15.6693 15.9365 15.687C15.9316 15.6873 15.9259 15.6875 15.9195 15.6875H14.7791L14.7736 15.6875C14.7751 15.6696 14.7777 15.6478 14.7818 15.621Z" fill="#F8F9F9"/>
</svg>
