<svg width="24" height="24" viewBox="0 0 24 24" fill="none" xmlns="http://www.w3.org/2000/svg">
<g opacity="0.4">
<path d="M4.28571 1.25C3.12113 1.25 2.22979 1.56916 1.72393 2.40181C1.2861 3.12249 1.25 4.08766 1.25 5C1.25 5.91234 1.2861 6.87751 1.72393 7.59819C2.22979 8.43084 3.12113 8.75 4.28571 8.75H7.71429C8.87887 8.75 9.77021 8.43084 10.2761 7.59819C10.7139 6.87751 10.75 5.91234 10.75 5C10.75 4.08766 10.7139 3.12249 10.2761 2.40181C9.77021 1.56916 8.87887 1.25 7.71429 1.25H4.28571Z" fill="url(#paint0_linear_797_4461)"/>
<path d="M15.3516 16.25C14.8275 16.2499 14.3585 16.2499 13.9793 16.303C13.5636 16.3612 13.1473 16.4958 12.8104 16.8467C12.4777 17.1934 12.3541 17.6143 12.3001 18.0324C12.2499 18.4212 12.25 18.9042 12.25 19.4539V19.546C12.25 20.0958 12.2499 20.5788 12.3001 20.9676C12.3541 21.3857 12.4777 21.8066 12.8104 22.1533C13.1473 22.5042 13.5636 22.6388 13.9793 22.697C14.3585 22.7501 14.8275 22.7501 15.3516 22.75H16.6484C17.1725 22.7501 17.6415 22.7501 18.0208 22.697C18.4364 22.6388 18.8527 22.5042 19.1896 22.1533C19.5224 21.8066 19.6459 21.3857 19.6999 20.9676C19.7501 20.5788 19.75 20.0958 19.75 19.546V19.454C19.75 18.9042 19.7501 18.4212 19.6999 18.0324C19.6459 17.6143 19.5224 17.1934 19.1896 16.8467C18.8527 16.4958 18.4364 16.3612 18.0208 16.303C17.6415 16.2499 17.1725 16.2499 16.6484 16.25H15.3516Z" fill="url(#paint1_linear_797_4461)"/>
</g>
<path d="M21.0823 4.52876C20.4385 4.15708 19.6454 4.15708 19.0016 4.52876C18.7614 4.66742 18.5476 4.88185 18.3122 5.11785L15.3627 8.06742C14.9387 8.49143 14.7427 9.00154 14.628 9.45104C14.5707 9.67544 14.53 9.90012 14.4953 10.1013C14.4386 10.3661 14.2683 11.2448 14.2538 11.4736C14.2376 11.728 14.2612 12.1156 14.5728 12.4272C14.8844 12.7388 15.2719 12.7623 15.5263 12.7461C15.7551 12.7316 16.6339 12.5614 16.8986 12.5047C17.0998 12.4699 17.3245 12.4292 17.5489 12.372C17.9984 12.2572 18.5085 12.0613 18.9325 11.6372L21.8821 8.68776C22.1181 8.45236 22.3325 8.23849 22.4712 7.99831C22.8428 7.35455 22.8428 6.5614 22.4712 5.91763C22.3325 5.67746 22.0629 5.40846 21.8269 5.17306C21.5915 4.93706 21.3225 4.66742 21.0823 4.52876Z" fill="url(#paint2_linear_797_4461)"/>
<path d="M5 13.5706L5 8.75H7V10.5H11.5C12.0523 10.5 12.5 10.9477 12.5 11.5C12.5 12.0523 12.0523 12.5 11.5 12.5H7V13.5C7 14.9425 7.00213 15.9237 7.10092 16.6586C7.19585 17.3646 7.36322 17.6916 7.58579 17.9142C7.80836 18.1368 8.13538 18.3042 8.84144 18.3991C9.57626 18.4979 10.5575 18.5 12 18.5H12.2625C12.25 18.7868 12.25 19.1071 12.25 19.454V19.546C12.25 19.8929 12.25 20.2132 12.2625 20.5L11.9294 20.5C10.5753 20.5 9.4587 20.5001 8.57494 20.3812C7.64711 20.2565 6.82769 19.9845 6.17158 19.3284C5.51547 18.6723 5.2435 17.8529 5.11876 16.9251C4.99994 16.0413 4.99997 14.9247 5 13.5706Z" fill="url(#paint3_linear_797_4461)"/>
<defs>
<linearGradient id="paint0_linear_797_4461" x1="1.24971" y1="22.7499" x2="22.5093" y2="4.45671" gradientUnits="userSpaceOnUse">
<stop stop-color="white"/>
<stop offset="1" stop-color="#2E3238"/>
</linearGradient>
<linearGradient id="paint1_linear_797_4461" x1="1.24971" y1="22.7499" x2="22.5093" y2="4.45671" gradientUnits="userSpaceOnUse">
<stop stop-color="white"/>
<stop offset="1" stop-color="#2E3238"/>
</linearGradient>
<linearGradient id="paint2_linear_797_4461" x1="4.99972" y1="20.4999" x2="21.1866" y2="2.81883" gradientUnits="userSpaceOnUse">
<stop stop-color="white"/>
<stop offset="1" stop-color="#2E3238"/>
</linearGradient>
<linearGradient id="paint3_linear_797_4461" x1="4.99972" y1="20.4999" x2="21.1866" y2="2.81883" gradientUnits="userSpaceOnUse">
<stop stop-color="white"/>
<stop offset="1" stop-color="#2E3238"/>
</linearGradient>
</defs>
</svg>
