<svg width="56" height="57" viewBox="0 0 56 57" fill="none" xmlns="http://www.w3.org/2000/svg">
<path fill-rule="evenodd" clip-rule="evenodd" d="M39.6665 3.06299C32.3313 3.06299 26.2499 8.77172 26.2499 15.9742C26.2499 19.4239 27.657 22.5481 29.925 24.8512C29.9843 25.0848 29.9127 25.8251 29.1516 26.9175C28.7621 27.3966 28.6539 28.0455 28.8669 28.625C29.0799 29.2046 29.5825 29.629 30.1895 29.742C32.2677 30.1285 34.8487 29.5531 36.6903 28.5737C37.5407 28.7334 38.8004 28.8863 39.6665 28.8853C47.0017 28.8853 53.0832 23.1766 53.0832 15.9742C53.0832 8.77172 47.0017 3.06299 39.6665 3.06299ZM36.1483 14.7297C35.1818 14.7297 34.3983 15.5132 34.3983 16.4797C34.3983 17.4462 35.1818 18.2297 36.1483 18.2297H36.1672C37.1337 18.2297 37.9172 17.4462 37.9172 16.4797C37.9172 15.5132 37.1337 14.7297 36.1672 14.7297H36.1483ZM43.1483 14.7297C42.1818 14.7297 41.3983 15.5132 41.3983 16.4797C41.3983 17.4462 42.1818 18.2297 43.1483 18.2297H43.1672C44.1337 18.2297 44.9172 17.4462 44.9172 16.4797C44.9172 15.5132 44.1337 14.7297 43.1672 14.7297H43.1483Z" fill="white"/>
<g opacity="0.4">
<path d="M17.4999 20.563C12.9896 20.563 9.33322 24.2193 9.33322 28.7297C9.33322 33.24 12.9896 36.8963 17.4999 36.8963C22.0102 36.8963 25.6666 33.24 25.6666 28.7297C25.6666 24.2193 22.0102 20.563 17.4999 20.563Z" fill="white"/>
<path d="M26.0736 41.3896C20.8189 38.5097 14.1821 38.5097 8.92744 41.3896C7.92086 41.9112 5.71883 43.0565 4.58997 44.0735C3.89394 44.7006 3.0905 45.6449 2.94109 46.903C2.77591 48.294 3.45991 49.4904 4.52956 50.4284C6.27557 51.9595 8.42384 53.2297 11.2134 53.2297H23.7876C26.5772 53.2297 28.7254 51.9595 30.4715 50.4284C31.5411 49.4904 32.2251 48.294 32.0599 46.903C31.9105 45.6449 31.1071 44.7006 30.411 44.0735C29.2822 43.0565 27.0802 41.9112 26.0736 41.3896Z" fill="white"/>
</g>
</svg>
