<svg width="56" height="57" viewBox="0 0 56 57" fill="none" xmlns="http://www.w3.org/2000/svg">
<path opacity="0.4" d="M33.8212 8.30043C36.0968 6.02481 39.2048 5.08753 42.16 5.4846C42.8195 5.57322 43.3717 6.02826 43.5848 6.65871C43.7979 7.28915 43.6349 7.98589 43.1644 8.45645L39.6666 11.9542V16.4793H44.1917L47.6895 12.9816C48.16 12.511 48.8568 12.3481 49.4872 12.5611C50.1177 12.7742 50.5727 13.3264 50.6613 13.986C51.0584 16.9412 50.1211 20.0491 47.8455 22.3247C45.2761 24.8941 41.6499 25.7568 38.3719 24.9201L24.7742 38.5178C25.6109 41.7957 24.7482 45.422 22.1788 47.9914C19.9032 50.267 16.7953 51.2043 13.8401 50.8072C13.1805 50.7186 12.6283 50.2635 12.4153 49.6331C12.2022 49.0027 12.3651 48.3059 12.8357 47.8354L16.3335 44.3376V39.8125H11.8083L8.31058 43.3102C7.84001 43.7808 7.14328 43.9437 6.51283 43.7307C5.88239 43.5176 5.42735 42.9654 5.33873 42.3058C4.94166 39.3507 5.87893 36.2427 8.15455 33.9671C10.7258 31.3958 14.3555 30.5338 17.6354 31.3735L31.2277 17.7813C30.3879 14.5014 31.2499 10.8717 33.8212 8.30043Z" fill="white"/>
<path d="M17.4709 14.3167L26.0815 22.9273L22.7817 26.2272L14.1711 17.6166L12.9044 18.8833C12.5066 19.2811 11.9419 19.4634 11.3866 19.3733C10.8313 19.2832 10.3532 18.9316 10.1017 18.4285L6.60167 11.4285C6.26481 10.7548 6.39685 9.94108 6.92948 9.40844L9.26281 7.07511C9.79544 6.54248 10.6091 6.41044 11.2829 6.7473L18.2829 10.2473C18.786 10.4989 19.1375 10.977 19.2277 11.5322C19.3178 12.0875 19.1355 12.6522 18.7377 13.05L17.4709 14.3167Z" fill="white"/>
<path d="M39.3651 48.2928L27.1822 36.1099L35.9643 27.3278L48.1472 39.5107C50.0622 41.4257 50.0622 44.5305 48.1472 46.4455L46.2998 48.2928C44.3848 50.2078 41.28 50.2078 39.3651 48.2928Z" fill="white"/>
</svg>
