<svg width="24" height="24" viewBox="0 0 24 24" fill="none" xmlns="http://www.w3.org/2000/svg">
<g opacity="0.4">
<path d="M6.82077 5.4079C6.77203 5.3291 6.67718 5.31484 6.48748 5.28631C6.32848 5.26239 6.16572 5.25 6.00006 5.25C4.20514 5.25 2.75006 6.70507 2.75006 8.5C2.75006 10.2949 4.20514 11.75 6.00006 11.75C6.54326 11.75 7.05533 11.6167 7.50536 11.3811C7.67515 11.2922 7.76005 11.2478 7.7804 11.1575C7.80075 11.0672 7.73471 10.9795 7.60265 10.804C6.91038 9.88407 6.50006 8.73995 6.50006 7.5C6.50006 6.90695 6.59392 6.33583 6.7676 5.80068C6.83553 5.59136 6.8695 5.48671 6.82077 5.4079Z" fill="url(#paint0_linear_797_2287)"/>
<path d="M6.72814 13.5902C6.93491 13.4624 7.21627 13.3013 7.50337 13.1474C7.88193 12.9445 8.0712 12.843 8.05406 12.7067C8.03691 12.5704 7.84296 12.5225 7.45505 12.4269C5.8097 12.0212 4.04765 12.3131 2.57023 13.3028C2.51514 13.3397 2.44345 13.3851 2.35981 13.4381C1.96834 13.6859 1.31466 14.0998 0.871177 14.5881C0.59019 14.8975 0.30924 15.3207 0.258175 15.8463C0.203787 16.4061 0.423078 16.9294 0.847642 17.3844C1.41543 17.993 2.10732 18.5511 3.13114 18.7069C3.37042 18.7434 3.49006 18.7616 3.56186 18.6871C3.63366 18.6127 3.60678 18.4708 3.55304 18.1871C3.49934 17.9035 3.48451 17.605 3.51733 17.2933C3.6236 16.2837 4.19456 15.5497 4.62889 15.1082C5.30191 14.4241 6.23354 13.8794 6.72814 13.5902Z" fill="url(#paint1_linear_797_2287)"/>
<path d="M16.2202 11.1575C16.1998 11.0672 16.2659 10.9795 16.3979 10.804C17.0902 9.88407 17.5005 8.73995 17.5005 7.5C17.5005 6.90695 17.4066 6.33583 17.233 5.80068C17.165 5.59136 17.1311 5.48671 17.1798 5.4079C17.2285 5.3291 17.3234 5.31484 17.5131 5.28631C17.6721 5.26239 17.8348 5.25 18.0005 5.25C19.7954 5.25 21.2505 6.70507 21.2505 8.5C21.2505 10.2949 19.7954 11.75 18.0005 11.75C17.4573 11.75 16.9452 11.6167 16.4952 11.3811C16.3254 11.2922 16.2405 11.2478 16.2202 11.1575Z" fill="url(#paint2_linear_797_2287)"/>
<path d="M17.2723 13.5902C17.0655 13.4624 16.7842 13.3013 16.4971 13.1474C16.1185 12.9445 15.9292 12.843 15.9464 12.7067C15.9635 12.5704 16.1575 12.5225 16.5454 12.4269C18.1907 12.0212 19.9528 12.3131 21.4302 13.3028C21.4853 13.3397 21.557 13.3851 21.6406 13.4381C22.0321 13.6859 22.6858 14.0998 23.1293 14.5881C23.4102 14.8975 23.6912 15.3207 23.7423 15.8463C23.7967 16.4061 23.5774 16.9294 23.1528 17.3844C22.585 17.993 21.8931 18.5511 20.8693 18.7069C20.63 18.7434 20.5104 18.7616 20.4386 18.6871C20.3668 18.6127 20.3937 18.4708 20.4474 18.1871C20.5011 17.9035 20.5159 17.605 20.4831 17.2933C20.3768 16.2837 19.8059 15.5497 19.3715 15.1082C18.6985 14.4241 17.7669 13.8794 17.2723 13.5902Z" fill="url(#paint3_linear_797_2287)"/>
</g>
<path d="M12.002 3.25C9.65474 3.25 7.75195 5.15279 7.75195 7.5C7.75195 9.84721 9.65474 11.75 12.002 11.75C14.3492 11.75 16.252 9.84721 16.252 7.5C16.252 5.15279 14.3492 3.25 12.002 3.25Z" fill="url(#paint4_linear_797_2287)"/>
<path d="M16.3127 14.4733C13.675 12.8422 10.3292 12.8422 7.69146 14.4733C7.6137 14.5214 7.51521 14.579 7.40204 14.6452C6.88977 14.945 6.07655 15.4208 5.52165 15.9849C5.17313 16.3391 4.82553 16.8221 4.76215 17.4242C4.69435 18.0683 4.96775 18.6646 5.48932 19.1806C6.35094 20.033 7.41827 20.75 8.81773 20.75H15.1865C16.5859 20.75 17.6533 20.033 18.5149 19.1806C19.0365 18.6646 19.3099 18.0683 19.242 17.4242C19.1787 16.8221 18.8311 16.3391 18.4826 15.9849C17.9276 15.4208 17.1145 14.945 16.6022 14.6452C16.4891 14.579 16.3905 14.5214 16.3127 14.4733Z" fill="url(#paint5_linear_797_2287)"/>
<defs>
<linearGradient id="paint0_linear_797_2287" x1="0.249634" y1="18.7385" x2="11.8968" y2="-1.55367" gradientUnits="userSpaceOnUse">
<stop stop-color="white"/>
<stop offset="1" stop-color="#2E3238"/>
</linearGradient>
<linearGradient id="paint1_linear_797_2287" x1="0.249634" y1="18.7385" x2="11.8968" y2="-1.55367" gradientUnits="userSpaceOnUse">
<stop stop-color="white"/>
<stop offset="1" stop-color="#2E3238"/>
</linearGradient>
<linearGradient id="paint2_linear_797_2287" x1="0.249634" y1="18.7385" x2="11.8968" y2="-1.55367" gradientUnits="userSpaceOnUse">
<stop stop-color="white"/>
<stop offset="1" stop-color="#2E3238"/>
</linearGradient>
<linearGradient id="paint3_linear_797_2287" x1="0.249634" y1="18.7385" x2="11.8968" y2="-1.55367" gradientUnits="userSpaceOnUse">
<stop stop-color="white"/>
<stop offset="1" stop-color="#2E3238"/>
</linearGradient>
<linearGradient id="paint4_linear_797_2287" x1="4.75173" y1="20.7499" x2="21.9469" y2="6.50212" gradientUnits="userSpaceOnUse">
<stop stop-color="white"/>
<stop offset="1" stop-color="#2E3238"/>
</linearGradient>
<linearGradient id="paint5_linear_797_2287" x1="4.75173" y1="20.7499" x2="21.9469" y2="6.50212" gradientUnits="userSpaceOnUse">
<stop stop-color="white"/>
<stop offset="1" stop-color="#2E3238"/>
</linearGradient>
</defs>
</svg>
