<svg width="56" height="57" viewBox="0 0 56 57" fill="none" xmlns="http://www.w3.org/2000/svg">
<path d="M37.3987 32.2705C38.6249 31.6671 40.1275 31.0625 41.9984 31.0625C43.8693 31.0625 45.3724 31.6671 46.599 32.2702C47.0153 32.4751 47.3756 32.6639 47.7032 32.8356C48.427 33.215 48.9907 33.5104 49.6461 33.709C50.0654 33.8361 50.5034 33.9687 50.8088 34.0823C51.0706 34.1798 51.5807 34.377 51.9776 34.7958C52.3274 35.1652 52.4928 35.5698 52.5871 35.8836C52.665 36.1426 52.7306 36.4894 52.7768 36.733C54.0776 43.5848 51.2123 50.2098 44.1826 52.7667C43.5454 52.9989 42.9128 53.2292 42.0017 53.2292C41.0905 53.2292 40.4579 52.9989 39.8205 52.7667C32.7911 50.2101 29.9227 43.5855 31.2233 36.733C31.2695 36.4894 31.3351 36.1429 31.4128 35.8839C31.507 35.57 31.6725 35.1654 32.0222 34.7961C32.4191 34.3772 32.929 34.1801 33.191 34.0825C33.4964 33.9689 33.9342 33.8361 34.3537 33.709C35.0087 33.5104 35.5717 33.2152 36.295 32.8358C36.6224 32.6641 36.9824 32.4753 37.3987 32.2705Z" fill="white"/>
<g opacity="0.4">
<path d="M13.4167 15.3125C13.4167 8.547 18.9012 3.0625 25.6667 3.0625C32.4322 3.0625 37.9167 8.547 37.9167 15.3125C37.9167 22.078 32.4322 27.5625 25.6667 27.5625C18.9012 27.5625 13.4167 22.078 13.4167 15.3125Z" fill="white"/>
<path d="M30.7936 50.3852C31.8309 51.7647 32.3497 52.4547 32.1564 52.8418C31.9629 53.2292 31.1675 53.2292 29.5769 53.2292H15.3791C11.1364 53.2292 7.85623 51.1422 5.12285 48.5382C3.53849 47.0288 2.74873 45.3299 2.94662 43.5197C3.13268 41.8173 4.15622 40.4278 5.23345 39.3734C6.95582 37.6875 9.47029 36.2689 11.1335 35.3306C11.5129 35.1167 11.8482 34.9274 12.1194 34.766C15.1641 32.953 18.5056 31.8071 21.9227 31.325C24.4051 30.975 26.9293 30.975 29.4115 31.325C29.8221 31.3831 29.9453 31.9345 29.6478 32.2233C29.5925 32.2768 29.5379 32.3321 29.4838 32.3892C28.6207 33.3006 28.245 34.272 28.0635 34.8768C27.9305 35.3191 27.8353 35.8253 27.7942 36.0438L27.787 36.0822C26.8184 41.1873 27.7905 46.3918 30.7921 50.3832L30.7936 50.3852Z" fill="white"/>
</g>
</svg>
