<svg width="18" height="18" viewBox="0 0 18 18" fill="none" xmlns="http://www.w3.org/2000/svg">
<g opacity="0.4">
<path d="M7.27055 2.71475C8.11206 1.89948 8.53282 1.49184 9.04752 1.5C9.56222 1.50815 9.96985 1.92891 10.7851 2.77043C11.6004 3.61194 12.008 4.0327 11.9999 4.5474C11.9917 5.0621 11.571 5.46973 10.7295 6.285C9.88794 7.10028 9.46718 7.50791 8.95248 7.49976C8.43778 7.49161 8.03015 7.07085 7.21488 6.22933C6.39961 5.38782 5.99197 4.96706 6.00012 4.45236C6.00827 3.93766 6.42903 3.53002 7.27055 2.71475Z" fill="#F8F9F9"/>
<path d="M5.25 10.1249C5.25 11.1604 4.41053 11.9999 3.375 11.9999C2.33947 11.9999 1.5 11.1604 1.5 10.1249C1.5 9.08934 2.33947 8.24988 3.375 8.24988C4.41053 8.24988 5.25 9.08934 5.25 10.1249Z" fill="#F8F9F9"/>
<path d="M14.625 8.24988C15.6605 8.24988 16.5 9.08934 16.5 10.1249C16.5 11.1604 15.6605 11.9999 14.625 11.9999C13.5895 11.9999 12.75 11.1604 12.75 10.1249C12.75 9.08934 13.5895 8.24988 14.625 8.24988Z" fill="#F8F9F9"/>
</g>
<path fill-rule="evenodd" clip-rule="evenodd" d="M7.94752 1.34604C8.27287 1.10587 8.62666 0.930762 9.05643 0.93757C9.4862 0.944377 9.83427 1.1306 10.1519 1.38096C10.4499 1.61589 10.7777 1.95431 11.1629 2.35192L11.2154 2.40615C11.6006 2.80371 11.9285 3.1421 12.1538 3.44739C12.394 3.77274 12.5691 4.12654 12.5623 4.55631C12.5555 4.98607 12.3693 5.33415 12.1189 5.65173C11.9698 5.84087 11.779 6.04203 11.5579 6.26224L13.3455 8.04983C13.7174 7.82001 14.1557 7.68738 14.625 7.68738C15.9712 7.68738 17.0625 8.77868 17.0625 10.1249C17.0625 11.4711 15.9712 12.5624 14.625 12.5624C13.2788 12.5624 12.1875 11.4711 12.1875 10.1249C12.1875 9.65557 12.3201 9.21724 12.55 8.84533L10.7505 7.0459C10.4957 7.28834 10.266 7.49609 10.0525 7.65371C9.89734 7.76824 9.73573 7.86797 9.5625 7.94024V12.1898C9.77492 12.1935 9.96829 12.2026 10.1375 12.2253C10.445 12.2667 10.7554 12.362 11.0091 12.6157C11.2629 12.8695 11.3582 13.1799 11.3995 13.4874C11.4376 13.7703 11.4375 14.1206 11.4375 14.5146V14.7351C11.4375 15.1291 11.4376 15.4795 11.3995 15.7624C11.3582 16.0698 11.2629 16.3803 11.0091 16.634C10.7554 16.8878 10.445 16.9831 10.1375 17.0244C9.85463 17.0624 9.50425 17.0624 9.11025 17.0624H8.88978C8.49578 17.0624 8.14538 17.0624 7.86251 17.0244C7.55505 16.9831 7.2446 16.8878 6.99086 16.634C6.73713 16.3803 6.64181 16.0698 6.60047 15.7624C6.56244 15.4795 6.56247 15.1291 6.5625 14.7351V14.5147C6.56247 14.1206 6.56244 13.7703 6.60047 13.4874C6.64181 13.1799 6.73713 12.8695 6.99086 12.6157C7.2446 12.362 7.55505 12.2667 7.86251 12.2253C8.03172 12.2026 8.22509 12.1935 8.4375 12.1898V7.96571C8.22438 7.8861 8.0312 7.7631 7.84815 7.6188C7.65901 7.46969 7.45785 7.27889 7.23764 7.05773L5.45005 8.84533C5.67987 9.21724 5.8125 9.65557 5.8125 10.1249C5.8125 11.4711 4.72119 12.5624 3.375 12.5624C2.02881 12.5624 0.9375 11.4711 0.9375 10.1249C0.9375 8.77868 2.02881 7.68738 3.375 7.68738C3.84431 7.68738 4.28264 7.82001 4.65455 8.04983L6.45398 6.2504C6.21154 5.99559 6.00379 5.76588 5.84617 5.55237C5.60599 5.22702 5.43088 4.87322 5.43769 4.44345C5.4445 4.01368 5.63072 3.66561 5.88108 3.34803C6.11601 3.05002 6.45442 2.7222 6.85203 2.33703L6.90626 2.28449C7.30384 1.89928 7.64222 1.57142 7.94752 1.34604ZM8.61567 2.25114C8.37845 2.42626 8.09413 2.70005 7.66195 3.11875C7.22977 3.53745 6.94711 3.81296 6.76456 4.04451C6.59213 4.26324 6.5639 4.37634 6.56255 4.46127C6.56121 4.5462 6.58584 4.66013 6.75126 4.88421C6.92638 5.12143 7.20017 5.40575 7.61887 5.83793C8.03757 6.27011 8.31308 6.55277 8.54464 6.73532C8.76337 6.90775 8.87646 6.93598 8.96139 6.93733C9.04632 6.93868 9.16025 6.91404 9.38434 6.74862C9.62155 6.5735 9.90588 6.29971 10.3381 5.88101C10.7702 5.46231 11.0529 5.1868 11.2354 4.95524C11.4079 4.73651 11.4361 4.62342 11.4375 4.53849C11.4388 4.45356 11.4142 4.33963 11.2487 4.11555C11.0736 3.87833 10.7998 3.594 10.3811 3.16182C9.96243 2.72965 9.68692 2.44698 9.45537 2.26444C9.23664 2.09201 9.12354 2.06377 9.03861 2.06243C8.95368 2.06108 8.83975 2.08572 8.61567 2.25114ZM3.375 8.81238C2.65013 8.81238 2.0625 9.4 2.0625 10.1249C2.0625 10.8498 2.65013 11.4374 3.375 11.4374C4.09987 11.4374 4.6875 10.8498 4.6875 10.1249C4.6875 9.4 4.09987 8.81238 3.375 8.81238ZM13.3125 10.1249C13.3125 10.8498 13.9001 11.4374 14.625 11.4374C15.3499 11.4374 15.9375 10.8498 15.9375 10.1249C15.9375 9.4 15.3499 8.81238 14.625 8.81238C13.9001 8.81238 13.3125 9.4 13.3125 10.1249ZM7.78636 13.4112L7.7869 13.4107C7.79744 13.4001 7.8329 13.3645 8.01241 13.3403C8.2113 13.3136 8.48484 13.3124 8.925 13.3124H9.075C9.51517 13.3124 9.78871 13.3136 9.9876 13.3403C10.1671 13.3645 10.2026 13.4001 10.2131 13.4107L10.2137 13.4112L10.2142 13.4118C10.2248 13.4223 10.2604 13.4578 10.2846 13.6373C10.3113 13.8362 10.3125 14.1097 10.3125 14.5499V14.6999C10.3125 15.14 10.3113 15.4136 10.2846 15.6125C10.2604 15.792 10.2248 15.8274 10.2142 15.838L10.2137 15.8385L10.2131 15.8391C10.2026 15.8497 10.1671 15.8853 9.9876 15.9094C9.78871 15.9362 9.51517 15.9374 9.075 15.9374H8.925C8.48484 15.9374 8.2113 15.9362 8.01241 15.9094C7.8329 15.8853 7.79744 15.8497 7.7869 15.8391L7.78636 15.8385L7.78581 15.838C7.77521 15.8274 7.73957 15.792 7.71544 15.6125C7.6887 15.4136 7.6875 15.14 7.6875 14.6999V14.5499C7.6875 14.1097 7.6887 13.8362 7.71544 13.6373C7.73957 13.4578 7.77521 13.4223 7.78581 13.4118L7.78636 13.4112Z" fill="#F8F9F9"/>
</svg>
