<svg width="24" height="25" viewBox="0 0 24 25" fill="none" xmlns="http://www.w3.org/2000/svg">
<path fill-rule="evenodd" clip-rule="evenodd" d="M6.69662 3.41773C8.3556 3.07956 10.1413 2.896 11.9999 2.896C13.8585 2.896 15.6441 3.07956 17.3031 3.41773L17.4304 3.44365C19.325 3.82929 20.5874 4.08624 21.6753 5.48492C22.7515 6.86858 22.7509 8.47319 22.7499 10.9584V13.3336C22.7509 15.8188 22.7515 17.4234 21.6753 18.8071C20.5874 20.2058 19.325 20.4627 17.4304 20.8483L17.3031 20.8743C15.6441 21.2124 13.8585 21.396 11.9999 21.396C10.1413 21.396 8.3556 21.2124 6.69662 20.8743L6.56934 20.8483C4.67471 20.4627 3.41231 20.2058 2.32445 18.8071C1.24828 17.4234 1.24888 15.8188 1.24981 13.3336L1.24981 10.9584C1.24888 8.47319 1.24828 6.86858 2.32445 5.48491C3.41231 4.08624 4.67471 3.82929 6.56934 3.44365L6.69662 3.41773ZM11.2944 8.39824C11.8129 8.61586 12.4428 8.96763 13.2129 9.39772C13.3143 9.45434 13.4162 9.51057 13.5181 9.56687C14.0215 9.84478 14.5279 10.1243 14.9948 10.46C15.4143 10.7617 15.8125 11.1356 15.9443 11.6809C16.0183 11.987 16.0183 12.305 15.9443 12.6111C15.8125 13.1564 15.4143 13.5302 14.9948 13.832C14.5278 14.1677 14.0215 14.4473 13.518 14.7252C13.4161 14.7815 13.3143 14.8377 13.2129 14.8943C12.4428 15.3244 11.8129 15.6761 11.2944 15.8938C10.4514 16.2475 9.55747 16.2762 8.82276 15.6742C8.36292 15.2974 8.20037 14.7579 8.12905 14.2143C7.95669 12.9004 7.95662 11.3922 8.12905 10.0777C8.20037 9.53406 8.36291 8.99458 8.82276 8.61781C9.55747 8.01583 10.4514 8.04445 11.2944 8.39824Z" fill="white"/>
</svg>
